<svg width="556" height="272" viewBox="0 0 556 272" fill="none" xmlns="http://www.w3.org/2000/svg">
<rect width="556" height="272" rx="8" fill="white"/>
<path d="M24.132 35L27.336 26.06H28.728L31.932 35H30.672L29.94 32.9H26.124L25.392 35H24.132ZM26.496 31.82H29.568L27.864 26.912H28.2L26.496 31.82ZM35.6921 35.144C35.0601 35.144 34.4961 34.996 34.0001 34.7C33.5121 34.404 33.1281 34 32.8481 33.488C32.5681 32.976 32.4281 32.4 32.4281 31.76C32.4281 31.112 32.5681 30.536 32.8481 30.032C33.1281 29.528 33.5121 29.128 34.0001 28.832C34.4961 28.536 35.0601 28.388 35.6921 28.388C36.1161 28.388 36.5121 28.464 36.8801 28.616C37.2481 28.768 37.5721 28.972 37.8521 29.228C38.1321 29.484 38.3361 29.784 38.4641 30.128L37.4681 30.608C37.3161 30.272 37.0841 30 36.7721 29.792C36.4601 29.576 36.1001 29.468 35.6921 29.468C35.3001 29.468 34.9441 29.568 34.6241 29.768C34.3121 29.968 34.0641 30.24 33.8801 30.584C33.6961 30.928 33.6041 31.324 33.6041 31.772C33.6041 32.204 33.6961 32.596 33.8801 32.948C34.0641 33.292 34.3121 33.564 34.6241 33.764C34.9441 33.964 35.3001 34.064 35.6921 34.064C36.1001 34.064 36.4601 33.96 36.7721 33.752C37.0841 33.536 37.3161 33.252 37.4681 32.9L38.4641 33.404C38.3361 33.74 38.1321 34.04 37.8521 34.304C37.5721 34.56 37.2481 34.764 36.8801 34.916C36.5121 35.068 36.1161 35.144 35.6921 35.144ZM42.5506 35.072C41.9186 35.072 41.4306 34.892 41.0866 34.532C40.7506 34.172 40.5826 33.664 40.5826 33.008V29.6H39.4066V28.532H39.6466C39.9346 28.532 40.1626 28.444 40.3306 28.268C40.4986 28.092 40.5826 27.86 40.5826 27.572V27.044H41.6986V28.532H43.1506V29.6H41.6986V32.972C41.6986 33.188 41.7306 33.376 41.7946 33.536C41.8666 33.696 41.9826 33.824 42.1426 33.92C42.3026 34.008 42.5146 34.052 42.7786 34.052C42.8346 34.052 42.9026 34.048 42.9826 34.04C43.0706 34.032 43.1506 34.024 43.2226 34.016V35C43.1186 35.024 43.0026 35.04 42.8746 35.048C42.7466 35.064 42.6386 35.072 42.5506 35.072ZM44.6804 35V28.532H45.7964V35H44.6804ZM44.6804 27.5V26.06H45.7964V27.5H44.6804ZM49.3281 35L46.7961 28.532H48.0441L50.0721 34.004H49.6401L51.6801 28.532H52.9281L50.3841 35H49.3281ZM56.7853 35.144C56.1613 35.144 55.6053 34.996 55.1173 34.7C54.6293 34.404 54.2453 34 53.9653 33.488C53.6853 32.968 53.5453 32.388 53.5453 31.748C53.5453 31.1 53.6813 30.524 53.9533 30.02C54.2333 29.516 54.6093 29.12 55.0813 28.832C55.5613 28.536 56.0973 28.388 56.6893 28.388C57.1693 28.388 57.5933 28.476 57.9613 28.652C58.3373 28.82 58.6533 29.052 58.9093 29.348C59.1733 29.636 59.3733 29.968 59.5093 30.344C59.6533 30.712 59.7253 31.096 59.7253 31.496C59.7253 31.584 59.7173 31.684 59.7013 31.796C59.6933 31.9 59.6813 32 59.6653 32.096H54.3613V31.136H59.0173L58.4893 31.568C58.5613 31.152 58.5213 30.78 58.3693 30.452C58.2173 30.124 57.9933 29.864 57.6973 29.672C57.4013 29.48 57.0653 29.384 56.6893 29.384C56.3133 29.384 55.9693 29.48 55.6573 29.672C55.3453 29.864 55.1013 30.14 54.9253 30.5C54.7573 30.852 54.6893 31.272 54.7213 31.76C54.6893 32.232 54.7613 32.648 54.9373 33.008C55.1213 33.36 55.3773 33.636 55.7053 33.836C56.0413 34.028 56.4053 34.124 56.7973 34.124C57.2293 34.124 57.5933 34.024 57.8893 33.824C58.1853 33.624 58.4253 33.368 58.6093 33.056L59.5453 33.536C59.4173 33.832 59.2173 34.104 58.9453 34.352C58.6813 34.592 58.3653 34.784 57.9973 34.928C57.6373 35.072 57.2333 35.144 56.7853 35.144ZM66.6266 35.144C65.9786 35.144 65.4026 35.008 64.8986 34.736C64.4026 34.464 64.0146 34.092 63.7346 33.62C63.4626 33.14 63.3266 32.596 63.3266 31.988V26.06H64.5146V31.964C64.5146 32.372 64.6026 32.736 64.7786 33.056C64.9626 33.368 65.2106 33.612 65.5226 33.788C65.8426 33.964 66.2106 34.052 66.6266 34.052C67.0426 34.052 67.4066 33.964 67.7186 33.788C68.0386 33.612 68.2866 33.368 68.4626 33.056C68.6466 32.736 68.7386 32.372 68.7386 31.964V26.06H69.9266V31.988C69.9266 32.596 69.7866 33.14 69.5066 33.62C69.2346 34.092 68.8506 34.464 68.3546 34.736C67.8586 35.008 67.2826 35.144 66.6266 35.144ZM74.0433 35.144C73.3953 35.144 72.8313 34.984 72.3513 34.664C71.8713 34.344 71.5313 33.912 71.3313 33.368L72.2193 32.936C72.4033 33.32 72.6553 33.624 72.9753 33.848C73.2953 34.072 73.6513 34.184 74.0433 34.184C74.3953 34.184 74.6873 34.1 74.9193 33.932C75.1513 33.764 75.2673 33.544 75.2673 33.272C75.2673 33.08 75.2113 32.928 75.0993 32.816C74.9953 32.696 74.8673 32.604 74.7153 32.54C74.5633 32.468 74.4233 32.416 74.2953 32.384L73.3233 32.108C72.7393 31.94 72.3113 31.7 72.0393 31.388C71.7753 31.076 71.6433 30.712 71.6433 30.296C71.6433 29.912 71.7393 29.58 71.9313 29.3C72.1313 29.012 72.3993 28.788 72.7353 28.628C73.0793 28.468 73.4633 28.388 73.8873 28.388C74.4553 28.388 74.9633 28.532 75.4113 28.82C75.8673 29.108 76.1913 29.512 76.3833 30.032L75.4713 30.452C75.3273 30.116 75.1113 29.852 74.8233 29.66C74.5353 29.46 74.2113 29.36 73.8513 29.36C73.5233 29.36 73.2633 29.444 73.0713 29.612C72.8793 29.772 72.7833 29.976 72.7833 30.224C72.7833 30.408 72.8313 30.56 72.9273 30.68C73.0233 30.792 73.1393 30.88 73.2753 30.944C73.4113 31 73.5433 31.048 73.6713 31.088L74.7273 31.4C75.2553 31.552 75.6633 31.788 75.9513 32.108C76.2473 32.428 76.3953 32.812 76.3953 33.26C76.3953 33.62 76.2953 33.944 76.0953 34.232C75.8953 34.52 75.6193 34.744 75.2673 34.904C74.9153 35.064 74.5073 35.144 74.0433 35.144ZM80.8322 35.144C80.2082 35.144 79.6522 34.996 79.1642 34.7C78.6762 34.404 78.2922 34 78.0122 33.488C77.7322 32.968 77.5922 32.388 77.5922 31.748C77.5922 31.1 77.7282 30.524 78.0002 30.02C78.2802 29.516 78.6562 29.12 79.1282 28.832C79.6082 28.536 80.1442 28.388 80.7362 28.388C81.2162 28.388 81.6402 28.476 82.0082 28.652C82.3842 28.82 82.7002 29.052 82.9562 29.348C83.2202 29.636 83.4202 29.968 83.5562 30.344C83.7002 30.712 83.7722 31.096 83.7722 31.496C83.7722 31.584 83.7642 31.684 83.7482 31.796C83.7402 31.9 83.7282 32 83.7122 32.096H78.4082V31.136H83.0642L82.5362 31.568C82.6082 31.152 82.5682 30.78 82.4162 30.452C82.2642 30.124 82.0402 29.864 81.7442 29.672C81.4482 29.48 81.1122 29.384 80.7362 29.384C80.3602 29.384 80.0162 29.48 79.7042 29.672C79.3922 29.864 79.1482 30.14 78.9722 30.5C78.8042 30.852 78.7362 31.272 78.7682 31.76C78.7362 32.232 78.8082 32.648 78.9842 33.008C79.1682 33.36 79.4242 33.636 79.7522 33.836C80.0882 34.028 80.4522 34.124 80.8442 34.124C81.2762 34.124 81.6402 34.024 81.9362 33.824C82.2322 33.624 82.4722 33.368 82.6562 33.056L83.5922 33.536C83.4642 33.832 83.2642 34.104 82.9922 34.352C82.7282 34.592 82.4122 34.784 82.0442 34.928C81.6842 35.072 81.2802 35.144 80.8322 35.144ZM85.2273 35V28.532H86.3193V29.72L86.1993 29.552C86.3513 29.184 86.5833 28.912 86.8953 28.736C87.2073 28.552 87.5873 28.46 88.0353 28.46H88.4313V29.516H87.8673C87.4113 29.516 87.0433 29.66 86.7633 29.948C86.4833 30.228 86.3433 30.628 86.3433 31.148V35H85.2273ZM91.7386 35.144C91.0906 35.144 90.5266 34.984 90.0466 34.664C89.5666 34.344 89.2266 33.912 89.0266 33.368L89.9146 32.936C90.0986 33.32 90.3506 33.624 90.6706 33.848C90.9906 34.072 91.3466 34.184 91.7386 34.184C92.0906 34.184 92.3826 34.1 92.6146 33.932C92.8466 33.764 92.9626 33.544 92.9626 33.272C92.9626 33.08 92.9066 32.928 92.7946 32.816C92.6906 32.696 92.5626 32.604 92.4106 32.54C92.2586 32.468 92.1186 32.416 91.9906 32.384L91.0186 32.108C90.4346 31.94 90.0066 31.7 89.7346 31.388C89.4706 31.076 89.3386 30.712 89.3386 30.296C89.3386 29.912 89.4346 29.58 89.6266 29.3C89.8266 29.012 90.0946 28.788 90.4306 28.628C90.7746 28.468 91.1586 28.388 91.5826 28.388C92.1506 28.388 92.6586 28.532 93.1066 28.82C93.5626 29.108 93.8866 29.512 94.0786 30.032L93.1666 30.452C93.0226 30.116 92.8066 29.852 92.5186 29.66C92.2306 29.46 91.9066 29.36 91.5466 29.36C91.2186 29.36 90.9586 29.444 90.7666 29.612C90.5746 29.772 90.4786 29.976 90.4786 30.224C90.4786 30.408 90.5266 30.56 90.6226 30.68C90.7186 30.792 90.8346 30.88 90.9706 30.944C91.1066 31 91.2386 31.048 91.3666 31.088L92.4226 31.4C92.9506 31.552 93.3586 31.788 93.6466 32.108C93.9426 32.428 94.0906 32.812 94.0906 33.26C94.0906 33.62 93.9906 33.944 93.7906 34.232C93.5906 34.52 93.3146 34.744 92.9626 34.904C92.6106 35.064 92.2026 35.144 91.7386 35.144Z" fill="#4A5154"/>
<path d="M28.224 70V54.52H24.792V52.12H31.032V70H28.224ZM40.5744 70.288C39.6304 70.288 38.7424 70.12 37.9104 69.784C37.0784 69.432 36.3584 68.944 35.7504 68.32C35.1424 67.696 34.7104 66.944 34.4544 66.064L36.8304 65.152C37.1344 66 37.6304 66.648 38.3184 67.096C39.0064 67.544 39.7584 67.768 40.5744 67.768C41.2464 67.768 41.8384 67.616 42.3504 67.312C42.8624 67.008 43.2624 66.592 43.5504 66.064C43.8544 65.536 44.0064 64.936 44.0064 64.264C44.0064 63.576 43.8544 62.976 43.5504 62.464C43.2624 61.936 42.8624 61.528 42.3504 61.24C41.8384 60.936 41.2464 60.784 40.5744 60.784C39.9024 60.784 39.2864 60.936 38.7264 61.24C38.1664 61.544 37.7584 61.952 37.5024 62.464L35.2224 61.96L36.6144 52.12H46.1424V54.52H37.7184L38.7984 53.344L37.7664 60.88L36.8784 60.28C37.3584 59.608 37.9424 59.12 38.6304 58.816C39.3184 58.512 40.1024 58.36 40.9824 58.36C42.1504 58.36 43.1664 58.624 44.0304 59.152C44.9104 59.664 45.5904 60.368 46.0704 61.264C46.5664 62.144 46.8144 63.144 46.8144 64.264C46.8144 65.4 46.5424 66.424 45.9984 67.336C45.4544 68.248 44.7104 68.968 43.7664 69.496C42.8384 70.024 41.7744 70.288 40.5744 70.288ZM49.9641 70L57.5961 54.52H49.0041V52.12H60.5481V54.52L53.0361 70H49.9641ZM62.4206 73.528V72.208C62.9486 72.08 63.3566 71.832 63.6446 71.464C63.9326 71.112 64.1086 70.624 64.1726 70H62.9006V66.88H65.6606V68.92C65.6606 70.2 65.3886 71.232 64.8446 72.016C64.3006 72.8 63.4926 73.304 62.4206 73.528ZM75.0476 70.288C74.0876 70.288 73.1836 70.112 72.3356 69.76C71.5036 69.408 70.7836 68.912 70.1756 68.272C69.5836 67.632 69.1596 66.88 68.9036 66.016L71.3036 65.104C71.6236 65.952 72.1116 66.608 72.7676 67.072C73.4236 67.536 74.1836 67.768 75.0476 67.768C75.7516 67.768 76.3596 67.632 76.8716 67.36C77.3996 67.088 77.8076 66.704 78.0956 66.208C78.3996 65.712 78.5516 65.112 78.5516 64.408C78.5516 63.72 78.3996 63.128 78.0956 62.632C77.8076 62.136 77.3996 61.76 76.8716 61.504C76.3596 61.248 75.7516 61.12 75.0476 61.12C74.7596 61.12 74.4636 61.144 74.1596 61.192C73.8716 61.24 73.6156 61.304 73.3916 61.384L72.7676 60.064L77.4716 54.52H69.8636V52.12H80.6396V54.4L76.0316 59.92L75.9596 59.008C77.0316 59.024 77.9756 59.264 78.7916 59.728C79.6076 60.176 80.2396 60.8 80.6876 61.6C81.1516 62.384 81.3836 63.296 81.3836 64.336C81.3836 65.456 81.1116 66.472 80.5676 67.384C80.0236 68.28 79.2716 68.992 78.3116 69.52C77.3676 70.032 76.2796 70.288 75.0476 70.288ZM89.9115 70.288C88.7435 70.288 87.7035 70.032 86.7915 69.52C85.8795 69.008 85.1595 68.304 84.6315 67.408C84.1195 66.512 83.8635 65.496 83.8635 64.36C83.8635 63.768 83.9275 63.176 84.0555 62.584C84.1835 61.992 84.4075 61.376 84.7275 60.736C85.0635 60.096 85.5115 59.408 86.0715 58.672L91.0635 52.12H94.4475L88.3275 60.04L87.8475 59.728C88.0715 59.472 88.3115 59.272 88.5675 59.128C88.8395 58.984 89.1195 58.88 89.4075 58.816C89.7115 58.752 90.0315 58.72 90.3675 58.72C91.4395 58.72 92.3995 58.968 93.2475 59.464C94.0955 59.96 94.7595 60.632 95.2395 61.48C95.7355 62.328 95.9835 63.304 95.9835 64.408C95.9835 65.528 95.7195 66.536 95.1915 67.432C94.6635 68.312 93.9435 69.008 93.0315 69.52C92.1355 70.032 91.0955 70.288 89.9115 70.288ZM89.9115 67.768C90.5355 67.768 91.0875 67.624 91.5675 67.336C92.0475 67.048 92.4315 66.656 92.7195 66.16C93.0075 65.648 93.1515 65.072 93.1515 64.432C93.1515 63.776 93.0075 63.2 92.7195 62.704C92.4475 62.208 92.0635 61.824 91.5675 61.552C91.0875 61.264 90.5355 61.12 89.9115 61.12C89.3035 61.12 88.7515 61.264 88.2555 61.552C87.7755 61.824 87.3915 62.208 87.1035 62.704C86.8155 63.2 86.6715 63.776 86.6715 64.432C86.6715 65.072 86.8155 65.648 87.1035 66.16C87.3915 66.656 87.7755 67.048 88.2555 67.336C88.7515 67.624 89.3035 67.768 89.9115 67.768ZM98.9016 70L106.534 54.52H97.9416V52.12H109.486V54.52L101.974 70H98.9016Z" fill="#191B1C"/>
<path d="M421.53 34.5303C421.237 34.8232 420.763 34.8232 420.47 34.5303C420.177 34.2374 420.177 33.7626 420.47 33.4697L424.47 29.4697C424.763 29.1768 425.237 29.1768 425.53 29.4697L429.53 33.4697C429.823 33.7626 429.823 34.2374 429.53 34.5303C429.237 34.8232 428.763 34.8232 428.47 34.5303L425.75 31.8107L425.75 41.5C425.75 41.9142 425.414 42.25 425 42.25C424.586 42.25 424.25 41.9142 424.25 41.5L424.25 31.8107L421.53 34.5303Z" fill="#0AAF60"/>
<path d="M441.214 42.168C440.542 42.168 439.945 42.0187 439.422 41.72C438.909 41.4213 438.503 41.0153 438.204 40.502C437.905 39.9793 437.756 39.3867 437.756 38.724C437.756 38.36 437.798 38.0007 437.882 37.646C437.966 37.2913 438.101 36.932 438.288 36.568C438.475 36.204 438.713 35.826 439.002 35.434L441.942 31.57H443.594L439.996 36.246L439.744 36.218C439.884 36.0313 440.038 35.8867 440.206 35.784C440.383 35.6813 440.57 35.6067 440.766 35.56C440.971 35.5133 441.186 35.49 441.41 35.49C442.026 35.49 442.577 35.6347 443.062 35.924C443.557 36.204 443.944 36.5913 444.224 37.086C444.513 37.5807 444.658 38.15 444.658 38.794C444.658 39.438 444.509 40.0167 444.21 40.53C443.911 41.034 443.501 41.4353 442.978 41.734C442.465 42.0233 441.877 42.168 441.214 42.168ZM441.214 40.936C441.606 40.936 441.956 40.8473 442.264 40.67C442.572 40.4833 442.815 40.2267 442.992 39.9C443.179 39.5733 443.272 39.2093 443.272 38.808C443.272 38.388 443.183 38.024 443.006 37.716C442.829 37.3987 442.586 37.1467 442.278 36.96C441.97 36.7733 441.615 36.68 441.214 36.68C440.822 36.68 440.467 36.7733 440.15 36.96C439.833 37.1467 439.585 37.3987 439.408 37.716C439.231 38.024 439.142 38.388 439.142 38.808C439.142 39.2093 439.231 39.5733 439.408 39.9C439.595 40.2267 439.842 40.4833 440.15 40.67C440.467 40.8473 440.822 40.936 441.214 40.936ZM446.921 42V40.32H448.279V42H446.921ZM450.902 42L455.48 32.76H450.37V31.57H456.922V32.76L452.386 42H450.902ZM459.496 42L468.008 31.57H469.562L461.05 42H459.496ZM461.064 36.862C460.551 36.862 460.089 36.7407 459.678 36.498C459.267 36.246 458.936 35.9147 458.684 35.504C458.441 35.0933 458.32 34.636 458.32 34.132C458.32 33.628 458.441 33.1707 458.684 32.76C458.936 32.34 459.267 32.0087 459.678 31.766C460.089 31.5233 460.551 31.402 461.064 31.402C461.568 31.402 462.025 31.5233 462.436 31.766C462.847 32.0087 463.173 32.34 463.416 32.76C463.659 33.1707 463.78 33.628 463.78 34.132C463.78 34.636 463.659 35.0933 463.416 35.504C463.173 35.9147 462.847 36.246 462.436 36.498C462.025 36.7407 461.568 36.862 461.064 36.862ZM461.05 35.714C461.367 35.714 461.638 35.6393 461.862 35.49C462.086 35.3407 462.263 35.1447 462.394 34.902C462.525 34.6593 462.59 34.4027 462.59 34.132C462.59 33.852 462.525 33.5953 462.394 33.362C462.263 33.1193 462.086 32.9233 461.862 32.774C461.638 32.6153 461.367 32.536 461.05 32.536C460.751 32.536 460.485 32.6153 460.252 32.774C460.019 32.9233 459.837 33.1193 459.706 33.362C459.575 33.6047 459.51 33.8613 459.51 34.132C459.51 34.3933 459.575 34.65 459.706 34.902C459.837 35.1447 460.019 35.3407 460.252 35.49C460.485 35.6393 460.751 35.714 461.05 35.714ZM467.91 42.168C467.397 42.168 466.935 42.0467 466.524 41.804C466.113 41.552 465.782 41.2207 465.53 40.81C465.287 40.3993 465.166 39.942 465.166 39.438C465.166 38.934 465.287 38.4767 465.53 38.066C465.782 37.646 466.113 37.3147 466.524 37.072C466.935 36.8293 467.397 36.708 467.91 36.708C468.414 36.708 468.871 36.8293 469.282 37.072C469.693 37.3147 470.019 37.646 470.262 38.066C470.505 38.4767 470.626 38.934 470.626 39.438C470.626 39.942 470.505 40.3993 470.262 40.81C470.019 41.2207 469.693 41.552 469.282 41.804C468.871 42.0467 468.414 42.168 467.91 42.168ZM467.91 41.02C468.218 41.02 468.484 40.9453 468.708 40.796C468.941 40.6467 469.119 40.4507 469.24 40.208C469.371 39.9653 469.436 39.7087 469.436 39.438C469.436 39.158 469.371 38.9013 469.24 38.668C469.119 38.4253 468.941 38.2293 468.708 38.08C468.484 37.9213 468.218 37.842 467.91 37.842C467.611 37.842 467.341 37.9213 467.098 38.08C466.865 38.2293 466.683 38.4253 466.552 38.668C466.421 38.9107 466.356 39.1673 466.356 39.438C466.356 39.6993 466.421 39.956 466.552 40.208C466.683 40.4507 466.865 40.6467 467.098 40.796C467.341 40.9453 467.611 41.02 467.91 41.02ZM475.049 42V31.57H476.421V42H475.049ZM478.586 42V34.454H479.86V35.924L479.65 35.798C479.837 35.322 480.135 34.9533 480.546 34.692C480.966 34.4213 481.456 34.286 482.016 34.286C482.557 34.286 483.038 34.4073 483.458 34.65C483.887 34.8927 484.223 35.2287 484.466 35.658C484.718 36.0873 484.844 36.5727 484.844 37.114V42H483.528V37.534C483.528 37.114 483.453 36.7593 483.304 36.47C483.155 36.1807 482.94 35.9567 482.66 35.798C482.389 35.63 482.077 35.546 481.722 35.546C481.367 35.546 481.05 35.63 480.77 35.798C480.499 35.9567 480.285 36.1853 480.126 36.484C479.967 36.7733 479.888 37.1233 479.888 37.534V42H478.586ZM490.207 42.168C489.47 42.168 488.812 41.9953 488.233 41.65C487.664 41.3047 487.216 40.8333 486.889 40.236C486.563 39.6387 486.399 38.9667 486.399 38.22C486.399 37.464 486.563 36.792 486.889 36.204C487.216 35.616 487.664 35.1493 488.233 34.804C488.812 34.4587 489.47 34.286 490.207 34.286C490.702 34.286 491.164 34.3747 491.593 34.552C492.023 34.7293 492.401 34.9673 492.727 35.266C493.054 35.5647 493.292 35.9147 493.441 36.316L492.279 36.876C492.102 36.484 491.831 36.1667 491.467 35.924C491.103 35.672 490.683 35.546 490.207 35.546C489.75 35.546 489.335 35.6627 488.961 35.896C488.597 36.1293 488.308 36.4467 488.093 36.848C487.879 37.2493 487.771 37.7113 487.771 38.234C487.771 38.738 487.879 39.1953 488.093 39.606C488.308 40.0073 488.597 40.3247 488.961 40.558C489.335 40.7913 489.75 40.908 490.207 40.908C490.683 40.908 491.103 40.7867 491.467 40.544C491.831 40.292 492.102 39.9607 492.279 39.55L493.441 40.138C493.292 40.53 493.054 40.88 492.727 41.188C492.401 41.4867 492.023 41.7247 491.593 41.902C491.164 42.0793 490.702 42.168 490.207 42.168ZM495.143 42V34.454H496.417V35.84L496.277 35.644C496.454 35.2147 496.725 34.8973 497.089 34.692C497.453 34.4773 497.896 34.37 498.419 34.37H498.881V35.602H498.223C497.691 35.602 497.261 35.77 496.935 36.106C496.608 36.4327 496.445 36.8993 496.445 37.506V42H495.143ZM503.509 42.168C502.781 42.168 502.133 41.9953 501.563 41.65C500.994 41.3047 500.546 40.8333 500.219 40.236C499.893 39.6293 499.729 38.9527 499.729 38.206C499.729 37.45 499.888 36.778 500.205 36.19C500.532 35.602 500.971 35.14 501.521 34.804C502.081 34.4587 502.707 34.286 503.397 34.286C503.957 34.286 504.452 34.3887 504.881 34.594C505.32 34.79 505.689 35.0607 505.987 35.406C506.295 35.742 506.529 36.1293 506.687 36.568C506.855 36.9973 506.939 37.4453 506.939 37.912C506.939 38.0147 506.93 38.1313 506.911 38.262C506.902 38.3833 506.888 38.5 506.869 38.612H500.681V37.492H506.113L505.497 37.996C505.581 37.5107 505.535 37.0767 505.357 36.694C505.18 36.3113 504.919 36.008 504.573 35.784C504.228 35.56 503.836 35.448 503.397 35.448C502.959 35.448 502.557 35.56 502.193 35.784C501.829 36.008 501.545 36.33 501.339 36.75C501.143 37.1607 501.064 37.6507 501.101 38.22C501.064 38.7707 501.148 39.256 501.353 39.676C501.568 40.0867 501.867 40.4087 502.249 40.642C502.641 40.866 503.066 40.978 503.523 40.978C504.027 40.978 504.452 40.8613 504.797 40.628C505.143 40.3947 505.423 40.096 505.637 39.732L506.729 40.292C506.58 40.6373 506.347 40.9547 506.029 41.244C505.721 41.524 505.353 41.748 504.923 41.916C504.503 42.084 504.032 42.168 503.509 42.168ZM510.753 42.168C510.259 42.168 509.82 42.0793 509.437 41.902C509.064 41.7153 508.77 41.4633 508.555 41.146C508.341 40.8193 508.233 40.446 508.233 40.026C508.233 39.6247 508.317 39.2653 508.485 38.948C508.663 38.6213 508.933 38.346 509.297 38.122C509.671 37.898 510.137 37.7393 510.697 37.646L513.497 37.184V38.276L510.991 38.696C510.506 38.78 510.151 38.934 509.927 39.158C509.713 39.382 509.605 39.6573 509.605 39.984C509.605 40.292 509.727 40.5487 509.969 40.754C510.221 40.9593 510.534 41.062 510.907 41.062C511.383 41.062 511.794 40.964 512.139 40.768C512.494 40.5627 512.769 40.2873 512.965 39.942C513.171 39.5967 513.273 39.214 513.273 38.794V36.876C513.273 36.4653 513.119 36.134 512.811 35.882C512.513 35.6207 512.116 35.49 511.621 35.49C511.192 35.49 510.809 35.602 510.473 35.826C510.147 36.0407 509.904 36.33 509.745 36.694L508.611 36.106C508.751 35.7607 508.975 35.4527 509.283 35.182C509.591 34.902 509.951 34.6827 510.361 34.524C510.772 34.3653 511.201 34.286 511.649 34.286C512.228 34.286 512.737 34.398 513.175 34.622C513.614 34.8367 513.955 35.14 514.197 35.532C514.449 35.9147 514.575 36.3627 514.575 36.876V42H513.301V40.572L513.539 40.656C513.381 40.9547 513.166 41.216 512.895 41.44C512.625 41.664 512.307 41.8413 511.943 41.972C511.579 42.1027 511.183 42.168 510.753 42.168ZM519.296 42.168C518.54 42.168 517.882 41.9813 517.322 41.608C516.762 41.2347 516.365 40.7307 516.132 40.096L517.168 39.592C517.383 40.04 517.677 40.3947 518.05 40.656C518.423 40.9173 518.839 41.048 519.296 41.048C519.707 41.048 520.047 40.95 520.318 40.754C520.589 40.558 520.724 40.3013 520.724 39.984C520.724 39.76 520.659 39.5827 520.528 39.452C520.407 39.312 520.257 39.2047 520.08 39.13C519.903 39.046 519.739 38.9853 519.59 38.948L518.456 38.626C517.775 38.43 517.275 38.15 516.958 37.786C516.65 37.422 516.496 36.9973 516.496 36.512C516.496 36.064 516.608 35.6767 516.832 35.35C517.065 35.014 517.378 34.7527 517.77 34.566C518.171 34.3793 518.619 34.286 519.114 34.286C519.777 34.286 520.369 34.454 520.892 34.79C521.424 35.126 521.802 35.5973 522.026 36.204L520.962 36.694C520.794 36.302 520.542 35.994 520.206 35.77C519.87 35.5367 519.492 35.42 519.072 35.42C518.689 35.42 518.386 35.518 518.162 35.714C517.938 35.9007 517.826 36.1387 517.826 36.428C517.826 36.6427 517.882 36.82 517.994 36.96C518.106 37.0907 518.241 37.1933 518.4 37.268C518.559 37.3333 518.713 37.3893 518.862 37.436L520.094 37.8C520.71 37.9773 521.186 38.2527 521.522 38.626C521.867 38.9993 522.04 39.4473 522.04 39.97C522.04 40.39 521.923 40.768 521.69 41.104C521.457 41.44 521.135 41.7013 520.724 41.888C520.313 42.0747 519.837 42.168 519.296 42.168ZM527.216 42.168C526.488 42.168 525.84 41.9953 525.27 41.65C524.701 41.3047 524.253 40.8333 523.926 40.236C523.6 39.6293 523.436 38.9527 523.436 38.206C523.436 37.45 523.595 36.778 523.912 36.19C524.239 35.602 524.678 35.14 525.228 34.804C525.788 34.4587 526.414 34.286 527.104 34.286C527.664 34.286 528.159 34.3887 528.588 34.594C529.027 34.79 529.396 35.0607 529.694 35.406C530.002 35.742 530.236 36.1293 530.394 36.568C530.562 36.9973 530.646 37.4453 530.646 37.912C530.646 38.0147 530.637 38.1313 530.618 38.262C530.609 38.3833 530.595 38.5 530.576 38.612H524.388V37.492H529.82L529.204 37.996C529.288 37.5107 529.242 37.0767 529.064 36.694C528.887 36.3113 528.626 36.008 528.28 35.784C527.935 35.56 527.543 35.448 527.104 35.448C526.666 35.448 526.264 35.56 525.9 35.784C525.536 36.008 525.252 36.33 525.046 36.75C524.85 37.1607 524.771 37.6507 524.808 38.22C524.771 38.7707 524.855 39.256 525.06 39.676C525.275 40.0867 525.574 40.4087 525.956 40.642C526.348 40.866 526.773 40.978 527.23 40.978C527.734 40.978 528.159 40.8613 528.504 40.628C528.85 40.3947 529.13 40.096 529.344 39.732L530.436 40.292C530.287 40.6373 530.054 40.9547 529.736 41.244C529.428 41.524 529.06 41.748 528.63 41.916C528.21 42.084 527.739 42.168 527.216 42.168Z" fill="#0AAF60"/>
<rect x="24" y="100" width="20" height="148" rx="10" fill="#EEF1FF"/>
<rect x="30" y="178" width="8" height="64" rx="4" fill="#546FFF"/>
<rect x="68.3635" y="100" width="20" height="148" rx="10" fill="#EEF1FF"/>
<rect x="74.3635" y="137" width="8" height="105" rx="4" fill="#546FFF"/>
<rect x="112.727" y="100" width="20" height="148" rx="10" fill="#EEF1FF"/>
<rect x="118.727" y="203" width="8" height="39" rx="4" fill="#546FFF"/>
<rect x="157.091" y="100" width="20" height="148" rx="10" fill="#EEF1FF"/>
<rect x="163.091" y="168" width="8" height="74" rx="4" fill="#546FFF"/>
<rect x="201.455" y="100" width="20" height="148" rx="10" fill="#EEF1FF"/>
<rect x="207.455" y="193" width="8" height="49" rx="4" fill="#546FFF"/>
<rect x="245.818" y="100" width="20" height="148" rx="10" fill="#EEF1FF"/>
<rect x="251.818" y="186" width="8" height="56" rx="4" fill="#546FFF"/>
<rect x="290.182" y="100" width="20" height="148" rx="10" fill="#EEF1FF"/>
<rect x="296.182" y="146" width="8" height="96" rx="4" fill="#546FFF"/>
<rect x="334.545" y="100" width="20" height="148" rx="10" fill="#EEF1FF"/>
<rect x="340.545" y="173" width="8" height="69" rx="4" fill="#546FFF"/>
<rect x="378.909" y="100" width="20" height="148" rx="10" fill="#EEF1FF"/>
<rect x="384.909" y="193" width="8" height="49" rx="4" fill="#546FFF"/>
<rect x="423.273" y="100" width="20" height="148" rx="10" fill="#EEF1FF"/>
<rect x="429.273" y="146" width="8" height="96" rx="4" fill="#546FFF"/>
<rect x="467.636" y="100" width="20" height="148" rx="10" fill="#EEF1FF"/>
<rect x="473.636" y="186" width="8" height="56" rx="4" fill="#546FFF"/>
<rect x="512" y="100" width="20" height="148" rx="10" fill="#EEF1FF"/>
<rect x="518" y="137" width="8" height="105" rx="4" fill="#546FFF"/>
</svg>
