<svg width="24" height="24" viewBox="0 0 24 24" fill="none" xmlns="http://www.w3.org/2000/svg">
<path d="M11 8H13C15.8284 8 17.2426 8 18.1213 8.87868C19 9.75736 19 11.1716 19 14C19 16.8284 19 18.2426 18.1213 19.1213C17.2426 20 15.8284 20 13 20H12C12 20 11.5 22 8 22C8 22 9 20.9913 9 19.9827C7.44655 19.9359 6.51998 19.7626 5.87868 19.1213C5 18.2426 5 16.8284 5 14C5 11.1716 5 9.75736 5.87868 8.87868C6.75736 8 8.17157 8 11 8Z" fill="white" stroke="white" stroke-width="1.5" stroke-linejoin="round"/>
<path d="M2.75 11.701C3.09808 11.5 3.06538 11.5 4 11.5V16.5C3.06538 16.5 3.09808 16.5 2.75 16.299C2.52197 16.1674 2.33261 15.978 2.20096 15.75C2 15.4019 2 14.9346 2 14C2 13.0654 2 12.5981 2.20096 12.25C2.33261 12.022 2.52197 11.8326 2.75 11.701Z" fill="white"/>
<path d="M21.25 11.701C20.9019 11.5 20.9346 11.5 20 11.5V16.5C20.9346 16.5 20.9019 16.5 21.25 16.299C21.478 16.1674 21.6674 15.978 21.799 15.75C22 15.4019 22 14.9346 22 14C22 13.0654 22 12.5981 21.799 12.25C21.6674 12.022 21.478 11.8326 21.25 11.701Z" fill="white"/>
<path d="M13.5 3.5C13.5 4.32843 12.8284 5 12 5C11.1716 5 10.5 4.32843 10.5 3.5C10.5 2.67157 11.1716 2 12 2C12.8284 2 13.5 2.67157 13.5 3.5Z" stroke="white" stroke-width="1.5"/>
<path d="M12 5V8" stroke="white" stroke-width="1.5" stroke-linecap="round" stroke-linejoin="round"/>
<path d="M9 12V13M15 12V13" stroke="#546FFF" stroke-width="1.5" stroke-linecap="round" stroke-linejoin="round"/>
<path d="M10 16.5C10 16.5 10.6667 17 12 17C13.3333 17 14 16.5 14 16.5" stroke="#546FFF" stroke-width="1.5" stroke-linecap="round"/>
</svg>
