<svg width="556" height="272" viewBox="0 0 556 272" fill="none" xmlns="http://www.w3.org/2000/svg">
<rect width="556" height="272" rx="8" fill="white"/>
<path d="M29.112 35.144C28.48 35.144 27.896 35.032 27.36 34.808C26.832 34.576 26.368 34.252 25.968 33.836C25.576 33.42 25.272 32.932 25.056 32.372C24.84 31.812 24.732 31.2 24.732 30.536C24.732 29.864 24.84 29.248 25.056 28.688C25.272 28.128 25.576 27.64 25.968 27.224C26.36 26.808 26.824 26.488 27.36 26.264C27.896 26.032 28.48 25.916 29.112 25.916C29.728 25.916 30.28 26.024 30.768 26.24C31.264 26.456 31.68 26.736 32.016 27.08C32.36 27.424 32.604 27.792 32.748 28.184L31.668 28.676C31.46 28.18 31.136 27.78 30.696 27.476C30.256 27.164 29.728 27.008 29.112 27.008C28.488 27.008 27.932 27.156 27.444 27.452C26.964 27.748 26.588 28.16 26.316 28.688C26.044 29.216 25.908 29.832 25.908 30.536C25.908 31.232 26.044 31.844 26.316 32.372C26.588 32.9 26.964 33.312 27.444 33.608C27.932 33.904 28.488 34.052 29.112 34.052C29.728 34.052 30.256 33.9 30.696 33.596C31.136 33.284 31.46 32.88 31.668 32.384L32.748 32.876C32.604 33.268 32.36 33.636 32.016 33.98C31.68 34.324 31.264 34.604 30.768 34.82C30.28 35.036 29.728 35.144 29.112 35.144ZM37.1704 35.144C36.5464 35.144 35.9824 35 35.4784 34.712C34.9744 34.416 34.5744 34.012 34.2784 33.5C33.9824 32.988 33.8344 32.408 33.8344 31.76C33.8344 31.112 33.9784 30.536 34.2664 30.032C34.5624 29.528 34.9624 29.128 35.4664 28.832C35.9704 28.536 36.5384 28.388 37.1704 28.388C37.7944 28.388 38.3584 28.536 38.8624 28.832C39.3664 29.12 39.7624 29.516 40.0504 30.02C40.3464 30.524 40.4944 31.104 40.4944 31.76C40.4944 32.416 40.3424 33 40.0384 33.512C39.7344 34.016 39.3304 34.416 38.8264 34.712C38.3304 35 37.7784 35.144 37.1704 35.144ZM37.1704 34.064C37.5704 34.064 37.9304 33.964 38.2504 33.764C38.5784 33.564 38.8344 33.288 39.0184 32.936C39.2104 32.584 39.3064 32.192 39.3064 31.76C39.3064 31.32 39.2104 30.932 39.0184 30.596C38.8344 30.252 38.5784 29.98 38.2504 29.78C37.9304 29.572 37.5704 29.468 37.1704 29.468C36.7624 29.468 36.3944 29.572 36.0664 29.78C35.7464 29.98 35.4904 30.252 35.2984 30.596C35.1064 30.932 35.0104 31.32 35.0104 31.76C35.0104 32.192 35.1064 32.584 35.2984 32.936C35.4904 33.288 35.7464 33.564 36.0664 33.764C36.3944 33.964 36.7624 34.064 37.1704 34.064ZM41.9499 35V28.532H43.0419V29.792L42.8619 29.684C43.0219 29.276 43.2779 28.96 43.6299 28.736C43.9899 28.504 44.4099 28.388 44.8899 28.388C45.3539 28.388 45.7659 28.492 46.1259 28.7C46.4939 28.908 46.7819 29.196 46.9899 29.564C47.2059 29.932 47.3139 30.348 47.3139 30.812V35H46.1859V31.172C46.1859 30.812 46.1219 30.508 45.9939 30.26C45.8659 30.012 45.6819 29.82 45.4419 29.684C45.2099 29.54 44.9419 29.468 44.6379 29.468C44.3339 29.468 44.0619 29.54 43.8219 29.684C43.5899 29.82 43.4059 30.016 43.2699 30.272C43.1339 30.52 43.0659 30.82 43.0659 31.172V35H41.9499ZM50.5937 35L48.0617 28.532H49.3097L51.3377 34.004H50.9057L52.9457 28.532H54.1937L51.6497 35H50.5937ZM58.0509 35.144C57.4269 35.144 56.8709 34.996 56.3829 34.7C55.8949 34.404 55.5109 34 55.2309 33.488C54.9509 32.968 54.8109 32.388 54.8109 31.748C54.8109 31.1 54.9469 30.524 55.2189 30.02C55.4989 29.516 55.8749 29.12 56.3469 28.832C56.8269 28.536 57.3629 28.388 57.9549 28.388C58.4349 28.388 58.8589 28.476 59.2269 28.652C59.6029 28.82 59.9189 29.052 60.1749 29.348C60.4389 29.636 60.6389 29.968 60.7749 30.344C60.9189 30.712 60.9909 31.096 60.9909 31.496C60.9909 31.584 60.9829 31.684 60.9669 31.796C60.9589 31.9 60.9469 32 60.9309 32.096H55.6269V31.136H60.2829L59.7549 31.568C59.8269 31.152 59.7869 30.78 59.6349 30.452C59.4829 30.124 59.2589 29.864 58.9629 29.672C58.6669 29.48 58.3309 29.384 57.9549 29.384C57.5789 29.384 57.2349 29.48 56.9229 29.672C56.6109 29.864 56.3669 30.14 56.1909 30.5C56.0229 30.852 55.9549 31.272 55.9869 31.76C55.9549 32.232 56.0269 32.648 56.2029 33.008C56.3869 33.36 56.6429 33.636 56.9709 33.836C57.3069 34.028 57.6709 34.124 58.0629 34.124C58.4949 34.124 58.8589 34.024 59.1549 33.824C59.4509 33.624 59.6909 33.368 59.8749 33.056L60.8109 33.536C60.6829 33.832 60.4829 34.104 60.2109 34.352C59.9469 34.592 59.6309 34.784 59.2629 34.928C58.9029 35.072 58.4989 35.144 58.0509 35.144ZM62.446 35V28.532H63.538V29.72L63.418 29.552C63.57 29.184 63.802 28.912 64.114 28.736C64.426 28.552 64.806 28.46 65.254 28.46H65.65V29.516H65.086C64.63 29.516 64.262 29.66 63.982 29.948C63.702 30.228 63.562 30.628 63.562 31.148V35H62.446ZM68.9573 35.144C68.3093 35.144 67.7453 34.984 67.2653 34.664C66.7853 34.344 66.4453 33.912 66.2453 33.368L67.1333 32.936C67.3173 33.32 67.5693 33.624 67.8893 33.848C68.2093 34.072 68.5653 34.184 68.9573 34.184C69.3093 34.184 69.6013 34.1 69.8333 33.932C70.0653 33.764 70.1813 33.544 70.1813 33.272C70.1813 33.08 70.1253 32.928 70.0133 32.816C69.9093 32.696 69.7813 32.604 69.6293 32.54C69.4773 32.468 69.3373 32.416 69.2093 32.384L68.2373 32.108C67.6533 31.94 67.2253 31.7 66.9533 31.388C66.6893 31.076 66.5573 30.712 66.5573 30.296C66.5573 29.912 66.6533 29.58 66.8453 29.3C67.0453 29.012 67.3133 28.788 67.6493 28.628C67.9933 28.468 68.3773 28.388 68.8013 28.388C69.3693 28.388 69.8773 28.532 70.3253 28.82C70.7813 29.108 71.1053 29.512 71.2973 30.032L70.3853 30.452C70.2413 30.116 70.0253 29.852 69.7373 29.66C69.4493 29.46 69.1253 29.36 68.7653 29.36C68.4373 29.36 68.1773 29.444 67.9853 29.612C67.7933 29.772 67.6973 29.976 67.6973 30.224C67.6973 30.408 67.7453 30.56 67.8413 30.68C67.9373 30.792 68.0533 30.88 68.1893 30.944C68.3253 31 68.4573 31.048 68.5853 31.088L69.6413 31.4C70.1693 31.552 70.5773 31.788 70.8653 32.108C71.1613 32.428 71.3093 32.812 71.3093 33.26C71.3093 33.62 71.2093 33.944 71.0093 34.232C70.8093 34.52 70.5333 34.744 70.1813 34.904C69.8293 35.064 69.4213 35.144 68.9573 35.144ZM72.7703 35V28.532H73.8863V35H72.7703ZM72.7703 27.5V26.06H73.8863V27.5H72.7703ZM78.6899 35.144C78.0659 35.144 77.5019 35 76.9979 34.712C76.4939 34.416 76.0939 34.012 75.7979 33.5C75.5019 32.988 75.3539 32.408 75.3539 31.76C75.3539 31.112 75.4979 30.536 75.7859 30.032C76.0819 29.528 76.4819 29.128 76.9859 28.832C77.4899 28.536 78.0579 28.388 78.6899 28.388C79.3139 28.388 79.8779 28.536 80.3819 28.832C80.8859 29.12 81.2819 29.516 81.5699 30.02C81.8659 30.524 82.0139 31.104 82.0139 31.76C82.0139 32.416 81.8619 33 81.5579 33.512C81.2539 34.016 80.8499 34.416 80.3459 34.712C79.8499 35 79.2979 35.144 78.6899 35.144ZM78.6899 34.064C79.0899 34.064 79.4499 33.964 79.7699 33.764C80.0979 33.564 80.3539 33.288 80.5379 32.936C80.7299 32.584 80.8259 32.192 80.8259 31.76C80.8259 31.32 80.7299 30.932 80.5379 30.596C80.3539 30.252 80.0979 29.98 79.7699 29.78C79.4499 29.572 79.0899 29.468 78.6899 29.468C78.2819 29.468 77.9139 29.572 77.5859 29.78C77.2659 29.98 77.0099 30.252 76.8179 30.596C76.6259 30.932 76.5299 31.32 76.5299 31.76C76.5299 32.192 76.6259 32.584 76.8179 32.936C77.0099 33.288 77.2659 33.564 77.5859 33.764C77.9139 33.964 78.2819 34.064 78.6899 34.064ZM83.4695 35V28.532H84.5615V29.792L84.3815 29.684C84.5415 29.276 84.7975 28.96 85.1495 28.736C85.5095 28.504 85.9295 28.388 86.4095 28.388C86.8735 28.388 87.2855 28.492 87.6455 28.7C88.0135 28.908 88.3015 29.196 88.5095 29.564C88.7255 29.932 88.8335 30.348 88.8335 30.812V35H87.7055V31.172C87.7055 30.812 87.6415 30.508 87.5135 30.26C87.3855 30.012 87.2015 29.82 86.9615 29.684C86.7295 29.54 86.4615 29.468 86.1575 29.468C85.8535 29.468 85.5815 29.54 85.3415 29.684C85.1095 29.82 84.9255 30.016 84.7895 30.272C84.6535 30.52 84.5855 30.82 84.5855 31.172V35H83.4695ZM92.6366 35V26.06H95.7926C96.3846 26.06 96.9046 26.172 97.3526 26.396C97.8006 26.62 98.1486 26.94 98.3966 27.356C98.6526 27.772 98.7806 28.26 98.7806 28.82C98.7806 29.452 98.6206 29.988 98.3006 30.428C97.9806 30.868 97.5486 31.184 97.0046 31.376L99.0806 35H97.7126L95.5286 31.124L96.3086 31.58H93.8126V35H92.6366ZM93.8126 30.5H95.8286C96.1806 30.5 96.4886 30.432 96.7526 30.296C97.0166 30.16 97.2206 29.964 97.3646 29.708C97.5166 29.452 97.5926 29.156 97.5926 28.82C97.5926 28.476 97.5166 28.18 97.3646 27.932C97.2206 27.676 97.0166 27.48 96.7526 27.344C96.4886 27.208 96.1806 27.14 95.8286 27.14H93.8126V30.5ZM102.182 35.144C101.758 35.144 101.382 35.068 101.054 34.916C100.734 34.756 100.482 34.54 100.298 34.268C100.114 33.988 100.022 33.668 100.022 33.308C100.022 32.964 100.094 32.656 100.238 32.384C100.39 32.104 100.622 31.868 100.934 31.676C101.254 31.484 101.654 31.348 102.134 31.268L104.534 30.872V31.808L102.386 32.168C101.97 32.24 101.666 32.372 101.474 32.564C101.29 32.756 101.198 32.992 101.198 33.272C101.198 33.536 101.302 33.756 101.51 33.932C101.726 34.108 101.994 34.196 102.314 34.196C102.722 34.196 103.074 34.112 103.37 33.944C103.674 33.768 103.91 33.532 104.078 33.236C104.254 32.94 104.342 32.612 104.342 32.252V30.608C104.342 30.256 104.21 29.972 103.946 29.756C103.69 29.532 103.35 29.42 102.926 29.42C102.558 29.42 102.23 29.516 101.942 29.708C101.662 29.892 101.454 30.14 101.318 30.452L100.346 29.948C100.466 29.652 100.658 29.388 100.922 29.156C101.186 28.916 101.494 28.728 101.846 28.592C102.198 28.456 102.566 28.388 102.95 28.388C103.446 28.388 103.882 28.484 104.258 28.676C104.634 28.86 104.926 29.12 105.134 29.456C105.35 29.784 105.458 30.168 105.458 30.608V35H104.366V33.776L104.57 33.848C104.434 34.104 104.25 34.328 104.018 34.52C103.786 34.712 103.514 34.864 103.202 34.976C102.89 35.088 102.55 35.144 102.182 35.144ZM109.699 35.072C109.067 35.072 108.579 34.892 108.235 34.532C107.899 34.172 107.731 33.664 107.731 33.008V29.6H106.555V28.532H106.795C107.083 28.532 107.311 28.444 107.479 28.268C107.647 28.092 107.731 27.86 107.731 27.572V27.044H108.847V28.532H110.299V29.6H108.847V32.972C108.847 33.188 108.879 33.376 108.943 33.536C109.015 33.696 109.131 33.824 109.291 33.92C109.451 34.008 109.663 34.052 109.927 34.052C109.983 34.052 110.051 34.048 110.131 34.04C110.219 34.032 110.299 34.024 110.371 34.016V35C110.267 35.024 110.151 35.04 110.023 35.048C109.895 35.064 109.787 35.072 109.699 35.072ZM114.629 35.144C114.005 35.144 113.449 34.996 112.961 34.7C112.473 34.404 112.089 34 111.809 33.488C111.529 32.968 111.389 32.388 111.389 31.748C111.389 31.1 111.525 30.524 111.797 30.02C112.077 29.516 112.453 29.12 112.925 28.832C113.405 28.536 113.941 28.388 114.533 28.388C115.013 28.388 115.437 28.476 115.805 28.652C116.181 28.82 116.497 29.052 116.753 29.348C117.017 29.636 117.217 29.968 117.353 30.344C117.497 30.712 117.569 31.096 117.569 31.496C117.569 31.584 117.561 31.684 117.545 31.796C117.537 31.9 117.525 32 117.509 32.096H112.205V31.136H116.861L116.333 31.568C116.405 31.152 116.365 30.78 116.213 30.452C116.061 30.124 115.837 29.864 115.541 29.672C115.245 29.48 114.909 29.384 114.533 29.384C114.157 29.384 113.813 29.48 113.501 29.672C113.189 29.864 112.945 30.14 112.769 30.5C112.601 30.852 112.533 31.272 112.565 31.76C112.533 32.232 112.605 32.648 112.781 33.008C112.965 33.36 113.221 33.636 113.549 33.836C113.885 34.028 114.249 34.124 114.641 34.124C115.073 34.124 115.437 34.024 115.733 33.824C116.029 33.624 116.269 33.368 116.453 33.056L117.389 33.536C117.261 33.832 117.061 34.104 116.789 34.352C116.525 34.592 116.209 34.784 115.841 34.928C115.481 35.072 115.077 35.144 114.629 35.144Z" fill="#4A5154"/>
<path d="M26.664 70L32.784 62.08L33.264 62.392C33.04 62.632 32.792 62.824 32.52 62.968C32.264 63.112 31.984 63.216 31.68 63.28C31.392 63.344 31.08 63.376 30.744 63.376C29.672 63.376 28.712 63.136 27.864 62.656C27.016 62.16 26.344 61.488 25.848 60.64C25.368 59.776 25.128 58.8 25.128 57.712C25.128 56.576 25.392 55.568 25.92 54.688C26.448 53.808 27.168 53.112 28.08 52.6C28.992 52.088 30.032 51.832 31.2 51.832C32.384 51.832 33.424 52.088 34.32 52.6C35.232 53.112 35.944 53.816 36.456 54.712C36.984 55.592 37.248 56.6 37.248 57.736C37.248 58.344 37.184 58.944 37.056 59.536C36.928 60.128 36.704 60.744 36.384 61.384C36.064 62.008 35.616 62.696 35.04 63.448L30.048 70H26.664ZM31.2 61C31.824 61 32.376 60.856 32.856 60.568C33.336 60.28 33.72 59.888 34.008 59.392C34.296 58.896 34.44 58.328 34.44 57.688C34.44 57.032 34.296 56.456 34.008 55.96C33.72 55.448 33.328 55.056 32.832 54.784C32.352 54.496 31.808 54.352 31.2 54.352C30.592 54.352 30.04 54.496 29.544 54.784C29.064 55.056 28.68 55.448 28.392 55.96C28.104 56.456 27.96 57.032 27.96 57.688C27.96 58.328 28.096 58.896 28.368 59.392C28.656 59.888 29.048 60.28 29.544 60.568C30.04 60.856 30.592 61 31.2 61ZM40.4949 70V66.88H43.2549V70H40.4949ZM47.8313 70L55.4633 54.52H46.8713V52.12H58.4153V54.52L50.9033 70H47.8313ZM66.3523 70.288C65.3923 70.288 64.4883 70.112 63.6403 69.76C62.8083 69.408 62.0883 68.912 61.4803 68.272C60.8883 67.632 60.4643 66.88 60.2083 66.016L62.6083 65.104C62.9283 65.952 63.4163 66.608 64.0723 67.072C64.7283 67.536 65.4883 67.768 66.3523 67.768C67.0563 67.768 67.6643 67.632 68.1763 67.36C68.7043 67.088 69.1123 66.704 69.4003 66.208C69.7043 65.712 69.8563 65.112 69.8563 64.408C69.8563 63.72 69.7043 63.128 69.4003 62.632C69.1123 62.136 68.7043 61.76 68.1763 61.504C67.6643 61.248 67.0563 61.12 66.3523 61.12C66.0643 61.12 65.7683 61.144 65.4643 61.192C65.1763 61.24 64.9203 61.304 64.6963 61.384L64.0723 60.064L68.7763 54.52H61.1683V52.12H71.9443V54.4L67.3363 59.92L67.2643 59.008C68.3363 59.024 69.2803 59.264 70.0963 59.728C70.9123 60.176 71.5443 60.8 71.9923 61.6C72.4563 62.384 72.6883 63.296 72.6883 64.336C72.6883 65.456 72.4163 66.472 71.8723 67.384C71.3283 68.28 70.5763 68.992 69.6163 69.52C68.6723 70.032 67.5843 70.288 66.3523 70.288ZM77.5442 70L92.0882 52.12H95.1122L80.5682 70H77.5442ZM80.2802 61.192C79.4002 61.192 78.6082 60.984 77.9042 60.568C77.2002 60.136 76.6322 59.568 76.2002 58.864C75.7842 58.16 75.5762 57.376 75.5762 56.512C75.5762 55.648 75.7842 54.864 76.2002 54.16C76.6322 53.44 77.2002 52.872 77.9042 52.456C78.6082 52.04 79.4002 51.832 80.2802 51.832C81.1602 51.832 81.9522 52.04 82.6562 52.456C83.3602 52.872 83.9202 53.44 84.3362 54.16C84.7522 54.864 84.9602 55.648 84.9602 56.512C84.9602 57.376 84.7522 58.16 84.3362 58.864C83.9202 59.568 83.3602 60.136 82.6562 60.568C81.9522 60.984 81.1602 61.192 80.2802 61.192ZM80.2802 59.008C80.7762 59.008 81.2002 58.888 81.5522 58.648C81.9202 58.408 82.2002 58.096 82.3922 57.712C82.5842 57.328 82.6802 56.928 82.6802 56.512C82.6802 56.08 82.5842 55.68 82.3922 55.312C82.2002 54.928 81.9202 54.616 81.5522 54.376C81.2002 54.136 80.7762 54.016 80.2802 54.016C79.8002 54.016 79.3762 54.136 79.0082 54.376C78.6402 54.616 78.3522 54.928 78.1442 55.312C77.9522 55.68 77.8562 56.08 77.8562 56.512C77.8562 56.928 77.9522 57.328 78.1442 57.712C78.3522 58.096 78.6402 58.408 79.0082 58.648C79.3762 58.888 79.8002 59.008 80.2802 59.008ZM92.2562 70.288C91.3762 70.288 90.5762 70.08 89.8562 69.664C89.1522 69.232 88.5922 68.664 88.1762 67.96C87.7602 67.256 87.5522 66.472 87.5522 65.608C87.5522 64.744 87.7602 63.96 88.1762 63.256C88.5922 62.536 89.1522 61.968 89.8562 61.552C90.5762 61.136 91.3762 60.928 92.2562 60.928C93.1362 60.928 93.9282 61.136 94.6322 61.552C95.3362 61.968 95.8962 62.536 96.3122 63.256C96.7282 63.96 96.9362 64.744 96.9362 65.608C96.9362 66.472 96.7282 67.256 96.3122 67.96C95.8962 68.664 95.3362 69.232 94.6322 69.664C93.9282 70.08 93.1362 70.288 92.2562 70.288ZM92.2562 68.104C92.7522 68.104 93.1762 67.984 93.5282 67.744C93.8802 67.504 94.1522 67.192 94.3442 66.808C94.5522 66.424 94.6562 66.024 94.6562 65.608C94.6562 65.176 94.5522 64.776 94.3442 64.408C94.1522 64.024 93.8802 63.712 93.5282 63.472C93.1762 63.232 92.7522 63.112 92.2562 63.112C91.7762 63.112 91.3522 63.232 90.9842 63.472C90.6162 63.712 90.3282 64.024 90.1202 64.408C89.9282 64.776 89.8322 65.176 89.8322 65.608C89.8322 66.024 89.9282 66.424 90.1202 66.808C90.3282 67.192 90.6162 67.504 90.9842 67.744C91.3522 67.984 91.7762 68.104 92.2562 68.104Z" fill="#191B1C"/>
<path d="M420.53 34.5303C420.237 34.8232 419.763 34.8232 419.47 34.5303C419.177 34.2374 419.177 33.7626 419.47 33.4697L423.47 29.4697C423.763 29.1768 424.237 29.1768 424.53 29.4697L428.53 33.4697C428.823 33.7626 428.823 34.2374 428.53 34.5303C428.237 34.8232 427.763 34.8232 427.47 34.5303L424.75 31.8107L424.75 41.5C424.75 41.9142 424.414 42.25 424 42.25C423.586 42.25 423.25 41.9142 423.25 41.5L423.25 31.8107L420.53 34.5303Z" fill="#0AAF60"/>
<path d="M440.116 42.168C439.565 42.168 439.052 42.07 438.576 41.874C438.1 41.678 437.689 41.4027 437.344 41.048C436.999 40.684 436.742 40.2547 436.574 39.76L437.736 39.284C437.932 39.8067 438.24 40.2127 438.66 40.502C439.08 40.7913 439.565 40.936 440.116 40.936C440.545 40.936 440.928 40.852 441.264 40.684C441.6 40.516 441.861 40.2733 442.048 39.956C442.244 39.6387 442.342 39.256 442.342 38.808C442.342 38.3507 442.244 37.968 442.048 37.66C441.861 37.3427 441.6 37.1 441.264 36.932C440.928 36.764 440.541 36.68 440.102 36.68C439.962 36.68 439.808 36.6893 439.64 36.708C439.481 36.7267 439.346 36.7547 439.234 36.792L438.94 36.162L441.726 32.76H437.106V31.57H443.28V32.718L440.62 35.994L440.536 35.63C441.161 35.6487 441.712 35.7933 442.188 36.064C442.664 36.3347 443.037 36.7033 443.308 37.17C443.579 37.6273 443.714 38.164 443.714 38.78C443.714 39.4147 443.56 39.9887 443.252 40.502C442.944 41.0153 442.519 41.4213 441.978 41.72C441.437 42.0187 440.816 42.168 440.116 42.168ZM446.085 42V40.32H447.443V42H446.085ZM453.188 42.168C452.647 42.168 452.138 42.0747 451.662 41.888C451.186 41.692 450.771 41.4167 450.416 41.062C450.071 40.698 449.819 40.2733 449.66 39.788L450.78 39.312C450.976 39.8253 451.294 40.2267 451.732 40.516C452.18 40.796 452.666 40.936 453.188 40.936C453.618 40.936 453.996 40.8427 454.322 40.656C454.658 40.46 454.92 40.194 455.106 39.858C455.293 39.5127 455.386 39.13 455.386 38.71C455.386 38.2713 455.288 37.884 455.092 37.548C454.906 37.212 454.649 36.9507 454.322 36.764C453.996 36.568 453.622 36.47 453.202 36.47C452.773 36.47 452.381 36.568 452.026 36.764C451.672 36.96 451.415 37.2073 451.256 37.506L450.15 37.268L450.948 31.57H456.352V32.76H451.466L451.998 32.228L451.382 36.652L450.906 36.372C451.214 35.98 451.574 35.7 451.984 35.532C452.404 35.3547 452.857 35.266 453.342 35.266C454.024 35.266 454.621 35.42 455.134 35.728C455.648 36.036 456.049 36.4467 456.338 36.96C456.628 37.4733 456.772 38.0567 456.772 38.71C456.772 39.3633 456.614 39.9513 456.296 40.474C455.988 40.9967 455.564 41.412 455.022 41.72C454.49 42.0187 453.879 42.168 453.188 42.168ZM459.617 42L468.129 31.57H469.683L461.171 42H459.617ZM461.185 36.862C460.672 36.862 460.21 36.7407 459.799 36.498C459.389 36.246 459.057 35.9147 458.805 35.504C458.563 35.0933 458.441 34.636 458.441 34.132C458.441 33.628 458.563 33.1707 458.805 32.76C459.057 32.34 459.389 32.0087 459.799 31.766C460.21 31.5233 460.672 31.402 461.185 31.402C461.689 31.402 462.147 31.5233 462.557 31.766C462.968 32.0087 463.295 32.34 463.537 32.76C463.78 33.1707 463.901 33.628 463.901 34.132C463.901 34.636 463.78 35.0933 463.537 35.504C463.295 35.9147 462.968 36.246 462.557 36.498C462.147 36.7407 461.689 36.862 461.185 36.862ZM461.171 35.714C461.489 35.714 461.759 35.6393 461.983 35.49C462.207 35.3407 462.385 35.1447 462.515 34.902C462.646 34.6593 462.711 34.4027 462.711 34.132C462.711 33.852 462.646 33.5953 462.515 33.362C462.385 33.1193 462.207 32.9233 461.983 32.774C461.759 32.6153 461.489 32.536 461.171 32.536C460.873 32.536 460.607 32.6153 460.373 32.774C460.14 32.9233 459.958 33.1193 459.827 33.362C459.697 33.6047 459.631 33.8613 459.631 34.132C459.631 34.3933 459.697 34.65 459.827 34.902C459.958 35.1447 460.14 35.3407 460.373 35.49C460.607 35.6393 460.873 35.714 461.171 35.714ZM468.031 42.168C467.518 42.168 467.056 42.0467 466.645 41.804C466.235 41.552 465.903 41.2207 465.651 40.81C465.409 40.3993 465.287 39.942 465.287 39.438C465.287 38.934 465.409 38.4767 465.651 38.066C465.903 37.646 466.235 37.3147 466.645 37.072C467.056 36.8293 467.518 36.708 468.031 36.708C468.535 36.708 468.993 36.8293 469.403 37.072C469.814 37.3147 470.141 37.646 470.383 38.066C470.626 38.4767 470.747 38.934 470.747 39.438C470.747 39.942 470.626 40.3993 470.383 40.81C470.141 41.2207 469.814 41.552 469.403 41.804C468.993 42.0467 468.535 42.168 468.031 42.168ZM468.031 41.02C468.339 41.02 468.605 40.9453 468.829 40.796C469.063 40.6467 469.24 40.4507 469.361 40.208C469.492 39.9653 469.557 39.7087 469.557 39.438C469.557 39.158 469.492 38.9013 469.361 38.668C469.24 38.4253 469.063 38.2293 468.829 38.08C468.605 37.9213 468.339 37.842 468.031 37.842C467.733 37.842 467.462 37.9213 467.219 38.08C466.986 38.2293 466.804 38.4253 466.673 38.668C466.543 38.9107 466.477 39.1673 466.477 39.438C466.477 39.6993 466.543 39.956 466.673 40.208C466.804 40.4507 466.986 40.6467 467.219 40.796C467.462 40.9453 467.733 41.02 468.031 41.02ZM475.17 42V31.57H476.542V42H475.17ZM478.707 42V34.454H479.981V35.924L479.771 35.798C479.958 35.322 480.257 34.9533 480.667 34.692C481.087 34.4213 481.577 34.286 482.137 34.286C482.679 34.286 483.159 34.4073 483.579 34.65C484.009 34.8927 484.345 35.2287 484.587 35.658C484.839 36.0873 484.965 36.5727 484.965 37.114V42H483.649V37.534C483.649 37.114 483.575 36.7593 483.425 36.47C483.276 36.1807 483.061 35.9567 482.781 35.798C482.511 35.63 482.198 35.546 481.843 35.546C481.489 35.546 481.171 35.63 480.891 35.798C480.621 35.9567 480.406 36.1853 480.247 36.484C480.089 36.7733 480.009 37.1233 480.009 37.534V42H478.707ZM490.328 42.168C489.591 42.168 488.933 41.9953 488.354 41.65C487.785 41.3047 487.337 40.8333 487.01 40.236C486.684 39.6387 486.52 38.9667 486.52 38.22C486.52 37.464 486.684 36.792 487.01 36.204C487.337 35.616 487.785 35.1493 488.354 34.804C488.933 34.4587 489.591 34.286 490.328 34.286C490.823 34.286 491.285 34.3747 491.714 34.552C492.144 34.7293 492.522 34.9673 492.848 35.266C493.175 35.5647 493.413 35.9147 493.562 36.316L492.4 36.876C492.223 36.484 491.952 36.1667 491.588 35.924C491.224 35.672 490.804 35.546 490.328 35.546C489.871 35.546 489.456 35.6627 489.082 35.896C488.718 36.1293 488.429 36.4467 488.214 36.848C488 37.2493 487.892 37.7113 487.892 38.234C487.892 38.738 488 39.1953 488.214 39.606C488.429 40.0073 488.718 40.3247 489.082 40.558C489.456 40.7913 489.871 40.908 490.328 40.908C490.804 40.908 491.224 40.7867 491.588 40.544C491.952 40.292 492.223 39.9607 492.4 39.55L493.562 40.138C493.413 40.53 493.175 40.88 492.848 41.188C492.522 41.4867 492.144 41.7247 491.714 41.902C491.285 42.0793 490.823 42.168 490.328 42.168ZM495.264 42V34.454H496.538V35.84L496.398 35.644C496.575 35.2147 496.846 34.8973 497.21 34.692C497.574 34.4773 498.017 34.37 498.54 34.37H499.002V35.602H498.344C497.812 35.602 497.383 35.77 497.056 36.106C496.729 36.4327 496.566 36.8993 496.566 37.506V42H495.264ZM503.63 42.168C502.902 42.168 502.254 41.9953 501.684 41.65C501.115 41.3047 500.667 40.8333 500.34 40.236C500.014 39.6293 499.85 38.9527 499.85 38.206C499.85 37.45 500.009 36.778 500.326 36.19C500.653 35.602 501.092 35.14 501.642 34.804C502.202 34.4587 502.828 34.286 503.518 34.286C504.078 34.286 504.573 34.3887 505.002 34.594C505.441 34.79 505.81 35.0607 506.108 35.406C506.416 35.742 506.65 36.1293 506.808 36.568C506.976 36.9973 507.06 37.4453 507.06 37.912C507.06 38.0147 507.051 38.1313 507.032 38.262C507.023 38.3833 507.009 38.5 506.99 38.612H500.802V37.492H506.234L505.618 37.996C505.702 37.5107 505.656 37.0767 505.478 36.694C505.301 36.3113 505.04 36.008 504.694 35.784C504.349 35.56 503.957 35.448 503.518 35.448C503.08 35.448 502.678 35.56 502.314 35.784C501.95 36.008 501.666 36.33 501.46 36.75C501.264 37.1607 501.185 37.6507 501.222 38.22C501.185 38.7707 501.269 39.256 501.474 39.676C501.689 40.0867 501.988 40.4087 502.37 40.642C502.762 40.866 503.187 40.978 503.644 40.978C504.148 40.978 504.573 40.8613 504.918 40.628C505.264 40.3947 505.544 40.096 505.758 39.732L506.85 40.292C506.701 40.6373 506.468 40.9547 506.15 41.244C505.842 41.524 505.474 41.748 505.044 41.916C504.624 42.084 504.153 42.168 503.63 42.168ZM510.874 42.168C510.38 42.168 509.941 42.0793 509.558 41.902C509.185 41.7153 508.891 41.4633 508.676 41.146C508.462 40.8193 508.354 40.446 508.354 40.026C508.354 39.6247 508.438 39.2653 508.606 38.948C508.784 38.6213 509.054 38.346 509.418 38.122C509.792 37.898 510.258 37.7393 510.818 37.646L513.618 37.184V38.276L511.112 38.696C510.627 38.78 510.272 38.934 510.048 39.158C509.834 39.382 509.726 39.6573 509.726 39.984C509.726 40.292 509.848 40.5487 510.09 40.754C510.342 40.9593 510.655 41.062 511.028 41.062C511.504 41.062 511.915 40.964 512.26 40.768C512.615 40.5627 512.89 40.2873 513.086 39.942C513.292 39.5967 513.394 39.214 513.394 38.794V36.876C513.394 36.4653 513.24 36.134 512.932 35.882C512.634 35.6207 512.237 35.49 511.742 35.49C511.313 35.49 510.93 35.602 510.594 35.826C510.268 36.0407 510.025 36.33 509.866 36.694L508.732 36.106C508.872 35.7607 509.096 35.4527 509.404 35.182C509.712 34.902 510.072 34.6827 510.482 34.524C510.893 34.3653 511.322 34.286 511.77 34.286C512.349 34.286 512.858 34.398 513.296 34.622C513.735 34.8367 514.076 35.14 514.318 35.532C514.57 35.9147 514.696 36.3627 514.696 36.876V42H513.422V40.572L513.66 40.656C513.502 40.9547 513.287 41.216 513.016 41.44C512.746 41.664 512.428 41.8413 512.064 41.972C511.7 42.1027 511.304 42.168 510.874 42.168ZM519.417 42.168C518.661 42.168 518.003 41.9813 517.443 41.608C516.883 41.2347 516.486 40.7307 516.253 40.096L517.289 39.592C517.504 40.04 517.798 40.3947 518.171 40.656C518.544 40.9173 518.96 41.048 519.417 41.048C519.828 41.048 520.168 40.95 520.439 40.754C520.71 40.558 520.845 40.3013 520.845 39.984C520.845 39.76 520.78 39.5827 520.649 39.452C520.528 39.312 520.378 39.2047 520.201 39.13C520.024 39.046 519.86 38.9853 519.711 38.948L518.577 38.626C517.896 38.43 517.396 38.15 517.079 37.786C516.771 37.422 516.617 36.9973 516.617 36.512C516.617 36.064 516.729 35.6767 516.953 35.35C517.186 35.014 517.499 34.7527 517.891 34.566C518.292 34.3793 518.74 34.286 519.235 34.286C519.898 34.286 520.49 34.454 521.013 34.79C521.545 35.126 521.923 35.5973 522.147 36.204L521.083 36.694C520.915 36.302 520.663 35.994 520.327 35.77C519.991 35.5367 519.613 35.42 519.193 35.42C518.81 35.42 518.507 35.518 518.283 35.714C518.059 35.9007 517.947 36.1387 517.947 36.428C517.947 36.6427 518.003 36.82 518.115 36.96C518.227 37.0907 518.362 37.1933 518.521 37.268C518.68 37.3333 518.834 37.3893 518.983 37.436L520.215 37.8C520.831 37.9773 521.307 38.2527 521.643 38.626C521.988 38.9993 522.161 39.4473 522.161 39.97C522.161 40.39 522.044 40.768 521.811 41.104C521.578 41.44 521.256 41.7013 520.845 41.888C520.434 42.0747 519.958 42.168 519.417 42.168ZM527.337 42.168C526.609 42.168 525.961 41.9953 525.391 41.65C524.822 41.3047 524.374 40.8333 524.047 40.236C523.721 39.6293 523.557 38.9527 523.557 38.206C523.557 37.45 523.716 36.778 524.033 36.19C524.36 35.602 524.799 35.14 525.349 34.804C525.909 34.4587 526.535 34.286 527.225 34.286C527.785 34.286 528.28 34.3887 528.709 34.594C529.148 34.79 529.517 35.0607 529.815 35.406C530.123 35.742 530.357 36.1293 530.515 36.568C530.683 36.9973 530.767 37.4453 530.767 37.912C530.767 38.0147 530.758 38.1313 530.739 38.262C530.73 38.3833 530.716 38.5 530.697 38.612H524.509V37.492H529.941L529.325 37.996C529.409 37.5107 529.363 37.0767 529.185 36.694C529.008 36.3113 528.747 36.008 528.401 35.784C528.056 35.56 527.664 35.448 527.225 35.448C526.787 35.448 526.385 35.56 526.021 35.784C525.657 36.008 525.373 36.33 525.167 36.75C524.971 37.1607 524.892 37.6507 524.929 38.22C524.892 38.7707 524.976 39.256 525.181 39.676C525.396 40.0867 525.695 40.4087 526.077 40.642C526.469 40.866 526.894 40.978 527.351 40.978C527.855 40.978 528.28 40.8613 528.625 40.628C528.971 40.3947 529.251 40.096 529.465 39.732L530.557 40.292C530.408 40.6373 530.175 40.9547 529.857 41.244C529.549 41.524 529.181 41.748 528.751 41.916C528.331 42.084 527.86 42.168 527.337 42.168Z" fill="#0AAF60"/>
<rect x="24" y="209" width="40" height="39" fill="#546FFF"/>
<rect x="76" y="189" width="40" height="59" fill="#546FFF"/>
<rect x="128" y="124" width="40" height="124" fill="#546FFF"/>
<rect x="180" y="138" width="40" height="110" fill="#546FFF"/>
<rect x="232" y="183" width="40" height="65" fill="#546FFF"/>
<rect x="284" y="168" width="40" height="80" fill="#546FFF"/>
<rect x="336" y="138" width="40" height="110" fill="#546FFF"/>
<rect x="388" y="183" width="40" height="65" fill="#546FFF"/>
<rect x="440" y="189" width="40" height="59" fill="#546FFF"/>
<rect x="492" y="124" width="40" height="124" fill="#546FFF"/>
</svg>
