<svg width="907" height="394" viewBox="0 0 907 394" fill="none" xmlns="http://www.w3.org/2000/svg">
<g clip-path="url(#clip0_362_816)">
<path d="M28.26 47V33.9H24.22V32.1H34.22V33.9H30.24V47H28.26ZM39.603 47.24C38.563 47.24 37.623 47 36.783 46.52C35.943 46.0267 35.2763 45.3533 34.783 44.5C34.2896 43.6467 34.043 42.68 34.043 41.6C34.043 40.52 34.283 39.56 34.763 38.72C35.2563 37.88 35.923 37.2133 36.763 36.72C37.603 36.2267 38.5496 35.98 39.603 35.98C40.643 35.98 41.583 36.2267 42.423 36.72C43.263 37.2 43.923 37.86 44.403 38.7C44.8963 39.54 45.143 40.5067 45.143 41.6C45.143 42.6933 44.8896 43.6667 44.383 44.52C43.8763 45.36 43.203 46.0267 42.363 46.52C41.5363 47 40.6163 47.24 39.603 47.24ZM39.603 45.44C40.2696 45.44 40.8696 45.2733 41.403 44.94C41.9496 44.6067 42.3763 44.1467 42.683 43.56C43.003 42.9733 43.163 42.32 43.163 41.6C43.163 40.8667 43.003 40.22 42.683 39.66C42.3763 39.0867 41.9496 38.6333 41.403 38.3C40.8696 37.9533 40.2696 37.78 39.603 37.78C38.923 37.78 38.3096 37.9533 37.763 38.3C37.2296 38.6333 36.803 39.0867 36.483 39.66C36.163 40.22 36.003 40.8667 36.003 41.6C36.003 42.32 36.163 42.9733 36.483 43.56C36.803 44.1467 37.2296 44.6067 37.763 44.94C38.3096 45.2733 38.923 45.44 39.603 45.44ZM51.7536 47.12C50.7003 47.12 49.8869 46.82 49.3136 46.22C48.7536 45.62 48.4736 44.7733 48.4736 43.68V38H46.5136V36.22H46.9136C47.3936 36.22 47.7736 36.0733 48.0536 35.78C48.3336 35.4867 48.4736 35.1 48.4736 34.62V33.74H50.3336V36.22H52.7536V38H50.3336V43.62C50.3336 43.98 50.3869 44.2933 50.4936 44.56C50.6136 44.8267 50.8069 45.04 51.0736 45.2C51.3403 45.3467 51.6936 45.42 52.1336 45.42C52.2269 45.42 52.3403 45.4133 52.4736 45.4C52.6203 45.3867 52.7536 45.3733 52.8736 45.36V47C52.7003 47.04 52.5069 47.0667 52.2936 47.08C52.0803 47.1067 51.9003 47.12 51.7536 47.12ZM58.3266 47.24C57.6199 47.24 56.9932 47.1133 56.4466 46.86C55.9132 46.5933 55.4932 46.2333 55.1866 45.78C54.8799 45.3133 54.7266 44.78 54.7266 44.18C54.7266 43.6067 54.8466 43.0933 55.0866 42.64C55.3399 42.1733 55.7266 41.78 56.2466 41.46C56.7799 41.14 57.4466 40.9133 58.2466 40.78L62.2466 40.12V41.68L58.6666 42.28C57.9732 42.4 57.4666 42.62 57.1466 42.94C56.8399 43.26 56.6866 43.6533 56.6866 44.12C56.6866 44.56 56.8599 44.9267 57.2066 45.22C57.5666 45.5133 58.0132 45.66 58.5466 45.66C59.2266 45.66 59.8132 45.52 60.3066 45.24C60.8132 44.9467 61.2066 44.5533 61.4866 44.06C61.7799 43.5667 61.9266 43.02 61.9266 42.42V39.68C61.9266 39.0933 61.7066 38.62 61.2666 38.26C60.8399 37.8867 60.2732 37.7 59.5666 37.7C58.9532 37.7 58.4066 37.86 57.9266 38.18C57.4599 38.4867 57.1132 38.9 56.8866 39.42L55.2666 38.58C55.4666 38.0867 55.7866 37.6467 56.2266 37.26C56.6666 36.86 57.1799 36.5467 57.7666 36.32C58.3532 36.0933 58.9666 35.98 59.6066 35.98C60.4332 35.98 61.1599 36.14 61.7866 36.46C62.4132 36.7667 62.8999 37.2 63.2466 37.76C63.6066 38.3067 63.7866 38.9467 63.7866 39.68V47H61.9666V44.96L62.3066 45.08C62.0799 45.5067 61.7732 45.88 61.3866 46.2C60.9999 46.52 60.5466 46.7733 60.0266 46.96C59.5066 47.1467 58.9399 47.24 58.3266 47.24ZM66.6705 47V31.86H68.5305V47H66.6705ZM82.2136 47.24C81.1603 47.24 80.1736 47.0533 79.2536 46.68C78.3336 46.2933 77.5269 45.7533 76.8336 45.06C76.1536 44.3667 75.6203 43.5533 75.2336 42.62C74.8469 41.6733 74.6536 40.6467 74.6536 39.54C74.6536 38.42 74.8469 37.3933 75.2336 36.46C75.6203 35.5267 76.1536 34.7133 76.8336 34.02C77.5269 33.3267 78.3269 32.7933 79.2336 32.42C80.1536 32.0467 81.1469 31.86 82.2136 31.86C83.2803 31.86 84.2669 32.0533 85.1736 32.44C86.0936 32.8133 86.8936 33.3467 87.5736 34.04C88.2669 34.72 88.8069 35.5267 89.1936 36.46C89.5936 37.3933 89.7936 38.42 89.7936 39.54C89.7936 40.6467 89.5936 41.6733 89.1936 42.62C88.8069 43.5533 88.2669 44.3667 87.5736 45.06C86.8936 45.7533 86.0936 46.2933 85.1736 46.68C84.2669 47.0533 83.2803 47.24 82.2136 47.24ZM82.2136 45.42C83.0403 45.42 83.7936 45.2733 84.4736 44.98C85.1536 44.6733 85.7403 44.2533 86.2336 43.72C86.7403 43.1733 87.1269 42.5467 87.3936 41.84C87.6736 41.12 87.8136 40.3533 87.8136 39.54C87.8136 38.7267 87.6736 37.9667 87.3936 37.26C87.1269 36.5533 86.7403 35.9333 86.2336 35.4C85.7403 34.8533 85.1536 34.4333 84.4736 34.14C83.7936 33.8333 83.0403 33.68 82.2136 33.68C81.4003 33.68 80.6536 33.8333 79.9736 34.14C79.2936 34.4333 78.7003 34.8533 78.1936 35.4C77.7003 35.9333 77.3136 36.5533 77.0336 37.26C76.7536 37.9667 76.6136 38.7267 76.6136 39.54C76.6136 40.3533 76.7536 41.12 77.0336 41.84C77.3136 42.5467 77.7003 43.1733 78.1936 43.72C78.7003 44.2533 79.2936 44.6733 79.9736 44.98C80.6536 45.2733 81.4003 45.42 82.2136 45.42ZM96.2522 47.24C95.4789 47.24 94.7789 47.06 94.1522 46.7C93.5389 46.34 93.0589 45.84 92.7122 45.2C92.3789 44.5467 92.2122 43.8 92.2122 42.96V36.22H94.0722V42.76C94.0722 43.2933 94.1789 43.76 94.3922 44.16C94.6189 44.56 94.9255 44.8733 95.3122 45.1C95.7122 45.3267 96.1655 45.44 96.6722 45.44C97.1789 45.44 97.6255 45.3267 98.0122 45.1C98.4122 44.8733 98.7189 44.5467 98.9322 44.12C99.1589 43.6933 99.2722 43.1867 99.2722 42.6V36.22H101.152V47H99.3322V44.9L99.6322 45.08C99.3789 45.76 98.9455 46.2933 98.3322 46.68C97.7322 47.0533 97.0389 47.24 96.2522 47.24ZM108.414 47.12C107.36 47.12 106.547 46.82 105.974 46.22C105.414 45.62 105.134 44.7733 105.134 43.68V38H103.174V36.22H103.574C104.054 36.22 104.434 36.0733 104.714 35.78C104.994 35.4867 105.134 35.1 105.134 34.62V33.74H106.994V36.22H109.414V38H106.994V43.62C106.994 43.98 107.047 44.2933 107.154 44.56C107.274 44.8267 107.467 45.04 107.734 45.2C108 45.3467 108.354 45.42 108.794 45.42C108.887 45.42 109 45.4133 109.134 45.4C109.28 45.3867 109.414 45.3733 109.534 45.36V47C109.36 47.04 109.167 47.0667 108.954 47.08C108.74 47.1067 108.56 47.12 108.414 47.12ZM115.823 47.24C114.743 47.24 113.803 46.9733 113.003 46.44C112.203 45.9067 111.637 45.1867 111.303 44.28L112.783 43.56C113.09 44.2 113.51 44.7067 114.043 45.08C114.577 45.4533 115.17 45.64 115.823 45.64C116.41 45.64 116.897 45.5 117.283 45.22C117.67 44.94 117.863 44.5733 117.863 44.12C117.863 43.8 117.77 43.5467 117.583 43.36C117.41 43.16 117.197 43.0067 116.943 42.9C116.69 42.78 116.457 42.6933 116.243 42.64L114.623 42.18C113.65 41.9 112.937 41.5 112.483 40.98C112.043 40.46 111.823 39.8533 111.823 39.16C111.823 38.52 111.983 37.9667 112.303 37.5C112.637 37.02 113.083 36.6467 113.643 36.38C114.217 36.1133 114.857 35.98 115.563 35.98C116.51 35.98 117.357 36.22 118.103 36.7C118.863 37.18 119.403 37.8533 119.723 38.72L118.203 39.42C117.963 38.86 117.603 38.42 117.123 38.1C116.643 37.7667 116.103 37.6 115.503 37.6C114.957 37.6 114.523 37.74 114.203 38.02C113.883 38.2867 113.723 38.6267 113.723 39.04C113.723 39.3467 113.803 39.6 113.963 39.8C114.123 39.9867 114.317 40.1333 114.543 40.24C114.77 40.3333 114.99 40.4133 115.203 40.48L116.963 41C117.843 41.2533 118.523 41.6467 119.003 42.18C119.497 42.7133 119.743 43.3533 119.743 44.1C119.743 44.7 119.577 45.24 119.243 45.72C118.91 46.2 118.45 46.5733 117.863 46.84C117.277 47.1067 116.597 47.24 115.823 47.24ZM126.558 47.12C125.505 47.12 124.692 46.82 124.118 46.22C123.558 45.62 123.278 44.7733 123.278 43.68V38H121.318V36.22H121.718C122.198 36.22 122.578 36.0733 122.858 35.78C123.138 35.4867 123.278 35.1 123.278 34.62V33.74H125.138V36.22H127.558V38H125.138V43.62C125.138 43.98 125.192 44.2933 125.298 44.56C125.418 44.8267 125.612 45.04 125.878 45.2C126.145 45.3467 126.498 45.42 126.938 45.42C127.032 45.42 127.145 45.4133 127.278 45.4C127.425 45.3867 127.558 45.3733 127.678 45.36V47C127.505 47.04 127.312 47.0667 127.098 47.08C126.885 47.1067 126.705 47.12 126.558 47.12ZM133.131 47.24C132.425 47.24 131.798 47.1133 131.251 46.86C130.718 46.5933 130.298 46.2333 129.991 45.78C129.685 45.3133 129.531 44.78 129.531 44.18C129.531 43.6067 129.651 43.0933 129.891 42.64C130.145 42.1733 130.531 41.78 131.051 41.46C131.585 41.14 132.251 40.9133 133.051 40.78L137.051 40.12V41.68L133.471 42.28C132.778 42.4 132.271 42.62 131.951 42.94C131.645 43.26 131.491 43.6533 131.491 44.12C131.491 44.56 131.665 44.9267 132.011 45.22C132.371 45.5133 132.818 45.66 133.351 45.66C134.031 45.66 134.618 45.52 135.111 45.24C135.618 44.9467 136.011 44.5533 136.291 44.06C136.585 43.5667 136.731 43.02 136.731 42.42V39.68C136.731 39.0933 136.511 38.62 136.071 38.26C135.645 37.8867 135.078 37.7 134.371 37.7C133.758 37.7 133.211 37.86 132.731 38.18C132.265 38.4867 131.918 38.9 131.691 39.42L130.071 38.58C130.271 38.0867 130.591 37.6467 131.031 37.26C131.471 36.86 131.985 36.5467 132.571 36.32C133.158 36.0933 133.771 35.98 134.411 35.98C135.238 35.98 135.965 36.14 136.591 36.46C137.218 36.7667 137.705 37.2 138.051 37.76C138.411 38.3067 138.591 38.9467 138.591 39.68V47H136.771V44.96L137.111 45.08C136.885 45.5067 136.578 45.88 136.191 46.2C135.805 46.52 135.351 46.7733 134.831 46.96C134.311 47.1467 133.745 47.24 133.131 47.24ZM141.475 47V36.22H143.295V38.32L142.995 38.14C143.262 37.46 143.688 36.9333 144.275 36.56C144.875 36.1733 145.575 35.98 146.375 35.98C147.148 35.98 147.835 36.1533 148.435 36.5C149.048 36.8467 149.528 37.3267 149.875 37.94C150.235 38.5533 150.415 39.2467 150.415 40.02V47H148.535V40.62C148.535 40.02 148.428 39.5133 148.215 39.1C148.002 38.6867 147.695 38.3667 147.295 38.14C146.908 37.9 146.462 37.78 145.955 37.78C145.448 37.78 144.995 37.9 144.595 38.14C144.208 38.3667 143.902 38.6933 143.675 39.12C143.448 39.5333 143.335 40.0333 143.335 40.62V47H141.475ZM157.977 47.24C156.963 47.24 156.05 46.9933 155.237 46.5C154.437 46.0067 153.803 45.3333 153.337 44.48C152.87 43.6267 152.637 42.6733 152.637 41.62C152.637 40.54 152.87 39.58 153.337 38.74C153.803 37.8867 154.437 37.2133 155.237 36.72C156.05 36.2267 156.963 35.98 157.977 35.98C158.87 35.98 159.663 36.1733 160.357 36.56C161.05 36.9333 161.597 37.44 161.997 38.08L161.697 38.54V31.86H163.577V47H161.757V44.7L161.997 45.02C161.623 45.7267 161.077 46.2733 160.357 46.66C159.65 47.0467 158.857 47.24 157.977 47.24ZM158.137 45.44C158.817 45.44 159.423 45.2733 159.957 44.94C160.49 44.6067 160.91 44.1533 161.217 43.58C161.537 42.9933 161.697 42.34 161.697 41.62C161.697 40.8867 161.537 40.2333 161.217 39.66C160.91 39.0733 160.49 38.6133 159.957 38.28C159.423 37.9467 158.817 37.78 158.137 37.78C157.47 37.78 156.863 37.9533 156.317 38.3C155.783 38.6333 155.363 39.0867 155.057 39.66C154.75 40.22 154.597 40.8733 154.597 41.62C154.597 42.34 154.75 42.9933 155.057 43.58C155.363 44.1533 155.783 44.6067 156.317 44.94C156.85 45.2733 157.457 45.44 158.137 45.44ZM166.456 47V36.22H168.316V47H166.456ZM166.456 34.5V32.1H168.316V34.5H166.456ZM171.202 47V36.22H173.022V38.32L172.722 38.14C172.988 37.46 173.415 36.9333 174.002 36.56C174.602 36.1733 175.302 35.98 176.102 35.98C176.875 35.98 177.562 36.1533 178.162 36.5C178.775 36.8467 179.255 37.3267 179.602 37.94C179.962 38.5533 180.142 39.2467 180.142 40.02V47H178.262V40.62C178.262 40.02 178.155 39.5133 177.942 39.1C177.728 38.6867 177.422 38.3667 177.022 38.14C176.635 37.9 176.188 37.78 175.682 37.78C175.175 37.78 174.722 37.9 174.322 38.14C173.935 38.3667 173.628 38.6933 173.402 39.12C173.175 39.5333 173.062 40.0333 173.062 40.62V47H171.202ZM187.943 51.4C187.183 51.4 186.477 51.28 185.823 51.04C185.183 50.8 184.63 50.4667 184.163 50.04C183.71 49.6267 183.363 49.14 183.123 48.58L184.863 47.78C185.05 48.2867 185.403 48.7133 185.923 49.06C186.457 49.42 187.123 49.6 187.923 49.6C188.537 49.6 189.09 49.48 189.583 49.24C190.09 49.0133 190.49 48.6667 190.783 48.2C191.077 47.7467 191.223 47.1933 191.223 46.54V44.12L191.563 44.48C191.19 45.2133 190.65 45.7733 189.943 46.16C189.25 46.5467 188.483 46.74 187.643 46.74C186.63 46.74 185.723 46.5067 184.923 46.04C184.123 45.56 183.497 44.9133 183.043 44.1C182.59 43.2733 182.363 42.36 182.363 41.36C182.363 40.3467 182.59 39.4333 183.043 38.62C183.497 37.8067 184.117 37.1667 184.903 36.7C185.703 36.22 186.61 35.98 187.623 35.98C188.463 35.98 189.223 36.1733 189.903 36.56C190.597 36.9333 191.15 37.4533 191.563 38.12L191.283 38.62V36.22H193.103V46.54C193.103 47.4733 192.883 48.3067 192.443 49.04C192.003 49.7733 191.39 50.3467 190.603 50.76C189.83 51.1867 188.943 51.4 187.943 51.4ZM187.803 44.94C188.443 44.94 189.017 44.78 189.523 44.46C190.043 44.14 190.457 43.7133 190.763 43.18C191.07 42.6333 191.223 42.0267 191.223 41.36C191.223 40.7067 191.07 40.1067 190.763 39.56C190.457 39.0133 190.043 38.58 189.523 38.26C189.017 37.94 188.443 37.78 187.803 37.78C187.15 37.78 186.557 37.94 186.023 38.26C185.49 38.58 185.07 39.0133 184.763 39.56C184.47 40.0933 184.323 40.6933 184.323 41.36C184.323 42.0267 184.47 42.6333 184.763 43.18C185.07 43.7133 185.483 44.14 186.003 44.46C186.537 44.78 187.137 44.94 187.803 44.94Z" fill="#141522"/>
<rect x="715.5" y="24.5" width="35" height="29" rx="7.5" fill="#F4F4F5"/>
<rect x="715.5" y="24.5" width="35" height="29" rx="7.5" stroke="#E4E4E7"/>
<path d="M726.831 45V35.76H724.857V34.57H728.217V45H726.831ZM730.847 45V34.57H732.107L736.013 40.128H735.369L739.247 34.57H740.507V45H739.121V36.306L739.611 36.46L735.733 41.92H735.621L731.785 36.46L732.219 36.306V45H730.847Z" fill="#141522"/>
<path d="M770.929 45.168C770.387 45.168 769.888 45.0747 769.431 44.888C768.973 44.7013 768.572 44.4353 768.227 44.09C767.891 43.7447 767.634 43.334 767.457 42.858L768.353 42.438C768.567 42.9793 768.903 43.4087 769.361 43.726C769.818 44.034 770.341 44.188 770.929 44.188C771.395 44.188 771.811 44.0993 772.175 43.922C772.539 43.7353 772.823 43.4693 773.029 43.124C773.234 42.7787 773.337 42.3587 773.337 41.864C773.337 41.3693 773.229 40.9493 773.015 40.604C772.809 40.2587 772.525 39.9973 772.161 39.82C771.797 39.6427 771.381 39.554 770.915 39.554C770.793 39.554 770.658 39.5587 770.509 39.568C770.369 39.5773 770.252 39.5913 770.159 39.61L769.935 39.12L772.749 35.55H767.947V34.57H774.009V35.55L771.377 38.868L771.237 38.686C771.862 38.7047 772.417 38.854 772.903 39.134C773.388 39.4047 773.766 39.7733 774.037 40.24C774.317 40.7067 774.457 41.248 774.457 41.864C774.457 42.48 774.307 43.04 774.009 43.544C773.71 44.0387 773.295 44.4353 772.763 44.734C772.231 45.0233 771.619 45.168 770.929 45.168ZM776.716 45V34.57H777.696L781.616 40.254H781.07L784.976 34.57H785.956V45H784.836V36.082L785.2 36.222L781.364 41.78H781.308L777.486 36.222L777.836 36.082V45H776.716Z" fill="#70707A"/>
<path d="M815.102 45.168C814.448 45.168 813.87 45.0233 813.366 44.734C812.862 44.4353 812.465 44.0293 812.176 43.516C811.886 42.9933 811.742 42.396 811.742 41.724C811.742 41.3507 811.784 40.982 811.868 40.618C811.961 40.254 812.096 39.8947 812.274 39.54C812.46 39.1853 812.684 38.8307 812.946 38.476L815.886 34.57H817.23L813.604 39.316L813.394 39.442C813.534 39.2087 813.697 39.0313 813.884 38.91C814.07 38.7793 814.276 38.686 814.5 38.63C814.733 38.574 814.98 38.546 815.242 38.546C815.848 38.546 816.394 38.6907 816.88 38.98C817.365 39.26 817.748 39.6473 818.028 40.142C818.317 40.6367 818.462 41.2107 818.462 41.864C818.462 42.4893 818.312 43.054 818.014 43.558C817.724 44.0527 817.328 44.4447 816.824 44.734C816.32 45.0233 815.746 45.168 815.102 45.168ZM815.102 44.188C815.531 44.188 815.914 44.09 816.25 43.894C816.586 43.6887 816.852 43.4087 817.048 43.054C817.244 42.6993 817.342 42.3027 817.342 41.864C817.342 41.416 817.244 41.0193 817.048 40.674C816.861 40.3287 816.6 40.058 816.264 39.862C815.928 39.6567 815.54 39.554 815.102 39.554C814.672 39.554 814.285 39.6567 813.94 39.862C813.604 40.058 813.338 40.3287 813.142 40.674C812.955 41.0193 812.862 41.416 812.862 41.864C812.862 42.3027 812.96 42.6993 813.156 43.054C813.352 43.4087 813.618 43.6887 813.954 43.894C814.29 44.09 814.672 44.188 815.102 44.188ZM820.627 45V34.57H821.607L825.527 40.254H824.981L828.887 34.57H829.867V45H828.747V36.082L829.111 36.222L825.275 41.78H825.219L821.397 36.222L821.747 36.082V45H820.627Z" fill="#70707A"/>
<path d="M860.505 45V35.55H858.545V34.57H861.625V45H860.505ZM867.114 45V40.156L863.46 34.57H864.706L867.898 39.428H867.45L870.628 34.57H871.874L868.234 40.156V45H867.114Z" fill="#70707A"/>
<path d="M34.2 111.4V107.24C31.5067 106.867 29.4 105.867 27.88 104.24C26.36 102.587 25.6 100.64 25.6 98.4H29.8C29.8 99.76 30.4267 100.933 31.68 101.92C32.96 102.907 34.6 103.4 36.6 103.4C38.7867 103.4 40.4 103.027 41.44 102.28C42.48 101.507 43 100.48 43 99.2C43 97.1467 41.4 95.8133 38.2 95.2L32.8 94.2C30.6133 93.8 28.96 92.96 27.84 91.68C26.7467 90.4 26.2 88.7733 26.2 86.8C26.2 84.7467 26.92 82.9733 28.36 81.48C29.8 79.9867 31.7467 79.08 34.2 78.76V74.6H38.2V78.72C40.9733 79.0933 43.0933 80.0933 44.56 81.72C46.0533 83.32 46.8 85.28 46.8 87.6H42.6C42.6 86.24 42.0133 85.0667 40.84 84.08C39.6667 83.0933 38.12 82.6 36.2 82.6C34.3867 82.6 32.96 83.0133 31.92 83.84C30.9067 84.64 30.4 85.6267 30.4 86.8C30.4 88.7733 31.8 90.04 34.6 90.6L39 91.4C41.8267 91.9067 43.8933 92.7867 45.2 94.04C46.5333 95.2667 47.2 96.9867 47.2 99.2C47.2 101.413 46.4133 103.267 44.84 104.76C43.2933 106.253 41.08 107.107 38.2 107.32V111.4H34.2ZM55.4 107V86H49.6V82H54.2C55 82 55.4 81.6 55.4 80.8V79H59.6V107H55.4ZM64.1844 107V103.4L75.7044 91.8C76.4777 91.0267 77.011 90.3467 77.3044 89.76C77.6244 89.1467 77.7844 88.36 77.7844 87.4C77.7844 85.88 77.371 84.7067 76.5444 83.88C75.7444 83.0267 74.6244 82.6 73.1844 82.6C71.771 82.6 70.5844 83.1067 69.6244 84.12C68.6644 85.1333 68.1844 86.4267 68.1844 88H63.9844C63.9844 85.2 64.8377 82.9333 66.5444 81.2C68.251 79.4667 70.4644 78.6 73.1844 78.6C75.9044 78.6 78.0777 79.4133 79.7044 81.04C81.3577 82.64 82.1844 84.76 82.1844 87.4C82.1844 88.92 81.8377 90.24 81.1444 91.36C80.4777 92.48 79.491 93.6933 78.1844 95L70.3844 102.8V103H82.5844V107H64.1844ZM85.5766 110.4L86.3766 102.4H90.9766L88.7766 110.4H85.5766ZM99.5906 107V86H93.7906V82H98.3906C99.1906 82 99.5906 81.6 99.5906 80.8V79H103.791V107H99.5906ZM107.775 99H111.975C111.975 100.147 112.482 101.173 113.495 102.08C114.535 102.96 115.828 103.4 117.375 103.4C119.028 103.4 120.308 103 121.215 102.2C122.122 101.4 122.575 100.333 122.575 99C122.575 97.7467 122.082 96.7067 121.095 95.88C120.135 95.0267 118.828 94.6 117.175 94.6H115.375V90.8H117.175C118.722 90.8 119.935 90.4133 120.815 89.64C121.722 88.84 122.175 87.8267 122.175 86.6C122.175 85.4533 121.735 84.5067 120.855 83.76C120.002 82.9867 118.842 82.6 117.375 82.6C115.882 82.6 114.668 82.9867 113.735 83.76C112.828 84.5067 112.375 85.4533 112.375 86.6H108.175C108.175 84.36 109.015 82.4667 110.695 80.92C112.402 79.3733 114.628 78.6 117.375 78.6C120.042 78.6 122.202 79.3733 123.855 80.92C125.535 82.4667 126.375 84.36 126.375 86.6C126.375 88.4133 125.708 89.96 124.375 91.24C123.788 91.8 123.122 92.2533 122.375 92.6V92.8C123.202 93.1733 123.935 93.64 124.575 94.2C126.042 95.56 126.775 97.2267 126.775 99.2C126.775 101.547 125.895 103.507 124.135 105.08C122.402 106.627 120.148 107.4 117.375 107.4C114.522 107.4 112.202 106.6 110.415 105C108.655 103.373 107.775 101.373 107.775 99ZM130.158 99.4H134.358C134.598 100.52 135.171 101.467 136.078 102.24C137.011 103.013 138.238 103.4 139.758 103.4C141.464 103.4 142.824 102.893 143.838 101.88C144.851 100.867 145.358 99.5067 145.358 97.8C145.358 96.2 144.838 94.9067 143.798 93.92C142.784 92.9067 141.438 92.4 139.758 92.4C137.758 92.4 136.224 93.0667 135.158 94.4H130.758L132.358 79H147.958V83H135.958L135.158 89.8H135.358C136.798 88.8667 138.464 88.4 140.358 88.4C142.998 88.4 145.184 89.2933 146.918 91.08C148.678 92.84 149.558 95.08 149.558 97.8C149.558 100.6 148.638 102.907 146.798 104.72C144.984 106.507 142.638 107.4 139.758 107.4C138.184 107.4 136.771 107.147 135.518 106.64C134.291 106.133 133.318 105.467 132.598 104.64C131.878 103.813 131.318 102.96 130.918 102.08C130.544 101.2 130.291 100.307 130.158 99.4Z" fill="#141522"/>
<path d="M152.886 107V103.32H156.566V107H152.886ZM164.097 102.84C164.95 103.693 166.017 104.12 167.297 104.12C168.577 104.12 169.644 103.693 170.497 102.84C171.35 101.987 171.777 100.92 171.777 99.64C171.777 98.36 171.35 97.2933 170.497 96.44C169.644 95.5867 168.577 95.16 167.297 95.16C166.017 95.16 164.95 95.5867 164.097 96.44C163.244 97.2933 162.817 98.36 162.817 99.64C162.817 100.92 163.244 101.987 164.097 102.84ZM160.737 95.16L167.457 84.6H171.297L166.337 92.28H166.497L166.913 92.216C167.425 92.152 167.766 92.12 167.937 92.12C169.942 92.12 171.638 92.856 173.025 94.328C174.433 95.7787 175.137 97.5493 175.137 99.64C175.137 101.816 174.39 103.64 172.897 105.112C171.404 106.584 169.537 107.32 167.297 107.32C165.057 107.32 163.19 106.584 161.697 105.112C160.204 103.64 159.457 101.816 159.457 99.64C159.457 98.0187 159.884 96.5253 160.737 95.16ZM181.058 95.16C181.911 96.0133 182.978 96.44 184.258 96.44C185.538 96.44 186.605 96.0133 187.458 95.16C188.311 94.3067 188.738 93.24 188.738 91.96C188.738 90.68 188.311 89.6133 187.458 88.76C186.605 87.9067 185.538 87.48 184.258 87.48C182.978 87.48 181.911 87.9067 181.058 88.76C180.205 89.6133 179.778 90.68 179.778 91.96C179.778 93.24 180.205 94.3067 181.058 95.16ZM180.258 107L185.218 99.32H185.058L184.642 99.416C184.301 99.4587 183.959 99.48 183.618 99.48C181.613 99.48 179.906 98.7547 178.498 97.304C177.111 95.832 176.418 94.0507 176.418 91.96C176.418 89.784 177.165 87.96 178.658 86.488C180.151 85.016 182.018 84.28 184.258 84.28C186.498 84.28 188.365 85.016 189.858 86.488C191.351 87.96 192.098 89.784 192.098 91.96C192.098 93.5813 191.671 95.0747 190.818 96.44L184.098 107H180.258Z" fill="#9096A2"/>
<rect x="726" y="87" width="61" height="26" rx="13" fill="#CEEFDF"/>
<path d="M738.304 107V103.688H734.992V102.296H738.304V99H739.696V102.296H742.992V103.688H739.696V107H738.304ZM744.528 107V105.912L747.824 102.344C748.475 101.651 748.992 101.08 749.376 100.632C749.771 100.184 750.059 99.784 750.24 99.432C750.422 99.08 750.512 98.7067 750.512 98.312C750.512 97.6613 750.32 97.16 749.936 96.808C749.552 96.456 749.046 96.28 748.416 96.28C747.776 96.28 747.232 96.4667 746.784 96.84C746.336 97.2027 746.027 97.72 745.856 98.392L744.432 98.024C744.571 97.384 744.827 96.8293 745.2 96.36C745.574 95.8907 746.038 95.528 746.592 95.272C747.147 95.016 747.755 94.888 748.416 94.888C749.142 94.888 749.776 95.032 750.32 95.32C750.875 95.5973 751.307 95.9867 751.616 96.488C751.936 96.9893 752.096 97.5707 752.096 98.232C752.096 98.6693 752.006 99.096 751.824 99.512C751.643 99.928 751.376 100.371 751.024 100.84C750.672 101.299 750.214 101.832 749.648 102.44L746.704 105.64H752.352V107H744.528ZM757.627 107.192C756.997 107.192 756.411 107.08 755.867 106.856C755.323 106.632 754.853 106.317 754.459 105.912C754.064 105.496 753.771 105.005 753.579 104.44L754.907 103.896C755.131 104.493 755.483 104.957 755.963 105.288C756.443 105.619 756.997 105.784 757.627 105.784C758.117 105.784 758.555 105.688 758.939 105.496C759.323 105.304 759.621 105.027 759.835 104.664C760.059 104.301 760.171 103.864 760.171 103.352C760.171 102.829 760.059 102.392 759.835 102.04C759.621 101.677 759.323 101.4 758.939 101.208C758.555 101.016 758.112 100.92 757.611 100.92C757.451 100.92 757.275 100.931 757.083 100.952C756.901 100.973 756.747 101.005 756.619 101.048L756.283 100.328L759.467 96.44H754.187V95.08H761.243V96.392L758.203 100.136L758.107 99.72C758.821 99.7413 759.451 99.9067 759.995 100.216C760.539 100.525 760.965 100.947 761.275 101.48C761.584 102.003 761.739 102.616 761.739 103.32C761.739 104.045 761.563 104.701 761.211 105.288C760.859 105.875 760.373 106.339 759.755 106.68C759.136 107.021 758.427 107.192 757.627 107.192ZM764.656 107L774.384 95.08H776.16L766.432 107H764.656ZM766.448 101.128C765.861 101.128 765.333 100.989 764.864 100.712C764.395 100.424 764.016 100.045 763.728 99.576C763.451 99.1067 763.312 98.584 763.312 98.008C763.312 97.432 763.451 96.9093 763.728 96.44C764.016 95.96 764.395 95.5813 764.864 95.304C765.333 95.0267 765.861 94.888 766.448 94.888C767.024 94.888 767.547 95.0267 768.016 95.304C768.485 95.5813 768.859 95.96 769.136 96.44C769.413 96.9093 769.552 97.432 769.552 98.008C769.552 98.584 769.413 99.1067 769.136 99.576C768.859 100.045 768.485 100.424 768.016 100.712C767.547 100.989 767.024 101.128 766.448 101.128ZM766.432 99.816C766.795 99.816 767.104 99.7307 767.36 99.56C767.616 99.3893 767.819 99.1653 767.968 98.888C768.117 98.6107 768.192 98.3173 768.192 98.008C768.192 97.688 768.117 97.3947 767.968 97.128C767.819 96.8507 767.616 96.6267 767.36 96.456C767.104 96.2747 766.795 96.184 766.432 96.184C766.091 96.184 765.787 96.2747 765.52 96.456C765.253 96.6267 765.045 96.8507 764.896 97.128C764.747 97.4053 764.672 97.6987 764.672 98.008C764.672 98.3067 764.747 98.6 764.896 98.888C765.045 99.1653 765.253 99.3893 765.52 99.56C765.787 99.7307 766.091 99.816 766.432 99.816ZM774.272 107.192C773.685 107.192 773.157 107.053 772.688 106.776C772.219 106.488 771.84 106.109 771.552 105.64C771.275 105.171 771.136 104.648 771.136 104.072C771.136 103.496 771.275 102.973 771.552 102.504C771.84 102.024 772.219 101.645 772.688 101.368C773.157 101.091 773.685 100.952 774.272 100.952C774.848 100.952 775.371 101.091 775.84 101.368C776.309 101.645 776.683 102.024 776.96 102.504C777.237 102.973 777.376 103.496 777.376 104.072C777.376 104.648 777.237 105.171 776.96 105.64C776.683 106.109 776.309 106.488 775.84 106.776C775.371 107.053 774.848 107.192 774.272 107.192ZM774.272 105.88C774.624 105.88 774.928 105.795 775.184 105.624C775.451 105.453 775.653 105.229 775.792 104.952C775.941 104.675 776.016 104.381 776.016 104.072C776.016 103.752 775.941 103.459 775.792 103.192C775.653 102.915 775.451 102.691 775.184 102.52C774.928 102.339 774.624 102.248 774.272 102.248C773.931 102.248 773.621 102.339 773.344 102.52C773.077 102.691 772.869 102.915 772.72 103.192C772.571 103.469 772.496 103.763 772.496 104.072C772.496 104.371 772.571 104.664 772.72 104.952C772.869 105.229 773.077 105.453 773.344 105.624C773.621 105.795 773.931 105.88 774.272 105.88Z" fill="#0AAF60"/>
<path d="M798.08 106L795.154 98.496H796.33L798.794 105.076H798.416L800.894 98.496H802.084L799.13 106H798.08ZM806.054 106.168C805.336 106.168 804.706 105.986 804.164 105.622C803.623 105.258 803.231 104.763 802.988 104.138L803.87 103.718C804.085 104.175 804.384 104.539 804.766 104.81C805.158 105.081 805.588 105.216 806.054 105.216C806.502 105.216 806.88 105.109 807.188 104.894C807.496 104.67 807.65 104.381 807.65 104.026C807.65 103.765 807.576 103.559 807.426 103.41C807.277 103.251 807.104 103.13 806.908 103.046C806.712 102.962 806.54 102.901 806.39 102.864L805.312 102.556C804.622 102.36 804.122 102.085 803.814 101.73C803.506 101.375 803.352 100.965 803.352 100.498C803.352 100.059 803.464 99.6767 803.688 99.35C803.912 99.0233 804.216 98.7713 804.598 98.594C804.981 98.4167 805.406 98.328 805.872 98.328C806.507 98.328 807.081 98.496 807.594 98.832C808.117 99.1587 808.486 99.616 808.7 100.204L807.804 100.624C807.618 100.204 807.347 99.8773 806.992 99.644C806.647 99.4013 806.26 99.28 805.83 99.28C805.41 99.28 805.074 99.3873 804.822 99.602C804.57 99.8167 804.444 100.087 804.444 100.414C804.444 100.666 804.51 100.867 804.64 101.016C804.771 101.165 804.92 101.277 805.088 101.352C805.266 101.427 805.42 101.483 805.55 101.52L806.796 101.884C807.403 102.061 807.874 102.337 808.21 102.71C808.556 103.083 808.728 103.522 808.728 104.026C808.728 104.437 808.612 104.805 808.378 105.132C808.154 105.459 807.842 105.715 807.44 105.902C807.039 106.079 806.577 106.168 806.054 106.168ZM813.232 106V95.402H814.282V106H813.232ZM818.742 106.168C818.266 106.168 817.841 106.079 817.468 105.902C817.094 105.715 816.8 105.463 816.586 105.146C816.371 104.829 816.264 104.465 816.264 104.054C816.264 103.662 816.348 103.307 816.516 102.99C816.684 102.663 816.945 102.388 817.3 102.164C817.654 101.94 818.107 101.781 818.658 101.688L821.598 101.198V102.15L818.91 102.598C818.368 102.691 817.976 102.864 817.734 103.116C817.5 103.368 817.384 103.667 817.384 104.012C817.384 104.348 817.514 104.633 817.776 104.866C818.046 105.099 818.392 105.216 818.812 105.216C819.325 105.216 819.773 105.109 820.156 104.894C820.538 104.67 820.837 104.371 821.052 103.998C821.266 103.625 821.374 103.209 821.374 102.752V100.848C821.374 100.4 821.21 100.036 820.884 99.756C820.557 99.476 820.132 99.336 819.61 99.336C819.152 99.336 818.751 99.4527 818.406 99.686C818.06 99.91 817.804 100.204 817.636 100.568L816.684 100.05C816.824 99.7327 817.043 99.4433 817.342 99.182C817.65 98.9207 818 98.7153 818.392 98.566C818.784 98.4073 819.19 98.328 819.61 98.328C820.16 98.328 820.646 98.4353 821.066 98.65C821.495 98.8647 821.826 99.1633 822.06 99.546C822.302 99.9193 822.424 100.353 822.424 100.848V106H821.374V104.502L821.528 104.656C821.397 104.936 821.192 105.193 820.912 105.426C820.641 105.65 820.319 105.832 819.946 105.972C819.582 106.103 819.18 106.168 818.742 106.168ZM827.327 106.168C826.609 106.168 825.979 105.986 825.437 105.622C824.896 105.258 824.504 104.763 824.261 104.138L825.143 103.718C825.358 104.175 825.657 104.539 826.039 104.81C826.431 105.081 826.861 105.216 827.327 105.216C827.775 105.216 828.153 105.109 828.461 104.894C828.769 104.67 828.923 104.381 828.923 104.026C828.923 103.765 828.849 103.559 828.699 103.41C828.55 103.251 828.377 103.13 828.181 103.046C827.985 102.962 827.813 102.901 827.663 102.864L826.585 102.556C825.895 102.36 825.395 102.085 825.087 101.73C824.779 101.375 824.625 100.965 824.625 100.498C824.625 100.059 824.737 99.6767 824.961 99.35C825.185 99.0233 825.489 98.7713 825.871 98.594C826.254 98.4167 826.679 98.328 827.145 98.328C827.78 98.328 828.354 98.496 828.867 98.832C829.39 99.1587 829.759 99.616 829.973 100.204L829.077 100.624C828.891 100.204 828.62 99.8773 828.265 99.644C827.92 99.4013 827.533 99.28 827.103 99.28C826.683 99.28 826.347 99.3873 826.095 99.602C825.843 99.8167 825.717 100.087 825.717 100.414C825.717 100.666 825.783 100.867 825.913 101.016C826.044 101.165 826.193 101.277 826.361 101.352C826.539 101.427 826.693 101.483 826.823 101.52L828.069 101.884C828.676 102.061 829.147 102.337 829.483 102.71C829.829 103.083 830.001 103.522 830.001 104.026C830.001 104.437 829.885 104.805 829.651 105.132C829.427 105.459 829.115 105.715 828.713 105.902C828.312 106.079 827.85 106.168 827.327 106.168ZM834.856 106.084C834.184 106.084 833.666 105.888 833.302 105.496C832.938 105.104 832.756 104.544 832.756 103.816V99.546H831.37V98.496H831.72C832.038 98.496 832.29 98.3933 832.476 98.188C832.663 97.9733 832.756 97.7073 832.756 97.39V96.76H833.806V98.496H835.458V99.546H833.806V103.816C833.806 104.068 833.844 104.292 833.918 104.488C833.993 104.675 834.119 104.824 834.296 104.936C834.483 105.048 834.73 105.104 835.038 105.104C835.113 105.104 835.202 105.099 835.304 105.09C835.407 105.081 835.496 105.071 835.57 105.062V106C835.458 106.028 835.332 106.047 835.192 106.056C835.052 106.075 834.94 106.084 834.856 106.084ZM840.073 106V98.496H841.123V99.924L840.955 99.714C841.16 99.2753 841.464 98.9347 841.865 98.692C842.276 98.4493 842.724 98.328 843.209 98.328C843.788 98.328 844.31 98.4913 844.777 98.818C845.244 99.1447 845.575 99.5693 845.771 100.092L845.477 100.106C845.664 99.5273 845.986 99.0887 846.443 98.79C846.91 98.482 847.423 98.328 847.983 98.328C848.487 98.328 848.949 98.4493 849.369 98.692C849.798 98.9347 850.139 99.2707 850.391 99.7C850.652 100.12 850.783 100.596 850.783 101.128V106H849.733V101.534C849.733 101.077 849.649 100.689 849.481 100.372C849.322 100.055 849.103 99.812 848.823 99.644C848.543 99.4667 848.221 99.378 847.857 99.378C847.502 99.378 847.18 99.4667 846.891 99.644C846.602 99.812 846.373 100.059 846.205 100.386C846.037 100.703 845.953 101.086 845.953 101.534V106H844.903V101.534C844.903 101.077 844.819 100.689 844.651 100.372C844.492 100.055 844.273 99.812 843.993 99.644C843.713 99.4667 843.391 99.378 843.027 99.378C842.663 99.378 842.336 99.4667 842.047 99.644C841.767 99.812 841.543 100.059 841.375 100.386C841.207 100.703 841.123 101.086 841.123 101.534V106H840.073ZM856.442 106.168C855.733 106.168 855.089 106 854.51 105.664C853.931 105.319 853.469 104.852 853.124 104.264C852.788 103.667 852.62 102.99 852.62 102.234C852.62 101.487 852.788 100.82 853.124 100.232C853.46 99.644 853.913 99.182 854.482 98.846C855.061 98.5007 855.714 98.328 856.442 98.328C857.17 98.328 857.819 98.496 858.388 98.832C858.967 99.168 859.419 99.63 859.746 100.218C860.082 100.806 860.25 101.478 860.25 102.234C860.25 102.999 860.077 103.681 859.732 104.278C859.387 104.866 858.925 105.328 858.346 105.664C857.777 106 857.142 106.168 856.442 106.168ZM856.442 105.118C856.946 105.118 857.399 104.992 857.8 104.74C858.211 104.488 858.533 104.143 858.766 103.704C859.009 103.265 859.13 102.775 859.13 102.234C859.13 101.693 859.009 101.207 858.766 100.778C858.533 100.349 858.211 100.008 857.8 99.756C857.399 99.504 856.946 99.378 856.442 99.378C855.938 99.378 855.481 99.504 855.07 99.756C854.669 100.008 854.347 100.349 854.104 100.778C853.861 101.207 853.74 101.693 853.74 102.234C853.74 102.775 853.861 103.265 854.104 103.704C854.347 104.143 854.669 104.488 855.07 104.74C855.481 104.992 855.938 105.118 856.442 105.118ZM862.242 106V98.496H863.292V99.952L863.054 99.896C863.24 99.4107 863.544 99.028 863.964 98.748C864.393 98.468 864.888 98.328 865.448 98.328C865.98 98.328 866.456 98.4493 866.876 98.692C867.305 98.9347 867.641 99.2707 867.884 99.7C868.136 100.12 868.262 100.596 868.262 101.128V106H867.212V101.534C867.212 101.077 867.128 100.689 866.96 100.372C866.801 100.055 866.572 99.812 866.274 99.644C865.984 99.4667 865.648 99.378 865.266 99.378C864.883 99.378 864.542 99.4667 864.244 99.644C863.945 99.812 863.712 100.059 863.544 100.386C863.376 100.703 863.292 101.086 863.292 101.534V106H862.242ZM873.277 106.084C872.605 106.084 872.087 105.888 871.723 105.496C871.359 105.104 871.177 104.544 871.177 103.816V99.546H869.791V98.496H870.141C870.458 98.496 870.71 98.3933 870.897 98.188C871.084 97.9733 871.177 97.7073 871.177 97.39V96.76H872.227V98.496H873.879V99.546H872.227V103.816C872.227 104.068 872.264 104.292 872.339 104.488C872.414 104.675 872.54 104.824 872.717 104.936C872.904 105.048 873.151 105.104 873.459 105.104C873.534 105.104 873.622 105.099 873.725 105.09C873.828 105.081 873.916 105.071 873.991 105.062V106C873.879 106.028 873.753 106.047 873.613 106.056C873.473 106.075 873.361 106.084 873.277 106.084ZM875.975 106V95.402H877.025V99.952L876.787 99.896C876.973 99.4107 877.277 99.028 877.697 98.748C878.126 98.468 878.621 98.328 879.181 98.328C879.713 98.328 880.189 98.4493 880.609 98.692C881.038 98.9347 881.374 99.2707 881.617 99.7C881.869 100.12 881.995 100.596 881.995 101.128V106H880.945V101.534C880.945 101.077 880.861 100.689 880.693 100.372C880.525 100.055 880.291 99.812 879.993 99.644C879.703 99.4667 879.372 99.378 878.999 99.378C878.625 99.378 878.289 99.4667 877.991 99.644C877.692 99.812 877.454 100.059 877.277 100.386C877.109 100.703 877.025 101.086 877.025 101.534V106H875.975Z" fill="#70707A"/>
<path d="M117.875 288.955L0 266.875V338C0 343.523 4.47716 348 10 348H897C902.523 348 907 343.523 907 338V217.855L835.273 243.175C834.204 243.553 833.078 243.746 831.944 243.746H728.452C727.694 243.746 726.939 243.66 726.2 243.489L591.02 212.257C590.282 212.086 589.527 212 588.769 212H503.572C502.389 212 501.216 212.21 500.106 212.62L355.271 266.134C353.949 266.623 352.539 266.826 351.133 266.731L262.319 260.752C261.428 260.692 260.533 260.751 259.658 260.929L121.705 288.926C120.442 289.182 119.141 289.192 117.875 288.955Z" fill="url(#paint0_linear_362_816)" fill-opacity="0.2"/>
<path d="M0 262.394L118.027 282.696C119.195 282.897 120.389 282.889 121.554 282.672L259.761 256.914C260.568 256.763 261.391 256.713 262.21 256.764L351.3 262.272C352.598 262.352 353.899 262.179 355.13 261.761L500.221 212.53C501.256 212.179 502.341 212 503.434 212H588.86C589.557 212 590.253 212.073 590.935 212.218L726.285 240.935C726.967 241.08 727.663 241.153 728.361 241.153H832.077C833.124 241.153 834.165 240.989 835.161 240.666L907 217.377" stroke="#546FFF" stroke-width="3" stroke-linecap="round"/>
<g filter="url(#filter0_d_362_816)">
<circle cx="389" cy="248" r="8" fill="white"/>
</g>
<circle cx="389" cy="248" r="3" fill="#546FFF"/>
<g filter="url(#filter1_d_362_816)">
<rect x="290" y="122" width="198" height="108" rx="8" fill="white"/>
<path d="M390.441 234.502C389.654 235.32 388.346 235.32 387.559 234.502L383.599 230.387C382.376 229.116 383.276 227 385.04 227L392.96 227C394.724 227 395.624 229.116 394.401 230.387L390.441 234.502Z" fill="white"/>
<rect x="302" y="170" width="174" height="48" rx="8" fill="#F4F4F5"/>
<circle cx="322" cy="191" r="12" fill="#546FFF"/>
<g clip-path="url(#clip1_362_816)">
<path d="M325.168 192.719C325.168 190.93 323.907 190.417 322.543 190.128L321.82 189.982C320.75 189.772 320.668 189.462 320.668 189.047C320.668 188.508 321.153 188.186 321.967 188.186C322.93 188.186 323.176 188.67 323.279 189.033L323.288 189.063C323.41 189.38 323.691 189.569 324.042 189.569C324.133 189.569 324.215 189.555 324.276 189.543C324.653 189.468 324.915 189.168 324.915 188.813C324.915 188.724 324.899 188.637 324.867 188.552C324.674 187.931 324.132 186.954 322.628 186.731V185.666C322.628 184.778 321.239 184.778 321.239 185.666V186.737C319.624 186.99 319.029 188.088 319.029 189.046C319.029 190.789 320.242 191.275 321.428 191.519L322.21 191.685C323.323 191.912 323.52 192.202 323.52 192.728C323.52 193.371 322.976 193.754 322.065 193.754C320.882 193.754 320.641 193.222 320.48 192.624C320.385 192.293 320.086 192.08 319.717 192.08C319.637 192.08 319.573 192.09 319.495 192.104L319.471 192.108C319.09 192.199 318.834 192.499 318.834 192.855C318.834 192.923 318.846 192.98 318.856 193.027L318.868 193.08C319.039 193.66 319.418 194.927 321.307 195.209V196.324C321.307 196.768 321.656 197 322.002 197C322.347 197 322.696 196.768 322.696 196.324V195.229C324.196 195.033 325.169 194.075 325.169 192.719" fill="#EBF3FF"/>
</g>
<path d="M343.219 197V186.57H346.901C347.591 186.57 348.198 186.701 348.721 186.962C349.243 187.223 349.649 187.597 349.939 188.082C350.237 188.567 350.387 189.137 350.387 189.79C350.387 190.527 350.2 191.153 349.827 191.666C349.453 192.179 348.949 192.548 348.315 192.772L350.737 197H349.141L346.593 192.478L347.503 193.01H344.591V197H343.219ZM344.591 191.75H346.943C347.353 191.75 347.713 191.671 348.021 191.512C348.329 191.353 348.567 191.125 348.735 190.826C348.912 190.527 349.001 190.182 349.001 189.79C349.001 189.389 348.912 189.043 348.735 188.754C348.567 188.455 348.329 188.227 348.021 188.068C347.713 187.909 347.353 187.83 346.943 187.83H344.591V191.75ZM355.191 197.168C354.463 197.168 353.814 196.995 353.245 196.65C352.676 196.305 352.228 195.833 351.901 195.236C351.574 194.629 351.411 193.953 351.411 193.206C351.411 192.45 351.57 191.778 351.887 191.19C352.214 190.602 352.652 190.14 353.203 189.804C353.763 189.459 354.388 189.286 355.079 189.286C355.639 189.286 356.134 189.389 356.563 189.594C357.002 189.79 357.37 190.061 357.669 190.406C357.977 190.742 358.21 191.129 358.369 191.568C358.537 191.997 358.621 192.445 358.621 192.912C358.621 193.015 358.612 193.131 358.593 193.262C358.584 193.383 358.57 193.5 358.551 193.612H352.363V192.492H357.795L357.179 192.996C357.263 192.511 357.216 192.077 357.039 191.694C356.862 191.311 356.6 191.008 356.255 190.784C355.91 190.56 355.518 190.448 355.079 190.448C354.64 190.448 354.239 190.56 353.875 190.784C353.511 191.008 353.226 191.33 353.021 191.75C352.825 192.161 352.746 192.651 352.783 193.22C352.746 193.771 352.83 194.256 353.035 194.676C353.25 195.087 353.548 195.409 353.931 195.642C354.323 195.866 354.748 195.978 355.205 195.978C355.709 195.978 356.134 195.861 356.479 195.628C356.824 195.395 357.104 195.096 357.319 194.732L358.411 195.292C358.262 195.637 358.028 195.955 357.711 196.244C357.403 196.524 357.034 196.748 356.605 196.916C356.185 197.084 355.714 197.168 355.191 197.168ZM362.282 197L359.328 189.454H360.784L363.15 195.838H362.646L365.026 189.454H366.482L363.514 197H362.282ZM370.982 197.168C370.254 197.168 369.605 196.995 369.036 196.65C368.467 196.305 368.019 195.833 367.692 195.236C367.365 194.629 367.202 193.953 367.202 193.206C367.202 192.45 367.361 191.778 367.678 191.19C368.005 190.602 368.443 190.14 368.994 189.804C369.554 189.459 370.179 189.286 370.87 189.286C371.43 189.286 371.925 189.389 372.354 189.594C372.793 189.79 373.161 190.061 373.46 190.406C373.768 190.742 374.001 191.129 374.16 191.568C374.328 191.997 374.412 192.445 374.412 192.912C374.412 193.015 374.403 193.131 374.384 193.262C374.375 193.383 374.361 193.5 374.342 193.612H368.154V192.492H373.586L372.97 192.996C373.054 192.511 373.007 192.077 372.83 191.694C372.653 191.311 372.391 191.008 372.046 190.784C371.701 190.56 371.309 190.448 370.87 190.448C370.431 190.448 370.03 190.56 369.666 190.784C369.302 191.008 369.017 191.33 368.812 191.75C368.616 192.161 368.537 192.651 368.574 193.22C368.537 193.771 368.621 194.256 368.826 194.676C369.041 195.087 369.339 195.409 369.722 195.642C370.114 195.866 370.539 195.978 370.996 195.978C371.5 195.978 371.925 195.861 372.27 195.628C372.615 195.395 372.895 195.096 373.11 194.732L374.202 195.292C374.053 195.637 373.819 195.955 373.502 196.244C373.194 196.524 372.825 196.748 372.396 196.916C371.976 197.084 371.505 197.168 370.982 197.168ZM376.11 197V189.454H377.384V190.924L377.174 190.798C377.36 190.322 377.659 189.953 378.07 189.692C378.49 189.421 378.98 189.286 379.54 189.286C380.081 189.286 380.562 189.407 380.982 189.65C381.411 189.893 381.747 190.229 381.99 190.658C382.242 191.087 382.368 191.573 382.368 192.114V197H381.052V192.534C381.052 192.114 380.977 191.759 380.828 191.47C380.678 191.181 380.464 190.957 380.184 190.798C379.913 190.63 379.6 190.546 379.246 190.546C378.891 190.546 378.574 190.63 378.294 190.798C378.023 190.957 377.808 191.185 377.65 191.484C377.491 191.773 377.412 192.123 377.412 192.534V197H376.11ZM386.905 197.168C386.363 197.168 385.873 197.042 385.435 196.79C385.005 196.538 384.669 196.188 384.427 195.74C384.193 195.283 384.077 194.76 384.077 194.172V189.454H385.379V194.032C385.379 194.405 385.453 194.732 385.603 195.012C385.761 195.292 385.976 195.511 386.247 195.67C386.527 195.829 386.844 195.908 387.199 195.908C387.553 195.908 387.866 195.829 388.137 195.67C388.417 195.511 388.631 195.283 388.781 194.984C388.939 194.685 389.019 194.331 389.019 193.92V189.454H390.335V197H389.061V195.53L389.271 195.656C389.093 196.132 388.79 196.505 388.361 196.776C387.941 197.037 387.455 197.168 386.905 197.168ZM395.824 197.168C395.096 197.168 394.447 196.995 393.878 196.65C393.308 196.305 392.86 195.833 392.534 195.236C392.207 194.629 392.044 193.953 392.044 193.206C392.044 192.45 392.202 191.778 392.52 191.19C392.846 190.602 393.285 190.14 393.836 189.804C394.396 189.459 395.021 189.286 395.712 189.286C396.272 189.286 396.766 189.389 397.196 189.594C397.634 189.79 398.003 190.061 398.302 190.406C398.61 190.742 398.843 191.129 399.002 191.568C399.17 191.997 399.254 192.445 399.254 192.912C399.254 193.015 399.244 193.131 399.226 193.262C399.216 193.383 399.202 193.5 399.184 193.612H392.996V192.492H398.428L397.812 192.996C397.896 192.511 397.849 192.077 397.672 191.694C397.494 191.311 397.233 191.008 396.888 190.784C396.542 190.56 396.15 190.448 395.712 190.448C395.273 190.448 394.872 190.56 394.508 190.784C394.144 191.008 393.859 191.33 393.654 191.75C393.458 192.161 393.378 192.651 393.416 193.22C393.378 193.771 393.462 194.256 393.668 194.676C393.882 195.087 394.181 195.409 394.564 195.642C394.956 195.866 395.38 195.978 395.838 195.978C396.342 195.978 396.766 195.861 397.112 195.628C397.457 195.395 397.737 195.096 397.952 194.732L399.044 195.292C398.894 195.637 398.661 195.955 398.344 196.244C398.036 196.524 397.667 196.748 397.238 196.916C396.818 197.084 396.346 197.168 395.824 197.168Z" fill="#70707A"/>
<path d="M413.424 198.192C412.667 198.192 411.973 198.053 411.344 197.776C410.715 197.488 410.181 197.099 409.744 196.608C409.307 196.117 408.992 195.568 408.8 194.96L410.16 194.4C410.448 195.168 410.875 195.76 411.44 196.176C412.016 196.581 412.688 196.784 413.456 196.784C413.925 196.784 414.336 196.709 414.688 196.56C415.04 196.411 415.312 196.203 415.504 195.936C415.707 195.659 415.808 195.339 415.808 194.976C415.808 194.475 415.664 194.08 415.376 193.792C415.099 193.493 414.688 193.269 414.144 193.12L411.952 192.448C411.088 192.181 410.427 191.76 409.968 191.184C409.509 190.608 409.28 189.947 409.28 189.2C409.28 188.549 409.435 187.979 409.744 187.488C410.064 186.987 410.501 186.597 411.056 186.32C411.621 186.032 412.261 185.888 412.976 185.888C413.691 185.888 414.336 186.016 414.912 186.272C415.499 186.528 415.995 186.875 416.4 187.312C416.805 187.739 417.104 188.229 417.296 188.784L415.952 189.344C415.696 188.672 415.312 188.165 414.8 187.824C414.288 187.472 413.685 187.296 412.992 187.296C412.565 187.296 412.187 187.371 411.856 187.52C411.536 187.659 411.285 187.867 411.104 188.144C410.933 188.411 410.848 188.731 410.848 189.104C410.848 189.541 410.987 189.931 411.264 190.272C411.541 190.613 411.963 190.875 412.528 191.056L414.528 191.648C415.467 191.936 416.176 192.347 416.656 192.88C417.136 193.413 417.376 194.075 417.376 194.864C417.376 195.515 417.205 196.091 416.864 196.592C416.533 197.093 416.069 197.488 415.472 197.776C414.885 198.053 414.203 198.192 413.424 198.192ZM412.704 199.6V184.48H413.904V199.6H412.704ZM424.568 198V195.248H418.712V193.952L424.536 186.08H426.04V193.952H427.592V195.248H426.04V198H424.568ZM419.896 194.512L419.672 193.952H424.568V187.392L425.032 187.52L419.896 194.512ZM429.315 200.224V199.504C429.646 199.419 429.896 199.253 430.067 199.008C430.238 198.763 430.334 198.427 430.355 198H429.635V196.08H431.187V197.44C431.187 198.208 431.027 198.827 430.707 199.296C430.398 199.765 429.934 200.075 429.315 200.224ZM433.232 198V196.912L436.528 193.344C437.179 192.651 437.696 192.08 438.08 191.632C438.475 191.184 438.763 190.784 438.944 190.432C439.125 190.08 439.216 189.707 439.216 189.312C439.216 188.661 439.024 188.16 438.64 187.808C438.256 187.456 437.749 187.28 437.12 187.28C436.48 187.28 435.936 187.467 435.488 187.84C435.04 188.203 434.731 188.72 434.56 189.392L433.136 189.024C433.275 188.384 433.531 187.829 433.904 187.36C434.277 186.891 434.741 186.528 435.296 186.272C435.851 186.016 436.459 185.888 437.12 185.888C437.845 185.888 438.48 186.032 439.024 186.32C439.579 186.597 440.011 186.987 440.32 187.488C440.64 187.989 440.8 188.571 440.8 189.232C440.8 189.669 440.709 190.096 440.528 190.512C440.347 190.928 440.08 191.371 439.728 191.84C439.376 192.299 438.917 192.832 438.352 193.44L435.408 196.64H441.056V198H433.232ZM446.426 198.192C445.808 198.192 445.226 198.085 444.682 197.872C444.138 197.648 443.664 197.333 443.258 196.928C442.864 196.512 442.576 196.027 442.394 195.472L443.674 194.928C443.898 195.515 444.261 195.973 444.762 196.304C445.274 196.624 445.829 196.784 446.426 196.784C446.917 196.784 447.349 196.677 447.722 196.464C448.106 196.24 448.405 195.936 448.618 195.552C448.832 195.157 448.938 194.72 448.938 194.24C448.938 193.739 448.826 193.296 448.602 192.912C448.389 192.528 448.096 192.229 447.722 192.016C447.349 191.792 446.922 191.68 446.442 191.68C445.952 191.68 445.504 191.792 445.098 192.016C444.693 192.24 444.4 192.523 444.218 192.864L442.954 192.592L443.866 186.08H450.042V187.44H444.458L445.066 186.832L444.362 191.888L443.818 191.568C444.17 191.12 444.581 190.8 445.05 190.608C445.53 190.405 446.048 190.304 446.602 190.304C447.381 190.304 448.064 190.48 448.65 190.832C449.237 191.184 449.696 191.653 450.026 192.24C450.357 192.827 450.522 193.493 450.522 194.24C450.522 194.987 450.341 195.659 449.978 196.256C449.626 196.853 449.141 197.328 448.522 197.68C447.914 198.021 447.216 198.192 446.426 198.192ZM454.014 198V187.44H451.758V186.08H455.598V198H454.014Z" fill="#141522"/>
<path d="M308.982 155V145.83H306.154V144.57H313.154V145.83H310.368V155H308.982ZM316.436 155.168C315.895 155.168 315.405 155.042 314.966 154.79C314.537 154.538 314.201 154.188 313.958 153.74C313.725 153.283 313.608 152.76 313.608 152.172V147.454H314.91V152.032C314.91 152.405 314.985 152.732 315.134 153.012C315.293 153.292 315.507 153.511 315.778 153.67C316.058 153.829 316.375 153.908 316.73 153.908C317.085 153.908 317.397 153.829 317.668 153.67C317.948 153.511 318.163 153.283 318.312 152.984C318.471 152.685 318.55 152.331 318.55 151.92V147.454H319.866V155H318.592V153.53L318.802 153.656C318.625 154.132 318.321 154.505 317.892 154.776C317.472 155.037 316.987 155.168 316.436 155.168ZM325.355 155.168C324.627 155.168 323.978 154.995 323.409 154.65C322.84 154.305 322.392 153.833 322.065 153.236C321.738 152.629 321.575 151.953 321.575 151.206C321.575 150.45 321.734 149.778 322.051 149.19C322.378 148.602 322.816 148.14 323.367 147.804C323.927 147.459 324.552 147.286 325.243 147.286C325.803 147.286 326.298 147.389 326.727 147.594C327.166 147.79 327.534 148.061 327.833 148.406C328.141 148.742 328.374 149.129 328.533 149.568C328.701 149.997 328.785 150.445 328.785 150.912C328.785 151.015 328.776 151.131 328.757 151.262C328.748 151.383 328.734 151.5 328.715 151.612H322.527V150.492H327.959L327.343 150.996C327.427 150.511 327.38 150.077 327.203 149.694C327.026 149.311 326.764 149.008 326.419 148.784C326.074 148.56 325.682 148.448 325.243 148.448C324.804 148.448 324.403 148.56 324.039 148.784C323.675 149.008 323.39 149.33 323.185 149.75C322.989 150.161 322.91 150.651 322.947 151.22C322.91 151.771 322.994 152.256 323.199 152.676C323.414 153.087 323.712 153.409 324.095 153.642C324.487 153.866 324.912 153.978 325.369 153.978C325.873 153.978 326.298 153.861 326.643 153.628C326.988 153.395 327.268 153.096 327.483 152.732L328.575 153.292C328.426 153.637 328.192 153.955 327.875 154.244C327.567 154.524 327.198 154.748 326.769 154.916C326.349 155.084 325.878 155.168 325.355 155.168ZM333.185 155.168C332.429 155.168 331.771 154.981 331.211 154.608C330.651 154.235 330.254 153.731 330.021 153.096L331.057 152.592C331.271 153.04 331.565 153.395 331.939 153.656C332.312 153.917 332.727 154.048 333.185 154.048C333.595 154.048 333.936 153.95 334.207 153.754C334.477 153.558 334.613 153.301 334.613 152.984C334.613 152.76 334.547 152.583 334.417 152.452C334.295 152.312 334.146 152.205 333.969 152.13C333.791 152.046 333.628 151.985 333.479 151.948L332.345 151.626C331.663 151.43 331.164 151.15 330.847 150.786C330.539 150.422 330.385 149.997 330.385 149.512C330.385 149.064 330.497 148.677 330.721 148.35C330.954 148.014 331.267 147.753 331.659 147.566C332.06 147.379 332.508 147.286 333.003 147.286C333.665 147.286 334.258 147.454 334.781 147.79C335.313 148.126 335.691 148.597 335.915 149.204L334.851 149.694C334.683 149.302 334.431 148.994 334.095 148.77C333.759 148.537 333.381 148.42 332.961 148.42C332.578 148.42 332.275 148.518 332.051 148.714C331.827 148.901 331.715 149.139 331.715 149.428C331.715 149.643 331.771 149.82 331.883 149.96C331.995 150.091 332.13 150.193 332.289 150.268C332.447 150.333 332.601 150.389 332.751 150.436L333.983 150.8C334.599 150.977 335.075 151.253 335.411 151.626C335.756 151.999 335.929 152.447 335.929 152.97C335.929 153.39 335.812 153.768 335.579 154.104C335.345 154.44 335.023 154.701 334.613 154.888C334.202 155.075 333.726 155.168 333.185 155.168ZM341.063 155.168C340.354 155.168 339.714 154.995 339.145 154.65C338.585 154.305 338.142 153.833 337.815 153.236C337.488 152.639 337.325 151.971 337.325 151.234C337.325 150.478 337.488 149.806 337.815 149.218C338.142 148.621 338.585 148.149 339.145 147.804C339.714 147.459 340.354 147.286 341.063 147.286C341.688 147.286 342.244 147.421 342.729 147.692C343.214 147.953 343.597 148.308 343.877 148.756L343.667 149.078V144.402H344.983V155H343.709V153.39L343.877 153.614C343.616 154.109 343.233 154.491 342.729 154.762C342.234 155.033 341.679 155.168 341.063 155.168ZM341.175 153.908C341.651 153.908 342.076 153.791 342.449 153.558C342.822 153.325 343.116 153.007 343.331 152.606C343.555 152.195 343.667 151.738 343.667 151.234C343.667 150.721 343.555 150.263 343.331 149.862C343.116 149.451 342.822 149.129 342.449 148.896C342.076 148.663 341.651 148.546 341.175 148.546C340.708 148.546 340.284 148.667 339.901 148.91C339.528 149.143 339.234 149.461 339.019 149.862C338.804 150.254 338.697 150.711 338.697 151.234C338.697 151.738 338.804 152.195 339.019 152.606C339.234 153.007 339.528 153.325 339.901 153.558C340.274 153.791 340.699 153.908 341.175 153.908ZM349.21 155.168C348.716 155.168 348.277 155.079 347.894 154.902C347.521 154.715 347.227 154.463 347.012 154.146C346.798 153.819 346.69 153.446 346.69 153.026C346.69 152.625 346.774 152.265 346.942 151.948C347.12 151.621 347.39 151.346 347.754 151.122C348.128 150.898 348.594 150.739 349.154 150.646L351.954 150.184V151.276L349.448 151.696C348.963 151.78 348.608 151.934 348.384 152.158C348.17 152.382 348.062 152.657 348.062 152.984C348.062 153.292 348.184 153.549 348.426 153.754C348.678 153.959 348.991 154.062 349.364 154.062C349.84 154.062 350.251 153.964 350.596 153.768C350.951 153.563 351.226 153.287 351.422 152.942C351.628 152.597 351.73 152.214 351.73 151.794V149.876C351.73 149.465 351.576 149.134 351.268 148.882C350.97 148.621 350.573 148.49 350.078 148.49C349.649 148.49 349.266 148.602 348.93 148.826C348.604 149.041 348.361 149.33 348.202 149.694L347.068 149.106C347.208 148.761 347.432 148.453 347.74 148.182C348.048 147.902 348.408 147.683 348.818 147.524C349.229 147.365 349.658 147.286 350.106 147.286C350.685 147.286 351.194 147.398 351.632 147.622C352.071 147.837 352.412 148.14 352.654 148.532C352.906 148.915 353.032 149.363 353.032 149.876V155H351.758V153.572L351.996 153.656C351.838 153.955 351.623 154.216 351.352 154.44C351.082 154.664 350.764 154.841 350.4 154.972C350.036 155.103 349.64 155.168 349.21 155.168ZM355.457 158.08C355.289 158.08 355.121 158.066 354.953 158.038C354.785 158.01 354.626 157.963 354.477 157.898V156.736C354.58 156.755 354.706 156.773 354.855 156.792C355.014 156.82 355.168 156.834 355.317 156.834C355.756 156.834 356.087 156.736 356.311 156.54C356.544 156.353 356.764 156.027 356.969 155.56L357.445 154.426L357.417 155.56L354.197 147.454H355.611L358.117 153.894H357.697L360.189 147.454H361.631L358.229 155.896C358.07 156.297 357.865 156.661 357.613 156.988C357.37 157.324 357.072 157.59 356.717 157.786C356.362 157.982 355.942 158.08 355.457 158.08ZM362.453 156.946V156.316C362.742 156.241 362.961 156.097 363.111 155.882C363.26 155.667 363.344 155.373 363.363 155H362.733V153.32H364.091V154.51C364.091 155.182 363.951 155.723 363.671 156.134C363.4 156.545 362.994 156.815 362.453 156.946ZM368.986 155V144.57H375.594V145.83H370.358V149.204H375.104V150.464H370.358V155H368.986ZM380.234 155.168C379.506 155.168 378.857 154.995 378.288 154.65C377.719 154.305 377.271 153.833 376.944 153.236C376.617 152.629 376.454 151.953 376.454 151.206C376.454 150.45 376.613 149.778 376.93 149.19C377.257 148.602 377.695 148.14 378.246 147.804C378.806 147.459 379.431 147.286 380.122 147.286C380.682 147.286 381.177 147.389 381.606 147.594C382.045 147.79 382.413 148.061 382.712 148.406C383.02 148.742 383.253 149.129 383.412 149.568C383.58 149.997 383.664 150.445 383.664 150.912C383.664 151.015 383.655 151.131 383.636 151.262C383.627 151.383 383.613 151.5 383.594 151.612H377.406V150.492H382.838L382.222 150.996C382.306 150.511 382.259 150.077 382.082 149.694C381.905 149.311 381.643 149.008 381.298 148.784C380.953 148.56 380.561 148.448 380.122 148.448C379.683 148.448 379.282 148.56 378.918 148.784C378.554 149.008 378.269 149.33 378.064 149.75C377.868 150.161 377.789 150.651 377.826 151.22C377.789 151.771 377.873 152.256 378.078 152.676C378.293 153.087 378.591 153.409 378.974 153.642C379.366 153.866 379.791 153.978 380.248 153.978C380.752 153.978 381.177 153.861 381.522 153.628C381.867 153.395 382.147 153.096 382.362 152.732L383.454 153.292C383.305 153.637 383.071 153.955 382.754 154.244C382.446 154.524 382.077 154.748 381.648 154.916C381.228 155.084 380.757 155.168 380.234 155.168ZM389.268 155.168C388.661 155.168 388.106 155.033 387.602 154.762C387.107 154.491 386.724 154.109 386.454 153.614L386.636 153.39V155H385.362V144.402H386.664V149.078L386.468 148.756C386.748 148.308 387.13 147.953 387.616 147.692C388.101 147.421 388.656 147.286 389.282 147.286C389.991 147.286 390.626 147.459 391.186 147.804C391.755 148.149 392.203 148.621 392.53 149.218C392.856 149.806 393.02 150.478 393.02 151.234C393.02 151.971 392.856 152.639 392.53 153.236C392.203 153.833 391.755 154.305 391.186 154.65C390.626 154.995 389.986 155.168 389.268 155.168ZM389.17 153.908C389.646 153.908 390.07 153.791 390.444 153.558C390.817 153.325 391.106 153.007 391.312 152.606C391.526 152.195 391.634 151.738 391.634 151.234C391.634 150.711 391.526 150.254 391.312 149.862C391.106 149.461 390.817 149.143 390.444 148.91C390.07 148.667 389.646 148.546 389.17 148.546C388.694 148.546 388.264 148.663 387.882 148.896C387.508 149.129 387.21 149.451 386.986 149.862C386.771 150.263 386.664 150.721 386.664 151.234C386.664 151.738 386.771 152.195 386.986 152.606C387.21 153.007 387.508 153.325 387.882 153.558C388.264 153.791 388.694 153.908 389.17 153.908ZM398.631 155V145.76H396.657V144.57H400.017V155H398.631ZM405.684 155.168C405.143 155.168 404.634 155.075 404.158 154.888C403.682 154.692 403.267 154.417 402.912 154.062C402.567 153.698 402.315 153.273 402.156 152.788L403.276 152.312C403.472 152.825 403.79 153.227 404.228 153.516C404.676 153.796 405.162 153.936 405.684 153.936C406.114 153.936 406.492 153.843 406.818 153.656C407.154 153.46 407.416 153.194 407.602 152.858C407.789 152.513 407.882 152.13 407.882 151.71C407.882 151.271 407.784 150.884 407.588 150.548C407.402 150.212 407.145 149.951 406.818 149.764C406.492 149.568 406.118 149.47 405.698 149.47C405.269 149.47 404.877 149.568 404.522 149.764C404.168 149.96 403.911 150.207 403.752 150.506L402.646 150.268L403.444 144.57H408.848V145.76H403.962L404.494 145.228L403.878 149.652L403.402 149.372C403.71 148.98 404.07 148.7 404.48 148.532C404.9 148.355 405.353 148.266 405.838 148.266C406.52 148.266 407.117 148.42 407.63 148.728C408.144 149.036 408.545 149.447 408.834 149.96C409.124 150.473 409.268 151.057 409.268 151.71C409.268 152.363 409.11 152.951 408.792 153.474C408.484 153.997 408.06 154.412 407.518 154.72C406.986 155.019 406.375 155.168 405.684 155.168ZM411.343 156.946V156.316C411.633 156.241 411.852 156.097 412.001 155.882C412.151 155.667 412.235 155.373 412.253 155H411.623V153.32H412.981V154.51C412.981 155.182 412.841 155.723 412.561 156.134C412.291 156.545 411.885 156.815 411.343 156.946ZM417.471 155V154.048L420.355 150.926C420.924 150.319 421.377 149.82 421.713 149.428C422.058 149.036 422.31 148.686 422.469 148.378C422.628 148.07 422.707 147.743 422.707 147.398C422.707 146.829 422.539 146.39 422.203 146.082C421.867 145.774 421.424 145.62 420.873 145.62C420.313 145.62 419.837 145.783 419.445 146.11C419.053 146.427 418.782 146.88 418.633 147.468L417.387 147.146C417.508 146.586 417.732 146.101 418.059 145.69C418.386 145.279 418.792 144.962 419.277 144.738C419.762 144.514 420.294 144.402 420.873 144.402C421.508 144.402 422.063 144.528 422.539 144.78C423.024 145.023 423.402 145.363 423.673 145.802C423.953 146.241 424.093 146.749 424.093 147.328C424.093 147.711 424.014 148.084 423.855 148.448C423.696 148.812 423.463 149.199 423.155 149.61C422.847 150.011 422.446 150.478 421.951 151.01L419.375 153.81H424.317V155H417.471ZM430.178 155.168C429.347 155.168 428.619 154.944 427.994 154.496C427.378 154.039 426.897 153.409 426.552 152.606C426.206 151.794 426.034 150.851 426.034 149.778C426.034 148.705 426.206 147.767 426.552 146.964C426.897 146.152 427.378 145.522 427.994 145.074C428.61 144.626 429.333 144.402 430.164 144.402C430.994 144.402 431.718 144.626 432.334 145.074C432.95 145.522 433.43 146.152 433.776 146.964C434.13 147.767 434.308 148.705 434.308 149.778C434.308 150.851 434.135 151.794 433.79 152.606C433.444 153.418 432.959 154.048 432.334 154.496C431.718 154.944 430.999 155.168 430.178 155.168ZM430.178 153.894C430.738 153.894 431.223 153.726 431.634 153.39C432.044 153.045 432.362 152.564 432.586 151.948C432.819 151.332 432.936 150.609 432.936 149.778C432.936 148.947 432.819 148.224 432.586 147.608C432.362 146.992 432.04 146.516 431.62 146.18C431.209 145.844 430.724 145.676 430.164 145.676C429.604 145.676 429.118 145.844 428.708 146.18C428.297 146.516 427.975 146.992 427.742 147.608C427.518 148.224 427.406 148.947 427.406 149.778C427.406 150.599 427.518 151.318 427.742 151.934C427.975 152.55 428.297 153.031 428.708 153.376C429.128 153.721 429.618 153.894 430.178 153.894ZM435.983 155V154.048L438.867 150.926C439.436 150.319 439.889 149.82 440.225 149.428C440.57 149.036 440.822 148.686 440.981 148.378C441.139 148.07 441.219 147.743 441.219 147.398C441.219 146.829 441.051 146.39 440.715 146.082C440.379 145.774 439.935 145.62 439.385 145.62C438.825 145.62 438.349 145.783 437.957 146.11C437.565 146.427 437.294 146.88 437.145 147.468L435.899 147.146C436.02 146.586 436.244 146.101 436.571 145.69C436.897 145.279 437.303 144.962 437.789 144.738C438.274 144.514 438.806 144.402 439.385 144.402C440.019 144.402 440.575 144.528 441.051 144.78C441.536 145.023 441.914 145.363 442.185 145.802C442.465 146.241 442.605 146.749 442.605 147.328C442.605 147.711 442.525 148.084 442.367 148.448C442.208 148.812 441.975 149.199 441.667 149.61C441.359 150.011 440.957 150.478 440.463 151.01L437.887 153.81H442.829V155H435.983ZM444.363 155V154.048L447.247 150.926C447.817 150.319 448.269 149.82 448.605 149.428C448.951 149.036 449.203 148.686 449.361 148.378C449.52 148.07 449.599 147.743 449.599 147.398C449.599 146.829 449.431 146.39 449.095 146.082C448.759 145.774 448.316 145.62 447.765 145.62C447.205 145.62 446.729 145.783 446.337 146.11C445.945 146.427 445.675 146.88 445.525 147.468L444.279 147.146C444.401 146.586 444.625 146.101 444.951 145.69C445.278 145.279 445.684 144.962 446.169 144.738C446.655 144.514 447.187 144.402 447.765 144.402C448.4 144.402 448.955 144.528 449.431 144.78C449.917 145.023 450.295 145.363 450.565 145.802C450.845 146.241 450.985 146.749 450.985 147.328C450.985 147.711 450.906 148.084 450.747 148.448C450.589 148.812 450.355 149.199 450.047 149.61C449.739 150.011 449.338 150.478 448.843 151.01L446.267 153.81H451.209V155H444.363Z" fill="#70707A"/>
</g>
<path d="M86.9608 365V354.57H93.4008V355.62H88.0808V359.246H92.9808V360.296H88.0808V365H86.9608ZM98.2241 365.168C97.5241 365.168 96.8895 365 96.3201 364.664C95.7601 364.319 95.3168 363.847 94.9901 363.25C94.6635 362.653 94.5001 361.976 94.5001 361.22C94.5001 360.464 94.6588 359.797 94.9761 359.218C95.2935 358.63 95.7228 358.168 96.2641 357.832C96.8148 357.496 97.4308 357.328 98.1121 357.328C98.6535 357.328 99.1341 357.431 99.5541 357.636C99.9835 357.832 100.347 358.103 100.646 358.448C100.945 358.784 101.173 359.167 101.332 359.596C101.491 360.016 101.57 360.45 101.57 360.898C101.57 360.991 101.565 361.099 101.556 361.22C101.547 361.332 101.533 361.449 101.514 361.57H95.1721V360.59H100.912L100.408 361.01C100.492 360.497 100.431 360.039 100.226 359.638C100.03 359.227 99.7455 358.905 99.3721 358.672C98.9988 358.429 98.5788 358.308 98.1121 358.308C97.6455 358.308 97.2115 358.429 96.8101 358.672C96.4181 358.915 96.1101 359.255 95.8861 359.694C95.6621 360.123 95.5735 360.637 95.6201 361.234C95.5735 361.831 95.6668 362.354 95.9001 362.802C96.1428 363.241 96.4695 363.581 96.8801 363.824C97.3001 364.067 97.7481 364.188 98.2241 364.188C98.7748 364.188 99.2368 364.057 99.6101 363.796C99.9835 363.535 100.287 363.208 100.52 362.816L101.416 363.292C101.267 363.628 101.038 363.941 100.73 364.23C100.422 364.51 100.053 364.739 99.6241 364.916C99.2041 365.084 98.7375 365.168 98.2241 365.168ZM107.355 365.168C106.711 365.168 106.128 365.023 105.605 364.734C105.092 364.435 104.705 364.015 104.443 363.474L104.611 363.32V365H103.561V354.402H104.611V359.176L104.443 358.882C104.742 358.406 105.139 358.028 105.633 357.748C106.137 357.468 106.711 357.328 107.355 357.328C108.065 357.328 108.695 357.501 109.245 357.846C109.805 358.182 110.244 358.644 110.561 359.232C110.888 359.82 111.051 360.492 111.051 361.248C111.051 361.995 110.888 362.667 110.561 363.264C110.244 363.852 109.805 364.319 109.245 364.664C108.695 365 108.065 365.168 107.355 365.168ZM107.299 364.118C107.803 364.118 108.251 363.992 108.643 363.74C109.045 363.488 109.357 363.147 109.581 362.718C109.815 362.279 109.931 361.789 109.931 361.248C109.931 360.697 109.815 360.207 109.581 359.778C109.357 359.349 109.045 359.008 108.643 358.756C108.251 358.504 107.803 358.378 107.299 358.378C106.795 358.378 106.338 358.504 105.927 358.756C105.526 359.008 105.204 359.353 104.961 359.792C104.728 360.221 104.611 360.707 104.611 361.248C104.611 361.789 104.728 362.279 104.961 362.718C105.204 363.147 105.526 363.488 105.927 363.74C106.338 363.992 106.795 364.118 107.299 364.118ZM118.876 365.168C118.204 365.168 117.602 365.033 117.07 364.762C116.548 364.482 116.132 364.104 115.824 363.628C115.526 363.143 115.376 362.597 115.376 361.99C115.376 361.327 115.563 360.735 115.936 360.212C116.319 359.689 116.832 359.325 117.476 359.12V359.414C116.982 359.199 116.599 358.882 116.328 358.462C116.058 358.033 115.922 357.575 115.922 357.09C115.922 356.577 116.053 356.119 116.314 355.718C116.576 355.317 116.926 354.999 117.364 354.766C117.812 354.523 118.316 354.402 118.876 354.402C119.446 354.402 119.95 354.519 120.388 354.752C120.827 354.976 121.172 355.293 121.424 355.704C121.686 356.105 121.816 356.567 121.816 357.09C121.816 357.613 121.676 358.079 121.396 358.49C121.116 358.891 120.748 359.199 120.29 359.414L120.276 359.12C120.92 359.325 121.429 359.689 121.802 360.212C122.185 360.735 122.376 361.327 122.376 361.99C122.376 362.597 122.222 363.143 121.914 363.628C121.616 364.104 121.2 364.482 120.668 364.762C120.146 365.033 119.548 365.168 118.876 365.168ZM118.876 364.188C119.352 364.188 119.768 364.099 120.122 363.922C120.477 363.735 120.752 363.479 120.948 363.152C121.154 362.816 121.256 362.429 121.256 361.99C121.256 361.551 121.154 361.169 120.948 360.842C120.752 360.506 120.477 360.249 120.122 360.072C119.768 359.885 119.352 359.792 118.876 359.792C118.4 359.792 117.98 359.885 117.616 360.072C117.262 360.249 116.986 360.506 116.79 360.842C116.594 361.169 116.496 361.551 116.496 361.99C116.496 362.429 116.594 362.816 116.79 363.152C116.986 363.479 117.262 363.735 117.616 363.922C117.98 364.099 118.4 364.188 118.876 364.188ZM118.876 358.812C119.222 358.812 119.53 358.742 119.8 358.602C120.071 358.453 120.286 358.252 120.444 358C120.612 357.739 120.696 357.435 120.696 357.09C120.696 356.745 120.612 356.446 120.444 356.194C120.286 355.942 120.071 355.746 119.8 355.606C119.53 355.457 119.222 355.382 118.876 355.382C118.531 355.382 118.218 355.457 117.938 355.606C117.668 355.746 117.448 355.942 117.28 356.194C117.122 356.446 117.042 356.745 117.042 357.09C117.042 357.435 117.122 357.739 117.28 358C117.448 358.252 117.668 358.453 117.938 358.602C118.218 358.742 118.531 358.812 118.876 358.812Z" fill="#9096A2"/>
<path d="M220.961 365V354.57H227.401V355.62H222.081V359.246H226.981V360.296H222.081V365H220.961ZM232.224 365.168C231.524 365.168 230.889 365 230.32 364.664C229.76 364.319 229.317 363.847 228.99 363.25C228.663 362.653 228.5 361.976 228.5 361.22C228.5 360.464 228.659 359.797 228.976 359.218C229.293 358.63 229.723 358.168 230.264 357.832C230.815 357.496 231.431 357.328 232.112 357.328C232.653 357.328 233.134 357.431 233.554 357.636C233.983 357.832 234.347 358.103 234.646 358.448C234.945 358.784 235.173 359.167 235.332 359.596C235.491 360.016 235.57 360.45 235.57 360.898C235.57 360.991 235.565 361.099 235.556 361.22C235.547 361.332 235.533 361.449 235.514 361.57H229.172V360.59H234.912L234.408 361.01C234.492 360.497 234.431 360.039 234.226 359.638C234.03 359.227 233.745 358.905 233.372 358.672C232.999 358.429 232.579 358.308 232.112 358.308C231.645 358.308 231.211 358.429 230.81 358.672C230.418 358.915 230.11 359.255 229.886 359.694C229.662 360.123 229.573 360.637 229.62 361.234C229.573 361.831 229.667 362.354 229.9 362.802C230.143 363.241 230.469 363.581 230.88 363.824C231.3 364.067 231.748 364.188 232.224 364.188C232.775 364.188 233.237 364.057 233.61 363.796C233.983 363.535 234.287 363.208 234.52 362.816L235.416 363.292C235.267 363.628 235.038 363.941 234.73 364.23C234.422 364.51 234.053 364.739 233.624 364.916C233.204 365.084 232.737 365.168 232.224 365.168ZM241.355 365.168C240.711 365.168 240.128 365.023 239.605 364.734C239.092 364.435 238.705 364.015 238.443 363.474L238.611 363.32V365H237.561V354.402H238.611V359.176L238.443 358.882C238.742 358.406 239.139 358.028 239.633 357.748C240.137 357.468 240.711 357.328 241.355 357.328C242.065 357.328 242.695 357.501 243.245 357.846C243.805 358.182 244.244 358.644 244.561 359.232C244.888 359.82 245.051 360.492 245.051 361.248C245.051 361.995 244.888 362.667 244.561 363.264C244.244 363.852 243.805 364.319 243.245 364.664C242.695 365 242.065 365.168 241.355 365.168ZM241.299 364.118C241.803 364.118 242.251 363.992 242.643 363.74C243.045 363.488 243.357 363.147 243.581 362.718C243.815 362.279 243.931 361.789 243.931 361.248C243.931 360.697 243.815 360.207 243.581 359.778C243.357 359.349 243.045 359.008 242.643 358.756C242.251 358.504 241.803 358.378 241.299 358.378C240.795 358.378 240.338 358.504 239.927 358.756C239.526 359.008 239.204 359.353 238.961 359.792C238.728 360.221 238.611 360.707 238.611 361.248C238.611 361.789 238.728 362.279 238.961 362.718C239.204 363.147 239.526 363.488 239.927 363.74C240.338 363.992 240.795 364.118 241.299 364.118ZM252.876 365.168C252.204 365.168 251.602 365.033 251.07 364.762C250.548 364.482 250.132 364.104 249.824 363.628C249.526 363.143 249.376 362.597 249.376 361.99C249.376 361.327 249.563 360.735 249.936 360.212C250.319 359.689 250.832 359.325 251.476 359.12V359.414C250.982 359.199 250.599 358.882 250.328 358.462C250.058 358.033 249.922 357.575 249.922 357.09C249.922 356.577 250.053 356.119 250.314 355.718C250.576 355.317 250.926 354.999 251.364 354.766C251.812 354.523 252.316 354.402 252.876 354.402C253.446 354.402 253.95 354.519 254.388 354.752C254.827 354.976 255.172 355.293 255.424 355.704C255.686 356.105 255.816 356.567 255.816 357.09C255.816 357.613 255.676 358.079 255.396 358.49C255.116 358.891 254.748 359.199 254.29 359.414L254.276 359.12C254.92 359.325 255.429 359.689 255.802 360.212C256.185 360.735 256.376 361.327 256.376 361.99C256.376 362.597 256.222 363.143 255.914 363.628C255.616 364.104 255.2 364.482 254.668 364.762C254.146 365.033 253.548 365.168 252.876 365.168ZM252.876 364.188C253.352 364.188 253.768 364.099 254.122 363.922C254.477 363.735 254.752 363.479 254.948 363.152C255.154 362.816 255.256 362.429 255.256 361.99C255.256 361.551 255.154 361.169 254.948 360.842C254.752 360.506 254.477 360.249 254.122 360.072C253.768 359.885 253.352 359.792 252.876 359.792C252.4 359.792 251.98 359.885 251.616 360.072C251.262 360.249 250.986 360.506 250.79 360.842C250.594 361.169 250.496 361.551 250.496 361.99C250.496 362.429 250.594 362.816 250.79 363.152C250.986 363.479 251.262 363.735 251.616 363.922C251.98 364.099 252.4 364.188 252.876 364.188ZM252.876 358.812C253.222 358.812 253.53 358.742 253.8 358.602C254.071 358.453 254.286 358.252 254.444 358C254.612 357.739 254.696 357.435 254.696 357.09C254.696 356.745 254.612 356.446 254.444 356.194C254.286 355.942 254.071 355.746 253.8 355.606C253.53 355.457 253.222 355.382 252.876 355.382C252.531 355.382 252.218 355.457 251.938 355.606C251.668 355.746 251.448 355.942 251.28 356.194C251.122 356.446 251.042 356.745 251.042 357.09C251.042 357.435 251.122 357.739 251.28 358C251.448 358.252 251.668 358.453 251.938 358.602C252.218 358.742 252.531 358.812 252.876 358.812Z" fill="#9096A2"/>
<path d="M354.961 365V354.57H361.401V355.62H356.081V359.246H360.981V360.296H356.081V365H354.961ZM366.224 365.168C365.524 365.168 364.889 365 364.32 364.664C363.76 364.319 363.317 363.847 362.99 363.25C362.663 362.653 362.5 361.976 362.5 361.22C362.5 360.464 362.659 359.797 362.976 359.218C363.293 358.63 363.723 358.168 364.264 357.832C364.815 357.496 365.431 357.328 366.112 357.328C366.653 357.328 367.134 357.431 367.554 357.636C367.983 357.832 368.347 358.103 368.646 358.448C368.945 358.784 369.173 359.167 369.332 359.596C369.491 360.016 369.57 360.45 369.57 360.898C369.57 360.991 369.565 361.099 369.556 361.22C369.547 361.332 369.533 361.449 369.514 361.57H363.172V360.59H368.912L368.408 361.01C368.492 360.497 368.431 360.039 368.226 359.638C368.03 359.227 367.745 358.905 367.372 358.672C366.999 358.429 366.579 358.308 366.112 358.308C365.645 358.308 365.211 358.429 364.81 358.672C364.418 358.915 364.11 359.255 363.886 359.694C363.662 360.123 363.573 360.637 363.62 361.234C363.573 361.831 363.667 362.354 363.9 362.802C364.143 363.241 364.469 363.581 364.88 363.824C365.3 364.067 365.748 364.188 366.224 364.188C366.775 364.188 367.237 364.057 367.61 363.796C367.983 363.535 368.287 363.208 368.52 362.816L369.416 363.292C369.267 363.628 369.038 363.941 368.73 364.23C368.422 364.51 368.053 364.739 367.624 364.916C367.204 365.084 366.737 365.168 366.224 365.168ZM375.355 365.168C374.711 365.168 374.128 365.023 373.605 364.734C373.092 364.435 372.705 364.015 372.443 363.474L372.611 363.32V365H371.561V354.402H372.611V359.176L372.443 358.882C372.742 358.406 373.139 358.028 373.633 357.748C374.137 357.468 374.711 357.328 375.355 357.328C376.065 357.328 376.695 357.501 377.245 357.846C377.805 358.182 378.244 358.644 378.561 359.232C378.888 359.82 379.051 360.492 379.051 361.248C379.051 361.995 378.888 362.667 378.561 363.264C378.244 363.852 377.805 364.319 377.245 364.664C376.695 365 376.065 365.168 375.355 365.168ZM375.299 364.118C375.803 364.118 376.251 363.992 376.643 363.74C377.045 363.488 377.357 363.147 377.581 362.718C377.815 362.279 377.931 361.789 377.931 361.248C377.931 360.697 377.815 360.207 377.581 359.778C377.357 359.349 377.045 359.008 376.643 358.756C376.251 358.504 375.803 358.378 375.299 358.378C374.795 358.378 374.338 358.504 373.927 358.756C373.526 359.008 373.204 359.353 372.961 359.792C372.728 360.221 372.611 360.707 372.611 361.248C372.611 361.789 372.728 362.279 372.961 362.718C373.204 363.147 373.526 363.488 373.927 363.74C374.338 363.992 374.795 364.118 375.299 364.118ZM386.876 365.168C386.204 365.168 385.602 365.033 385.07 364.762C384.548 364.482 384.132 364.104 383.824 363.628C383.526 363.143 383.376 362.597 383.376 361.99C383.376 361.327 383.563 360.735 383.936 360.212C384.319 359.689 384.832 359.325 385.476 359.12V359.414C384.982 359.199 384.599 358.882 384.328 358.462C384.058 358.033 383.922 357.575 383.922 357.09C383.922 356.577 384.053 356.119 384.314 355.718C384.576 355.317 384.926 354.999 385.364 354.766C385.812 354.523 386.316 354.402 386.876 354.402C387.446 354.402 387.95 354.519 388.388 354.752C388.827 354.976 389.172 355.293 389.424 355.704C389.686 356.105 389.816 356.567 389.816 357.09C389.816 357.613 389.676 358.079 389.396 358.49C389.116 358.891 388.748 359.199 388.29 359.414L388.276 359.12C388.92 359.325 389.429 359.689 389.802 360.212C390.185 360.735 390.376 361.327 390.376 361.99C390.376 362.597 390.222 363.143 389.914 363.628C389.616 364.104 389.2 364.482 388.668 364.762C388.146 365.033 387.548 365.168 386.876 365.168ZM386.876 364.188C387.352 364.188 387.768 364.099 388.122 363.922C388.477 363.735 388.752 363.479 388.948 363.152C389.154 362.816 389.256 362.429 389.256 361.99C389.256 361.551 389.154 361.169 388.948 360.842C388.752 360.506 388.477 360.249 388.122 360.072C387.768 359.885 387.352 359.792 386.876 359.792C386.4 359.792 385.98 359.885 385.616 360.072C385.262 360.249 384.986 360.506 384.79 360.842C384.594 361.169 384.496 361.551 384.496 361.99C384.496 362.429 384.594 362.816 384.79 363.152C384.986 363.479 385.262 363.735 385.616 363.922C385.98 364.099 386.4 364.188 386.876 364.188ZM386.876 358.812C387.222 358.812 387.53 358.742 387.8 358.602C388.071 358.453 388.286 358.252 388.444 358C388.612 357.739 388.696 357.435 388.696 357.09C388.696 356.745 388.612 356.446 388.444 356.194C388.286 355.942 388.071 355.746 387.8 355.606C387.53 355.457 387.222 355.382 386.876 355.382C386.531 355.382 386.218 355.457 385.938 355.606C385.668 355.746 385.448 355.942 385.28 356.194C385.122 356.446 385.042 356.745 385.042 357.09C385.042 357.435 385.122 357.739 385.28 358C385.448 358.252 385.668 358.453 385.938 358.602C386.218 358.742 386.531 358.812 386.876 358.812Z" fill="#9096A2"/>
<path d="M488.662 365V354.57H495.27V355.83H490.034V359.204H494.78V360.464H490.034V365H488.662ZM499.91 365.168C499.182 365.168 498.533 364.995 497.964 364.65C497.394 364.305 496.946 363.833 496.62 363.236C496.293 362.629 496.13 361.953 496.13 361.206C496.13 360.45 496.288 359.778 496.606 359.19C496.932 358.602 497.371 358.14 497.922 357.804C498.482 357.459 499.107 357.286 499.798 357.286C500.358 357.286 500.852 357.389 501.282 357.594C501.72 357.79 502.089 358.061 502.388 358.406C502.696 358.742 502.929 359.129 503.088 359.568C503.256 359.997 503.34 360.445 503.34 360.912C503.34 361.015 503.33 361.131 503.312 361.262C503.302 361.383 503.288 361.5 503.27 361.612H497.082V360.492H502.514L501.898 360.996C501.982 360.511 501.935 360.077 501.758 359.694C501.58 359.311 501.319 359.008 500.974 358.784C500.628 358.56 500.236 358.448 499.798 358.448C499.359 358.448 498.958 358.56 498.594 358.784C498.23 359.008 497.945 359.33 497.74 359.75C497.544 360.161 497.464 360.651 497.502 361.22C497.464 361.771 497.548 362.256 497.754 362.676C497.968 363.087 498.267 363.409 498.65 363.642C499.042 363.866 499.466 363.978 499.924 363.978C500.428 363.978 500.852 363.861 501.198 363.628C501.543 363.395 501.823 363.096 502.038 362.732L503.13 363.292C502.98 363.637 502.747 363.955 502.43 364.244C502.122 364.524 501.753 364.748 501.324 364.916C500.904 365.084 500.432 365.168 499.91 365.168ZM508.943 365.168C508.337 365.168 507.781 365.033 507.277 364.762C506.783 364.491 506.4 364.109 506.129 363.614L506.311 363.39V365H505.037V354.402H506.339V359.078L506.143 358.756C506.423 358.308 506.806 357.953 507.291 357.692C507.777 357.421 508.332 357.286 508.957 357.286C509.667 357.286 510.301 357.459 510.861 357.804C511.431 358.149 511.879 358.621 512.205 359.218C512.532 359.806 512.695 360.478 512.695 361.234C512.695 361.971 512.532 362.639 512.205 363.236C511.879 363.833 511.431 364.305 510.861 364.65C510.301 364.995 509.662 365.168 508.943 365.168ZM508.845 363.908C509.321 363.908 509.746 363.791 510.119 363.558C510.493 363.325 510.782 363.007 510.987 362.606C511.202 362.195 511.309 361.738 511.309 361.234C511.309 360.711 511.202 360.254 510.987 359.862C510.782 359.461 510.493 359.143 510.119 358.91C509.746 358.667 509.321 358.546 508.845 358.546C508.369 358.546 507.94 358.663 507.557 358.896C507.184 359.129 506.885 359.451 506.661 359.862C506.447 360.263 506.339 360.721 506.339 361.234C506.339 361.738 506.447 362.195 506.661 362.606C506.885 363.007 507.184 363.325 507.557 363.558C507.94 363.791 508.369 363.908 508.845 363.908ZM518.306 365V355.76H516.332V354.57H519.692V365H518.306ZM525.36 365.168C524.819 365.168 524.31 365.075 523.834 364.888C523.358 364.692 522.943 364.417 522.588 364.062C522.243 363.698 521.991 363.273 521.832 362.788L522.952 362.312C523.148 362.825 523.465 363.227 523.904 363.516C524.352 363.796 524.837 363.936 525.36 363.936C525.789 363.936 526.167 363.843 526.494 363.656C526.83 363.46 527.091 363.194 527.278 362.858C527.465 362.513 527.558 362.13 527.558 361.71C527.558 361.271 527.46 360.884 527.264 360.548C527.077 360.212 526.821 359.951 526.494 359.764C526.167 359.568 525.794 359.47 525.374 359.47C524.945 359.47 524.553 359.568 524.198 359.764C523.843 359.96 523.587 360.207 523.428 360.506L522.322 360.268L523.12 354.57H528.524V355.76H523.638L524.17 355.228L523.554 359.652L523.078 359.372C523.386 358.98 523.745 358.7 524.156 358.532C524.576 358.355 525.029 358.266 525.514 358.266C526.195 358.266 526.793 358.42 527.306 358.728C527.819 359.036 528.221 359.447 528.51 359.96C528.799 360.473 528.944 361.057 528.944 361.71C528.944 362.363 528.785 362.951 528.468 363.474C528.16 363.997 527.735 364.412 527.194 364.72C526.662 365.019 526.051 365.168 525.36 365.168Z" fill="#141522"/>
<path d="M627.961 365V354.57H634.401V355.62H629.081V359.246H633.981V360.296H629.081V365H627.961ZM639.224 365.168C638.524 365.168 637.889 365 637.32 364.664C636.76 364.319 636.317 363.847 635.99 363.25C635.663 362.653 635.5 361.976 635.5 361.22C635.5 360.464 635.659 359.797 635.976 359.218C636.293 358.63 636.723 358.168 637.264 357.832C637.815 357.496 638.431 357.328 639.112 357.328C639.653 357.328 640.134 357.431 640.554 357.636C640.983 357.832 641.347 358.103 641.646 358.448C641.945 358.784 642.173 359.167 642.332 359.596C642.491 360.016 642.57 360.45 642.57 360.898C642.57 360.991 642.565 361.099 642.556 361.22C642.547 361.332 642.533 361.449 642.514 361.57H636.172V360.59H641.912L641.408 361.01C641.492 360.497 641.431 360.039 641.226 359.638C641.03 359.227 640.745 358.905 640.372 358.672C639.999 358.429 639.579 358.308 639.112 358.308C638.645 358.308 638.211 358.429 637.81 358.672C637.418 358.915 637.11 359.255 636.886 359.694C636.662 360.123 636.573 360.637 636.62 361.234C636.573 361.831 636.667 362.354 636.9 362.802C637.143 363.241 637.469 363.581 637.88 363.824C638.3 364.067 638.748 364.188 639.224 364.188C639.775 364.188 640.237 364.057 640.61 363.796C640.983 363.535 641.287 363.208 641.52 362.816L642.416 363.292C642.267 363.628 642.038 363.941 641.73 364.23C641.422 364.51 641.053 364.739 640.624 364.916C640.204 365.084 639.737 365.168 639.224 365.168ZM648.355 365.168C647.711 365.168 647.128 365.023 646.605 364.734C646.092 364.435 645.705 364.015 645.443 363.474L645.611 363.32V365H644.561V354.402H645.611V359.176L645.443 358.882C645.742 358.406 646.139 358.028 646.633 357.748C647.137 357.468 647.711 357.328 648.355 357.328C649.065 357.328 649.695 357.501 650.245 357.846C650.805 358.182 651.244 358.644 651.561 359.232C651.888 359.82 652.051 360.492 652.051 361.248C652.051 361.995 651.888 362.667 651.561 363.264C651.244 363.852 650.805 364.319 650.245 364.664C649.695 365 649.065 365.168 648.355 365.168ZM648.299 364.118C648.803 364.118 649.251 363.992 649.643 363.74C650.045 363.488 650.357 363.147 650.581 362.718C650.815 362.279 650.931 361.789 650.931 361.248C650.931 360.697 650.815 360.207 650.581 359.778C650.357 359.349 650.045 359.008 649.643 358.756C649.251 358.504 648.803 358.378 648.299 358.378C647.795 358.378 647.338 358.504 646.927 358.756C646.526 359.008 646.204 359.353 645.961 359.792C645.728 360.221 645.611 360.707 645.611 361.248C645.611 361.789 645.728 362.279 645.961 362.718C646.204 363.147 646.526 363.488 646.927 363.74C647.338 363.992 647.795 364.118 648.299 364.118ZM659.876 365.168C659.204 365.168 658.602 365.033 658.07 364.762C657.548 364.482 657.132 364.104 656.824 363.628C656.526 363.143 656.376 362.597 656.376 361.99C656.376 361.327 656.563 360.735 656.936 360.212C657.319 359.689 657.832 359.325 658.476 359.12V359.414C657.982 359.199 657.599 358.882 657.328 358.462C657.058 358.033 656.922 357.575 656.922 357.09C656.922 356.577 657.053 356.119 657.314 355.718C657.576 355.317 657.926 354.999 658.364 354.766C658.812 354.523 659.316 354.402 659.876 354.402C660.446 354.402 660.95 354.519 661.388 354.752C661.827 354.976 662.172 355.293 662.424 355.704C662.686 356.105 662.816 356.567 662.816 357.09C662.816 357.613 662.676 358.079 662.396 358.49C662.116 358.891 661.748 359.199 661.29 359.414L661.276 359.12C661.92 359.325 662.429 359.689 662.802 360.212C663.185 360.735 663.376 361.327 663.376 361.99C663.376 362.597 663.222 363.143 662.914 363.628C662.616 364.104 662.2 364.482 661.668 364.762C661.146 365.033 660.548 365.168 659.876 365.168ZM659.876 364.188C660.352 364.188 660.768 364.099 661.122 363.922C661.477 363.735 661.752 363.479 661.948 363.152C662.154 362.816 662.256 362.429 662.256 361.99C662.256 361.551 662.154 361.169 661.948 360.842C661.752 360.506 661.477 360.249 661.122 360.072C660.768 359.885 660.352 359.792 659.876 359.792C659.4 359.792 658.98 359.885 658.616 360.072C658.262 360.249 657.986 360.506 657.79 360.842C657.594 361.169 657.496 361.551 657.496 361.99C657.496 362.429 657.594 362.816 657.79 363.152C657.986 363.479 658.262 363.735 658.616 363.922C658.98 364.099 659.4 364.188 659.876 364.188ZM659.876 358.812C660.222 358.812 660.53 358.742 660.8 358.602C661.071 358.453 661.286 358.252 661.444 358C661.612 357.739 661.696 357.435 661.696 357.09C661.696 356.745 661.612 356.446 661.444 356.194C661.286 355.942 661.071 355.746 660.8 355.606C660.53 355.457 660.222 355.382 659.876 355.382C659.531 355.382 659.218 355.457 658.938 355.606C658.668 355.746 658.448 355.942 658.28 356.194C658.122 356.446 658.042 356.745 658.042 357.09C658.042 357.435 658.122 357.739 658.28 358C658.448 358.252 658.668 358.453 658.938 358.602C659.218 358.742 659.531 358.812 659.876 358.812Z" fill="#9096A2"/>
<path d="M761.892 365V354.57H768.332V355.62H763.012V359.246H767.912V360.296H763.012V365H761.892ZM773.155 365.168C772.455 365.168 771.82 365 771.251 364.664C770.691 364.319 770.248 363.847 769.921 363.25C769.594 362.653 769.431 361.976 769.431 361.22C769.431 360.464 769.59 359.797 769.907 359.218C770.224 358.63 770.654 358.168 771.195 357.832C771.746 357.496 772.362 357.328 773.043 357.328C773.584 357.328 774.065 357.431 774.485 357.636C774.914 357.832 775.278 358.103 775.577 358.448C775.876 358.784 776.104 359.167 776.263 359.596C776.422 360.016 776.501 360.45 776.501 360.898C776.501 360.991 776.496 361.099 776.487 361.22C776.478 361.332 776.464 361.449 776.445 361.57H770.103V360.59H775.843L775.339 361.01C775.423 360.497 775.362 360.039 775.157 359.638C774.961 359.227 774.676 358.905 774.303 358.672C773.93 358.429 773.51 358.308 773.043 358.308C772.576 358.308 772.142 358.429 771.741 358.672C771.349 358.915 771.041 359.255 770.817 359.694C770.593 360.123 770.504 360.637 770.551 361.234C770.504 361.831 770.598 362.354 770.831 362.802C771.074 363.241 771.4 363.581 771.811 363.824C772.231 364.067 772.679 364.188 773.155 364.188C773.706 364.188 774.168 364.057 774.541 363.796C774.914 363.535 775.218 363.208 775.451 362.816L776.347 363.292C776.198 363.628 775.969 363.941 775.661 364.23C775.353 364.51 774.984 364.739 774.555 364.916C774.135 365.084 773.668 365.168 773.155 365.168ZM782.286 365.168C781.642 365.168 781.059 365.023 780.536 364.734C780.023 364.435 779.636 364.015 779.374 363.474L779.542 363.32V365H778.492V354.402H779.542V359.176L779.374 358.882C779.673 358.406 780.07 358.028 780.564 357.748C781.068 357.468 781.642 357.328 782.286 357.328C782.996 357.328 783.626 357.501 784.176 357.846C784.736 358.182 785.175 358.644 785.492 359.232C785.819 359.82 785.982 360.492 785.982 361.248C785.982 361.995 785.819 362.667 785.492 363.264C785.175 363.852 784.736 364.319 784.176 364.664C783.626 365 782.996 365.168 782.286 365.168ZM782.23 364.118C782.734 364.118 783.182 363.992 783.574 363.74C783.976 363.488 784.288 363.147 784.512 362.718C784.746 362.279 784.862 361.789 784.862 361.248C784.862 360.697 784.746 360.207 784.512 359.778C784.288 359.349 783.976 359.008 783.574 358.756C783.182 358.504 782.734 358.378 782.23 358.378C781.726 358.378 781.269 358.504 780.858 358.756C780.457 359.008 780.135 359.353 779.892 359.792C779.659 360.221 779.542 360.707 779.542 361.248C779.542 361.789 779.659 362.279 779.892 362.718C780.135 363.147 780.457 363.488 780.858 363.74C781.269 363.992 781.726 364.118 782.23 364.118ZM790.223 365V364.3L793.135 361.094C793.705 360.469 794.167 359.951 794.521 359.54C794.885 359.129 795.156 358.756 795.333 358.42C795.511 358.084 795.599 357.72 795.599 357.328C795.599 356.703 795.417 356.222 795.053 355.886C794.689 355.55 794.204 355.382 793.597 355.382C792.972 355.382 792.445 355.559 792.015 355.914C791.595 356.269 791.311 356.763 791.161 357.398L790.139 357.174C790.261 356.605 790.48 356.115 790.797 355.704C791.115 355.293 791.511 354.976 791.987 354.752C792.463 354.519 792.995 354.402 793.583 354.402C794.209 354.402 794.755 354.528 795.221 354.78C795.688 355.032 796.052 355.377 796.313 355.816C796.584 356.255 796.719 356.759 796.719 357.328C796.719 357.72 796.635 358.098 796.467 358.462C796.309 358.826 796.066 359.218 795.739 359.638C795.413 360.058 794.993 360.548 794.479 361.108L791.833 364.02H796.999V365H790.223ZM798.758 365V364.3L801.67 361.094C802.239 360.469 802.701 359.951 803.056 359.54C803.42 359.129 803.69 358.756 803.868 358.42C804.045 358.084 804.134 357.72 804.134 357.328C804.134 356.703 803.952 356.222 803.588 355.886C803.224 355.55 802.738 355.382 802.132 355.382C801.506 355.382 800.979 355.559 800.55 355.914C800.13 356.269 799.845 356.763 799.696 357.398L798.674 357.174C798.795 356.605 799.014 356.115 799.332 355.704C799.649 355.293 800.046 354.976 800.522 354.752C800.998 354.519 801.53 354.402 802.118 354.402C802.743 354.402 803.289 354.528 803.756 354.78C804.222 355.032 804.586 355.377 804.848 355.816C805.118 356.255 805.254 356.759 805.254 357.328C805.254 357.72 805.17 358.098 805.002 358.462C804.843 358.826 804.6 359.218 804.274 359.638C803.947 360.058 803.527 360.548 803.014 361.108L800.368 364.02H805.534V365H798.758Z" fill="#9096A2"/>
<path d="M904.194 365V354.57H910.634V355.62H905.314V359.246H910.214V360.296H905.314V365H904.194ZM915.457 365.168C914.757 365.168 914.122 365 913.553 364.664C912.993 364.319 912.55 363.847 912.223 363.25C911.896 362.653 911.733 361.976 911.733 361.22C911.733 360.464 911.892 359.797 912.209 359.218C912.526 358.63 912.956 358.168 913.497 357.832C914.048 357.496 914.664 357.328 915.345 357.328C915.886 357.328 916.367 357.431 916.787 357.636C917.216 357.832 917.58 358.103 917.879 358.448C918.178 358.784 918.406 359.167 918.565 359.596C918.724 360.016 918.803 360.45 918.803 360.898C918.803 360.991 918.798 361.099 918.789 361.22C918.78 361.332 918.766 361.449 918.747 361.57H912.405V360.59H918.145L917.641 361.01C917.725 360.497 917.664 360.039 917.459 359.638C917.263 359.227 916.978 358.905 916.605 358.672C916.232 358.429 915.812 358.308 915.345 358.308C914.878 358.308 914.444 358.429 914.043 358.672C913.651 358.915 913.343 359.255 913.119 359.694C912.895 360.123 912.806 360.637 912.853 361.234C912.806 361.831 912.9 362.354 913.133 362.802C913.376 363.241 913.702 363.581 914.113 363.824C914.533 364.067 914.981 364.188 915.457 364.188C916.008 364.188 916.47 364.057 916.843 363.796C917.216 363.535 917.52 363.208 917.753 362.816L918.649 363.292C918.5 363.628 918.271 363.941 917.963 364.23C917.655 364.51 917.286 364.739 916.857 364.916C916.437 365.084 915.97 365.168 915.457 365.168ZM924.588 365.168C923.944 365.168 923.361 365.023 922.838 364.734C922.325 364.435 921.937 364.015 921.676 363.474L921.844 363.32V365H920.794V354.402H921.844V359.176L921.676 358.882C921.975 358.406 922.371 358.028 922.866 357.748C923.37 357.468 923.944 357.328 924.588 357.328C925.297 357.328 925.927 357.501 926.478 357.846C927.038 358.182 927.477 358.644 927.794 359.232C928.121 359.82 928.284 360.492 928.284 361.248C928.284 361.995 928.121 362.667 927.794 363.264C927.477 363.852 927.038 364.319 926.478 364.664C925.927 365 925.297 365.168 924.588 365.168ZM924.532 364.118C925.036 364.118 925.484 363.992 925.876 363.74C926.277 363.488 926.59 363.147 926.814 362.718C927.047 362.279 927.164 361.789 927.164 361.248C927.164 360.697 927.047 360.207 926.814 359.778C926.59 359.349 926.277 359.008 925.876 358.756C925.484 358.504 925.036 358.378 924.532 358.378C924.028 358.378 923.571 358.504 923.16 358.756C922.759 359.008 922.437 359.353 922.194 359.792C921.961 360.221 921.844 360.707 921.844 361.248C921.844 361.789 921.961 362.279 922.194 362.718C922.437 363.147 922.759 363.488 923.16 363.74C923.571 363.992 924.028 364.118 924.532 364.118ZM932.525 365V364.3L935.437 361.094C936.006 360.469 936.468 359.951 936.823 359.54C937.187 359.129 937.458 358.756 937.635 358.42C937.812 358.084 937.901 357.72 937.901 357.328C937.901 356.703 937.719 356.222 937.355 355.886C936.991 355.55 936.506 355.382 935.899 355.382C935.274 355.382 934.746 355.559 934.317 355.914C933.897 356.269 933.612 356.763 933.463 357.398L932.441 357.174C932.562 356.605 932.782 356.115 933.099 355.704C933.416 355.293 933.813 354.976 934.289 354.752C934.765 354.519 935.297 354.402 935.885 354.402C936.51 354.402 937.056 354.528 937.523 354.78C937.99 355.032 938.354 355.377 938.615 355.816C938.886 356.255 939.021 356.759 939.021 357.328C939.021 357.72 938.937 358.098 938.769 358.462C938.61 358.826 938.368 359.218 938.041 359.638C937.714 360.058 937.294 360.548 936.781 361.108L934.135 364.02H939.301V365H932.525ZM944.643 365.168C943.971 365.168 943.369 365.033 942.837 364.762C942.315 364.482 941.899 364.104 941.591 363.628C941.293 363.143 941.143 362.597 941.143 361.99C941.143 361.327 941.33 360.735 941.703 360.212C942.086 359.689 942.599 359.325 943.243 359.12V359.414C942.749 359.199 942.366 358.882 942.095 358.462C941.825 358.033 941.689 357.575 941.689 357.09C941.689 356.577 941.82 356.119 942.081 355.718C942.343 355.317 942.693 354.999 943.131 354.766C943.579 354.523 944.083 354.402 944.643 354.402C945.213 354.402 945.717 354.519 946.155 354.752C946.594 354.976 946.939 355.293 947.191 355.704C947.453 356.105 947.583 356.567 947.583 357.09C947.583 357.613 947.443 358.079 947.163 358.49C946.883 358.891 946.515 359.199 946.057 359.414L946.043 359.12C946.687 359.325 947.196 359.689 947.569 360.212C947.952 360.735 948.143 361.327 948.143 361.99C948.143 362.597 947.989 363.143 947.681 363.628C947.383 364.104 946.967 364.482 946.435 364.762C945.913 365.033 945.315 365.168 944.643 365.168ZM944.643 364.188C945.119 364.188 945.535 364.099 945.889 363.922C946.244 363.735 946.519 363.479 946.715 363.152C946.921 362.816 947.023 362.429 947.023 361.99C947.023 361.551 946.921 361.169 946.715 360.842C946.519 360.506 946.244 360.249 945.889 360.072C945.535 359.885 945.119 359.792 944.643 359.792C944.167 359.792 943.747 359.885 943.383 360.072C943.029 360.249 942.753 360.506 942.557 360.842C942.361 361.169 942.263 361.551 942.263 361.99C942.263 362.429 942.361 362.816 942.557 363.152C942.753 363.479 943.029 363.735 943.383 363.922C943.747 364.099 944.167 364.188 944.643 364.188ZM944.643 358.812C944.989 358.812 945.297 358.742 945.567 358.602C945.838 358.453 946.053 358.252 946.211 358C946.379 357.739 946.463 357.435 946.463 357.09C946.463 356.745 946.379 356.446 946.211 356.194C946.053 355.942 945.838 355.746 945.567 355.606C945.297 355.457 944.989 355.382 944.643 355.382C944.298 355.382 943.985 355.457 943.705 355.606C943.435 355.746 943.215 355.942 943.047 356.194C942.889 356.446 942.809 356.745 942.809 357.09C942.809 357.435 942.889 357.739 943.047 358C943.215 358.252 943.435 358.453 943.705 358.602C943.985 358.742 944.298 358.812 944.643 358.812Z" fill="#9096A2"/>
</g>
<rect x="0.5" y="0.5" width="906" height="393" rx="15.5" stroke="#E4E4E7"/>
<defs>
<filter id="filter0_d_362_816" x="371" y="234" width="36" height="36" filterUnits="userSpaceOnUse" color-interpolation-filters="sRGB">
<feFlood flood-opacity="0" result="BackgroundImageFix"/>
<feColorMatrix in="SourceAlpha" type="matrix" values="0 0 0 0 0 0 0 0 0 0 0 0 0 0 0 0 0 0 127 0" result="hardAlpha"/>
<feOffset dy="4"/>
<feGaussianBlur stdDeviation="5"/>
<feColorMatrix type="matrix" values="0 0 0 0 0.301961 0 0 0 0 0.392157 0 0 0 0 1 0 0 0 0.25 0"/>
<feBlend mode="normal" in2="BackgroundImageFix" result="effect1_dropShadow_362_816"/>
<feBlend mode="normal" in="SourceGraphic" in2="effect1_dropShadow_362_816" result="shape"/>
</filter>
<filter id="filter1_d_362_816" x="250" y="102" width="278" height="193.115" filterUnits="userSpaceOnUse" color-interpolation-filters="sRGB">
<feFlood flood-opacity="0" result="BackgroundImageFix"/>
<feColorMatrix in="SourceAlpha" type="matrix" values="0 0 0 0 0 0 0 0 0 0 0 0 0 0 0 0 0 0 127 0" result="hardAlpha"/>
<feOffset dy="20"/>
<feGaussianBlur stdDeviation="20"/>
<feComposite in2="hardAlpha" operator="out"/>
<feColorMatrix type="matrix" values="0 0 0 0 0.815686 0 0 0 0 0.835294 0 0 0 0 0.866667 0 0 0 0.5 0"/>
<feBlend mode="normal" in2="BackgroundImageFix" result="effect1_dropShadow_362_816"/>
<feBlend mode="normal" in="SourceGraphic" in2="effect1_dropShadow_362_816" result="shape"/>
</filter>
<linearGradient id="paint0_linear_362_816" x1="453.5" y1="186.095" x2="453.5" y2="348" gradientUnits="userSpaceOnUse">
<stop stop-color="#546FFF" stop-opacity="0.7"/>
<stop offset="1" stop-color="#546FFF" stop-opacity="0"/>
</linearGradient>
<clipPath id="clip0_362_816">
<rect width="907" height="394" rx="16" fill="white"/>
</clipPath>
<clipPath id="clip1_362_816">
<rect width="12" height="12" fill="white" transform="translate(316 185)"/>
</clipPath>
</defs>
</svg>
