<svg xmlns="http://www.w3.org/2000/svg" version="1.1" xmlns:xlink="http://www.w3.org/1999/xlink" xmlns:svgjs="http://svgjs.dev/svgjs" width="1500" height="1500" viewBox="0 0 1500 1500"><rect width="1500" height="1500" fill="#000000"></rect><g transform="matrix(0.6666666666666666,0,0,0.6666666666666666,249.39393939393938,435.99032258064517)"><svg viewBox="0 0 396 248" data-background-color="#000000" preserveAspectRatio="xMidYMid meet" height="939" width="1500" xmlns="http://www.w3.org/2000/svg" xmlns:xlink="http://www.w3.org/1999/xlink"><g id="tight-bounds" transform="matrix(1,0,0,1,0.2400000000000091,0.4000000000000057)"><svg viewBox="0 0 395.52 247.2" height="247.2" width="395.52"><rect width="395.52" height="247.2" fill="url(#0326a5c0-ad79-4673-9df7-c6d797d9d5f4)" mask="url(#2e75fb58-48fb-412a-adb0-3fafab725d41)" data-fill-palette-color="tertiary"></rect><g><svg></svg></g><g><svg viewBox="0 0 395.52 247.2" height="247.2" width="395.52"><g transform="matrix(1,0,0,1,75.54432,94.84697465374089)"><svg viewBox="0 0 244.43135999999998 57.50605069251821" height="57.50605069251821" width="244.43135999999998"><g><svg viewBox="0 0 244.43135999999998 57.50605069251821" height="57.50605069251821" width="244.43135999999998"><g><svg viewBox="0 0 244.43135999999998 57.50605069251821" height="57.50605069251821" width="244.43135999999998"><g><svg viewBox="0 0 244.43135999999998 57.50605069251821" height="57.50605069251821" width="244.43135999999998"><g id="textblocktransform"><svg viewBox="0 0 244.43135999999998 57.50605069251821" height="57.50605069251821" width="244.43135999999998" id="textblock"><g><svg viewBox="0 0 244.43135999999998 35.6446114998401" height="35.6446114998401" width="244.43135999999998"><g transform="matrix(1,0,0,1,0,0)"><svg width="244.43135999999998" viewBox="4.38 -31.25 217.12 31.67" height="35.6446114998401" data-palette-color="#fbfbfb"><path d="M13.13 0L4.38 0 4.38-31.25 13.13-31.25Q16.11-31.25 17.86-30.07 19.62-28.89 20.38-27.2 21.15-25.52 21.15-24.03L21.15-24.03Q21.15-22.33 20.36-20.92 19.58-19.51 18.26-18.61L18.26-18.61Q20.8-17.47 22.38-15.17 23.96-12.88 23.96-9.97L23.96-9.97Q23.96-7.5 22.73-5.21 21.49-2.92 19.08-1.46 16.67 0 13.13 0L13.13 0ZM8.33-16.67L8.33-3.54 12.85-3.54Q15.42-3.54 16.98-4.55 18.54-5.56 19.27-7.08 20-8.61 20-10.1L20-10.1Q20-11.56 19.31-13.09 18.61-14.62 17.05-15.64 15.49-16.67 12.85-16.67L12.85-16.67 8.33-16.67ZM8.33-27.71L8.33-20 12.81-20Q14.86-20 16.13-20.99 17.4-21.98 17.4-23.82L17.4-23.82Q17.4-25.73 16.15-26.72 14.9-27.71 12.95-27.71L12.95-27.71 8.33-27.71ZM33.12 0L29.37 0 29.37-20.83 33.12-20.83 33.12 0ZM31.25-24.58L31.25-24.58Q30.21-24.58 29.48-25.31 28.75-26.04 28.75-27.08L28.75-27.08Q28.75-28.16 29.48-28.87 30.21-29.58 31.25-29.58L31.25-29.58Q32.32-29.58 33.04-28.87 33.75-28.16 33.75-27.08L33.75-27.08Q33.75-26.04 33.04-25.31 32.32-24.58 31.25-24.58ZM52.91 0L37.84 0 47.7-17.5 38.47-17.5 38.47-20.83 53.47-20.83 43.61-3.33 52.91-3.33 52.91 0ZM67.98 0L59.23 0 59.23-31.25 67.98-31.25Q70.96-31.25 72.72-30.07 74.47-28.89 75.24-27.2 76-25.52 76-24.03L76-24.03Q76-22.33 75.22-20.92 74.44-19.51 73.12-18.61L73.12-18.61Q75.65-17.47 77.23-15.17 78.81-12.88 78.81-9.97L78.81-9.97Q78.81-7.5 77.58-5.21 76.35-2.92 73.93-1.46 71.52 0 67.98 0L67.98 0ZM63.19-16.67L63.19-3.54 67.7-3.54Q70.27-3.54 71.83-4.55 73.4-5.56 74.12-7.08 74.85-8.61 74.85-10.1L74.85-10.1Q74.85-11.56 74.16-13.09 73.46-14.62 71.9-15.64 70.34-16.67 67.7-16.67L67.7-16.67 63.19-16.67ZM63.19-27.71L63.19-20 67.67-20Q69.71-20 70.98-20.99 72.25-21.98 72.25-23.82L72.25-23.82Q72.25-25.73 71-26.72 69.75-27.71 67.81-27.71L67.81-27.71 63.19-27.71ZM93.74 0.42L93.74 0.42Q90.72 0.42 88.22-1.04 85.72-2.5 84.24-4.97 82.77-7.43 82.77-10.42L82.77-10.42Q82.77-13.44 84.24-15.89 85.72-18.33 88.22-19.79 90.72-21.25 93.74-21.25L93.74-21.25Q96.8-21.25 99.28-19.79 101.76-18.33 103.24-15.89 104.71-13.44 104.71-10.42L104.71-10.42Q104.71-7.43 103.24-4.97 101.76-2.5 99.28-1.04 96.8 0.42 93.74 0.42ZM93.74-3.13L93.74-3.13Q95.75-3.13 97.39-4.11 99.02-5.1 99.99-6.75 100.96-8.4 100.96-10.42L100.96-10.42Q100.96-12.43 99.99-14.08 99.02-15.73 97.39-16.72 95.75-17.71 93.74-17.71L93.74-17.71Q91.73-17.71 90.09-16.72 88.46-15.73 87.49-14.08 86.52-12.43 86.52-10.42L86.52-10.42Q86.52-8.4 87.49-6.75 88.46-5.1 90.09-4.11 91.73-3.13 93.74-3.13ZM119.43 0.42L119.43 0.42Q116.41 0.42 113.91-1.04 111.41-2.5 109.94-4.97 108.46-7.43 108.46-10.42L108.46-10.42Q108.46-13.44 109.94-15.89 111.41-18.33 113.91-19.79 116.41-21.25 119.43-21.25L119.43-21.25Q122.49-21.25 124.97-19.79 127.45-18.33 128.93-15.89 130.4-13.44 130.4-10.42L130.4-10.42Q130.4-7.43 128.93-4.97 127.45-2.5 124.97-1.04 122.49 0.42 119.43 0.42ZM119.43-3.13L119.43-3.13Q121.45-3.13 123.08-4.11 124.71-5.1 125.68-6.75 126.65-8.4 126.65-10.42L126.65-10.42Q126.65-12.43 125.68-14.08 124.71-15.73 123.08-16.72 121.45-17.71 119.43-17.71L119.43-17.71Q117.42-17.71 115.79-16.72 114.15-15.73 113.18-14.08 112.21-12.43 112.21-10.42L112.21-10.42Q112.21-8.4 113.18-6.75 114.15-5.1 115.79-4.11 117.42-3.13 119.43-3.13ZM140.99 0.42L140.99 0.42Q139.39 0.42 137.57-0.19 135.75-0.8 134.43-2.22L134.43-2.22 135.47-6.32Q136.44-4.69 137.97-3.73 139.5-2.78 141.24-2.78L141.24-2.78Q142.9-2.78 143.74-3.59 144.57-4.41 144.57-5.59L144.57-5.59Q144.57-6.94 143.68-7.57 142.8-8.19 142.1-8.44L142.1-8.44 139.29-9.51Q138.53-9.83 137.45-10.43 136.37-11.04 135.58-12.19 134.78-13.33 134.78-15.17L134.78-15.17Q134.78-16.84 135.58-18.23 136.37-19.62 137.83-20.43 139.29-21.25 141.27-21.25L141.27-21.25Q142.83-21.25 144.53-20.69 146.24-20.14 147.42-18.82L147.42-18.82 146.37-14.72Q145.54-16.25 144.12-17.15 142.69-18.06 141.17-18.06L141.17-18.06Q139.74-18.06 138.93-17.26 138.11-16.46 138.11-15.42L138.11-15.42Q138.11-14.58 138.67-13.92 139.22-13.26 140.33-12.85L140.33-12.85 143.14-11.77Q143.91-11.49 145.04-10.87 146.17-10.24 147.03-9.06 147.9-7.88 147.9-5.87L147.9-5.87Q147.9-3.06 145.94-1.32 143.98 0.42 140.99 0.42ZM159.5 0L155.75 0 155.75-17.71 151.02-17.71 151.02-20.83 155.85-20.83 155.85-27.78 159.39-27.78 159.39-20.83 164.57-20.83 164.57-17.71 159.5-17.71 159.5 0ZM178.87 0.42L178.87 0.42Q175.61 0.42 173.02-1.04 170.43-2.5 168.96-5.02 167.48-7.53 167.48-10.63L167.48-10.63Q167.48-13.58 168.9-15.99 170.33-18.4 172.74-19.83 175.15-21.25 178.07-21.25L178.07-21.25Q180.95-21.25 183.35-19.88 185.74-18.51 187.17-16.18 188.59-13.85 188.59-10.9L188.59-10.9 188.59-9.38 174.98-9.38Q174.08-9.38 173.14-9.44 172.2-9.51 171.3-9.65L171.3-9.65Q171.68-6.88 173.82-5 175.95-3.13 178.9-3.13L178.9-3.13Q180.88-3.13 182.58-4.03 184.29-4.93 185.33-6.42L185.33-6.42 186.37-2.15Q184.88-0.94 182.95-0.26 181.02 0.42 178.87 0.42ZM171.2-12.19L171.2-12.19Q173.07-12.5 174.98-12.5L174.98-12.5 181.89-12.5Q182.65-12.5 183.4-12.45 184.15-12.4 184.91-12.33L184.91-12.33Q184.42-14.76 182.48-16.34 180.54-17.92 178.07-17.92L178.07-17.92Q175.54-17.92 173.63-16.23 171.72-14.55 171.2-12.19ZM197.34 0L193.59 0 193.59-20.83 197.06-20.83 197.06-17.01Q198.17-18.85 200.01-19.95 201.85-21.04 204.39-21.04L204.39-21.04 205.32-17.29Q204.67-17.5 203.8-17.5L203.8-17.5Q200.88-17.5 199.11-15.64 197.34-13.78 197.34-10.35L197.34-10.35 197.34 0ZM214.59 0.42L214.59 0.42Q213 0.42 211.17-0.19 209.35-0.8 208.03-2.22L208.03-2.22 209.07-6.32Q210.04-4.69 211.57-3.73 213.1-2.78 214.84-2.78L214.84-2.78Q216.5-2.78 217.34-3.59 218.17-4.41 218.17-5.59L218.17-5.59Q218.17-6.94 217.28-7.57 216.4-8.19 215.7-8.44L215.7-8.44 212.89-9.51Q212.13-9.83 211.05-10.43 209.98-11.04 209.18-12.19 208.38-13.33 208.38-15.17L208.38-15.17Q208.38-16.84 209.18-18.23 209.98-19.62 211.43-20.43 212.89-21.25 214.87-21.25L214.87-21.25Q216.43-21.25 218.13-20.69 219.84-20.14 221.02-18.82L221.02-18.82 219.98-14.72Q219.14-16.25 217.72-17.15 216.29-18.06 214.77-18.06L214.77-18.06Q213.34-18.06 212.53-17.26 211.71-16.46 211.71-15.42L211.71-15.42Q211.71-14.58 212.27-13.92 212.82-13.26 213.93-12.85L213.93-12.85 216.75-11.77Q217.51-11.49 218.64-10.87 219.77-10.24 220.63-9.06 221.5-7.88 221.5-5.87L221.5-5.87Q221.5-3.06 219.54-1.32 217.58 0.42 214.59 0.42Z" opacity="1" transform="matrix(1,0,0,1,0,0)" fill="#fbfbfb" class="wordmark-text-0" data-fill-palette-color="primary" id="text-0"></path></svg></g></svg></g><g transform="matrix(1,0,0,1,0,44.05944880427636)"><svg viewBox="0 0 244.43135999999998 13.446601888241853" height="13.446601888241853" width="244.43135999999998"><g transform="matrix(1,0,0,1,0,0)"><svg width="244.43135999999998" viewBox="2.61 -41.19 985.14 54.2" height="13.446601888241853" data-palette-color="url(#18f8a832-56fe-48af-a602-400cf588dd86)"></svg></g></svg></g></svg></g></svg></g></svg></g></svg></g></svg></g><path d="M199.002 88.847L199.002 25.732 3.265 25.732 3.265 221.468 199.002 221.468 199.002 158.353 195.788 158.353 195.788 218.254 6.48 218.254 6.48 28.946 195.788 28.946 195.788 88.847Z" fill="url(#0326a5c0-ad79-4673-9df7-c6d797d9d5f4)" stroke="transparent" data-fill-palette-color="tertiary"></path></svg></g><defs></defs><mask id="913af441-4f8c-4466-b906-ee554066559e"><g id="SvgjsG1445"><svg viewBox="0 0 395.52 247.2" height="247.2" width="395.52"><g><svg></svg></g><g><svg viewBox="0 0 395.52 247.2" height="247.2" width="395.52"><g transform="matrix(1,0,0,1,75.54432,94.84697465374089)"><svg viewBox="0 0 244.43135999999998 57.50605069251821" height="57.50605069251821" width="244.43135999999998"><g><svg viewBox="0 0 244.43135999999998 57.50605069251821" height="57.50605069251821" width="244.43135999999998"><g><svg viewBox="0 0 244.43135999999998 57.50605069251821" height="57.50605069251821" width="244.43135999999998"><g><svg viewBox="0 0 244.43135999999998 57.50605069251821" height="57.50605069251821" width="244.43135999999998"><g id="SvgjsG1444"><svg viewBox="0 0 244.43135999999998 57.50605069251821" height="57.50605069251821" width="244.43135999999998" id="SvgjsSvg1443"><g><svg viewBox="0 0 244.43135999999998 35.6446114998401" height="35.6446114998401" width="244.43135999999998"><g transform="matrix(1,0,0,1,0,0)"><svg width="244.43135999999998" viewBox="4.38 -31.25 217.12 31.67" height="35.6446114998401" data-palette-color="#fbfbfb"><path d="M13.13 0L4.38 0 4.38-31.25 13.13-31.25Q16.11-31.25 17.86-30.07 19.62-28.89 20.38-27.2 21.15-25.52 21.15-24.03L21.15-24.03Q21.15-22.33 20.36-20.92 19.58-19.51 18.26-18.61L18.26-18.61Q20.8-17.47 22.38-15.17 23.96-12.88 23.96-9.97L23.96-9.97Q23.96-7.5 22.73-5.21 21.49-2.92 19.08-1.46 16.67 0 13.13 0L13.13 0ZM8.33-16.67L8.33-3.54 12.85-3.54Q15.42-3.54 16.98-4.55 18.54-5.56 19.27-7.08 20-8.61 20-10.1L20-10.1Q20-11.56 19.31-13.09 18.61-14.62 17.05-15.64 15.49-16.67 12.85-16.67L12.85-16.67 8.33-16.67ZM8.33-27.71L8.33-20 12.81-20Q14.86-20 16.13-20.99 17.4-21.98 17.4-23.82L17.4-23.82Q17.4-25.73 16.15-26.72 14.9-27.71 12.95-27.71L12.95-27.71 8.33-27.71ZM33.12 0L29.37 0 29.37-20.83 33.12-20.83 33.12 0ZM31.25-24.58L31.25-24.58Q30.21-24.58 29.48-25.31 28.75-26.04 28.75-27.08L28.75-27.08Q28.75-28.16 29.48-28.87 30.21-29.58 31.25-29.58L31.25-29.58Q32.32-29.58 33.04-28.87 33.75-28.16 33.75-27.08L33.75-27.08Q33.75-26.04 33.04-25.31 32.32-24.58 31.25-24.58ZM52.91 0L37.84 0 47.7-17.5 38.47-17.5 38.47-20.83 53.47-20.83 43.61-3.33 52.91-3.33 52.91 0ZM67.98 0L59.23 0 59.23-31.25 67.98-31.25Q70.96-31.25 72.72-30.07 74.47-28.89 75.24-27.2 76-25.52 76-24.03L76-24.03Q76-22.33 75.22-20.92 74.44-19.51 73.12-18.61L73.12-18.61Q75.65-17.47 77.23-15.17 78.81-12.88 78.81-9.97L78.81-9.97Q78.81-7.5 77.58-5.21 76.35-2.92 73.93-1.46 71.52 0 67.98 0L67.98 0ZM63.19-16.67L63.19-3.54 67.7-3.54Q70.27-3.54 71.83-4.55 73.4-5.56 74.12-7.08 74.85-8.61 74.85-10.1L74.85-10.1Q74.85-11.56 74.16-13.09 73.46-14.62 71.9-15.64 70.34-16.67 67.7-16.67L67.7-16.67 63.19-16.67ZM63.19-27.71L63.19-20 67.67-20Q69.71-20 70.98-20.99 72.25-21.98 72.25-23.82L72.25-23.82Q72.25-25.73 71-26.72 69.75-27.71 67.81-27.71L67.81-27.71 63.19-27.71ZM93.74 0.42L93.74 0.42Q90.72 0.42 88.22-1.04 85.72-2.5 84.24-4.97 82.77-7.43 82.77-10.42L82.77-10.42Q82.77-13.44 84.24-15.89 85.72-18.33 88.22-19.79 90.72-21.25 93.74-21.25L93.74-21.25Q96.8-21.25 99.28-19.79 101.76-18.33 103.24-15.89 104.71-13.44 104.71-10.42L104.71-10.42Q104.71-7.43 103.24-4.97 101.76-2.5 99.28-1.04 96.8 0.42 93.74 0.42ZM93.74-3.13L93.74-3.13Q95.75-3.13 97.39-4.11 99.02-5.1 99.99-6.75 100.96-8.4 100.96-10.42L100.96-10.42Q100.96-12.43 99.99-14.08 99.02-15.73 97.39-16.72 95.75-17.71 93.74-17.71L93.74-17.71Q91.73-17.71 90.09-16.72 88.46-15.73 87.49-14.08 86.52-12.43 86.52-10.42L86.52-10.42Q86.52-8.4 87.49-6.75 88.46-5.1 90.09-4.11 91.73-3.13 93.74-3.13ZM119.43 0.42L119.43 0.42Q116.41 0.42 113.91-1.04 111.41-2.5 109.94-4.97 108.46-7.43 108.46-10.42L108.46-10.42Q108.46-13.44 109.94-15.89 111.41-18.33 113.91-19.79 116.41-21.25 119.43-21.25L119.43-21.25Q122.49-21.25 124.97-19.79 127.45-18.33 128.93-15.89 130.4-13.44 130.4-10.42L130.4-10.42Q130.4-7.43 128.93-4.97 127.45-2.5 124.97-1.04 122.49 0.42 119.43 0.42ZM119.43-3.13L119.43-3.13Q121.45-3.13 123.08-4.11 124.71-5.1 125.68-6.75 126.65-8.4 126.65-10.42L126.65-10.42Q126.65-12.43 125.68-14.08 124.71-15.73 123.08-16.72 121.45-17.71 119.43-17.71L119.43-17.71Q117.42-17.71 115.79-16.72 114.15-15.73 113.18-14.08 112.21-12.43 112.21-10.42L112.21-10.42Q112.21-8.4 113.18-6.75 114.15-5.1 115.79-4.11 117.42-3.13 119.43-3.13ZM140.99 0.42L140.99 0.42Q139.39 0.42 137.57-0.19 135.75-0.8 134.43-2.22L134.43-2.22 135.47-6.32Q136.44-4.69 137.97-3.73 139.5-2.78 141.24-2.78L141.24-2.78Q142.9-2.78 143.74-3.59 144.57-4.41 144.57-5.59L144.57-5.59Q144.57-6.94 143.68-7.57 142.8-8.19 142.1-8.44L142.1-8.44 139.29-9.51Q138.53-9.83 137.45-10.43 136.37-11.04 135.58-12.19 134.78-13.33 134.78-15.17L134.78-15.17Q134.78-16.84 135.58-18.23 136.37-19.62 137.83-20.43 139.29-21.25 141.27-21.25L141.27-21.25Q142.83-21.25 144.53-20.69 146.24-20.14 147.42-18.82L147.42-18.82 146.37-14.72Q145.54-16.25 144.12-17.15 142.69-18.06 141.17-18.06L141.17-18.06Q139.74-18.06 138.93-17.26 138.11-16.46 138.11-15.42L138.11-15.42Q138.11-14.58 138.67-13.92 139.22-13.26 140.33-12.85L140.33-12.85 143.14-11.77Q143.91-11.49 145.04-10.87 146.17-10.24 147.03-9.06 147.9-7.88 147.9-5.87L147.9-5.87Q147.9-3.06 145.94-1.32 143.98 0.42 140.99 0.42ZM159.5 0L155.75 0 155.75-17.71 151.02-17.71 151.02-20.83 155.85-20.83 155.85-27.78 159.39-27.78 159.39-20.83 164.57-20.83 164.57-17.71 159.5-17.71 159.5 0ZM178.87 0.42L178.87 0.42Q175.61 0.42 173.02-1.04 170.43-2.5 168.96-5.02 167.48-7.53 167.48-10.63L167.48-10.63Q167.48-13.58 168.9-15.99 170.33-18.4 172.74-19.83 175.15-21.25 178.07-21.25L178.07-21.25Q180.95-21.25 183.35-19.88 185.74-18.51 187.17-16.18 188.59-13.85 188.59-10.9L188.59-10.9 188.59-9.38 174.98-9.38Q174.08-9.38 173.14-9.44 172.2-9.51 171.3-9.65L171.3-9.65Q171.68-6.88 173.82-5 175.95-3.13 178.9-3.13L178.9-3.13Q180.88-3.13 182.58-4.03 184.29-4.93 185.33-6.42L185.33-6.42 186.37-2.15Q184.88-0.94 182.95-0.26 181.02 0.42 178.87 0.42ZM171.2-12.19L171.2-12.19Q173.07-12.5 174.98-12.5L174.98-12.5 181.89-12.5Q182.65-12.5 183.4-12.45 184.15-12.4 184.91-12.33L184.91-12.33Q184.42-14.76 182.48-16.34 180.54-17.92 178.07-17.92L178.07-17.92Q175.54-17.92 173.63-16.23 171.72-14.55 171.2-12.19ZM197.34 0L193.59 0 193.59-20.83 197.06-20.83 197.06-17.01Q198.17-18.85 200.01-19.95 201.85-21.04 204.39-21.04L204.39-21.04 205.32-17.29Q204.67-17.5 203.8-17.5L203.8-17.5Q200.88-17.5 199.11-15.64 197.34-13.78 197.34-10.35L197.34-10.35 197.34 0ZM214.59 0.42L214.59 0.42Q213 0.42 211.17-0.19 209.35-0.8 208.03-2.22L208.03-2.22 209.07-6.32Q210.04-4.69 211.57-3.73 213.1-2.78 214.84-2.78L214.84-2.78Q216.5-2.78 217.34-3.59 218.17-4.41 218.17-5.59L218.17-5.59Q218.17-6.94 217.28-7.57 216.4-8.19 215.7-8.44L215.7-8.44 212.89-9.51Q212.13-9.83 211.05-10.43 209.98-11.04 209.18-12.19 208.38-13.33 208.38-15.17L208.38-15.17Q208.38-16.84 209.18-18.23 209.98-19.62 211.43-20.43 212.89-21.25 214.87-21.25L214.87-21.25Q216.43-21.25 218.13-20.69 219.84-20.14 221.02-18.82L221.02-18.82 219.98-14.72Q219.14-16.25 217.72-17.15 216.29-18.06 214.77-18.06L214.77-18.06Q213.34-18.06 212.53-17.26 211.71-16.46 211.71-15.42L211.71-15.42Q211.71-14.58 212.27-13.92 212.82-13.26 213.93-12.85L213.93-12.85 216.75-11.77Q217.51-11.49 218.64-10.87 219.77-10.24 220.63-9.06 221.5-7.88 221.5-5.87L221.5-5.87Q221.5-3.06 219.54-1.32 217.58 0.42 214.59 0.42Z" opacity="1" transform="matrix(1,0,0,1,0,0)" fill="black" class="wordmark-text-0" id="SvgjsPath1442"></path></svg></g></svg></g><g transform="matrix(1,0,0,1,0,44.05944880427636)"><svg viewBox="0 0 244.43135999999998 13.446601888241853" height="13.446601888241853" width="244.43135999999998"><g transform="matrix(1,0,0,1,0,0)"><svg width="244.43135999999998" viewBox="2.61 -41.19 985.14 54.2" height="13.446601888241853" data-palette-color="url(#18f8a832-56fe-48af-a602-400cf588dd86)"><path d="M13.6-35.16L22.56-35.16 21.04-22.9 15.11-22.9 13.6-35.16ZM2.61-35.16L11.55-35.16 10.06-22.9 4.1-22.9 2.61-35.16ZM38.79-15.33L38.79 0 29.1 0 29.1-35.16 54.34-35.16 54.34-30.66 38.79-30.66 38.79-19.8 50.8-19.8 50.8-15.33 38.79-15.33ZM55.76-12.06L55.76-12.06Q55.76-13.99 56.09-16.06 56.42-18.14 57.04-20.21 57.66-22.29 58.54-24.32 59.42-26.34 60.52-28.2L60.52-28.2 66.55-28.2Q65.94-26.37 65.46-24.38 64.99-22.39 64.66-20.4 64.33-18.41 64.14-16.5 63.96-14.6 63.96-12.96L63.96-12.96Q63.96-12.01 64.05-10.93 64.13-9.84 64.35-8.75 64.57-7.67 64.97-6.67 65.38-5.66 66.01-4.9 66.65-4.13 67.56-3.67 68.48-3.22 69.72-3.22L69.72-3.22Q70.94-3.22 71.91-3.77 72.87-4.32 73.6-5.21 74.34-6.1 74.85-7.25 75.36-8.4 75.69-9.61 76.02-10.82 76.18-11.98 76.34-13.13 76.34-14.06L76.34-14.06 76.34-28.2 84.59-28.2 84.59 0 81.42 0 77.63-6.57Q76.92-4.93 75.91-3.6 74.9-2.27 73.6-1.32 72.31-0.37 70.73 0.15 69.16 0.66 67.33 0.66L67.33 0.66Q64.4 0.66 62.23-0.29 60.05-1.25 58.61-2.93 57.17-4.61 56.46-6.95 55.76-9.28 55.76-12.06ZM98.26-13.38L98.26-13.38Q99.77-13.04 101.29-12.84 102.8-12.65 104.34-12.65L104.34-12.65Q105.95-12.65 107.33-12.95 108.71-13.26 109.72-13.98 110.73-14.7 111.32-15.89 111.91-17.09 111.91-18.87L111.91-18.87Q111.91-20.31 111.52-21.51 111.13-22.71 110.36-23.56 109.59-24.41 108.46-24.89 107.34-25.37 105.85-25.37L105.85-25.37Q104.46-25.37 103.35-24.85 102.24-24.34 101.4-23.47 100.55-22.61 99.96-21.46 99.36-20.31 98.97-19.07 98.58-17.82 98.41-16.55 98.23-15.28 98.23-14.16L98.23-14.16Q98.23-13.96 98.23-13.77 98.23-13.57 98.26-13.38ZM118.6-18.95L118.6-18.95Q118.6-17.21 118.03-15.86 117.47-14.5 116.51-13.48 115.54-12.45 114.27-11.74 113.01-11.04 111.56-10.58 110.12-10.13 108.6-9.94 107.07-9.74 105.63-9.74L105.63-9.74Q103.8-9.74 102.02-10 100.24-10.25 98.5-10.82L98.5-10.82Q98.77-9.2 99.36-7.75 99.94-6.3 100.92-5.21 101.9-4.13 103.33-3.49 104.75-2.86 106.71-2.86L106.71-2.86Q108-2.86 109.17-3.25 110.34-3.64 111.32-4.35 112.3-5.05 113.04-6.03 113.79-7.01 114.25-8.2L114.25-8.2 117.81-6.88Q117.01-4.96 115.61-3.55 114.2-2.15 112.43-1.23 110.66-0.32 108.67 0.12 106.68 0.56 104.73 0.56L104.73 0.56Q101.51 0.56 98.77-0.52 96.04-1.61 94.06-3.56 92.08-5.52 90.96-8.23 89.84-10.94 89.84-14.16L89.84-14.16Q89.84-17.38 90.96-20.09 92.08-22.8 94.06-24.76 96.04-26.71 98.77-27.8 101.51-28.88 104.73-28.88L104.73-28.88Q106.29-28.88 107.93-28.66 109.56-28.44 111.1-27.97 112.64-27.49 114.01-26.73 115.37-25.98 116.39-24.87 117.4-23.75 118-22.29 118.6-20.83 118.6-18.95ZM132-32.62L132 0 123.74 0 123.74-41.19 126.92-41.19 132-32.62ZM147.55-35.01L147.55-35.01Q147.55-34.08 147.19-33.25 146.84-32.42 146.23-31.81 145.62-31.2 144.79-30.85 143.96-30.49 143.03-30.49L143.03-30.49Q142.1-30.49 141.28-30.85 140.47-31.2 139.86-31.81 139.25-32.42 138.89-33.25 138.54-34.08 138.54-35.01L138.54-35.01Q138.54-35.94 138.89-36.76 139.25-37.57 139.86-38.18 140.47-38.79 141.28-39.15 142.1-39.5 143.03-39.5L143.03-39.5Q143.96-39.5 144.79-39.15 145.62-38.79 146.23-38.18 146.84-37.57 147.19-36.76 147.55-35.94 147.55-35.01ZM147.18-28.17L147.18 0 138.9 0 138.9-28.17 147.18-28.17ZM182.92-16.16L182.92-16.16Q182.92-13.31 182.22-10.21 181.53-7.1 180.28-4.13 179.04-1.15 177.3 1.48 175.57 4.1 173.5 6.01L173.5 6.01 170.4 4.32Q171.05 3.1 171.64 1.59 172.23 0.07 172.7-1.62 173.18-3.32 173.56-5.13 173.94-6.93 174.19-8.7 174.45-10.47 174.58-12.15 174.72-13.82 174.72-15.26L174.72-15.26Q174.72-16.21 174.64-17.3 174.57-18.38 174.34-19.47 174.11-20.56 173.72-21.56 173.32-22.56 172.68-23.32 172.03-24.07 171.12-24.54 170.2-25 168.95-25L168.95-25Q167.73-25 166.78-24.45 165.83-23.9 165.1-23.01 164.36-22.12 163.84-20.97 163.32-19.82 162.99-18.62 162.66-17.41 162.51-16.24 162.36-15.06 162.36-14.14L162.36-14.14 162.36 0 154.09 0 154.09-28.2 157.26-28.2 161.04-21.63Q161.73-23.27 162.75-24.61 163.78-25.95 165.07-26.9 166.37-27.86 167.94-28.37 169.52-28.88 171.35-28.88L171.35-28.88Q174.28-28.88 176.45-27.93 178.62-26.98 180.06-25.28 181.5-23.58 182.21-21.25 182.92-18.92 182.92-16.16ZM216.75-28.2L216.75-3.39Q216.75-0.02 215.75 2.95 214.75 5.93 212.85 8.17 210.94 10.4 208.17 11.71 205.4 13.01 201.86 13.01L201.86 13.01Q199.91 13.01 197.92 12.57 195.93 12.13 194.16 11.22 192.39 10.3 190.99 8.9 189.58 7.5 188.78 5.59L188.78 5.59 192.34 4.25Q192.8 5.44 193.55 6.45 194.29 7.45 195.27 8.17 196.25 8.89 197.42 9.29 198.59 9.69 199.88 9.69L199.88 9.69Q202.33 9.69 203.97 8.69 205.62 7.69 206.62 6.08 207.62 4.47 208.06 2.43 208.5 0.39 208.5-1.71L208.5-1.71 208.5-3.37Q207.04-1.37 204.98-0.4 202.91 0.56 200.45 0.56L200.45 0.56Q197.22 0.56 194.68-0.59 192.15-1.73 190.39-3.72 188.63-5.71 187.7-8.4 186.77-11.08 186.77-14.16L186.77-14.16Q186.77-17.24 187.7-19.92 188.63-22.61 190.39-24.6 192.15-26.59 194.68-27.73 197.22-28.88 200.45-28.88L200.45-28.88Q202.08-28.88 203.56-28.39 205.04-27.91 206.27-27.01 207.5-26.12 208.44-24.87 209.38-23.61 209.92-22.07L209.92-22.07 213.58-28.2 216.75-28.2ZM208.45-14.16L208.45-14.16Q208.45-15.26 208.34-16.48 208.23-17.7 207.97-18.9 207.7-20.09 207.22-21.18 206.75-22.27 206-23.11 205.26-23.95 204.21-24.44 203.16-24.93 201.76-24.93L201.76-24.93Q200.37-24.93 199.35-24.43 198.32-23.93 197.59-23.08 196.86-22.24 196.38-21.14 195.91-20.04 195.64-18.85 195.37-17.65 195.26-16.44 195.15-15.23 195.15-14.16L195.15-14.16Q195.15-13.09 195.26-11.87 195.37-10.64 195.64-9.45 195.91-8.25 196.38-7.15 196.86-6.05 197.59-5.21 198.32-4.37 199.35-3.87 200.37-3.37 201.76-3.37L201.76-3.37Q203.03-3.37 204.02-3.89 205.01-4.42 205.76-5.3 206.5-6.18 207.01-7.3 207.53-8.42 207.84-9.62 208.16-10.82 208.31-12 208.45-13.18 208.45-14.16ZM267.14-10.74L267.14-10.74Q267.14-8.47 266.57-6.74 265.99-5 264.96-3.74 263.92-2.47 262.5-1.61 261.09-0.76 259.41-0.24 257.74 0.27 255.87 0.49 254.01 0.71 252.08 0.71L252.08 0.71Q249.54 0.71 247.39 0.33 245.24-0.05 243.35-0.87 241.46-1.68 239.71-2.98 237.97-4.27 236.23-6.13L236.23-6.13 241.21-11.18Q241.9-9.5 243.09-8.07 244.29-6.64 245.72-5.62 247.15-4.59 248.68-4 250.22-3.42 251.59-3.42L251.59-3.42Q253.2-3.42 254.62-3.65 256.03-3.88 257.08-4.42 258.13-4.96 258.73-5.85 259.33-6.74 259.33-8.08L259.33-8.08Q259.33-9.11 258.86-9.84 258.4-10.57 257.66-11.1 256.91-11.62 255.96-11.99 255.01-12.35 254.02-12.61 253.03-12.87 252.08-13.07 251.12-13.28 250.39-13.5L250.39-13.5Q248.95-13.92 247.39-14.39 245.83-14.87 244.31-15.48 242.8-16.09 241.44-16.88 240.09-17.68 239.06-18.76 238.04-19.85 237.43-21.28 236.82-22.71 236.82-24.56L236.82-24.56Q236.82-26.78 237.37-28.5 237.92-30.22 238.92-31.49 239.92-32.76 241.29-33.63 242.65-34.5 244.29-35.02 245.92-35.55 247.77-35.78 249.61-36.01 251.54-36.01L251.54-36.01Q254.18-36.01 256.34-35.52 258.5-35.03 260.33-34.13 262.16-33.23 263.69-31.97 265.21-30.71 266.55-29.17L266.55-29.17 261.57-24.12Q260.99-25.88 259.95-27.29 258.91-28.71 257.64-29.72 256.37-30.74 254.98-31.29 253.59-31.84 252.3-31.84L252.3-31.84Q250.61-31.84 249.2-31.6 247.78-31.37 246.77-30.85 245.75-30.32 245.19-29.43 244.63-28.54 244.63-27.22L244.63-27.22Q244.63-26.17 245.05-25.44 245.46-24.71 246.16-24.19 246.85-23.68 247.73-23.35 248.61-23.02 249.55-22.78 250.49-22.53 251.41-22.35 252.32-22.17 253.08-21.95L253.08-21.95Q254.54-21.53 256.15-21.07 257.77-20.61 259.33-19.98 260.89-19.36 262.31-18.55 263.72-17.75 264.8-16.64 265.87-15.53 266.51-14.07 267.14-12.62 267.14-10.74ZM282.89-24.93L282.89 0 274.61 0 274.61-24.93 269.48-24.93 269.48-28.2 274.61-28.2 274.61-38.57 282.89-38.57 282.89-28.2 291.43-28.2 291.43-24.93 282.89-24.93ZM322.75-28.2L322.75 0 314.5 0 314.5-3.37Q313.03-1.37 310.97-0.4 308.91 0.56 306.44 0.56L306.44 0.56Q303.22 0.56 300.68-0.59 298.14-1.73 296.38-3.72 294.63-5.71 293.7-8.4 292.77-11.08 292.77-14.16L292.77-14.16Q292.77-17.24 293.7-19.92 294.63-22.61 296.38-24.6 298.14-26.59 300.68-27.73 303.22-28.88 306.44-28.88L306.44-28.88Q308.08-28.88 309.56-28.39 311.03-27.91 312.26-27.01 313.5-26.12 314.44-24.87 315.38-23.61 315.91-22.07L315.91-22.07 319.58-28.2 322.75-28.2ZM314.45-14.16L314.45-14.16Q314.45-15.26 314.34-16.48 314.23-17.7 313.96-18.9 313.69-20.09 313.22-21.18 312.74-22.27 312-23.11 311.25-23.95 310.2-24.44 309.15-24.93 307.76-24.93L307.76-24.93Q306.37-24.93 305.34-24.43 304.32-23.93 303.59-23.08 302.85-22.24 302.38-21.14 301.9-20.04 301.63-18.85 301.36-17.65 301.25-16.44 301.14-15.23 301.14-14.16L301.14-14.16Q301.14-13.09 301.25-11.87 301.36-10.64 301.63-9.45 301.9-8.25 302.38-7.15 302.85-6.05 303.59-5.21 304.32-4.37 305.34-3.87 306.37-3.37 307.76-3.37L307.76-3.37Q309.03-3.37 310.02-3.89 311.01-4.42 311.75-5.3 312.5-6.18 313.01-7.3 313.52-8.42 313.84-9.62 314.16-10.82 314.3-12 314.45-13.18 314.45-14.16ZM353.61-25.71L353.61-25.71 348.97-18.02Q348.68-18.99 348.21-20.21 347.75-21.44 347.06-22.5 346.38-23.56 345.43-24.28 344.48-25 343.23-25L343.23-25Q342.08-25 341.24-24.41 340.4-23.83 339.81-22.89 339.23-21.95 338.85-20.76 338.47-19.58 338.26-18.37 338.06-17.16 337.98-16.05 337.91-14.94 337.91-14.14L337.91-14.14 337.91 0 329.63 0 329.63-28.2 332.81-28.2 336.15-21.63Q336.84-23.22 337.71-24.55 338.59-25.88 339.74-26.84 340.89-27.81 342.34-28.34 343.79-28.88 345.62-28.88L345.62-28.88Q346.58-28.88 347.75-28.72 348.92-28.56 350.04-28.19 351.17-27.81 352.12-27.2 353.07-26.59 353.61-25.71ZM367.67-24.93L367.67 0 359.39 0 359.39-24.93 354.26-24.93 354.26-28.2 359.39-28.2 359.39-38.57 367.67-38.57 367.67-28.2 376.21-28.2 376.21-24.93 367.67-24.93ZM377.94-12.06L377.94-12.06Q377.94-13.99 378.27-16.06 378.6-18.14 379.23-20.21 379.85-22.29 380.73-24.32 381.61-26.34 382.7-28.2L382.7-28.2 388.73-28.2Q388.12-26.37 387.65-24.38 387.17-22.39 386.84-20.4 386.51-18.41 386.33-16.5 386.15-14.6 386.15-12.96L386.15-12.96Q386.15-12.01 386.23-10.93 386.32-9.84 386.54-8.75 386.76-7.67 387.16-6.67 387.56-5.66 388.2-4.9 388.83-4.13 389.75-3.67 390.66-3.22 391.91-3.22L391.91-3.22Q393.13-3.22 394.09-3.77 395.06-4.32 395.79-5.21 396.52-6.1 397.04-7.25 397.55-8.4 397.88-9.61 398.21-10.82 398.37-11.98 398.52-13.13 398.52-14.06L398.52-14.06 398.52-28.2 406.78-28.2 406.78 0 403.6 0 399.82-6.57Q399.11-4.93 398.1-3.6 397.08-2.27 395.79-1.32 394.5-0.37 392.92 0.15 391.35 0.66 389.52 0.66L389.52 0.66Q386.59 0.66 384.41-0.29 382.24-1.25 380.8-2.93 379.36-4.61 378.65-6.95 377.94-9.28 377.94-12.06ZM443.64-14.16L443.64-14.16Q443.64-11.08 442.71-8.4 441.78-5.71 440.03-3.72 438.27-1.73 435.73-0.59 433.19 0.56 429.97 0.56L429.97 0.56Q427.5 0.56 425.44-0.4 423.38-1.37 421.91-3.37L421.91-3.37 421.91 13.01 413.66 13.01 413.66-28.2 416.83-28.2 420.49-22.07Q421.03-23.61 421.97-24.87 422.91-26.12 424.14-27.01 425.38-27.91 426.85-28.39 428.33-28.88 429.97-28.88L429.97-28.88Q433.19-28.88 435.73-27.73 438.27-26.59 440.03-24.6 441.78-22.61 442.71-19.92 443.64-17.24 443.64-14.16ZM435.27-14.16L435.27-14.16Q435.27-15.23 435.16-16.44 435.05-17.65 434.78-18.85 434.51-20.04 434.03-21.14 433.56-22.24 432.82-23.08 432.09-23.93 431.05-24.43 430.02-24.93 428.65-24.93L428.65-24.93Q427.23-24.93 426.2-24.44 425.16-23.95 424.41-23.11 423.67-22.27 423.19-21.18 422.72-20.09 422.45-18.9 422.18-17.7 422.07-16.48 421.96-15.26 421.96-14.16L421.96-14.16Q421.96-13.18 422.11-12 422.25-10.82 422.57-9.62 422.89-8.42 423.4-7.3 423.91-6.18 424.66-5.3 425.4-4.42 426.39-3.89 427.38-3.37 428.65-3.37L428.65-3.37Q430.04-3.37 431.07-3.87 432.09-4.37 432.82-5.21 433.56-6.05 434.03-7.15 434.51-8.25 434.78-9.45 435.05-10.64 435.16-11.87 435.27-13.09 435.27-14.16ZM473.2-9.01L473.2-9.01Q473.2-7.15 472.67-5.71 472.13-4.27 471.2-3.21 470.27-2.15 469-1.43 467.73-0.71 466.28-0.27 464.83 0.17 463.24 0.37 461.65 0.56 460.09 0.56L460.09 0.56Q457.99 0.56 456.38 0.29 454.77 0.02 453.3-0.57 451.84-1.17 450.39-2.12 448.93-3.08 447.15-4.44L447.15-4.44 451.96-8.37Q452.62-7.13 453.71-6.12 454.79-5.1 455.97-4.37 457.14-3.64 458.24-3.25 459.34-2.86 460.02-2.86L460.02-2.86Q460.58-2.86 461.29-2.89 462-2.93 462.73-3.04 463.46-3.15 464.17-3.37 464.88-3.59 465.43-3.97 465.98-4.35 466.31-4.92 466.63-5.49 466.63-6.3L466.63-6.3Q466.63-7.13 466.21-7.75 465.78-8.37 465.1-8.84 464.41-9.3 463.53-9.62 462.66-9.94 461.76-10.18 460.87-10.42 460.04-10.61 459.21-10.79 458.6-10.96L458.6-10.96Q457.48-11.28 456.23-11.61 454.99-11.94 453.77-12.37 452.55-12.79 451.44-13.38 450.33-13.96 449.48-14.78 448.64-15.6 448.14-16.71 447.64-17.82 447.64-19.31L447.64-19.31Q447.64-22.05 448.73-23.89 449.81-25.73 451.6-26.84 453.38-27.95 455.65-28.42 457.92-28.88 460.26-28.88L460.26-28.88Q461.87-28.88 463.66-28.55 465.44-28.22 467.12-27.58 468.81-26.93 470.27-26 471.74-25.07 472.71-23.88L472.71-23.88 467.9-19.92Q467.37-21.39 466.5-22.44 465.63-23.49 464.62-24.16 463.61-24.83 462.55-25.15 461.48-25.46 460.58-25.46L460.58-25.46Q459.7-25.46 458.6-25.39 457.5-25.32 456.54-24.98 455.58-24.63 454.9-23.94 454.23-23.24 454.23-22.02L454.23-22.02Q454.23-21.14 454.64-20.52 455.04-19.9 455.7-19.45 456.36-18.99 457.2-18.69 458.04-18.38 458.92-18.15 459.8-17.92 460.63-17.75 461.46-17.58 462.12-17.38L462.12-17.38Q463.24-17.07 464.5-16.74 465.76-16.41 466.98-15.98 468.2-15.55 469.33-14.98 470.47-14.4 471.32-13.57 472.18-12.74 472.69-11.63 473.2-10.52 473.2-9.01ZM486.41-3.66L486.41-3.66Q486.41-2.54 486.11-1.37 485.82-0.2 485.3 0.92 484.77 2.03 484.06 3.02 483.36 4 482.53 4.76L482.53 4.76 479.01 2.91Q479.52 2.51 480.05 1.88 480.57 1.25 480.67 0.61L480.67 0.61Q479.96 0.39 479.39-0.02 478.81-0.44 478.4-1.01 477.98-1.59 477.75-2.26 477.52-2.93 477.52-3.66L477.52-3.66Q477.52-4.57 477.87-5.38 478.23-6.2 478.83-6.8 479.43-7.4 480.23-7.75 481.04-8.11 481.96-8.11L481.96-8.11Q482.89-8.11 483.7-7.75 484.5-7.4 485.11-6.8 485.72-6.2 486.07-5.38 486.41-4.57 486.41-3.66ZM516.9-35.16L516.9 0 507.2 0 507.2-35.16 516.9-35.16ZM552.2-28.2L552.2-3.39Q552.2-0.02 551.2 2.95 550.19 5.93 548.29 8.17 546.39 10.4 543.61 11.71 540.84 13.01 537.3 13.01L537.3 13.01Q535.35 13.01 533.36 12.57 531.37 12.13 529.6 11.22 527.83 10.3 526.43 8.9 525.02 7.5 524.22 5.59L524.22 5.59 527.78 4.25Q528.25 5.44 528.99 6.45 529.74 7.45 530.71 8.17 531.69 8.89 532.86 9.29 534.03 9.69 535.33 9.69L535.33 9.69Q537.77 9.69 539.42 8.69 541.06 7.69 542.06 6.08 543.07 4.47 543.5 2.43 543.94 0.39 543.94-1.71L543.94-1.71 543.94-3.37Q542.48-1.37 540.42-0.4 538.35 0.56 535.89 0.56L535.89 0.56Q532.66 0.56 530.13-0.59 527.59-1.73 525.83-3.72 524.07-5.71 523.14-8.4 522.22-11.08 522.22-14.16L522.22-14.16Q522.22-17.24 523.14-19.92 524.07-22.61 525.83-24.6 527.59-26.59 530.13-27.73 532.66-28.88 535.89-28.88L535.89-28.88Q537.52-28.88 539-28.39 540.48-27.91 541.71-27.01 542.94-26.12 543.88-24.87 544.82-23.61 545.36-22.07L545.36-22.07 549.02-28.2 552.2-28.2ZM543.9-14.16L543.9-14.16Q543.9-15.26 543.79-16.48 543.68-17.7 543.41-18.9 543.14-20.09 542.66-21.18 542.19-22.27 541.44-23.11 540.7-23.95 539.65-24.44 538.6-24.93 537.21-24.93L537.21-24.93Q535.81-24.93 534.79-24.43 533.76-23.93 533.03-23.08 532.3-22.24 531.82-21.14 531.35-20.04 531.08-18.85 530.81-17.65 530.7-16.44 530.59-15.23 530.59-14.16L530.59-14.16Q530.59-13.09 530.7-11.87 530.81-10.64 531.08-9.45 531.35-8.25 531.82-7.15 532.3-6.05 533.03-5.21 533.76-4.37 534.79-3.87 535.81-3.37 537.21-3.37L537.21-3.37Q538.48-3.37 539.46-3.89 540.45-4.42 541.2-5.3 541.94-6.18 542.45-7.3 542.97-8.42 543.28-9.62 543.6-10.82 543.75-12 543.9-13.18 543.9-14.16ZM587.91-16.16L587.91-16.16Q587.91-13.31 587.22-10.21 586.52-7.1 585.27-4.13 584.03-1.15 582.3 1.48 580.56 4.1 578.49 6.01L578.49 6.01 575.39 4.32Q576.05 3.1 576.63 1.59 577.22 0.07 577.69-1.62 578.17-3.32 578.55-5.13 578.93-6.93 579.18-8.7 579.44-10.47 579.57-12.15 579.71-13.82 579.71-15.26L579.71-15.26Q579.71-16.21 579.63-17.3 579.56-18.38 579.33-19.47 579.1-20.56 578.71-21.56 578.32-22.56 577.67-23.32 577.02-24.07 576.11-24.54 575.19-25 573.95-25L573.95-25Q572.73-25 571.77-24.45 570.82-23.9 570.09-23.01 569.36-22.12 568.83-20.97 568.31-19.82 567.98-18.62 567.65-17.41 567.5-16.24 567.35-15.06 567.35-14.14L567.35-14.14 567.35 0 559.08 0 559.08-28.2 562.25-28.2 566.04-21.63Q566.72-23.27 567.75-24.61 568.77-25.95 570.06-26.9 571.36-27.86 572.93-28.37 574.51-28.88 576.34-28.88L576.34-28.88Q579.27-28.88 581.44-27.93 583.61-26.98 585.05-25.28 586.5-23.58 587.2-21.25 587.91-18.92 587.91-16.16ZM602.02-35.01L602.02-35.01Q602.02-34.08 601.67-33.25 601.31-32.42 600.7-31.81 600.09-31.2 599.26-30.85 598.43-30.49 597.5-30.49L597.5-30.49Q596.58-30.49 595.76-30.85 594.94-31.2 594.33-31.81 593.72-32.42 593.37-33.25 593.01-34.08 593.01-35.01L593.01-35.01Q593.01-35.94 593.37-36.76 593.72-37.57 594.33-38.18 594.94-38.79 595.76-39.15 596.58-39.5 597.5-39.5L597.5-39.5Q598.43-39.5 599.26-39.15 600.09-38.79 600.7-38.18 601.31-37.57 601.67-36.76 602.02-35.94 602.02-35.01ZM601.65-28.17L601.65 0 593.38 0 593.38-28.17 601.65-28.17ZM619.18-24.93L619.18 0 610.9 0 610.9-24.93 605.78-24.93 605.78-28.2 610.9-28.2 610.9-38.57 619.18-38.57 619.18-28.2 627.73-28.2 627.73-24.93 619.18-24.93ZM640.22-35.01L640.22-35.01Q640.22-34.08 639.87-33.25 639.52-32.42 638.9-31.81 638.29-31.2 637.46-30.85 636.63-30.49 635.71-30.49L635.71-30.49Q634.78-30.49 633.96-30.85 633.14-31.2 632.53-31.81 631.92-32.42 631.57-33.25 631.21-34.08 631.21-35.01L631.21-35.01Q631.21-35.94 631.57-36.76 631.92-37.57 632.53-38.18 633.14-38.79 633.96-39.15 634.78-39.5 635.71-39.5L635.71-39.5Q636.63-39.5 637.46-39.15 638.29-38.79 638.9-38.18 639.52-37.57 639.87-36.76 640.22-35.94 640.22-35.01ZM639.86-28.17L639.86 0 631.58 0 631.58-28.17 639.86-28.17ZM675.6-16.16L675.6-16.16Q675.6-13.31 674.9-10.21 674.21-7.1 672.96-4.13 671.71-1.15 669.98 1.48 668.25 4.1 666.17 6.01L666.17 6.01 663.07 4.32Q663.73 3.1 664.32 1.59 664.9 0.07 665.38-1.62 665.86-3.32 666.23-5.13 666.61-6.93 666.87-8.7 667.12-10.47 667.26-12.15 667.39-13.82 667.39-15.26L667.39-15.26Q667.39-16.21 667.32-17.3 667.25-18.38 667.02-19.47 666.78-20.56 666.39-21.56 666-22.56 665.35-23.32 664.71-24.07 663.79-24.54 662.88-25 661.63-25L661.63-25Q660.41-25 659.46-24.45 658.51-23.9 657.77-23.01 657.04-22.12 656.52-20.97 655.99-19.82 655.66-18.62 655.33-17.41 655.19-16.24 655.04-15.06 655.04-14.14L655.04-14.14 655.04 0 646.76 0 646.76-28.2 649.94-28.2 653.72-21.63Q654.41-23.27 655.43-24.61 656.46-25.95 657.75-26.9 659.04-27.86 660.62-28.37 662.19-28.88 664.02-28.88L664.02-28.88Q666.95-28.88 669.13-27.93 671.3-26.98 672.74-25.28 674.18-23.58 674.89-21.25 675.6-18.92 675.6-16.16ZM709.43-28.2L709.43-3.39Q709.43-0.02 708.43 2.95 707.43 5.93 705.53 8.17 703.62 10.4 700.85 11.71 698.08 13.01 694.54 13.01L694.54 13.01Q692.59 13.01 690.6 12.57 688.61 12.13 686.84 11.22 685.07 10.3 683.66 8.9 682.26 7.5 681.45 5.59L681.45 5.59 685.02 4.25Q685.48 5.44 686.23 6.45 686.97 7.45 687.95 8.17 688.92 8.89 690.1 9.29 691.27 9.69 692.56 9.69L692.56 9.69Q695 9.69 696.65 8.69 698.3 7.69 699.3 6.08 700.3 4.47 700.74 2.43 701.18 0.39 701.18-1.71L701.18-1.71 701.18-3.37Q699.72-1.37 697.65-0.4 695.59 0.56 693.12 0.56L693.12 0.56Q689.9 0.56 687.36-0.59 684.82-1.73 683.06-3.72 681.31-5.71 680.38-8.4 679.45-11.08 679.45-14.16L679.45-14.16Q679.45-17.24 680.38-19.92 681.31-22.61 683.06-24.6 684.82-26.59 687.36-27.73 689.9-28.88 693.12-28.88L693.12-28.88Q694.76-28.88 696.24-28.39 697.71-27.91 698.95-27.01 700.18-26.12 701.12-24.87 702.06-23.61 702.6-22.07L702.6-22.07 706.26-28.2 709.43-28.2ZM701.13-14.16L701.13-14.16Q701.13-15.26 701.02-16.48 700.91-17.7 700.64-18.9 700.37-20.09 699.9-21.18 699.42-22.27 698.68-23.11 697.93-23.95 696.88-24.44 695.83-24.93 694.44-24.93L694.44-24.93Q693.05-24.93 692.02-24.43 691-23.93 690.27-23.08 689.53-22.24 689.06-21.14 688.58-20.04 688.31-18.85 688.05-17.65 687.94-16.44 687.83-15.23 687.83-14.16L687.83-14.16Q687.83-13.09 687.94-11.87 688.05-10.64 688.31-9.45 688.58-8.25 689.06-7.15 689.53-6.05 690.27-5.21 691-4.37 692.02-3.87 693.05-3.37 694.44-3.37L694.44-3.37Q695.71-3.37 696.7-3.89 697.69-4.42 698.43-5.3 699.18-6.18 699.69-7.3 700.2-8.42 700.52-9.62 700.84-10.82 700.98-12 701.13-13.18 701.13-14.16ZM759.82-10.74L759.82-10.74Q759.82-8.47 759.24-6.74 758.67-5 757.63-3.74 756.6-2.47 755.18-1.61 753.76-0.76 752.09-0.24 750.42 0.27 748.55 0.49 746.68 0.71 744.75 0.71L744.75 0.71Q742.22 0.71 740.07 0.33 737.92-0.05 736.03-0.87 734.13-1.68 732.39-2.98 730.64-4.27 728.91-6.13L728.91-6.13 733.89-11.18Q734.57-9.5 735.77-8.07 736.97-6.64 738.39-5.62 739.82-4.59 741.36-4 742.9-3.42 744.27-3.42L744.27-3.42Q745.88-3.42 747.29-3.65 748.71-3.88 749.76-4.42 750.81-4.96 751.41-5.85 752.01-6.74 752.01-8.08L752.01-8.08Q752.01-9.11 751.54-9.84 751.08-10.57 750.33-11.1 749.59-11.62 748.64-11.99 747.68-12.35 746.7-12.61 745.71-12.87 744.75-13.07 743.8-13.28 743.07-13.5L743.07-13.5Q741.63-13.92 740.07-14.39 738.5-14.87 736.99-15.48 735.48-16.09 734.12-16.88 732.77-17.68 731.74-18.76 730.72-19.85 730.11-21.28 729.5-22.71 729.5-24.56L729.5-24.56Q729.5-26.78 730.04-28.5 730.59-30.22 731.6-31.49 732.6-32.76 733.96-33.63 735.33-34.5 736.97-35.02 738.6-35.55 740.45-35.78 742.29-36.01 744.22-36.01L744.22-36.01Q746.85-36.01 749.01-35.52 751.18-35.03 753.01-34.13 754.84-33.23 756.36-31.97 757.89-30.71 759.23-29.17L759.23-29.17 754.25-24.12Q753.67-25.88 752.63-27.29 751.59-28.71 750.32-29.72 749.05-30.74 747.66-31.29 746.27-31.84 744.97-31.84L744.97-31.84Q743.29-31.84 741.87-31.6 740.46-31.37 739.44-30.85 738.43-30.32 737.87-29.43 737.31-28.54 737.31-27.22L737.31-27.22Q737.31-26.17 737.72-25.44 738.14-24.71 738.83-24.19 739.53-23.68 740.41-23.35 741.29-23.02 742.23-22.78 743.17-22.53 744.08-22.35 745-22.17 745.76-21.95L745.76-21.95Q747.22-21.53 748.83-21.07 750.44-20.61 752.01-19.98 753.57-19.36 754.98-18.55 756.4-17.75 757.47-16.64 758.55-15.53 759.18-14.07 759.82-12.62 759.82-10.74ZM763.62-12.06L763.62-12.06Q763.62-13.99 763.95-16.06 764.28-18.14 764.91-20.21 765.53-22.29 766.41-24.32 767.29-26.34 768.38-28.2L768.38-28.2 774.41-28.2Q773.8-26.37 773.33-24.38 772.85-22.39 772.52-20.4 772.19-18.41 772.01-16.5 771.83-14.6 771.83-12.96L771.83-12.96Q771.83-12.01 771.91-10.93 772-9.84 772.22-8.75 772.44-7.67 772.84-6.67 773.24-5.66 773.88-4.9 774.51-4.13 775.43-3.67 776.34-3.22 777.59-3.22L777.59-3.22Q778.81-3.22 779.77-3.77 780.74-4.32 781.47-5.21 782.2-6.1 782.72-7.25 783.23-8.4 783.56-9.61 783.89-10.82 784.05-11.98 784.2-13.13 784.2-14.06L784.2-14.06 784.2-28.2 792.46-28.2 792.46 0 789.28 0 785.5-6.57Q784.79-4.93 783.78-3.6 782.76-2.27 781.47-1.32 780.18-0.37 778.6 0.15 777.03 0.66 775.2 0.66L775.2 0.66Q772.27 0.66 770.09-0.29 767.92-1.25 766.48-2.93 765.04-4.61 764.33-6.95 763.62-9.28 763.62-12.06ZM825.36-21.22L825.36-21.22 821.8-19.8Q820.95-22.49 818.94-23.93 816.94-25.37 814.13-25.37L814.13-25.37Q812.62-25.37 811.44-24.89 810.25-24.41 809.36-23.58 808.47-22.75 807.85-21.66 807.22-20.56 806.83-19.31 806.44-18.07 806.27-16.74 806.1-15.41 806.1-14.16L806.1-14.16Q806.1-12.82 806.25-11.45 806.39-10.08 806.75-8.83 807.1-7.57 807.69-6.48 808.27-5.4 809.17-4.59 810.06-3.78 811.29-3.32 812.52-2.86 814.13-2.86L814.13-2.86Q815.43-2.86 816.6-3.25 817.77-3.64 818.75-4.35 819.72-5.05 820.48-6.03 821.24-7.01 821.68-8.2L821.68-8.2 825.27-6.88Q824.46-4.96 823.13-3.55 821.8-2.15 820.12-1.23 818.43-0.32 816.5 0.12 814.57 0.56 812.6 0.56L812.6 0.56Q809.4 0.56 806.66-0.52 803.93-1.61 801.94-3.58 799.95-5.54 798.83-8.24 797.7-10.94 797.7-14.16L797.7-14.16Q797.7-17.41 798.81-20.12 799.92-22.83 801.9-24.78 803.88-26.73 806.61-27.81 809.35-28.88 812.6-28.88L812.6-28.88Q814.65-28.88 816.6-28.43 818.55-27.98 820.23-27.04 821.9-26.1 823.23-24.66 824.56-23.22 825.36-21.22ZM856.27-21.22L856.27-21.22 852.71-19.8Q851.85-22.49 849.85-23.93 847.85-25.37 845.04-25.37L845.04-25.37Q843.53-25.37 842.34-24.89 841.16-24.41 840.27-23.58 839.38-22.75 838.75-21.66 838.13-20.56 837.74-19.31 837.35-18.07 837.18-16.74 837.01-15.41 837.01-14.16L837.01-14.16Q837.01-12.82 837.15-11.45 837.3-10.08 837.65-8.83 838.01-7.57 838.59-6.48 839.18-5.4 840.07-4.59 840.96-3.78 842.2-3.32 843.43-2.86 845.04-2.86L845.04-2.86Q846.33-2.86 847.51-3.25 848.68-3.64 849.65-4.35 850.63-5.05 851.39-6.03 852.14-7.01 852.58-8.2L852.58-8.2 856.17-6.88Q855.37-4.96 854.04-3.55 852.71-2.15 851.02-1.23 849.34-0.32 847.41 0.12 845.48 0.56 843.5 0.56L843.5 0.56Q840.3 0.56 837.57-0.52 834.83-1.61 832.84-3.58 830.86-5.54 829.73-8.24 828.61-10.94 828.61-14.16L828.61-14.16Q828.61-17.41 829.72-20.12 830.83-22.83 832.81-24.78 834.79-26.73 837.52-27.81 840.25-28.88 843.5-28.88L843.5-28.88Q845.55-28.88 847.51-28.43 849.46-27.98 851.13-27.04 852.8-26.1 854.13-24.66 855.46-23.22 856.27-21.22ZM867.94-13.38L867.94-13.38Q869.45-13.04 870.96-12.84 872.48-12.65 874.02-12.65L874.02-12.65Q875.63-12.65 877.01-12.95 878.39-13.26 879.4-13.98 880.41-14.7 881-15.89 881.59-17.09 881.59-18.87L881.59-18.87Q881.59-20.31 881.19-21.51 880.8-22.71 880.03-23.56 879.27-24.41 878.14-24.89 877.02-25.37 875.53-25.37L875.53-25.37Q874.14-25.37 873.03-24.85 871.92-24.34 871.07-23.47 870.23-22.61 869.63-21.46 869.04-20.31 868.65-19.07 868.25-17.82 868.08-16.55 867.91-15.28 867.91-14.16L867.91-14.16Q867.91-13.96 867.91-13.77 867.91-13.57 867.94-13.38ZM888.27-18.95L888.27-18.95Q888.27-17.21 887.71-15.86 887.15-14.5 886.19-13.48 885.22-12.45 883.95-11.74 882.68-11.04 881.24-10.58 879.8-10.13 878.28-9.94 876.75-9.74 875.31-9.74L875.31-9.74Q873.48-9.74 871.7-10 869.92-10.25 868.18-10.82L868.18-10.82Q868.45-9.2 869.04-7.75 869.62-6.3 870.6-5.21 871.58-4.13 873-3.49 874.43-2.86 876.38-2.86L876.38-2.86Q877.68-2.86 878.85-3.25 880.02-3.64 881-4.35 881.98-5.05 882.72-6.03 883.46-7.01 883.93-8.2L883.93-8.2 887.49-6.88Q886.69-4.96 885.28-3.55 883.88-2.15 882.11-1.23 880.34-0.32 878.35 0.12 876.36 0.56 874.41 0.56L874.41 0.56Q871.18 0.56 868.45-0.52 865.72-1.61 863.74-3.56 861.76-5.52 860.64-8.23 859.51-10.94 859.51-14.16L859.51-14.16Q859.51-17.38 860.64-20.09 861.76-22.8 863.74-24.76 865.72-26.71 868.45-27.8 871.18-28.88 874.41-28.88L874.41-28.88Q875.97-28.88 877.61-28.66 879.24-28.44 880.78-27.97 882.32-27.49 883.68-26.73 885.05-25.98 886.07-24.87 887.08-23.75 887.68-22.29 888.27-20.83 888.27-18.95ZM917.69-9.01L917.69-9.01Q917.69-7.15 917.15-5.71 916.62-4.27 915.69-3.21 914.76-2.15 913.49-1.43 912.22-0.71 910.77-0.27 909.32 0.17 907.73 0.37 906.14 0.56 904.58 0.56L904.58 0.56Q902.48 0.56 900.87 0.29 899.26 0.02 897.79-0.57 896.33-1.17 894.88-2.12 893.42-3.08 891.64-4.44L891.64-4.44 896.45-8.37Q897.11-7.13 898.2-6.12 899.28-5.1 900.45-4.37 901.63-3.64 902.73-3.25 903.82-2.86 904.51-2.86L904.51-2.86Q905.07-2.86 905.78-2.89 906.48-2.93 907.22-3.04 907.95-3.15 908.66-3.37 909.37-3.59 909.92-3.97 910.46-4.35 910.79-4.92 911.12-5.49 911.12-6.3L911.12-6.3Q911.12-7.13 910.7-7.75 910.27-8.37 909.59-8.84 908.9-9.3 908.02-9.62 907.14-9.94 906.25-10.18 905.36-10.42 904.53-10.61 903.7-10.79 903.09-10.96L903.09-10.96Q901.97-11.28 900.72-11.61 899.48-11.94 898.26-12.37 897.04-12.79 895.93-13.38 894.81-13.96 893.97-14.78 893.13-15.6 892.63-16.71 892.13-17.82 892.13-19.31L892.13-19.31Q892.13-22.05 893.22-23.89 894.3-25.73 896.08-26.84 897.87-27.95 900.14-28.42 902.41-28.88 904.75-28.88L904.75-28.88Q906.36-28.88 908.15-28.55 909.93-28.22 911.61-27.58 913.3-26.93 914.76-26 916.23-25.07 917.2-23.88L917.2-23.88 912.39-19.92Q911.86-21.39 910.99-22.44 910.12-23.49 909.11-24.16 908.1-24.83 907.03-25.15 905.97-25.46 905.07-25.46L905.07-25.46Q904.19-25.46 903.09-25.39 901.99-25.32 901.03-24.98 900.06-24.63 899.39-23.94 898.72-23.24 898.72-22.02L898.72-22.02Q898.72-21.14 899.12-20.52 899.53-19.9 900.19-19.45 900.85-18.99 901.69-18.69 902.53-18.38 903.41-18.15 904.29-17.92 905.12-17.75 905.95-17.58 906.61-17.38L906.61-17.38Q907.73-17.07 908.99-16.74 910.24-16.41 911.47-15.98 912.69-15.55 913.82-14.98 914.96-14.4 915.81-13.57 916.67-12.74 917.18-11.63 917.69-10.52 917.69-9.01ZM947.16-9.01L947.16-9.01Q947.16-7.15 946.62-5.71 946.08-4.27 945.15-3.21 944.23-2.15 942.96-1.43 941.69-0.71 940.23-0.27 938.78 0.17 937.2 0.37 935.61 0.56 934.05 0.56L934.05 0.56Q931.95 0.56 930.33 0.29 928.72 0.02 927.26-0.57 925.79-1.17 924.34-2.12 922.89-3.08 921.11-4.44L921.11-4.44 925.92-8.37Q926.58-7.13 927.66-6.12 928.75-5.1 929.92-4.37 931.09-3.64 932.19-3.25 933.29-2.86 933.97-2.86L933.97-2.86Q934.53-2.86 935.24-2.89 935.95-2.93 936.68-3.04 937.41-3.15 938.12-3.37 938.83-3.59 939.38-3.97 939.93-4.35 940.26-4.92 940.59-5.49 940.59-6.3L940.59-6.3Q940.59-7.13 940.16-7.75 939.73-8.37 939.05-8.84 938.37-9.3 937.49-9.62 936.61-9.94 935.72-10.18 934.83-10.42 934-10.61 933.17-10.79 932.56-10.96L932.56-10.96Q931.43-11.28 930.19-11.61 928.94-11.94 927.72-12.37 926.5-12.79 925.39-13.38 924.28-13.96 923.44-14.78 922.6-15.6 922.1-16.71 921.59-17.82 921.59-19.31L921.59-19.31Q921.59-22.05 922.68-23.89 923.77-25.73 925.55-26.84 927.33-27.95 929.6-28.42 931.87-28.88 934.22-28.88L934.22-28.88Q935.83-28.88 937.61-28.55 939.39-28.22 941.08-27.58 942.76-26.93 944.23-26 945.69-25.07 946.67-23.88L946.67-23.88 941.86-19.92Q941.32-21.39 940.45-22.44 939.59-23.49 938.57-24.16 937.56-24.83 936.5-25.15 935.44-25.46 934.53-25.46L934.53-25.46Q933.66-25.46 932.56-25.39 931.46-25.32 930.49-24.98 929.53-24.63 928.86-23.94 928.19-23.24 928.19-22.02L928.19-22.02Q928.19-21.14 928.59-20.52 928.99-19.9 929.65-19.45 930.31-18.99 931.15-18.69 932-18.38 932.87-18.15 933.75-17.92 934.58-17.75 935.41-17.58 936.07-17.38L936.07-17.38Q937.2-17.07 938.45-16.74 939.71-16.41 940.93-15.98 942.15-15.55 943.29-14.98 944.42-14.4 945.28-13.57 946.13-12.74 946.64-11.63 947.16-10.52 947.16-9.01ZM951.84-37.6L962.29-37.6 959.56-9.64 954.55-9.64 951.84-37.6ZM961.51-3.66L961.51-3.66Q961.51-2.73 961.16-1.92 960.8-1.1 960.2-0.5 959.6 0.1 958.79 0.45 957.97 0.81 957.07 0.81L957.07 0.81Q956.14 0.81 955.32 0.45 954.5 0.1 953.9-0.5 953.31-1.1 952.95-1.92 952.6-2.73 952.6-3.66L952.6-3.66Q952.6-4.57 952.95-5.38 953.31-6.2 953.9-6.8 954.5-7.4 955.32-7.75 956.14-8.11 957.07-8.11L957.07-8.11Q957.97-8.11 958.79-7.75 959.6-7.4 960.2-6.8 960.8-6.2 961.16-5.38 961.51-4.57 961.51-3.66ZM978.79-35.16L987.75-35.16 986.24-22.9 980.31-22.9 978.79-35.16ZM967.81-35.16L976.74-35.16 975.25-22.9 969.29-22.9 967.81-35.16Z" opacity="1" transform="matrix(1,0,0,1,0,0)" fill="white" class="slogan-text-1" id="SvgjsPath1441"></path></svg></g></svg></g></svg></g></svg></g></svg></g></svg></g></svg></g><path d="M199.002 88.847L199.002 25.732 3.265 25.732 3.265 221.468 199.002 221.468 199.002 158.353 195.788 158.353 195.788 218.254 6.48 218.254 6.48 28.946 195.788 28.946 195.788 88.847Z" fill="black" stroke="transparent"></path></svg></g><defs><mask></mask></defs></svg><rect width="395.52" height="247.2" fill="black" stroke="none" visibility="hidden"></rect></g></mask><linearGradient x1="0" x2="1" y1="0.5" y2="0.5" id="18f8a832-56fe-48af-a602-400cf588dd86"><stop stop-color="#fff72e" offset="0"></stop><stop stop-color="#deae29" offset="1"></stop></linearGradient><rect width="395.52" height="247.2" fill="url(#18f8a832-56fe-48af-a602-400cf588dd86)" mask="url(#913af441-4f8c-4466-b906-ee554066559e)" data-fill-palette-color="secondary"></rect><mask id="2e75fb58-48fb-412a-adb0-3fafab725d41"><g id="SvgjsG1464"><svg viewBox="0 0 395.52 247.2" height="247.2" width="395.52"><g><svg></svg></g><g><svg viewBox="0 0 395.52 247.2" height="247.2" width="395.52"><g transform="matrix(1,0,0,1,75.54432,94.84697465374089)"><svg viewBox="0 0 244.43135999999998 57.50605069251821" height="57.50605069251821" width="244.43135999999998"><g><svg viewBox="0 0 244.43135999999998 57.50605069251821" height="57.50605069251821" width="244.43135999999998"><g><svg viewBox="0 0 244.43135999999998 57.50605069251821" height="57.50605069251821" width="244.43135999999998"><g><svg viewBox="0 0 244.43135999999998 57.50605069251821" height="57.50605069251821" width="244.43135999999998"><g id="SvgjsG1463"><svg viewBox="0 0 244.43135999999998 57.50605069251821" height="57.50605069251821" width="244.43135999999998" id="SvgjsSvg1462"><g><svg viewBox="0 0 244.43135999999998 35.6446114998401" height="35.6446114998401" width="244.43135999999998"><g transform="matrix(1,0,0,1,0,0)"><svg width="244.43135999999998" viewBox="4.38 -31.25 217.12 31.67" height="35.6446114998401" data-palette-color="#fbfbfb"><path d="M13.13 0L4.38 0 4.38-31.25 13.13-31.25Q16.11-31.25 17.86-30.07 19.62-28.89 20.38-27.2 21.15-25.52 21.15-24.03L21.15-24.03Q21.15-22.33 20.36-20.92 19.58-19.51 18.26-18.61L18.26-18.61Q20.8-17.47 22.38-15.17 23.96-12.88 23.96-9.97L23.96-9.97Q23.96-7.5 22.73-5.21 21.49-2.92 19.08-1.46 16.67 0 13.13 0L13.13 0ZM8.33-16.67L8.33-3.54 12.85-3.54Q15.42-3.54 16.98-4.55 18.54-5.56 19.27-7.08 20-8.61 20-10.1L20-10.1Q20-11.56 19.31-13.09 18.61-14.62 17.05-15.64 15.49-16.67 12.85-16.67L12.85-16.67 8.33-16.67ZM8.33-27.71L8.33-20 12.81-20Q14.86-20 16.13-20.99 17.4-21.98 17.4-23.82L17.4-23.82Q17.4-25.73 16.15-26.72 14.9-27.71 12.95-27.71L12.95-27.71 8.33-27.71ZM33.12 0L29.37 0 29.37-20.83 33.12-20.83 33.12 0ZM31.25-24.58L31.25-24.58Q30.21-24.58 29.48-25.31 28.75-26.04 28.75-27.08L28.75-27.08Q28.75-28.16 29.48-28.87 30.21-29.58 31.25-29.58L31.25-29.58Q32.32-29.58 33.04-28.87 33.75-28.16 33.75-27.08L33.75-27.08Q33.75-26.04 33.04-25.31 32.32-24.58 31.25-24.58ZM52.91 0L37.84 0 47.7-17.5 38.47-17.5 38.47-20.83 53.47-20.83 43.61-3.33 52.91-3.33 52.91 0ZM67.98 0L59.23 0 59.23-31.25 67.98-31.25Q70.96-31.25 72.72-30.07 74.47-28.89 75.24-27.2 76-25.52 76-24.03L76-24.03Q76-22.33 75.22-20.92 74.44-19.51 73.12-18.61L73.12-18.61Q75.65-17.47 77.23-15.17 78.81-12.88 78.81-9.97L78.81-9.97Q78.81-7.5 77.58-5.21 76.35-2.92 73.93-1.46 71.52 0 67.98 0L67.98 0ZM63.19-16.67L63.19-3.54 67.7-3.54Q70.27-3.54 71.83-4.55 73.4-5.56 74.12-7.08 74.85-8.61 74.85-10.1L74.85-10.1Q74.85-11.56 74.16-13.09 73.46-14.62 71.9-15.64 70.34-16.67 67.7-16.67L67.7-16.67 63.19-16.67ZM63.19-27.71L63.19-20 67.67-20Q69.71-20 70.98-20.99 72.25-21.98 72.25-23.82L72.25-23.82Q72.25-25.73 71-26.72 69.75-27.71 67.81-27.71L67.81-27.71 63.19-27.71ZM93.74 0.42L93.74 0.42Q90.72 0.42 88.22-1.04 85.72-2.5 84.24-4.97 82.77-7.43 82.77-10.42L82.77-10.42Q82.77-13.44 84.24-15.89 85.72-18.33 88.22-19.79 90.72-21.25 93.74-21.25L93.74-21.25Q96.8-21.25 99.28-19.79 101.76-18.33 103.24-15.89 104.71-13.44 104.71-10.42L104.71-10.42Q104.71-7.43 103.24-4.97 101.76-2.5 99.28-1.04 96.8 0.42 93.74 0.42ZM93.74-3.13L93.74-3.13Q95.75-3.13 97.39-4.11 99.02-5.1 99.99-6.75 100.96-8.4 100.96-10.42L100.96-10.42Q100.96-12.43 99.99-14.08 99.02-15.73 97.39-16.72 95.75-17.71 93.74-17.71L93.74-17.71Q91.73-17.71 90.09-16.72 88.46-15.73 87.49-14.08 86.52-12.43 86.52-10.42L86.52-10.42Q86.52-8.4 87.49-6.75 88.46-5.1 90.09-4.11 91.73-3.13 93.74-3.13ZM119.43 0.42L119.43 0.42Q116.41 0.42 113.91-1.04 111.41-2.5 109.94-4.97 108.46-7.43 108.46-10.42L108.46-10.42Q108.46-13.44 109.94-15.89 111.41-18.33 113.91-19.79 116.41-21.25 119.43-21.25L119.43-21.25Q122.49-21.25 124.97-19.79 127.45-18.33 128.93-15.89 130.4-13.44 130.4-10.42L130.4-10.42Q130.4-7.43 128.93-4.97 127.45-2.5 124.97-1.04 122.49 0.42 119.43 0.42ZM119.43-3.13L119.43-3.13Q121.45-3.13 123.08-4.11 124.71-5.1 125.68-6.75 126.65-8.4 126.65-10.42L126.65-10.42Q126.65-12.43 125.68-14.08 124.71-15.73 123.08-16.72 121.45-17.71 119.43-17.71L119.43-17.71Q117.42-17.71 115.79-16.72 114.15-15.73 113.18-14.08 112.21-12.43 112.21-10.42L112.21-10.42Q112.21-8.4 113.18-6.75 114.15-5.1 115.79-4.11 117.42-3.13 119.43-3.13ZM140.99 0.42L140.99 0.42Q139.39 0.42 137.57-0.19 135.75-0.8 134.43-2.22L134.43-2.22 135.47-6.32Q136.44-4.69 137.97-3.73 139.5-2.78 141.24-2.78L141.24-2.78Q142.9-2.78 143.74-3.59 144.57-4.41 144.57-5.59L144.57-5.59Q144.57-6.94 143.68-7.57 142.8-8.19 142.1-8.44L142.1-8.44 139.29-9.51Q138.53-9.83 137.45-10.43 136.37-11.04 135.58-12.19 134.78-13.33 134.78-15.17L134.78-15.17Q134.78-16.84 135.58-18.23 136.37-19.62 137.83-20.43 139.29-21.25 141.27-21.25L141.27-21.25Q142.83-21.25 144.53-20.69 146.24-20.14 147.42-18.82L147.42-18.82 146.37-14.72Q145.54-16.25 144.12-17.15 142.69-18.06 141.17-18.06L141.17-18.06Q139.74-18.06 138.93-17.26 138.11-16.46 138.11-15.42L138.11-15.42Q138.11-14.58 138.67-13.92 139.22-13.26 140.33-12.85L140.33-12.85 143.14-11.77Q143.91-11.49 145.04-10.87 146.17-10.24 147.03-9.06 147.9-7.88 147.9-5.87L147.9-5.87Q147.9-3.06 145.94-1.32 143.98 0.42 140.99 0.42ZM159.5 0L155.75 0 155.75-17.71 151.02-17.71 151.02-20.83 155.85-20.83 155.85-27.78 159.39-27.78 159.39-20.83 164.57-20.83 164.57-17.71 159.5-17.71 159.5 0ZM178.87 0.42L178.87 0.42Q175.61 0.42 173.02-1.04 170.43-2.5 168.96-5.02 167.48-7.53 167.48-10.63L167.48-10.63Q167.48-13.58 168.9-15.99 170.33-18.4 172.74-19.83 175.15-21.25 178.07-21.25L178.07-21.25Q180.95-21.25 183.35-19.88 185.74-18.51 187.17-16.18 188.59-13.85 188.59-10.9L188.59-10.9 188.59-9.38 174.98-9.38Q174.08-9.38 173.14-9.44 172.2-9.51 171.3-9.65L171.3-9.65Q171.68-6.88 173.82-5 175.95-3.13 178.9-3.13L178.9-3.13Q180.88-3.13 182.58-4.03 184.29-4.93 185.33-6.42L185.33-6.42 186.37-2.15Q184.88-0.94 182.95-0.26 181.02 0.42 178.87 0.42ZM171.2-12.19L171.2-12.19Q173.07-12.5 174.98-12.5L174.98-12.5 181.89-12.5Q182.65-12.5 183.4-12.45 184.15-12.4 184.91-12.33L184.91-12.33Q184.42-14.76 182.48-16.34 180.54-17.92 178.07-17.92L178.07-17.92Q175.54-17.92 173.63-16.23 171.72-14.55 171.2-12.19ZM197.34 0L193.59 0 193.59-20.83 197.06-20.83 197.06-17.01Q198.17-18.85 200.01-19.95 201.85-21.04 204.39-21.04L204.39-21.04 205.32-17.29Q204.67-17.5 203.8-17.5L203.8-17.5Q200.88-17.5 199.11-15.64 197.34-13.78 197.34-10.35L197.34-10.35 197.34 0ZM214.59 0.42L214.59 0.42Q213 0.42 211.17-0.19 209.35-0.8 208.03-2.22L208.03-2.22 209.07-6.32Q210.04-4.69 211.57-3.73 213.1-2.78 214.84-2.78L214.84-2.78Q216.5-2.78 217.34-3.59 218.17-4.41 218.17-5.59L218.17-5.59Q218.17-6.94 217.28-7.57 216.4-8.19 215.7-8.44L215.7-8.44 212.89-9.51Q212.13-9.83 211.05-10.43 209.98-11.04 209.18-12.19 208.38-13.33 208.38-15.17L208.38-15.17Q208.38-16.84 209.18-18.23 209.98-19.62 211.43-20.43 212.89-21.25 214.87-21.25L214.87-21.25Q216.43-21.25 218.13-20.69 219.84-20.14 221.02-18.82L221.02-18.82 219.98-14.72Q219.14-16.25 217.72-17.15 216.29-18.06 214.77-18.06L214.77-18.06Q213.34-18.06 212.53-17.26 211.71-16.46 211.71-15.42L211.71-15.42Q211.71-14.58 212.27-13.92 212.82-13.26 213.93-12.85L213.93-12.85 216.75-11.77Q217.51-11.49 218.64-10.87 219.77-10.24 220.63-9.06 221.5-7.88 221.5-5.87L221.5-5.87Q221.5-3.06 219.54-1.32 217.58 0.42 214.59 0.42Z" opacity="1" transform="matrix(1,0,0,1,0,0)" fill="black" class="wordmark-text-0" id="SvgjsPath1461"></path></svg></g></svg></g><g transform="matrix(1,0,0,1,0,44.05944880427636)"><svg viewBox="0 0 244.43135999999998 13.446601888241853" height="13.446601888241853" width="244.43135999999998"><g transform="matrix(1,0,0,1,0,0)"><svg width="244.43135999999998" viewBox="2.61 -41.19 985.14 54.2" height="13.446601888241853" data-palette-color="url(#18f8a832-56fe-48af-a602-400cf588dd86)"></svg></g></svg></g></svg></g></svg></g></svg></g></svg></g></svg></g><path d="M199.002 88.847L199.002 25.732 3.265 25.732 3.265 221.468 199.002 221.468 199.002 158.353 195.788 158.353 195.788 218.254 6.48 218.254 6.48 28.946 195.788 28.946 195.788 88.847Z" fill="white" stroke="transparent"></path></svg></g><defs><mask></mask></defs><mask><g id="SvgjsG1460"><svg viewBox="0 0 395.52 247.2" height="247.2" width="395.52"><g><svg></svg></g><g><svg viewBox="0 0 395.52 247.2" height="247.2" width="395.52"><g transform="matrix(1,0,0,1,75.54432,94.84697465374089)"><svg viewBox="0 0 244.43135999999998 57.50605069251821" height="57.50605069251821" width="244.43135999999998"><g><svg viewBox="0 0 244.43135999999998 57.50605069251821" height="57.50605069251821" width="244.43135999999998"><g><svg viewBox="0 0 244.43135999999998 57.50605069251821" height="57.50605069251821" width="244.43135999999998"><g><svg viewBox="0 0 244.43135999999998 57.50605069251821" height="57.50605069251821" width="244.43135999999998"><g id="SvgjsG1459"><svg viewBox="0 0 244.43135999999998 57.50605069251821" height="57.50605069251821" width="244.43135999999998" id="SvgjsSvg1458"><g><svg viewBox="0 0 244.43135999999998 35.6446114998401" height="35.6446114998401" width="244.43135999999998"><g transform="matrix(1,0,0,1,0,0)"><svg width="244.43135999999998" viewBox="4.38 -31.25 217.12 31.67" height="35.6446114998401" data-palette-color="#fbfbfb"><path d="M13.13 0L4.38 0 4.38-31.25 13.13-31.25Q16.11-31.25 17.86-30.07 19.62-28.89 20.38-27.2 21.15-25.52 21.15-24.03L21.15-24.03Q21.15-22.33 20.36-20.92 19.58-19.51 18.26-18.61L18.26-18.61Q20.8-17.47 22.38-15.17 23.96-12.88 23.96-9.97L23.96-9.97Q23.96-7.5 22.73-5.21 21.49-2.92 19.08-1.46 16.67 0 13.13 0L13.13 0ZM8.33-16.67L8.33-3.54 12.85-3.54Q15.42-3.54 16.98-4.55 18.54-5.56 19.27-7.08 20-8.61 20-10.1L20-10.1Q20-11.56 19.31-13.09 18.61-14.62 17.05-15.64 15.49-16.67 12.85-16.67L12.85-16.67 8.33-16.67ZM8.33-27.71L8.33-20 12.81-20Q14.86-20 16.13-20.99 17.4-21.98 17.4-23.82L17.4-23.82Q17.4-25.73 16.15-26.72 14.9-27.71 12.95-27.71L12.95-27.71 8.33-27.71ZM33.12 0L29.37 0 29.37-20.83 33.12-20.83 33.12 0ZM31.25-24.58L31.25-24.58Q30.21-24.58 29.48-25.31 28.75-26.04 28.75-27.08L28.75-27.08Q28.75-28.16 29.48-28.87 30.21-29.58 31.25-29.58L31.25-29.58Q32.32-29.58 33.04-28.87 33.75-28.16 33.75-27.08L33.75-27.08Q33.75-26.04 33.04-25.31 32.32-24.58 31.25-24.58ZM52.91 0L37.84 0 47.7-17.5 38.47-17.5 38.47-20.83 53.47-20.83 43.61-3.33 52.91-3.33 52.91 0ZM67.98 0L59.23 0 59.23-31.25 67.98-31.25Q70.96-31.25 72.72-30.07 74.47-28.89 75.24-27.2 76-25.52 76-24.03L76-24.03Q76-22.33 75.22-20.92 74.44-19.51 73.12-18.61L73.12-18.61Q75.65-17.47 77.23-15.17 78.81-12.88 78.81-9.97L78.81-9.97Q78.81-7.5 77.58-5.21 76.35-2.92 73.93-1.46 71.52 0 67.98 0L67.98 0ZM63.19-16.67L63.19-3.54 67.7-3.54Q70.27-3.54 71.83-4.55 73.4-5.56 74.12-7.08 74.85-8.61 74.85-10.1L74.85-10.1Q74.85-11.56 74.16-13.09 73.46-14.62 71.9-15.64 70.34-16.67 67.7-16.67L67.7-16.67 63.19-16.67ZM63.19-27.71L63.19-20 67.67-20Q69.71-20 70.98-20.99 72.25-21.98 72.25-23.82L72.25-23.82Q72.25-25.73 71-26.72 69.75-27.71 67.81-27.71L67.81-27.71 63.19-27.71ZM93.74 0.42L93.74 0.42Q90.72 0.42 88.22-1.04 85.72-2.5 84.24-4.97 82.77-7.43 82.77-10.42L82.77-10.42Q82.77-13.44 84.24-15.89 85.72-18.33 88.22-19.79 90.72-21.25 93.74-21.25L93.74-21.25Q96.8-21.25 99.28-19.79 101.76-18.33 103.24-15.89 104.71-13.44 104.71-10.42L104.71-10.42Q104.71-7.43 103.24-4.97 101.76-2.5 99.28-1.04 96.8 0.42 93.74 0.42ZM93.74-3.13L93.74-3.13Q95.75-3.13 97.39-4.11 99.02-5.1 99.99-6.75 100.96-8.4 100.96-10.42L100.96-10.42Q100.96-12.43 99.99-14.08 99.02-15.73 97.39-16.72 95.75-17.71 93.74-17.71L93.74-17.71Q91.73-17.71 90.09-16.72 88.46-15.73 87.49-14.08 86.52-12.43 86.52-10.42L86.52-10.42Q86.52-8.4 87.49-6.75 88.46-5.1 90.09-4.11 91.73-3.13 93.74-3.13ZM119.43 0.42L119.43 0.42Q116.41 0.42 113.91-1.04 111.41-2.5 109.94-4.97 108.46-7.43 108.46-10.42L108.46-10.42Q108.46-13.44 109.94-15.89 111.41-18.33 113.91-19.79 116.41-21.25 119.43-21.25L119.43-21.25Q122.49-21.25 124.97-19.79 127.45-18.33 128.93-15.89 130.4-13.44 130.4-10.42L130.4-10.42Q130.4-7.43 128.93-4.97 127.45-2.5 124.97-1.04 122.49 0.42 119.43 0.42ZM119.43-3.13L119.43-3.13Q121.45-3.13 123.08-4.11 124.71-5.1 125.68-6.75 126.65-8.4 126.65-10.42L126.65-10.42Q126.65-12.43 125.68-14.08 124.71-15.73 123.08-16.72 121.45-17.71 119.43-17.71L119.43-17.71Q117.42-17.71 115.79-16.72 114.15-15.73 113.18-14.08 112.21-12.43 112.21-10.42L112.21-10.42Q112.21-8.4 113.18-6.75 114.15-5.1 115.79-4.11 117.42-3.13 119.43-3.13ZM140.99 0.42L140.99 0.42Q139.39 0.42 137.57-0.19 135.75-0.8 134.43-2.22L134.43-2.22 135.47-6.32Q136.44-4.69 137.97-3.73 139.5-2.78 141.24-2.78L141.24-2.78Q142.9-2.78 143.74-3.59 144.57-4.41 144.57-5.59L144.57-5.59Q144.57-6.94 143.68-7.57 142.8-8.19 142.1-8.44L142.1-8.44 139.29-9.51Q138.53-9.83 137.45-10.43 136.37-11.04 135.58-12.19 134.78-13.33 134.78-15.17L134.78-15.17Q134.78-16.84 135.58-18.23 136.37-19.62 137.83-20.43 139.29-21.25 141.27-21.25L141.27-21.25Q142.83-21.25 144.53-20.69 146.24-20.14 147.42-18.82L147.42-18.82 146.37-14.72Q145.54-16.25 144.12-17.15 142.69-18.06 141.17-18.06L141.17-18.06Q139.74-18.06 138.93-17.26 138.11-16.46 138.11-15.42L138.11-15.42Q138.11-14.58 138.67-13.92 139.22-13.26 140.33-12.85L140.33-12.85 143.14-11.77Q143.91-11.49 145.04-10.87 146.17-10.24 147.03-9.06 147.9-7.88 147.9-5.87L147.9-5.87Q147.9-3.06 145.94-1.32 143.98 0.42 140.99 0.42ZM159.5 0L155.75 0 155.75-17.71 151.02-17.71 151.02-20.83 155.85-20.83 155.85-27.78 159.39-27.78 159.39-20.83 164.57-20.83 164.57-17.71 159.5-17.71 159.5 0ZM178.87 0.42L178.87 0.42Q175.61 0.42 173.02-1.04 170.43-2.5 168.96-5.02 167.48-7.53 167.48-10.63L167.48-10.63Q167.48-13.58 168.9-15.99 170.33-18.4 172.74-19.83 175.15-21.25 178.07-21.25L178.07-21.25Q180.95-21.25 183.35-19.88 185.74-18.51 187.17-16.18 188.59-13.85 188.59-10.9L188.59-10.9 188.59-9.38 174.98-9.38Q174.08-9.38 173.14-9.44 172.2-9.51 171.3-9.65L171.3-9.65Q171.68-6.88 173.82-5 175.95-3.13 178.9-3.13L178.9-3.13Q180.88-3.13 182.58-4.03 184.29-4.93 185.33-6.42L185.33-6.42 186.37-2.15Q184.88-0.94 182.95-0.26 181.02 0.42 178.87 0.42ZM171.2-12.19L171.2-12.19Q173.07-12.5 174.98-12.5L174.98-12.5 181.89-12.5Q182.65-12.5 183.4-12.45 184.15-12.4 184.91-12.33L184.91-12.33Q184.42-14.76 182.48-16.34 180.54-17.92 178.07-17.92L178.07-17.92Q175.54-17.92 173.63-16.23 171.72-14.55 171.2-12.19ZM197.34 0L193.59 0 193.59-20.83 197.06-20.83 197.06-17.01Q198.17-18.85 200.01-19.95 201.85-21.04 204.39-21.04L204.39-21.04 205.32-17.29Q204.67-17.5 203.8-17.5L203.8-17.5Q200.88-17.5 199.11-15.64 197.34-13.78 197.34-10.35L197.34-10.35 197.34 0ZM214.59 0.42L214.59 0.42Q213 0.42 211.17-0.19 209.35-0.8 208.03-2.22L208.03-2.22 209.07-6.32Q210.04-4.69 211.57-3.73 213.1-2.78 214.84-2.78L214.84-2.78Q216.5-2.78 217.34-3.59 218.17-4.41 218.17-5.59L218.17-5.59Q218.17-6.94 217.28-7.57 216.4-8.19 215.7-8.44L215.7-8.44 212.89-9.51Q212.13-9.83 211.05-10.43 209.98-11.04 209.18-12.19 208.38-13.33 208.38-15.17L208.38-15.17Q208.38-16.84 209.18-18.23 209.98-19.62 211.43-20.43 212.89-21.25 214.87-21.25L214.87-21.25Q216.43-21.25 218.13-20.69 219.84-20.14 221.02-18.82L221.02-18.82 219.98-14.72Q219.14-16.25 217.72-17.15 216.29-18.06 214.77-18.06L214.77-18.06Q213.34-18.06 212.53-17.26 211.71-16.46 211.71-15.42L211.71-15.42Q211.71-14.58 212.27-13.92 212.82-13.26 213.93-12.85L213.93-12.85 216.75-11.77Q217.51-11.49 218.64-10.87 219.77-10.24 220.63-9.06 221.5-7.88 221.5-5.87L221.5-5.87Q221.5-3.06 219.54-1.32 217.58 0.42 214.59 0.42Z" opacity="1" transform="matrix(1,0,0,1,0,0)" fill="black" class="wordmark-text-0" id="SvgjsPath1457"></path></svg></g></svg></g><g transform="matrix(1,0,0,1,0,44.05944880427636)"><svg viewBox="0 0 244.43135999999998 13.446601888241853" height="13.446601888241853" width="244.43135999999998"><g transform="matrix(1,0,0,1,0,0)"><svg width="244.43135999999998" viewBox="2.61 -41.19 985.14 54.2" height="13.446601888241853" data-palette-color="url(#18f8a832-56fe-48af-a602-400cf588dd86)"><path d="M13.6-35.16L22.56-35.16 21.04-22.9 15.11-22.9 13.6-35.16ZM2.61-35.16L11.55-35.16 10.06-22.9 4.1-22.9 2.61-35.16ZM38.79-15.33L38.79 0 29.1 0 29.1-35.16 54.34-35.16 54.34-30.66 38.79-30.66 38.79-19.8 50.8-19.8 50.8-15.33 38.79-15.33ZM55.76-12.06L55.76-12.06Q55.76-13.99 56.09-16.06 56.42-18.14 57.04-20.21 57.66-22.29 58.54-24.32 59.42-26.34 60.52-28.2L60.52-28.2 66.55-28.2Q65.94-26.37 65.46-24.38 64.99-22.39 64.66-20.4 64.33-18.41 64.14-16.5 63.96-14.6 63.96-12.96L63.96-12.96Q63.96-12.01 64.05-10.93 64.13-9.84 64.35-8.75 64.57-7.67 64.97-6.67 65.38-5.66 66.01-4.9 66.65-4.13 67.56-3.67 68.48-3.22 69.72-3.22L69.72-3.22Q70.94-3.22 71.91-3.77 72.87-4.32 73.6-5.21 74.34-6.1 74.85-7.25 75.36-8.4 75.69-9.61 76.02-10.82 76.18-11.98 76.34-13.13 76.34-14.06L76.34-14.06 76.34-28.2 84.59-28.2 84.59 0 81.42 0 77.63-6.57Q76.92-4.93 75.91-3.6 74.9-2.27 73.6-1.32 72.31-0.37 70.73 0.15 69.16 0.66 67.33 0.66L67.33 0.66Q64.4 0.66 62.23-0.29 60.05-1.25 58.61-2.93 57.17-4.61 56.46-6.95 55.76-9.28 55.76-12.06ZM98.26-13.38L98.26-13.38Q99.77-13.04 101.29-12.84 102.8-12.65 104.34-12.65L104.34-12.65Q105.95-12.65 107.33-12.95 108.71-13.26 109.72-13.98 110.73-14.7 111.32-15.89 111.91-17.09 111.91-18.87L111.91-18.87Q111.91-20.31 111.52-21.51 111.13-22.71 110.36-23.56 109.59-24.41 108.46-24.89 107.34-25.37 105.85-25.37L105.85-25.37Q104.46-25.37 103.35-24.85 102.24-24.34 101.4-23.47 100.55-22.61 99.96-21.46 99.36-20.31 98.97-19.07 98.58-17.82 98.41-16.55 98.23-15.28 98.23-14.16L98.23-14.16Q98.23-13.96 98.23-13.77 98.23-13.57 98.26-13.38ZM118.6-18.95L118.6-18.95Q118.6-17.21 118.03-15.86 117.47-14.5 116.51-13.48 115.54-12.45 114.27-11.74 113.01-11.04 111.56-10.58 110.12-10.13 108.6-9.94 107.07-9.74 105.63-9.74L105.63-9.74Q103.8-9.74 102.02-10 100.24-10.25 98.5-10.82L98.5-10.82Q98.77-9.2 99.36-7.75 99.94-6.3 100.92-5.21 101.9-4.13 103.33-3.49 104.75-2.86 106.71-2.86L106.71-2.86Q108-2.86 109.17-3.25 110.34-3.64 111.32-4.35 112.3-5.05 113.04-6.03 113.79-7.01 114.25-8.2L114.25-8.2 117.81-6.88Q117.01-4.96 115.61-3.55 114.2-2.15 112.43-1.23 110.66-0.32 108.67 0.12 106.68 0.56 104.73 0.56L104.73 0.56Q101.51 0.56 98.77-0.52 96.04-1.61 94.06-3.56 92.08-5.52 90.96-8.23 89.84-10.94 89.84-14.16L89.84-14.16Q89.84-17.38 90.96-20.09 92.08-22.8 94.06-24.76 96.04-26.71 98.77-27.8 101.51-28.88 104.73-28.88L104.73-28.88Q106.29-28.88 107.93-28.66 109.56-28.44 111.1-27.97 112.64-27.49 114.01-26.73 115.37-25.98 116.39-24.87 117.4-23.75 118-22.29 118.6-20.83 118.6-18.95ZM132-32.62L132 0 123.74 0 123.74-41.19 126.92-41.19 132-32.62ZM147.55-35.01L147.55-35.01Q147.55-34.08 147.19-33.25 146.84-32.42 146.23-31.81 145.62-31.2 144.79-30.85 143.96-30.49 143.03-30.49L143.03-30.49Q142.1-30.49 141.28-30.85 140.47-31.2 139.86-31.81 139.25-32.42 138.89-33.25 138.54-34.08 138.54-35.01L138.54-35.01Q138.54-35.94 138.89-36.76 139.25-37.57 139.86-38.18 140.47-38.79 141.28-39.15 142.1-39.5 143.03-39.5L143.03-39.5Q143.96-39.5 144.79-39.15 145.62-38.79 146.23-38.18 146.84-37.57 147.19-36.76 147.55-35.94 147.55-35.01ZM147.18-28.17L147.18 0 138.9 0 138.9-28.17 147.18-28.17ZM182.92-16.16L182.92-16.16Q182.92-13.31 182.22-10.21 181.53-7.1 180.28-4.13 179.04-1.15 177.3 1.48 175.57 4.1 173.5 6.01L173.5 6.01 170.4 4.32Q171.05 3.1 171.64 1.59 172.23 0.07 172.7-1.62 173.18-3.32 173.56-5.13 173.94-6.93 174.19-8.7 174.45-10.47 174.58-12.15 174.72-13.82 174.72-15.26L174.72-15.26Q174.72-16.21 174.64-17.3 174.57-18.38 174.34-19.47 174.11-20.56 173.72-21.56 173.32-22.56 172.68-23.32 172.03-24.07 171.12-24.54 170.2-25 168.95-25L168.95-25Q167.73-25 166.78-24.45 165.83-23.9 165.1-23.01 164.36-22.12 163.84-20.97 163.32-19.82 162.99-18.62 162.66-17.41 162.51-16.24 162.36-15.06 162.36-14.14L162.36-14.14 162.36 0 154.09 0 154.09-28.2 157.26-28.2 161.04-21.63Q161.73-23.27 162.75-24.61 163.78-25.95 165.07-26.9 166.37-27.86 167.94-28.37 169.52-28.88 171.35-28.88L171.35-28.88Q174.28-28.88 176.45-27.93 178.62-26.98 180.06-25.28 181.5-23.58 182.21-21.25 182.92-18.92 182.92-16.16ZM216.75-28.2L216.75-3.39Q216.75-0.02 215.75 2.95 214.75 5.93 212.85 8.17 210.94 10.4 208.17 11.71 205.4 13.01 201.86 13.01L201.86 13.01Q199.91 13.01 197.92 12.57 195.93 12.13 194.16 11.22 192.39 10.3 190.99 8.9 189.58 7.5 188.78 5.59L188.78 5.59 192.34 4.25Q192.8 5.44 193.55 6.45 194.29 7.45 195.27 8.17 196.25 8.89 197.42 9.29 198.59 9.69 199.88 9.69L199.88 9.69Q202.33 9.69 203.97 8.69 205.62 7.69 206.62 6.08 207.62 4.47 208.06 2.43 208.5 0.39 208.5-1.71L208.5-1.71 208.5-3.37Q207.04-1.37 204.98-0.4 202.91 0.56 200.45 0.56L200.45 0.56Q197.22 0.56 194.68-0.59 192.15-1.73 190.39-3.72 188.63-5.71 187.7-8.4 186.77-11.08 186.77-14.16L186.77-14.16Q186.77-17.24 187.7-19.92 188.63-22.61 190.39-24.6 192.15-26.59 194.68-27.73 197.22-28.88 200.45-28.88L200.45-28.88Q202.08-28.88 203.56-28.39 205.04-27.91 206.27-27.01 207.5-26.12 208.44-24.87 209.38-23.61 209.92-22.07L209.92-22.07 213.58-28.2 216.75-28.2ZM208.45-14.16L208.45-14.16Q208.45-15.26 208.34-16.48 208.23-17.7 207.97-18.9 207.7-20.09 207.22-21.18 206.75-22.27 206-23.11 205.26-23.95 204.21-24.44 203.16-24.93 201.76-24.93L201.76-24.93Q200.37-24.93 199.35-24.43 198.32-23.93 197.59-23.08 196.86-22.24 196.38-21.14 195.91-20.04 195.64-18.85 195.37-17.65 195.26-16.44 195.15-15.23 195.15-14.16L195.15-14.16Q195.15-13.09 195.26-11.87 195.37-10.64 195.64-9.45 195.91-8.25 196.38-7.15 196.86-6.05 197.59-5.21 198.32-4.37 199.35-3.87 200.37-3.37 201.76-3.37L201.76-3.37Q203.03-3.37 204.02-3.89 205.01-4.42 205.76-5.3 206.5-6.18 207.01-7.3 207.53-8.42 207.84-9.62 208.16-10.82 208.31-12 208.45-13.18 208.45-14.16ZM267.14-10.74L267.14-10.74Q267.14-8.47 266.57-6.74 265.99-5 264.96-3.74 263.92-2.47 262.5-1.61 261.09-0.76 259.41-0.24 257.74 0.27 255.87 0.49 254.01 0.71 252.08 0.71L252.08 0.71Q249.54 0.71 247.39 0.33 245.24-0.05 243.35-0.87 241.46-1.68 239.71-2.98 237.97-4.27 236.23-6.13L236.23-6.13 241.21-11.18Q241.9-9.5 243.09-8.07 244.29-6.64 245.72-5.62 247.15-4.59 248.68-4 250.22-3.42 251.59-3.42L251.59-3.42Q253.2-3.42 254.62-3.65 256.03-3.88 257.08-4.42 258.13-4.96 258.73-5.85 259.33-6.74 259.33-8.08L259.33-8.08Q259.33-9.11 258.86-9.84 258.4-10.57 257.66-11.1 256.91-11.62 255.96-11.99 255.01-12.35 254.02-12.61 253.03-12.87 252.08-13.07 251.12-13.28 250.39-13.5L250.39-13.5Q248.95-13.92 247.39-14.39 245.83-14.87 244.31-15.48 242.8-16.09 241.44-16.88 240.09-17.68 239.06-18.76 238.04-19.85 237.43-21.28 236.82-22.71 236.82-24.56L236.82-24.56Q236.82-26.78 237.37-28.5 237.92-30.22 238.92-31.49 239.92-32.76 241.29-33.63 242.65-34.5 244.29-35.02 245.92-35.55 247.77-35.78 249.61-36.01 251.54-36.01L251.54-36.01Q254.18-36.01 256.34-35.52 258.5-35.03 260.33-34.13 262.16-33.23 263.69-31.97 265.21-30.71 266.55-29.17L266.55-29.17 261.57-24.12Q260.99-25.88 259.95-27.29 258.91-28.71 257.64-29.72 256.37-30.74 254.98-31.29 253.59-31.84 252.3-31.84L252.3-31.84Q250.61-31.84 249.2-31.6 247.78-31.37 246.77-30.85 245.75-30.32 245.19-29.43 244.63-28.54 244.63-27.22L244.63-27.22Q244.63-26.17 245.05-25.44 245.46-24.71 246.16-24.19 246.85-23.68 247.73-23.35 248.61-23.02 249.55-22.78 250.49-22.53 251.41-22.35 252.32-22.17 253.08-21.95L253.08-21.95Q254.54-21.53 256.15-21.07 257.77-20.61 259.33-19.98 260.89-19.36 262.31-18.55 263.72-17.75 264.8-16.64 265.87-15.53 266.51-14.07 267.14-12.62 267.14-10.74ZM282.89-24.93L282.89 0 274.61 0 274.61-24.93 269.48-24.93 269.48-28.2 274.61-28.2 274.61-38.57 282.89-38.57 282.89-28.2 291.43-28.2 291.43-24.93 282.89-24.93ZM322.75-28.2L322.75 0 314.5 0 314.5-3.37Q313.03-1.37 310.97-0.4 308.91 0.56 306.44 0.56L306.44 0.56Q303.22 0.56 300.68-0.59 298.14-1.73 296.38-3.72 294.63-5.71 293.7-8.4 292.77-11.08 292.77-14.16L292.77-14.16Q292.77-17.24 293.7-19.92 294.63-22.61 296.38-24.6 298.14-26.59 300.68-27.73 303.22-28.88 306.44-28.88L306.44-28.88Q308.08-28.88 309.56-28.39 311.03-27.91 312.26-27.01 313.5-26.12 314.44-24.87 315.38-23.61 315.91-22.07L315.91-22.07 319.58-28.2 322.75-28.2ZM314.45-14.16L314.45-14.16Q314.45-15.26 314.34-16.48 314.23-17.7 313.96-18.9 313.69-20.09 313.22-21.18 312.74-22.27 312-23.11 311.25-23.95 310.2-24.44 309.15-24.93 307.76-24.93L307.76-24.93Q306.37-24.93 305.34-24.43 304.32-23.93 303.59-23.08 302.85-22.24 302.38-21.14 301.9-20.04 301.63-18.85 301.36-17.65 301.25-16.44 301.14-15.23 301.14-14.16L301.14-14.16Q301.14-13.09 301.25-11.87 301.36-10.64 301.63-9.45 301.9-8.25 302.38-7.15 302.85-6.05 303.59-5.21 304.32-4.37 305.34-3.87 306.37-3.37 307.76-3.37L307.76-3.37Q309.03-3.37 310.02-3.89 311.01-4.42 311.75-5.3 312.5-6.18 313.01-7.3 313.52-8.42 313.84-9.62 314.16-10.82 314.3-12 314.45-13.18 314.45-14.16ZM353.61-25.71L353.61-25.71 348.97-18.02Q348.68-18.99 348.21-20.21 347.75-21.44 347.06-22.5 346.38-23.56 345.43-24.28 344.48-25 343.23-25L343.23-25Q342.08-25 341.24-24.41 340.4-23.83 339.81-22.89 339.23-21.95 338.85-20.76 338.47-19.58 338.26-18.37 338.06-17.16 337.98-16.05 337.91-14.94 337.91-14.14L337.91-14.14 337.91 0 329.63 0 329.63-28.2 332.81-28.2 336.15-21.63Q336.84-23.22 337.71-24.55 338.59-25.88 339.74-26.84 340.89-27.81 342.34-28.34 343.79-28.88 345.62-28.88L345.62-28.88Q346.58-28.88 347.75-28.72 348.92-28.56 350.04-28.19 351.17-27.81 352.12-27.2 353.07-26.59 353.61-25.71ZM367.67-24.93L367.67 0 359.39 0 359.39-24.93 354.26-24.93 354.26-28.2 359.39-28.2 359.39-38.57 367.67-38.57 367.67-28.2 376.21-28.2 376.21-24.93 367.67-24.93ZM377.94-12.06L377.94-12.06Q377.94-13.99 378.27-16.06 378.6-18.14 379.23-20.21 379.85-22.29 380.73-24.32 381.61-26.34 382.7-28.2L382.7-28.2 388.73-28.2Q388.12-26.37 387.65-24.38 387.17-22.39 386.84-20.4 386.51-18.41 386.33-16.5 386.15-14.6 386.15-12.96L386.15-12.96Q386.15-12.01 386.23-10.93 386.32-9.84 386.54-8.75 386.76-7.67 387.16-6.67 387.56-5.66 388.2-4.9 388.83-4.13 389.75-3.67 390.66-3.22 391.91-3.22L391.91-3.22Q393.13-3.22 394.09-3.77 395.06-4.32 395.79-5.21 396.52-6.1 397.04-7.25 397.55-8.4 397.88-9.61 398.21-10.82 398.37-11.98 398.52-13.13 398.52-14.06L398.52-14.06 398.52-28.2 406.78-28.2 406.78 0 403.6 0 399.82-6.57Q399.11-4.93 398.1-3.6 397.08-2.27 395.79-1.32 394.5-0.37 392.92 0.15 391.35 0.66 389.52 0.66L389.52 0.66Q386.59 0.66 384.41-0.29 382.24-1.25 380.8-2.93 379.36-4.61 378.65-6.95 377.94-9.28 377.94-12.06ZM443.64-14.16L443.64-14.16Q443.64-11.08 442.71-8.4 441.78-5.71 440.03-3.72 438.27-1.73 435.73-0.59 433.19 0.56 429.97 0.56L429.97 0.56Q427.5 0.56 425.44-0.4 423.38-1.37 421.91-3.37L421.91-3.37 421.91 13.01 413.66 13.01 413.66-28.2 416.83-28.2 420.49-22.07Q421.03-23.61 421.97-24.87 422.91-26.12 424.14-27.01 425.38-27.91 426.85-28.39 428.33-28.88 429.97-28.88L429.97-28.88Q433.19-28.88 435.73-27.73 438.27-26.59 440.03-24.6 441.78-22.61 442.71-19.92 443.64-17.24 443.64-14.16ZM435.27-14.16L435.27-14.16Q435.27-15.23 435.16-16.44 435.05-17.65 434.78-18.85 434.51-20.04 434.03-21.14 433.56-22.24 432.82-23.08 432.09-23.93 431.05-24.43 430.02-24.93 428.65-24.93L428.65-24.93Q427.23-24.93 426.2-24.44 425.16-23.95 424.41-23.11 423.67-22.27 423.19-21.18 422.72-20.09 422.45-18.9 422.18-17.7 422.07-16.48 421.96-15.26 421.96-14.16L421.96-14.16Q421.96-13.18 422.11-12 422.25-10.82 422.57-9.62 422.89-8.42 423.4-7.3 423.91-6.18 424.66-5.3 425.4-4.42 426.39-3.89 427.38-3.37 428.65-3.37L428.65-3.37Q430.04-3.37 431.07-3.87 432.09-4.37 432.82-5.21 433.56-6.05 434.03-7.15 434.51-8.25 434.78-9.45 435.05-10.64 435.16-11.87 435.27-13.09 435.27-14.16ZM473.2-9.01L473.2-9.01Q473.2-7.15 472.67-5.71 472.13-4.27 471.2-3.21 470.27-2.15 469-1.43 467.73-0.71 466.28-0.27 464.83 0.17 463.24 0.37 461.65 0.56 460.09 0.56L460.09 0.56Q457.99 0.56 456.38 0.29 454.77 0.02 453.3-0.57 451.84-1.17 450.39-2.12 448.93-3.08 447.15-4.44L447.15-4.44 451.96-8.37Q452.62-7.13 453.71-6.12 454.79-5.1 455.97-4.37 457.14-3.64 458.24-3.25 459.34-2.86 460.02-2.86L460.02-2.86Q460.58-2.86 461.29-2.89 462-2.93 462.73-3.04 463.46-3.15 464.17-3.37 464.88-3.59 465.43-3.97 465.98-4.35 466.31-4.92 466.63-5.49 466.63-6.3L466.63-6.3Q466.63-7.13 466.21-7.75 465.78-8.37 465.1-8.84 464.41-9.3 463.53-9.62 462.66-9.94 461.76-10.18 460.87-10.42 460.04-10.61 459.21-10.79 458.6-10.96L458.6-10.96Q457.48-11.28 456.23-11.61 454.99-11.94 453.77-12.37 452.55-12.79 451.44-13.38 450.33-13.96 449.48-14.78 448.64-15.6 448.14-16.71 447.64-17.82 447.64-19.31L447.64-19.31Q447.64-22.05 448.73-23.89 449.81-25.73 451.6-26.84 453.38-27.95 455.65-28.42 457.92-28.88 460.26-28.88L460.26-28.88Q461.87-28.88 463.66-28.55 465.44-28.22 467.12-27.58 468.81-26.93 470.27-26 471.74-25.07 472.71-23.88L472.71-23.88 467.9-19.92Q467.37-21.39 466.5-22.44 465.63-23.49 464.62-24.16 463.61-24.83 462.55-25.15 461.48-25.46 460.58-25.46L460.58-25.46Q459.7-25.46 458.6-25.39 457.5-25.32 456.54-24.98 455.58-24.63 454.9-23.94 454.23-23.24 454.23-22.02L454.23-22.02Q454.23-21.14 454.64-20.52 455.04-19.9 455.7-19.45 456.36-18.99 457.2-18.69 458.04-18.38 458.92-18.15 459.8-17.92 460.63-17.75 461.46-17.58 462.12-17.38L462.12-17.38Q463.24-17.07 464.5-16.74 465.76-16.41 466.98-15.98 468.2-15.55 469.33-14.98 470.47-14.4 471.32-13.57 472.18-12.74 472.69-11.63 473.2-10.52 473.2-9.01ZM486.41-3.66L486.41-3.66Q486.41-2.54 486.11-1.37 485.82-0.2 485.3 0.92 484.77 2.03 484.06 3.02 483.36 4 482.53 4.76L482.53 4.76 479.01 2.91Q479.52 2.51 480.05 1.88 480.57 1.25 480.67 0.61L480.67 0.61Q479.96 0.39 479.39-0.02 478.81-0.44 478.4-1.01 477.98-1.59 477.75-2.26 477.52-2.93 477.52-3.66L477.52-3.66Q477.52-4.57 477.87-5.38 478.23-6.2 478.83-6.8 479.43-7.4 480.23-7.75 481.04-8.11 481.96-8.11L481.96-8.11Q482.89-8.11 483.7-7.75 484.5-7.4 485.11-6.8 485.72-6.2 486.07-5.38 486.41-4.57 486.41-3.66ZM516.9-35.16L516.9 0 507.2 0 507.2-35.16 516.9-35.16ZM552.2-28.2L552.2-3.39Q552.2-0.02 551.2 2.95 550.19 5.93 548.29 8.17 546.39 10.4 543.61 11.71 540.84 13.01 537.3 13.01L537.3 13.01Q535.35 13.01 533.36 12.57 531.37 12.13 529.6 11.22 527.83 10.3 526.43 8.9 525.02 7.5 524.22 5.59L524.22 5.59 527.78 4.25Q528.25 5.44 528.99 6.45 529.74 7.45 530.71 8.17 531.69 8.89 532.86 9.29 534.03 9.69 535.33 9.69L535.33 9.69Q537.77 9.69 539.42 8.69 541.06 7.69 542.06 6.08 543.07 4.47 543.5 2.43 543.94 0.39 543.94-1.71L543.94-1.71 543.94-3.37Q542.48-1.37 540.42-0.4 538.35 0.56 535.89 0.56L535.89 0.56Q532.66 0.56 530.13-0.59 527.59-1.73 525.83-3.72 524.07-5.71 523.14-8.4 522.22-11.08 522.22-14.16L522.22-14.16Q522.22-17.24 523.14-19.92 524.07-22.61 525.83-24.6 527.59-26.59 530.13-27.73 532.66-28.88 535.89-28.88L535.89-28.88Q537.52-28.88 539-28.39 540.48-27.91 541.71-27.01 542.94-26.12 543.88-24.87 544.82-23.61 545.36-22.07L545.36-22.07 549.02-28.2 552.2-28.2ZM543.9-14.16L543.9-14.16Q543.9-15.26 543.79-16.48 543.68-17.7 543.41-18.9 543.14-20.09 542.66-21.18 542.19-22.27 541.44-23.11 540.7-23.95 539.65-24.44 538.6-24.93 537.21-24.93L537.21-24.93Q535.81-24.93 534.79-24.43 533.76-23.93 533.03-23.08 532.3-22.24 531.82-21.14 531.35-20.04 531.08-18.85 530.81-17.65 530.7-16.44 530.59-15.23 530.59-14.16L530.59-14.16Q530.59-13.09 530.7-11.87 530.81-10.64 531.08-9.45 531.35-8.25 531.82-7.15 532.3-6.05 533.03-5.21 533.76-4.37 534.79-3.87 535.81-3.37 537.21-3.37L537.21-3.37Q538.48-3.37 539.46-3.89 540.45-4.42 541.2-5.3 541.94-6.18 542.45-7.3 542.97-8.42 543.28-9.62 543.6-10.82 543.75-12 543.9-13.18 543.9-14.16ZM587.91-16.16L587.91-16.16Q587.91-13.31 587.22-10.21 586.52-7.1 585.27-4.13 584.03-1.15 582.3 1.48 580.56 4.1 578.49 6.01L578.49 6.01 575.39 4.32Q576.05 3.1 576.63 1.59 577.22 0.07 577.69-1.62 578.17-3.32 578.55-5.13 578.93-6.93 579.18-8.7 579.44-10.47 579.57-12.15 579.71-13.82 579.71-15.26L579.71-15.26Q579.71-16.21 579.63-17.3 579.56-18.38 579.33-19.47 579.1-20.56 578.71-21.56 578.32-22.56 577.67-23.32 577.02-24.07 576.11-24.54 575.19-25 573.95-25L573.95-25Q572.73-25 571.77-24.45 570.82-23.9 570.09-23.01 569.36-22.12 568.83-20.97 568.31-19.82 567.98-18.62 567.65-17.41 567.5-16.24 567.35-15.06 567.35-14.14L567.35-14.14 567.35 0 559.08 0 559.08-28.2 562.25-28.2 566.04-21.63Q566.72-23.27 567.75-24.61 568.77-25.95 570.06-26.9 571.36-27.86 572.93-28.37 574.51-28.88 576.34-28.88L576.34-28.88Q579.27-28.88 581.44-27.93 583.61-26.98 585.05-25.28 586.5-23.58 587.2-21.25 587.91-18.92 587.91-16.16ZM602.02-35.01L602.02-35.01Q602.02-34.08 601.67-33.25 601.31-32.42 600.7-31.81 600.09-31.2 599.26-30.85 598.43-30.49 597.5-30.49L597.5-30.49Q596.58-30.49 595.76-30.85 594.94-31.2 594.33-31.81 593.72-32.42 593.37-33.25 593.01-34.08 593.01-35.01L593.01-35.01Q593.01-35.94 593.37-36.76 593.72-37.57 594.33-38.18 594.94-38.79 595.76-39.15 596.58-39.5 597.5-39.5L597.5-39.5Q598.43-39.5 599.26-39.15 600.09-38.79 600.7-38.18 601.31-37.57 601.67-36.76 602.02-35.94 602.02-35.01ZM601.65-28.17L601.65 0 593.38 0 593.38-28.17 601.65-28.17ZM619.18-24.93L619.18 0 610.9 0 610.9-24.93 605.78-24.93 605.78-28.2 610.9-28.2 610.9-38.57 619.18-38.57 619.18-28.2 627.73-28.2 627.73-24.93 619.18-24.93ZM640.22-35.01L640.22-35.01Q640.22-34.08 639.87-33.25 639.52-32.42 638.9-31.81 638.29-31.2 637.46-30.85 636.63-30.49 635.71-30.49L635.71-30.49Q634.78-30.49 633.96-30.85 633.14-31.2 632.53-31.81 631.92-32.42 631.57-33.25 631.21-34.08 631.21-35.01L631.21-35.01Q631.21-35.94 631.57-36.76 631.92-37.57 632.53-38.18 633.14-38.79 633.96-39.15 634.78-39.5 635.71-39.5L635.71-39.5Q636.63-39.5 637.46-39.15 638.29-38.79 638.9-38.18 639.52-37.57 639.87-36.76 640.22-35.94 640.22-35.01ZM639.86-28.17L639.86 0 631.58 0 631.58-28.17 639.86-28.17ZM675.6-16.16L675.6-16.16Q675.6-13.31 674.9-10.21 674.21-7.1 672.96-4.13 671.71-1.15 669.98 1.48 668.25 4.1 666.17 6.01L666.17 6.01 663.07 4.32Q663.73 3.1 664.32 1.59 664.9 0.07 665.38-1.62 665.86-3.32 666.23-5.13 666.61-6.93 666.87-8.7 667.12-10.47 667.26-12.15 667.39-13.82 667.39-15.26L667.39-15.26Q667.39-16.21 667.32-17.3 667.25-18.38 667.02-19.47 666.78-20.56 666.39-21.56 666-22.56 665.35-23.32 664.71-24.07 663.79-24.54 662.88-25 661.63-25L661.63-25Q660.41-25 659.46-24.45 658.51-23.9 657.77-23.01 657.04-22.12 656.52-20.97 655.99-19.82 655.66-18.62 655.33-17.41 655.19-16.24 655.04-15.06 655.04-14.14L655.04-14.14 655.04 0 646.76 0 646.76-28.2 649.94-28.2 653.72-21.63Q654.41-23.27 655.43-24.61 656.46-25.95 657.75-26.9 659.04-27.86 660.62-28.37 662.19-28.88 664.02-28.88L664.02-28.88Q666.95-28.88 669.13-27.93 671.3-26.98 672.74-25.28 674.18-23.58 674.89-21.25 675.6-18.92 675.6-16.16ZM709.43-28.2L709.43-3.39Q709.43-0.02 708.43 2.95 707.43 5.93 705.53 8.17 703.62 10.4 700.85 11.71 698.08 13.01 694.54 13.01L694.54 13.01Q692.59 13.01 690.6 12.57 688.61 12.13 686.84 11.22 685.07 10.3 683.66 8.9 682.26 7.5 681.45 5.59L681.45 5.59 685.02 4.25Q685.48 5.44 686.23 6.45 686.97 7.45 687.95 8.17 688.92 8.89 690.1 9.29 691.27 9.69 692.56 9.69L692.56 9.69Q695 9.69 696.65 8.69 698.3 7.69 699.3 6.08 700.3 4.47 700.74 2.43 701.18 0.39 701.18-1.71L701.18-1.71 701.18-3.37Q699.72-1.37 697.65-0.4 695.59 0.56 693.12 0.56L693.12 0.56Q689.9 0.56 687.36-0.59 684.82-1.73 683.06-3.72 681.31-5.71 680.38-8.4 679.45-11.08 679.45-14.16L679.45-14.16Q679.45-17.24 680.38-19.92 681.31-22.61 683.06-24.6 684.82-26.59 687.36-27.73 689.9-28.88 693.12-28.88L693.12-28.88Q694.76-28.88 696.24-28.39 697.71-27.91 698.95-27.01 700.18-26.12 701.12-24.87 702.06-23.61 702.6-22.07L702.6-22.07 706.26-28.2 709.43-28.2ZM701.13-14.16L701.13-14.16Q701.13-15.26 701.02-16.48 700.91-17.7 700.64-18.9 700.37-20.09 699.9-21.18 699.42-22.27 698.68-23.11 697.93-23.95 696.88-24.44 695.83-24.93 694.44-24.93L694.44-24.93Q693.05-24.93 692.02-24.43 691-23.93 690.27-23.08 689.53-22.24 689.06-21.14 688.58-20.04 688.31-18.85 688.05-17.65 687.94-16.44 687.83-15.23 687.83-14.16L687.83-14.16Q687.83-13.09 687.94-11.87 688.05-10.64 688.31-9.45 688.58-8.25 689.06-7.15 689.53-6.05 690.27-5.21 691-4.37 692.02-3.87 693.05-3.37 694.44-3.37L694.44-3.37Q695.71-3.37 696.7-3.89 697.69-4.42 698.43-5.3 699.18-6.18 699.69-7.3 700.2-8.42 700.52-9.62 700.84-10.82 700.98-12 701.13-13.18 701.13-14.16ZM759.82-10.74L759.82-10.74Q759.82-8.47 759.24-6.74 758.67-5 757.63-3.74 756.6-2.47 755.18-1.61 753.76-0.76 752.09-0.24 750.42 0.27 748.55 0.49 746.68 0.71 744.75 0.71L744.75 0.71Q742.22 0.71 740.07 0.33 737.92-0.05 736.03-0.87 734.13-1.68 732.39-2.98 730.64-4.27 728.91-6.13L728.91-6.13 733.89-11.18Q734.57-9.5 735.77-8.07 736.97-6.64 738.39-5.62 739.82-4.59 741.36-4 742.9-3.42 744.27-3.42L744.27-3.42Q745.88-3.42 747.29-3.65 748.71-3.88 749.76-4.42 750.81-4.96 751.41-5.85 752.01-6.74 752.01-8.08L752.01-8.08Q752.01-9.11 751.54-9.84 751.08-10.57 750.33-11.1 749.59-11.62 748.64-11.99 747.68-12.35 746.7-12.61 745.71-12.87 744.75-13.07 743.8-13.28 743.07-13.5L743.07-13.5Q741.63-13.92 740.07-14.39 738.5-14.87 736.99-15.48 735.48-16.09 734.12-16.88 732.77-17.68 731.74-18.76 730.72-19.85 730.11-21.28 729.5-22.71 729.5-24.56L729.5-24.56Q729.5-26.78 730.04-28.5 730.59-30.22 731.6-31.49 732.6-32.76 733.96-33.63 735.33-34.5 736.97-35.02 738.6-35.55 740.45-35.78 742.29-36.01 744.22-36.01L744.22-36.01Q746.85-36.01 749.01-35.52 751.18-35.03 753.01-34.13 754.84-33.23 756.36-31.97 757.89-30.71 759.23-29.17L759.23-29.17 754.25-24.12Q753.67-25.88 752.63-27.29 751.59-28.71 750.32-29.72 749.05-30.74 747.66-31.29 746.27-31.84 744.97-31.84L744.97-31.84Q743.29-31.84 741.87-31.6 740.46-31.37 739.44-30.85 738.43-30.32 737.87-29.43 737.31-28.54 737.31-27.22L737.31-27.22Q737.31-26.17 737.72-25.44 738.14-24.71 738.83-24.19 739.53-23.68 740.41-23.35 741.29-23.02 742.23-22.78 743.17-22.53 744.08-22.35 745-22.17 745.76-21.95L745.76-21.95Q747.22-21.53 748.83-21.07 750.44-20.61 752.01-19.98 753.57-19.36 754.98-18.55 756.4-17.75 757.47-16.64 758.55-15.53 759.18-14.07 759.82-12.62 759.82-10.74ZM763.62-12.06L763.62-12.06Q763.62-13.99 763.95-16.06 764.28-18.14 764.91-20.21 765.53-22.29 766.41-24.32 767.29-26.34 768.38-28.2L768.38-28.2 774.41-28.2Q773.8-26.37 773.33-24.38 772.85-22.39 772.52-20.4 772.19-18.41 772.01-16.5 771.83-14.6 771.83-12.96L771.83-12.96Q771.83-12.01 771.91-10.93 772-9.84 772.22-8.75 772.44-7.67 772.84-6.67 773.24-5.66 773.88-4.9 774.51-4.13 775.43-3.67 776.34-3.22 777.59-3.22L777.59-3.22Q778.81-3.22 779.77-3.77 780.74-4.32 781.47-5.21 782.2-6.1 782.72-7.25 783.23-8.4 783.56-9.61 783.89-10.82 784.05-11.98 784.2-13.13 784.2-14.06L784.2-14.06 784.2-28.2 792.46-28.2 792.46 0 789.28 0 785.5-6.57Q784.79-4.93 783.78-3.6 782.76-2.27 781.47-1.32 780.18-0.37 778.6 0.15 777.03 0.66 775.2 0.66L775.2 0.66Q772.27 0.66 770.09-0.29 767.92-1.25 766.48-2.93 765.04-4.61 764.33-6.95 763.62-9.28 763.62-12.06ZM825.36-21.22L825.36-21.22 821.8-19.8Q820.95-22.49 818.94-23.93 816.94-25.37 814.13-25.37L814.13-25.37Q812.62-25.37 811.44-24.89 810.25-24.41 809.36-23.58 808.47-22.75 807.85-21.66 807.22-20.56 806.83-19.31 806.44-18.07 806.27-16.74 806.1-15.41 806.1-14.16L806.1-14.16Q806.1-12.82 806.25-11.45 806.39-10.08 806.75-8.83 807.1-7.57 807.69-6.48 808.27-5.4 809.17-4.59 810.06-3.78 811.29-3.32 812.52-2.86 814.13-2.86L814.13-2.86Q815.43-2.86 816.6-3.25 817.77-3.64 818.75-4.35 819.72-5.05 820.48-6.03 821.24-7.01 821.68-8.2L821.68-8.2 825.27-6.88Q824.46-4.96 823.13-3.55 821.8-2.15 820.12-1.23 818.43-0.32 816.5 0.12 814.57 0.56 812.6 0.56L812.6 0.56Q809.4 0.56 806.66-0.52 803.93-1.61 801.94-3.58 799.95-5.54 798.83-8.24 797.7-10.94 797.7-14.16L797.7-14.16Q797.7-17.41 798.81-20.12 799.92-22.83 801.9-24.78 803.88-26.73 806.61-27.81 809.35-28.88 812.6-28.88L812.6-28.88Q814.65-28.88 816.6-28.43 818.55-27.98 820.23-27.04 821.9-26.1 823.23-24.66 824.56-23.22 825.36-21.22ZM856.27-21.22L856.27-21.22 852.71-19.8Q851.85-22.49 849.85-23.93 847.85-25.37 845.04-25.37L845.04-25.37Q843.53-25.37 842.34-24.89 841.16-24.41 840.27-23.58 839.38-22.75 838.75-21.66 838.13-20.56 837.74-19.31 837.35-18.07 837.18-16.74 837.01-15.41 837.01-14.16L837.01-14.16Q837.01-12.82 837.15-11.45 837.3-10.08 837.65-8.83 838.01-7.57 838.59-6.48 839.18-5.4 840.07-4.59 840.96-3.78 842.2-3.32 843.43-2.86 845.04-2.86L845.04-2.86Q846.33-2.86 847.51-3.25 848.68-3.64 849.65-4.35 850.63-5.05 851.39-6.03 852.14-7.01 852.58-8.2L852.58-8.2 856.17-6.88Q855.37-4.96 854.04-3.55 852.71-2.15 851.02-1.23 849.34-0.32 847.41 0.12 845.48 0.56 843.5 0.56L843.5 0.56Q840.3 0.56 837.57-0.52 834.83-1.61 832.84-3.58 830.86-5.54 829.73-8.24 828.61-10.94 828.61-14.16L828.61-14.16Q828.61-17.41 829.72-20.12 830.83-22.83 832.81-24.78 834.79-26.73 837.52-27.81 840.25-28.88 843.5-28.88L843.5-28.88Q845.55-28.88 847.51-28.43 849.46-27.98 851.13-27.04 852.8-26.1 854.13-24.66 855.46-23.22 856.27-21.22ZM867.94-13.38L867.94-13.38Q869.45-13.04 870.96-12.84 872.48-12.65 874.02-12.65L874.02-12.65Q875.63-12.65 877.01-12.95 878.39-13.26 879.4-13.98 880.41-14.7 881-15.89 881.59-17.09 881.59-18.87L881.59-18.87Q881.59-20.31 881.19-21.51 880.8-22.71 880.03-23.56 879.27-24.41 878.14-24.89 877.02-25.37 875.53-25.37L875.53-25.37Q874.14-25.37 873.03-24.85 871.92-24.34 871.07-23.47 870.23-22.61 869.63-21.46 869.04-20.31 868.65-19.07 868.25-17.82 868.08-16.55 867.91-15.28 867.91-14.16L867.91-14.16Q867.91-13.96 867.91-13.77 867.91-13.57 867.94-13.38ZM888.27-18.95L888.27-18.95Q888.27-17.21 887.71-15.86 887.15-14.5 886.19-13.48 885.22-12.45 883.95-11.74 882.68-11.04 881.24-10.58 879.8-10.13 878.28-9.94 876.75-9.74 875.31-9.74L875.31-9.74Q873.48-9.74 871.7-10 869.92-10.25 868.18-10.82L868.18-10.82Q868.45-9.2 869.04-7.75 869.62-6.3 870.6-5.21 871.58-4.13 873-3.49 874.43-2.86 876.38-2.86L876.38-2.86Q877.68-2.86 878.85-3.25 880.02-3.64 881-4.35 881.98-5.05 882.72-6.03 883.46-7.01 883.93-8.2L883.93-8.2 887.49-6.88Q886.69-4.96 885.28-3.55 883.88-2.15 882.11-1.23 880.34-0.32 878.35 0.12 876.36 0.56 874.41 0.56L874.41 0.56Q871.18 0.56 868.45-0.52 865.72-1.61 863.74-3.56 861.76-5.52 860.64-8.23 859.51-10.94 859.51-14.16L859.51-14.16Q859.51-17.38 860.64-20.09 861.76-22.8 863.74-24.76 865.72-26.71 868.45-27.8 871.18-28.88 874.41-28.88L874.41-28.88Q875.97-28.88 877.61-28.66 879.24-28.44 880.78-27.97 882.32-27.49 883.68-26.73 885.05-25.98 886.07-24.87 887.08-23.75 887.68-22.29 888.27-20.83 888.27-18.95ZM917.69-9.01L917.69-9.01Q917.69-7.15 917.15-5.71 916.62-4.27 915.69-3.21 914.76-2.15 913.49-1.43 912.22-0.71 910.77-0.27 909.32 0.17 907.73 0.37 906.14 0.56 904.58 0.56L904.58 0.56Q902.48 0.56 900.87 0.29 899.26 0.02 897.79-0.57 896.33-1.17 894.88-2.12 893.42-3.08 891.64-4.44L891.64-4.44 896.45-8.37Q897.11-7.13 898.2-6.12 899.28-5.1 900.45-4.37 901.63-3.64 902.73-3.25 903.82-2.86 904.51-2.86L904.51-2.86Q905.07-2.86 905.78-2.89 906.48-2.93 907.22-3.04 907.95-3.15 908.66-3.37 909.37-3.59 909.92-3.97 910.46-4.35 910.79-4.92 911.12-5.49 911.12-6.3L911.12-6.3Q911.12-7.13 910.7-7.75 910.27-8.37 909.59-8.84 908.9-9.3 908.02-9.62 907.14-9.94 906.25-10.18 905.36-10.42 904.53-10.61 903.7-10.79 903.09-10.96L903.09-10.96Q901.97-11.28 900.72-11.61 899.48-11.94 898.26-12.37 897.04-12.79 895.93-13.38 894.81-13.96 893.97-14.78 893.13-15.6 892.63-16.71 892.13-17.82 892.13-19.31L892.13-19.31Q892.13-22.05 893.22-23.89 894.3-25.73 896.08-26.84 897.87-27.95 900.14-28.42 902.41-28.88 904.75-28.88L904.75-28.88Q906.36-28.88 908.15-28.55 909.93-28.22 911.61-27.58 913.3-26.93 914.76-26 916.23-25.07 917.2-23.88L917.2-23.88 912.39-19.92Q911.86-21.39 910.99-22.44 910.12-23.49 909.11-24.16 908.1-24.83 907.03-25.15 905.97-25.46 905.07-25.46L905.07-25.46Q904.19-25.46 903.09-25.39 901.99-25.32 901.03-24.98 900.06-24.63 899.39-23.94 898.72-23.24 898.72-22.02L898.72-22.02Q898.72-21.14 899.12-20.52 899.53-19.9 900.19-19.45 900.85-18.99 901.69-18.69 902.53-18.38 903.41-18.15 904.29-17.92 905.12-17.75 905.95-17.58 906.61-17.38L906.61-17.38Q907.73-17.07 908.99-16.74 910.24-16.41 911.47-15.98 912.69-15.55 913.82-14.98 914.96-14.4 915.81-13.57 916.67-12.74 917.18-11.63 917.69-10.52 917.69-9.01ZM947.16-9.01L947.16-9.01Q947.16-7.15 946.62-5.71 946.08-4.27 945.15-3.21 944.23-2.15 942.96-1.43 941.69-0.71 940.23-0.27 938.78 0.17 937.2 0.37 935.61 0.56 934.05 0.56L934.05 0.56Q931.95 0.56 930.33 0.29 928.72 0.02 927.26-0.57 925.79-1.17 924.34-2.12 922.89-3.08 921.11-4.44L921.11-4.44 925.92-8.37Q926.58-7.13 927.66-6.12 928.75-5.1 929.92-4.37 931.09-3.64 932.19-3.25 933.29-2.86 933.97-2.86L933.97-2.86Q934.53-2.86 935.24-2.89 935.95-2.93 936.68-3.04 937.41-3.15 938.12-3.37 938.83-3.59 939.38-3.97 939.93-4.35 940.26-4.92 940.59-5.49 940.59-6.3L940.59-6.3Q940.59-7.13 940.16-7.75 939.73-8.37 939.05-8.84 938.37-9.3 937.49-9.62 936.61-9.94 935.72-10.18 934.83-10.42 934-10.61 933.17-10.79 932.56-10.96L932.56-10.96Q931.43-11.28 930.19-11.61 928.94-11.94 927.72-12.37 926.5-12.79 925.39-13.38 924.28-13.96 923.44-14.78 922.6-15.6 922.1-16.71 921.59-17.82 921.59-19.31L921.59-19.31Q921.59-22.05 922.68-23.89 923.77-25.73 925.55-26.84 927.33-27.95 929.6-28.42 931.87-28.88 934.22-28.88L934.22-28.88Q935.83-28.88 937.61-28.55 939.39-28.22 941.08-27.58 942.76-26.93 944.23-26 945.69-25.07 946.67-23.88L946.67-23.88 941.86-19.92Q941.32-21.39 940.45-22.44 939.59-23.49 938.57-24.16 937.56-24.83 936.5-25.15 935.44-25.46 934.53-25.46L934.53-25.46Q933.66-25.46 932.56-25.39 931.46-25.32 930.49-24.98 929.53-24.63 928.86-23.94 928.19-23.24 928.19-22.02L928.19-22.02Q928.19-21.14 928.59-20.52 928.99-19.9 929.65-19.45 930.31-18.99 931.15-18.69 932-18.38 932.87-18.15 933.75-17.92 934.58-17.75 935.41-17.58 936.07-17.38L936.07-17.38Q937.2-17.07 938.45-16.74 939.71-16.41 940.93-15.98 942.15-15.55 943.29-14.98 944.42-14.4 945.28-13.57 946.13-12.74 946.64-11.63 947.16-10.52 947.16-9.01ZM951.84-37.6L962.29-37.6 959.56-9.64 954.55-9.64 951.84-37.6ZM961.51-3.66L961.51-3.66Q961.51-2.73 961.16-1.92 960.8-1.1 960.2-0.5 959.6 0.1 958.79 0.45 957.97 0.81 957.07 0.81L957.07 0.81Q956.14 0.81 955.32 0.45 954.5 0.1 953.9-0.5 953.31-1.1 952.95-1.92 952.6-2.73 952.6-3.66L952.6-3.66Q952.6-4.57 952.95-5.38 953.31-6.2 953.9-6.8 954.5-7.4 955.32-7.75 956.14-8.11 957.07-8.11L957.07-8.11Q957.97-8.11 958.79-7.75 959.6-7.4 960.2-6.8 960.8-6.2 961.16-5.38 961.51-4.57 961.51-3.66ZM978.79-35.16L987.75-35.16 986.24-22.9 980.31-22.9 978.79-35.16ZM967.81-35.16L976.74-35.16 975.25-22.9 969.29-22.9 967.81-35.16Z" opacity="1" transform="matrix(1,0,0,1,0,0)" fill="black" class="slogan-text-1" id="SvgjsPath1456"></path></svg></g></svg></g></svg></g></svg></g></svg></g></svg></g></svg></g><path d="M199.002 88.847L199.002 25.732 3.265 25.732 3.265 221.468 199.002 221.468 199.002 158.353 195.788 158.353 195.788 218.254 6.48 218.254 6.48 28.946 195.788 28.946 195.788 88.847Z" fill="black" stroke="transparent"></path></svg></g><defs><mask></mask></defs></svg><rect width="395.52" height="247.2" fill="black" stroke="none" visibility="hidden"></rect></g></mask></svg><rect width="395.52" height="247.2" fill="black" stroke="none" visibility="hidden"></rect></g></mask><linearGradient x1="0" x2="1" y1="0.5" y2="0.5" id="0326a5c0-ad79-4673-9df7-c6d797d9d5f4"><stop stop-color="#fff72e" offset="0"></stop><stop stop-color="#deae29" offset="1"></stop></linearGradient></svg><rect width="395.52" height="247.2" fill="none" stroke="none" visibility="hidden"></rect></g></svg></g></svg>