<svg width="211" height="128" viewBox="0 0 211 128" fill="none" xmlns="http://www.w3.org/2000/svg">
<g clip-path="url(#clip0_285_660)">
<rect width="211" height="128" rx="8" fill="#5182FE"/>
<path d="M146.768 72.0424C142.267 34.9167 155.336 7.07114 162.433 -2.21093L225.952 -6.94501L217.083 39.7795C206.338 50.4801 177.231 71.9135 146.768 72.0424Z" fill="white" fill-opacity="0.07"/>
<path d="M168.7 44.8061C136.38 25.9924 122.061 -1.23134 118.941 -12.4915L153.495 -66L185.403 -30.7334C187.452 -15.7078 186.98 20.436 168.7 44.8061Z" fill="white" fill-opacity="0.07"/>
<path d="M173.108 48.4902C199.061 21.5639 228.906 14.1217 240.585 13.7665L284.354 60.042L242.517 82.6589C227.435 81.0799 192.438 72.0355 173.108 48.4902Z" fill="white" fill-opacity="0.07"/>
</g>
<defs>
<clipPath id="clip0_285_660">
<rect width="211" height="128" rx="8" fill="white"/>
</clipPath>
</defs>
</svg>
