<svg width="296" height="158" viewBox="0 0 296 158" fill="none" xmlns="http://www.w3.org/2000/svg">
<rect width="296" height="158" rx="12" fill="white"/>
<rect x="117.5" y="95.5" width="94" height="33" rx="2.5" stroke="#979699" stroke-opacity="0.24"/>
<path d="M127.079 117V107.315H133.215V108.485H128.353V111.618H132.76V112.788H128.353V117H127.079ZM137.523 117.156C136.847 117.156 136.245 116.996 135.716 116.675C135.188 116.354 134.772 115.917 134.468 115.362C134.165 114.799 134.013 114.17 134.013 113.477C134.013 112.775 134.161 112.151 134.455 111.605C134.759 111.059 135.166 110.63 135.677 110.318C136.197 109.997 136.778 109.837 137.419 109.837C137.939 109.837 138.399 109.932 138.797 110.123C139.205 110.305 139.547 110.556 139.824 110.877C140.11 111.189 140.327 111.549 140.474 111.956C140.63 112.355 140.708 112.771 140.708 113.204C140.708 113.299 140.7 113.408 140.682 113.529C140.674 113.642 140.661 113.75 140.643 113.854H134.897V112.814H139.941L139.369 113.282C139.447 112.831 139.404 112.428 139.239 112.073C139.075 111.718 138.832 111.436 138.511 111.228C138.191 111.02 137.827 110.916 137.419 110.916C137.012 110.916 136.639 111.02 136.301 111.228C135.963 111.436 135.699 111.735 135.508 112.125C135.326 112.506 135.253 112.961 135.287 113.49C135.253 114.001 135.331 114.452 135.521 114.842C135.721 115.223 135.998 115.522 136.353 115.739C136.717 115.947 137.112 116.051 137.536 116.051C138.004 116.051 138.399 115.943 138.719 115.726C139.04 115.509 139.3 115.232 139.499 114.894L140.513 115.414C140.375 115.735 140.158 116.029 139.863 116.298C139.577 116.558 139.235 116.766 138.836 116.922C138.446 117.078 138.009 117.156 137.523 117.156ZM145.912 117.156C145.348 117.156 144.833 117.03 144.365 116.779C143.905 116.528 143.55 116.172 143.299 115.713L143.468 115.505V117H142.285V107.159H143.494V111.501L143.312 111.202C143.572 110.786 143.927 110.457 144.378 110.214C144.828 109.963 145.344 109.837 145.925 109.837C146.583 109.837 147.173 109.997 147.693 110.318C148.221 110.639 148.637 111.076 148.941 111.631C149.244 112.177 149.396 112.801 149.396 113.503C149.396 114.188 149.244 114.807 148.941 115.362C148.637 115.917 148.221 116.354 147.693 116.675C147.173 116.996 146.579 117.156 145.912 117.156ZM145.821 115.986C146.263 115.986 146.657 115.878 147.004 115.661C147.35 115.444 147.619 115.15 147.81 114.777C148.009 114.396 148.109 113.971 148.109 113.503C148.109 113.018 148.009 112.593 147.81 112.229C147.619 111.856 147.35 111.562 147.004 111.345C146.657 111.12 146.263 111.007 145.821 111.007C145.379 111.007 144.98 111.115 144.625 111.332C144.278 111.549 144.001 111.848 143.793 112.229C143.593 112.602 143.494 113.026 143.494 113.503C143.494 113.971 143.593 114.396 143.793 114.777C144.001 115.15 144.278 115.444 144.625 115.661C144.98 115.878 145.379 115.986 145.821 115.986ZM152.994 117V116.116L155.672 113.217C156.201 112.654 156.621 112.19 156.933 111.826C157.254 111.462 157.488 111.137 157.635 110.851C157.782 110.565 157.856 110.262 157.856 109.941C157.856 109.412 157.7 109.005 157.388 108.719C157.076 108.433 156.664 108.29 156.153 108.29C155.633 108.29 155.191 108.442 154.827 108.745C154.463 109.04 154.212 109.46 154.073 110.006L152.916 109.707C153.029 109.187 153.237 108.736 153.54 108.355C153.843 107.974 154.22 107.679 154.671 107.471C155.122 107.263 155.616 107.159 156.153 107.159C156.742 107.159 157.258 107.276 157.7 107.51C158.151 107.735 158.502 108.052 158.753 108.459C159.013 108.866 159.143 109.339 159.143 109.876C159.143 110.231 159.069 110.578 158.922 110.916C158.775 111.254 158.558 111.614 158.272 111.995C157.986 112.368 157.613 112.801 157.154 113.295L154.762 115.895H159.351V117H152.994ZM164.793 117.156C164.022 117.156 163.346 116.948 162.765 116.532C162.193 116.107 161.747 115.522 161.426 114.777C161.106 114.023 160.945 113.148 160.945 112.151C160.945 111.154 161.106 110.283 161.426 109.538C161.747 108.784 162.193 108.199 162.765 107.783C163.337 107.367 164.009 107.159 164.78 107.159C165.552 107.159 166.223 107.367 166.795 107.783C167.367 108.199 167.814 108.784 168.134 109.538C168.464 110.283 168.628 111.154 168.628 112.151C168.628 113.148 168.468 114.023 168.147 114.777C167.827 115.531 167.376 116.116 166.795 116.532C166.223 116.948 165.556 117.156 164.793 117.156ZM164.793 115.973C165.313 115.973 165.764 115.817 166.145 115.505C166.527 115.184 166.821 114.738 167.029 114.166C167.246 113.594 167.354 112.922 167.354 112.151C167.354 111.38 167.246 110.708 167.029 110.136C166.821 109.564 166.522 109.122 166.132 108.81C165.751 108.498 165.3 108.342 164.78 108.342C164.26 108.342 163.81 108.498 163.428 108.81C163.047 109.122 162.748 109.564 162.531 110.136C162.323 110.708 162.219 111.38 162.219 112.151C162.219 112.914 162.323 113.581 162.531 114.153C162.748 114.725 163.047 115.171 163.428 115.492C163.818 115.813 164.273 115.973 164.793 115.973ZM170.183 117V116.116L172.861 113.217C173.39 112.654 173.81 112.19 174.122 111.826C174.443 111.462 174.677 111.137 174.824 110.851C174.972 110.565 175.045 110.262 175.045 109.941C175.045 109.412 174.889 109.005 174.577 108.719C174.265 108.433 173.854 108.29 173.342 108.29C172.822 108.29 172.38 108.442 172.016 108.745C171.652 109.04 171.401 109.46 171.262 110.006L170.105 109.707C170.218 109.187 170.426 108.736 170.729 108.355C171.033 107.974 171.41 107.679 171.86 107.471C172.311 107.263 172.805 107.159 173.342 107.159C173.932 107.159 174.447 107.276 174.889 107.51C175.34 107.735 175.691 108.052 175.942 108.459C176.202 108.866 176.332 109.339 176.332 109.876C176.332 110.231 176.259 110.578 176.111 110.916C175.964 111.254 175.747 111.614 175.461 111.995C175.175 112.368 174.803 112.801 174.343 113.295L171.951 115.895H176.54V117H170.183ZM177.966 117V116.116L180.644 113.217C181.172 112.654 181.593 112.19 181.905 111.826C182.225 111.462 182.459 111.137 182.607 110.851C182.754 110.565 182.828 110.262 182.828 109.941C182.828 109.412 182.672 109.005 182.36 108.719C182.048 108.433 181.636 108.29 181.125 108.29C180.605 108.29 180.163 108.442 179.799 108.745C179.435 109.04 179.183 109.46 179.045 110.006L177.888 109.707C178 109.187 178.208 108.736 178.512 108.355C178.815 107.974 179.192 107.679 179.643 107.471C180.093 107.263 180.587 107.159 181.125 107.159C181.714 107.159 182.23 107.276 182.672 107.51C183.122 107.735 183.473 108.052 183.725 108.459C183.985 108.866 184.115 109.339 184.115 109.876C184.115 110.231 184.041 110.578 183.894 110.916C183.746 111.254 183.53 111.614 183.244 111.995C182.958 112.368 182.585 112.801 182.126 113.295L179.734 115.895H184.323V117H177.966Z" fill="#9096A2"/>
<path d="M198.192 114.838C198.226 114.888 198.272 114.929 198.326 114.957C198.38 114.986 198.44 115 198.5 115C198.561 115 198.621 114.986 198.674 114.957C198.728 114.929 198.774 114.888 198.808 114.838L202.183 109.963C202.222 109.907 202.245 109.841 202.25 109.773C202.254 109.705 202.239 109.636 202.208 109.576C202.176 109.515 202.128 109.464 202.069 109.429C202.011 109.394 201.944 109.375 201.875 109.375H195.125C195.057 109.375 194.99 109.394 194.932 109.43C194.873 109.465 194.826 109.516 194.794 109.576C194.762 109.637 194.748 109.705 194.752 109.773C194.756 109.841 194.778 109.907 194.817 109.963L198.192 114.838Z" fill="#9096A2"/>
<path d="M123.295 77.18C122.485 77.18 121.765 77.01 121.135 76.67C120.515 76.33 120.03 75.865 119.68 75.275C119.34 74.675 119.17 73.995 119.17 73.235V65.825H120.655V73.205C120.655 73.715 120.765 74.17 120.985 74.57C121.215 74.96 121.525 75.265 121.915 75.485C122.315 75.705 122.775 75.815 123.295 75.815C123.815 75.815 124.27 75.705 124.66 75.485C125.06 75.265 125.37 74.96 125.59 74.57C125.82 74.17 125.935 73.715 125.935 73.205V65.825H127.42V73.235C127.42 73.995 127.245 74.675 126.895 75.275C126.555 75.865 126.075 76.33 125.455 76.67C124.835 77.01 124.115 77.18 123.295 77.18ZM132.566 77.18C131.756 77.18 131.051 76.98 130.451 76.58C129.851 76.18 129.426 75.64 129.176 74.96L130.286 74.42C130.516 74.9 130.831 75.28 131.231 75.56C131.631 75.84 132.076 75.98 132.566 75.98C133.006 75.98 133.371 75.875 133.661 75.665C133.951 75.455 134.096 75.18 134.096 74.84C134.096 74.6 134.026 74.41 133.886 74.27C133.756 74.12 133.596 74.005 133.406 73.925C133.216 73.835 133.041 73.77 132.881 73.73L131.666 73.385C130.936 73.175 130.401 72.875 130.061 72.485C129.731 72.095 129.566 71.64 129.566 71.12C129.566 70.64 129.686 70.225 129.926 69.875C130.176 69.515 130.511 69.235 130.931 69.035C131.361 68.835 131.841 68.735 132.371 68.735C133.081 68.735 133.716 68.915 134.276 69.275C134.846 69.635 135.251 70.14 135.491 70.79L134.351 71.315C134.171 70.895 133.901 70.565 133.541 70.325C133.181 70.075 132.776 69.95 132.326 69.95C131.916 69.95 131.591 70.055 131.351 70.265C131.111 70.465 130.991 70.72 130.991 71.03C130.991 71.26 131.051 71.45 131.171 71.6C131.291 71.74 131.436 71.85 131.606 71.93C131.776 72 131.941 72.06 132.101 72.11L133.421 72.5C134.081 72.69 134.591 72.985 134.951 73.385C135.321 73.785 135.506 74.265 135.506 74.825C135.506 75.275 135.381 75.68 135.131 76.04C134.881 76.4 134.536 76.68 134.096 76.88C133.656 77.08 133.146 77.18 132.566 77.18ZM141.052 77.18C140.272 77.18 139.577 76.995 138.967 76.625C138.357 76.255 137.877 75.75 137.527 75.11C137.177 74.46 137.002 73.735 137.002 72.935C137.002 72.125 137.172 71.405 137.512 70.775C137.862 70.145 138.332 69.65 138.922 69.29C139.522 68.92 140.192 68.735 140.932 68.735C141.532 68.735 142.062 68.845 142.522 69.065C142.992 69.275 143.387 69.565 143.707 69.935C144.037 70.295 144.287 70.71 144.457 71.18C144.637 71.64 144.727 72.12 144.727 72.62C144.727 72.73 144.717 72.855 144.697 72.995C144.687 73.125 144.672 73.25 144.652 73.37H138.022V72.17H143.842L143.182 72.71C143.272 72.19 143.222 71.725 143.032 71.315C142.842 70.905 142.562 70.58 142.192 70.34C141.822 70.1 141.402 69.98 140.932 69.98C140.462 69.98 140.032 70.1 139.642 70.34C139.252 70.58 138.947 70.925 138.727 71.375C138.517 71.815 138.432 72.34 138.472 72.95C138.432 73.54 138.522 74.06 138.742 74.51C138.972 74.95 139.292 75.295 139.702 75.545C140.122 75.785 140.577 75.905 141.067 75.905C141.607 75.905 142.062 75.78 142.432 75.53C142.802 75.28 143.102 74.96 143.332 74.57L144.502 75.17C144.342 75.54 144.092 75.88 143.752 76.19C143.422 76.49 143.027 76.73 142.567 76.91C142.117 77.09 141.612 77.18 141.052 77.18ZM146.546 77V68.915H147.911V70.4L147.761 70.19C147.951 69.73 148.241 69.39 148.631 69.17C149.021 68.94 149.496 68.825 150.056 68.825H150.551V70.145H149.846C149.276 70.145 148.816 70.325 148.466 70.685C148.116 71.035 147.941 71.535 147.941 72.185V77H146.546ZM154.685 77.18C153.875 77.18 153.17 76.98 152.57 76.58C151.97 76.18 151.545 75.64 151.295 74.96L152.405 74.42C152.635 74.9 152.95 75.28 153.35 75.56C153.75 75.84 154.195 75.98 154.685 75.98C155.125 75.98 155.49 75.875 155.78 75.665C156.07 75.455 156.215 75.18 156.215 74.84C156.215 74.6 156.145 74.41 156.005 74.27C155.875 74.12 155.715 74.005 155.525 73.925C155.335 73.835 155.16 73.77 155 73.73L153.785 73.385C153.055 73.175 152.52 72.875 152.18 72.485C151.85 72.095 151.685 71.64 151.685 71.12C151.685 70.64 151.805 70.225 152.045 69.875C152.295 69.515 152.63 69.235 153.05 69.035C153.48 68.835 153.96 68.735 154.49 68.735C155.2 68.735 155.835 68.915 156.395 69.275C156.965 69.635 157.37 70.14 157.61 70.79L156.47 71.315C156.29 70.895 156.02 70.565 155.66 70.325C155.3 70.075 154.895 69.95 154.445 69.95C154.035 69.95 153.71 70.055 153.47 70.265C153.23 70.465 153.11 70.72 153.11 71.03C153.11 71.26 153.17 71.45 153.29 71.6C153.41 71.74 153.555 71.85 153.725 71.93C153.895 72 154.06 72.06 154.22 72.11L155.54 72.5C156.2 72.69 156.71 72.985 157.07 73.385C157.44 73.785 157.625 74.265 157.625 74.825C157.625 75.275 157.5 75.68 157.25 76.04C157 76.4 156.655 76.68 156.215 76.88C155.775 77.08 155.265 77.18 154.685 77.18ZM167.549 77.18C166.759 77.18 166.019 77.04 165.329 76.76C164.639 76.47 164.034 76.065 163.514 75.545C163.004 75.025 162.604 74.415 162.314 73.715C162.024 73.005 161.879 72.235 161.879 71.405C161.879 70.565 162.024 69.795 162.314 69.095C162.604 68.395 163.004 67.785 163.514 67.265C164.034 66.745 164.634 66.345 165.314 66.065C166.004 65.785 166.749 65.645 167.549 65.645C168.349 65.645 169.089 65.79 169.769 66.08C170.459 66.36 171.059 66.76 171.569 67.28C172.089 67.79 172.494 68.395 172.784 69.095C173.084 69.795 173.234 70.565 173.234 71.405C173.234 72.235 173.084 73.005 172.784 73.715C172.494 74.415 172.089 75.025 171.569 75.545C171.059 76.065 170.459 76.47 169.769 76.76C169.089 77.04 168.349 77.18 167.549 77.18ZM167.549 75.815C168.169 75.815 168.734 75.705 169.244 75.485C169.754 75.255 170.194 74.94 170.564 74.54C170.944 74.13 171.234 73.66 171.434 73.13C171.644 72.59 171.749 72.015 171.749 71.405C171.749 70.795 171.644 70.225 171.434 69.695C171.234 69.165 170.944 68.7 170.564 68.3C170.194 67.89 169.754 67.575 169.244 67.355C168.734 67.125 168.169 67.01 167.549 67.01C166.939 67.01 166.379 67.125 165.869 67.355C165.359 67.575 164.914 67.89 164.534 68.3C164.164 68.7 163.874 69.165 163.664 69.695C163.454 70.225 163.349 70.795 163.349 71.405C163.349 72.015 163.454 72.59 163.664 73.13C163.874 73.66 164.164 74.13 164.534 74.54C164.914 74.94 165.359 75.255 165.869 75.485C166.379 75.705 166.939 75.815 167.549 75.815ZM175.213 77V68.915H176.578V70.49L176.353 70.355C176.553 69.845 176.873 69.45 177.313 69.17C177.763 68.88 178.288 68.735 178.888 68.735C179.468 68.735 179.983 68.865 180.433 69.125C180.893 69.385 181.253 69.745 181.513 70.205C181.783 70.665 181.918 71.185 181.918 71.765V77H180.508V72.215C180.508 71.765 180.428 71.385 180.268 71.075C180.108 70.765 179.878 70.525 179.578 70.355C179.288 70.175 178.953 70.085 178.573 70.085C178.193 70.085 177.853 70.175 177.553 70.355C177.263 70.525 177.033 70.77 176.863 71.09C176.693 71.4 176.608 71.775 176.608 72.215V77H175.213ZM188.099 77.18C187.449 77.18 186.854 77.035 186.314 76.745C185.784 76.455 185.374 76.045 185.084 75.515L185.279 75.275V77H183.914V65.645H185.309V70.655L185.099 70.31C185.399 69.83 185.809 69.45 186.329 69.17C186.849 68.88 187.444 68.735 188.114 68.735C188.874 68.735 189.554 68.92 190.154 69.29C190.764 69.66 191.244 70.165 191.594 70.805C191.944 71.435 192.119 72.155 192.119 72.965C192.119 73.755 191.944 74.47 191.594 75.11C191.244 75.75 190.764 76.255 190.154 76.625C189.554 76.995 188.869 77.18 188.099 77.18ZM187.994 75.83C188.504 75.83 188.959 75.705 189.359 75.455C189.759 75.205 190.069 74.865 190.289 74.435C190.519 73.995 190.634 73.505 190.634 72.965C190.634 72.405 190.519 71.915 190.289 71.495C190.069 71.065 189.759 70.725 189.359 70.475C188.959 70.215 188.504 70.085 187.994 70.085C187.484 70.085 187.024 70.21 186.614 70.46C186.214 70.71 185.894 71.055 185.654 71.495C185.424 71.925 185.309 72.415 185.309 72.965C185.309 73.505 185.424 73.995 185.654 74.435C185.894 74.865 186.214 75.205 186.614 75.455C187.024 75.705 187.484 75.83 187.994 75.83ZM197.788 77.18C197.008 77.18 196.303 77 195.673 76.64C195.043 76.27 194.543 75.765 194.173 75.125C193.803 74.485 193.618 73.76 193.618 72.95C193.618 72.14 193.798 71.42 194.158 70.79C194.528 70.16 195.028 69.66 195.658 69.29C196.288 68.92 196.998 68.735 197.788 68.735C198.568 68.735 199.273 68.92 199.903 69.29C200.533 69.65 201.028 70.145 201.388 70.775C201.758 71.405 201.943 72.13 201.943 72.95C201.943 73.77 201.753 74.5 201.373 75.14C200.993 75.77 200.488 76.27 199.858 76.64C199.238 77 198.548 77.18 197.788 77.18ZM197.788 75.83C198.288 75.83 198.738 75.705 199.138 75.455C199.548 75.205 199.868 74.86 200.098 74.42C200.338 73.98 200.458 73.49 200.458 72.95C200.458 72.4 200.338 71.915 200.098 71.495C199.868 71.065 199.548 70.725 199.138 70.475C198.738 70.215 198.288 70.085 197.788 70.085C197.278 70.085 196.818 70.215 196.408 70.475C196.008 70.725 195.688 71.065 195.448 71.495C195.208 71.915 195.088 72.4 195.088 72.95C195.088 73.49 195.208 73.98 195.448 74.42C195.688 74.86 196.008 75.205 196.408 75.455C196.818 75.705 197.278 75.83 197.788 75.83ZM206.133 77.18C205.603 77.18 205.133 77.085 204.723 76.895C204.323 76.695 204.008 76.425 203.778 76.085C203.548 75.735 203.433 75.335 203.433 74.885C203.433 74.455 203.523 74.07 203.703 73.73C203.893 73.38 204.183 73.085 204.573 72.845C204.973 72.605 205.473 72.435 206.073 72.335L209.073 71.84V73.01L206.388 73.46C205.868 73.55 205.488 73.715 205.248 73.955C205.018 74.195 204.903 74.49 204.903 74.84C204.903 75.17 205.033 75.445 205.293 75.665C205.563 75.885 205.898 75.995 206.298 75.995C206.808 75.995 207.248 75.89 207.618 75.68C207.998 75.46 208.293 75.165 208.503 74.795C208.723 74.425 208.833 74.015 208.833 73.565V71.51C208.833 71.07 208.668 70.715 208.338 70.445C208.018 70.165 207.593 70.025 207.063 70.025C206.603 70.025 206.193 70.145 205.833 70.385C205.483 70.615 205.223 70.925 205.053 71.315L203.838 70.685C203.988 70.315 204.228 69.985 204.558 69.695C204.888 69.395 205.273 69.16 205.713 68.99C206.153 68.82 206.613 68.735 207.093 68.735C207.713 68.735 208.258 68.855 208.728 69.095C209.198 69.325 209.563 69.65 209.823 70.07C210.093 70.48 210.228 70.96 210.228 71.51V77H208.863V75.47L209.118 75.56C208.948 75.88 208.718 76.16 208.428 76.4C208.138 76.64 207.798 76.83 207.408 76.97C207.018 77.11 206.593 77.18 206.133 77.18ZM212.391 77V68.915H213.756V70.4L213.606 70.19C213.796 69.73 214.086 69.39 214.476 69.17C214.866 68.94 215.341 68.825 215.901 68.825H216.396V70.145H215.691C215.121 70.145 214.661 70.325 214.311 70.685C213.961 71.035 213.786 71.535 213.786 72.185V77H212.391ZM221.31 77.18C220.55 77.18 219.865 76.995 219.255 76.625C218.655 76.255 218.18 75.75 217.83 75.11C217.48 74.47 217.305 73.755 217.305 72.965C217.305 72.155 217.48 71.435 217.83 70.805C218.18 70.165 218.655 69.66 219.255 69.29C219.865 68.92 220.55 68.735 221.31 68.735C221.98 68.735 222.575 68.88 223.095 69.17C223.615 69.45 224.025 69.83 224.325 70.31L224.1 70.655V65.645H225.51V77H224.145V75.275L224.325 75.515C224.045 76.045 223.635 76.455 223.095 76.745C222.565 77.035 221.97 77.18 221.31 77.18ZM221.43 75.83C221.94 75.83 222.395 75.705 222.795 75.455C223.195 75.205 223.51 74.865 223.74 74.435C223.98 73.995 224.1 73.505 224.1 72.965C224.1 72.415 223.98 71.925 223.74 71.495C223.51 71.055 223.195 70.71 222.795 70.46C222.395 70.21 221.94 70.085 221.43 70.085C220.93 70.085 220.475 70.215 220.065 70.475C219.665 70.725 219.35 71.065 219.12 71.495C218.89 71.915 218.775 72.405 218.775 72.965C218.775 73.505 218.89 73.995 219.12 74.435C219.35 74.865 219.665 75.205 220.065 75.455C220.465 75.705 220.92 75.83 221.43 75.83ZM231.389 77.18C230.609 77.18 229.914 76.995 229.304 76.625C228.694 76.255 228.214 75.75 227.864 75.11C227.514 74.46 227.339 73.735 227.339 72.935C227.339 72.125 227.509 71.405 227.849 70.775C228.199 70.145 228.669 69.65 229.259 69.29C229.859 68.92 230.529 68.735 231.269 68.735C231.869 68.735 232.399 68.845 232.859 69.065C233.329 69.275 233.724 69.565 234.044 69.935C234.374 70.295 234.624 70.71 234.794 71.18C234.974 71.64 235.064 72.12 235.064 72.62C235.064 72.73 235.054 72.855 235.034 72.995C235.024 73.125 235.009 73.25 234.989 73.37H228.359V72.17H234.179L233.519 72.71C233.609 72.19 233.559 71.725 233.369 71.315C233.179 70.905 232.899 70.58 232.529 70.34C232.159 70.1 231.739 69.98 231.269 69.98C230.799 69.98 230.369 70.1 229.979 70.34C229.589 70.58 229.284 70.925 229.064 71.375C228.854 71.815 228.769 72.34 228.809 72.95C228.769 73.54 228.859 74.06 229.079 74.51C229.309 74.95 229.629 75.295 230.039 75.545C230.459 75.785 230.914 75.905 231.404 75.905C231.944 75.905 232.399 75.78 232.769 75.53C233.139 75.28 233.439 74.96 233.669 74.57L234.839 75.17C234.679 75.54 234.429 75.88 234.089 76.19C233.759 76.49 233.364 76.73 232.904 76.91C232.454 77.09 231.949 77.18 231.389 77.18ZM240.558 77.18C239.798 77.18 239.113 76.995 238.503 76.625C237.903 76.255 237.428 75.75 237.078 75.11C236.728 74.47 236.553 73.755 236.553 72.965C236.553 72.155 236.728 71.435 237.078 70.805C237.428 70.165 237.903 69.66 238.503 69.29C239.113 68.92 239.798 68.735 240.558 68.735C241.228 68.735 241.823 68.88 242.343 69.17C242.863 69.45 243.273 69.83 243.573 70.31L243.348 70.655V65.645H244.758V77H243.393V75.275L243.573 75.515C243.293 76.045 242.883 76.455 242.343 76.745C241.813 77.035 241.218 77.18 240.558 77.18ZM240.678 75.83C241.188 75.83 241.643 75.705 242.043 75.455C242.443 75.205 242.758 74.865 242.988 74.435C243.228 73.995 243.348 73.505 243.348 72.965C243.348 72.415 243.228 71.925 242.988 71.495C242.758 71.055 242.443 70.71 242.043 70.46C241.643 70.21 241.188 70.085 240.678 70.085C240.178 70.085 239.723 70.215 239.313 70.475C238.913 70.725 238.598 71.065 238.368 71.495C238.138 71.915 238.023 72.405 238.023 72.965C238.023 73.505 238.138 73.995 238.368 74.435C238.598 74.865 238.913 75.205 239.313 75.455C239.713 75.705 240.168 75.83 240.678 75.83Z" fill="#546FFF"/>
<path d="M126.204 51.336C125.084 51.336 124.029 51.1307 123.04 50.72C122.069 50.3093 121.229 49.7307 120.52 48.984C119.829 48.2373 119.335 47.36 119.036 46.352L121.836 45.288C122.209 46.2773 122.779 47.0427 123.544 47.584C124.309 48.1253 125.196 48.396 126.204 48.396C127.025 48.396 127.735 48.2373 128.332 47.92C128.948 47.6027 129.424 47.1547 129.76 46.576C130.115 45.9973 130.292 45.2973 130.292 44.476C130.292 43.6733 130.115 42.9827 129.76 42.404C129.424 41.8253 128.948 41.3867 128.332 41.088C127.735 40.7893 127.025 40.64 126.204 40.64C125.868 40.64 125.523 40.668 125.168 40.724C124.832 40.78 124.533 40.8547 124.272 40.948L123.544 39.408L129.032 32.94H120.156V30.14H132.728V32.8L127.352 39.24L127.268 38.176C128.519 38.1947 129.62 38.4747 130.572 39.016C131.524 39.5387 132.261 40.2667 132.784 41.2C133.325 42.1147 133.596 43.1787 133.596 44.392C133.596 45.6987 133.279 46.884 132.644 47.948C132.009 48.9933 131.132 49.824 130.012 50.44C128.911 51.0373 127.641 51.336 126.204 51.336ZM145.169 51.336C143.508 51.336 142.052 50.888 140.801 49.992C139.551 49.0773 138.571 47.8173 137.861 46.212C137.171 44.588 136.825 42.7027 136.825 40.556C136.825 38.3907 137.171 36.5053 137.861 34.9C138.571 33.2947 139.541 32.044 140.773 31.148C142.024 30.252 143.48 29.804 145.141 29.804C146.803 29.804 148.249 30.252 149.481 31.148C150.732 32.044 151.703 33.304 152.393 34.928C153.103 36.5333 153.457 38.4093 153.457 40.556C153.457 42.7027 153.112 44.588 152.421 46.212C151.731 47.8173 150.76 49.0773 149.509 49.992C148.277 50.888 146.831 51.336 145.169 51.336ZM145.169 48.312C146.196 48.312 147.083 47.9947 147.829 47.36C148.576 46.7253 149.155 45.8293 149.565 44.672C149.976 43.5147 150.181 42.1427 150.181 40.556C150.181 38.9693 149.976 37.5973 149.565 36.44C149.155 35.2827 148.576 34.3867 147.829 33.752C147.083 33.1173 146.187 32.8 145.141 32.8C144.115 32.8 143.228 33.1173 142.481 33.752C141.735 34.3867 141.156 35.2827 140.745 36.44C140.335 37.5973 140.129 38.9693 140.129 40.556C140.129 42.124 140.335 43.496 140.745 44.672C141.156 45.8293 141.735 46.7253 142.481 47.36C143.247 47.9947 144.143 48.312 145.169 48.312ZM165.212 51.336C163.551 51.336 162.095 50.888 160.844 49.992C159.593 49.0773 158.613 47.8173 157.904 46.212C157.213 44.588 156.868 42.7027 156.868 40.556C156.868 38.3907 157.213 36.5053 157.904 34.9C158.613 33.2947 159.584 32.044 160.816 31.148C162.067 30.252 163.523 29.804 165.184 29.804C166.845 29.804 168.292 30.252 169.524 31.148C170.775 32.044 171.745 33.304 172.436 34.928C173.145 36.5333 173.5 38.4093 173.5 40.556C173.5 42.7027 173.155 44.588 172.464 46.212C171.773 47.8173 170.803 49.0773 169.552 49.992C168.32 50.888 166.873 51.336 165.212 51.336ZM165.212 48.312C166.239 48.312 167.125 47.9947 167.872 47.36C168.619 46.7253 169.197 45.8293 169.608 44.672C170.019 43.5147 170.224 42.1427 170.224 40.556C170.224 38.9693 170.019 37.5973 169.608 36.44C169.197 35.2827 168.619 34.3867 167.872 33.752C167.125 33.1173 166.229 32.8 165.184 32.8C164.157 32.8 163.271 33.1173 162.524 33.752C161.777 34.3867 161.199 35.2827 160.788 36.44C160.377 37.5973 160.172 38.9693 160.172 40.556C160.172 42.124 160.377 43.496 160.788 44.672C161.199 45.8293 161.777 46.7253 162.524 47.36C163.289 47.9947 164.185 48.312 165.212 48.312Z" fill="#2E3D8C"/>
<circle cx="61" cy="57" r="31" fill="#EEF1FF"/>
<path d="M53.0503 58.1447C53.052 58.2764 53.0273 58.4072 52.9776 58.5293C52.928 58.6514 52.8544 58.7623 52.7612 58.8555C52.668 58.9487 52.5571 59.0223 52.435 59.072C52.3129 59.1216 52.1821 59.1463 52.0503 59.1447H46.5503C46.3646 59.1432 46.1827 59.0912 46.0242 58.9943C45.8656 58.8974 45.7364 58.7593 45.6503 58.5947C45.5703 58.427 45.5373 58.2408 45.5549 58.0558C45.5725 57.8709 45.6401 57.6942 45.7503 57.5447C46.6353 56.3567 47.8162 55.4215 49.1753 54.8322C48.5913 54.2976 48.1426 53.6319 47.8661 52.89C47.5897 52.1481 47.4933 51.3512 47.5851 50.5648C47.6768 49.7784 47.954 49.025 48.3938 48.3666C48.8336 47.7083 49.4234 47.1638 50.1148 46.7779C50.8062 46.3921 51.5793 46.176 52.3705 46.1473C53.1617 46.1187 53.9484 46.2783 54.6659 46.6132C55.3834 46.948 56.011 47.4484 56.4973 48.0732C56.9836 48.6981 57.3145 49.4294 57.4628 50.2072C57.4998 50.4097 57.4742 50.6187 57.3893 50.8063C57.3044 50.9939 57.1644 51.1512 56.9878 51.2572C55.3711 52.2159 54.1415 53.7108 53.5128 55.4822C53.2029 56.3355 53.0463 57.2368 53.0503 58.1447V58.1447ZM76.3503 57.5447C75.4653 56.3567 74.2844 55.4215 72.9253 54.8322C73.5093 54.2976 73.958 53.6319 74.2345 52.89C74.511 52.1481 74.6073 51.3512 74.5156 50.5648C74.4239 49.7784 74.1467 49.025 73.7069 48.3666C73.2671 47.7083 72.6772 47.1638 71.9859 46.7779C71.2945 46.3921 70.5214 46.176 69.7302 46.1473C68.9389 46.1187 68.1522 46.2783 67.4348 46.6132C66.7173 46.948 66.0896 47.4484 65.6034 48.0732C65.1171 48.6981 64.7862 49.4294 64.6378 50.2072C64.6009 50.4097 64.6265 50.6187 64.7114 50.8063C64.7962 50.9939 64.9363 51.1512 65.1128 51.2572C66.7317 52.2134 67.962 53.7092 68.5878 55.4822C68.8977 56.3355 69.0543 57.2368 69.0503 58.1447C69.0487 58.2764 69.0734 58.4072 69.123 58.5293C69.1727 58.6514 69.2463 58.7623 69.3395 58.8555C69.4327 58.9487 69.5436 59.0223 69.6657 59.072C69.7878 59.1216 69.9185 59.1463 70.0503 59.1447H75.5503C75.736 59.1447 75.9181 59.0929 76.0761 58.9953C76.234 58.8977 76.3617 58.758 76.4448 58.5919C76.5278 58.4258 76.563 58.2398 76.5463 58.0549C76.5296 57.8699 76.4618 57.6932 76.3503 57.5447ZM64.7003 62.9072C65.6956 62.1444 66.4268 61.0889 66.7913 59.8891C67.1558 58.6893 67.1352 57.4055 66.7324 56.218C66.3297 55.0305 65.565 53.999 64.5459 53.2685C63.5267 52.5379 62.3043 52.1451 61.0503 52.1451C59.7964 52.1451 58.574 52.5379 57.5548 53.2685C56.5356 53.999 55.771 55.0305 55.3682 56.218C54.9655 57.4055 54.9449 58.6893 55.3094 59.8891C55.6739 61.0889 56.4051 62.1444 57.4003 62.9072C55.456 63.7704 53.8797 65.2936 52.9503 67.2072C52.8764 67.3592 52.8433 67.5279 52.8542 67.6967C52.8652 67.8654 52.9198 68.0284 53.0128 68.1697C53.0994 68.3146 53.2221 68.4345 53.3689 68.5178C53.5157 68.601 53.6816 68.6447 53.8503 68.6447H68.2503C68.4191 68.6447 68.585 68.601 68.7318 68.5178C68.8786 68.4345 69.0013 68.3146 69.0878 68.1697C69.1808 68.0284 69.2355 67.8654 69.2464 67.6967C69.2574 67.5279 69.2243 67.3592 69.1503 67.2072C68.221 65.2936 66.6447 63.7704 64.7003 62.9072Z" fill="#546FFF"/>
</svg>
