<svg width="296" height="158" viewBox="0 0 296 158" fill="none" xmlns="http://www.w3.org/2000/svg">
<rect width="296" height="158" rx="12" fill="white"/>
<rect x="117.5" y="95.5" width="94" height="33" rx="2.5" stroke="#979699" stroke-opacity="0.24"/>
<path d="M127.079 117V107.315H133.215V108.485H128.353V111.618H132.76V112.788H128.353V117H127.079ZM137.523 117.156C136.847 117.156 136.245 116.996 135.716 116.675C135.188 116.354 134.772 115.917 134.468 115.362C134.165 114.799 134.013 114.17 134.013 113.477C134.013 112.775 134.161 112.151 134.455 111.605C134.759 111.059 135.166 110.63 135.677 110.318C136.197 109.997 136.778 109.837 137.419 109.837C137.939 109.837 138.399 109.932 138.797 110.123C139.205 110.305 139.547 110.556 139.824 110.877C140.11 111.189 140.327 111.549 140.474 111.956C140.63 112.355 140.708 112.771 140.708 113.204C140.708 113.299 140.7 113.408 140.682 113.529C140.674 113.642 140.661 113.75 140.643 113.854H134.897V112.814H139.941L139.369 113.282C139.447 112.831 139.404 112.428 139.239 112.073C139.075 111.718 138.832 111.436 138.511 111.228C138.191 111.02 137.827 110.916 137.419 110.916C137.012 110.916 136.639 111.02 136.301 111.228C135.963 111.436 135.699 111.735 135.508 112.125C135.326 112.506 135.253 112.961 135.287 113.49C135.253 114.001 135.331 114.452 135.521 114.842C135.721 115.223 135.998 115.522 136.353 115.739C136.717 115.947 137.112 116.051 137.536 116.051C138.004 116.051 138.399 115.943 138.719 115.726C139.04 115.509 139.3 115.232 139.499 114.894L140.513 115.414C140.375 115.735 140.158 116.029 139.863 116.298C139.577 116.558 139.235 116.766 138.836 116.922C138.446 117.078 138.009 117.156 137.523 117.156ZM145.912 117.156C145.348 117.156 144.833 117.03 144.365 116.779C143.905 116.528 143.55 116.172 143.299 115.713L143.468 115.505V117H142.285V107.159H143.494V111.501L143.312 111.202C143.572 110.786 143.927 110.457 144.378 110.214C144.828 109.963 145.344 109.837 145.925 109.837C146.583 109.837 147.173 109.997 147.693 110.318C148.221 110.639 148.637 111.076 148.941 111.631C149.244 112.177 149.396 112.801 149.396 113.503C149.396 114.188 149.244 114.807 148.941 115.362C148.637 115.917 148.221 116.354 147.693 116.675C147.173 116.996 146.579 117.156 145.912 117.156ZM145.821 115.986C146.263 115.986 146.657 115.878 147.004 115.661C147.35 115.444 147.619 115.15 147.81 114.777C148.009 114.396 148.109 113.971 148.109 113.503C148.109 113.018 148.009 112.593 147.81 112.229C147.619 111.856 147.35 111.562 147.004 111.345C146.657 111.12 146.263 111.007 145.821 111.007C145.379 111.007 144.98 111.115 144.625 111.332C144.278 111.549 144.001 111.848 143.793 112.229C143.593 112.602 143.494 113.026 143.494 113.503C143.494 113.971 143.593 114.396 143.793 114.777C144.001 115.15 144.278 115.444 144.625 115.661C144.98 115.878 145.379 115.986 145.821 115.986ZM152.994 117V116.116L155.672 113.217C156.201 112.654 156.621 112.19 156.933 111.826C157.254 111.462 157.488 111.137 157.635 110.851C157.782 110.565 157.856 110.262 157.856 109.941C157.856 109.412 157.7 109.005 157.388 108.719C157.076 108.433 156.664 108.29 156.153 108.29C155.633 108.29 155.191 108.442 154.827 108.745C154.463 109.04 154.212 109.46 154.073 110.006L152.916 109.707C153.029 109.187 153.237 108.736 153.54 108.355C153.843 107.974 154.22 107.679 154.671 107.471C155.122 107.263 155.616 107.159 156.153 107.159C156.742 107.159 157.258 107.276 157.7 107.51C158.151 107.735 158.502 108.052 158.753 108.459C159.013 108.866 159.143 109.339 159.143 109.876C159.143 110.231 159.069 110.578 158.922 110.916C158.775 111.254 158.558 111.614 158.272 111.995C157.986 112.368 157.613 112.801 157.154 113.295L154.762 115.895H159.351V117H152.994ZM164.793 117.156C164.022 117.156 163.346 116.948 162.765 116.532C162.193 116.107 161.747 115.522 161.426 114.777C161.106 114.023 160.945 113.148 160.945 112.151C160.945 111.154 161.106 110.283 161.426 109.538C161.747 108.784 162.193 108.199 162.765 107.783C163.337 107.367 164.009 107.159 164.78 107.159C165.552 107.159 166.223 107.367 166.795 107.783C167.367 108.199 167.814 108.784 168.134 109.538C168.464 110.283 168.628 111.154 168.628 112.151C168.628 113.148 168.468 114.023 168.147 114.777C167.827 115.531 167.376 116.116 166.795 116.532C166.223 116.948 165.556 117.156 164.793 117.156ZM164.793 115.973C165.313 115.973 165.764 115.817 166.145 115.505C166.527 115.184 166.821 114.738 167.029 114.166C167.246 113.594 167.354 112.922 167.354 112.151C167.354 111.38 167.246 110.708 167.029 110.136C166.821 109.564 166.522 109.122 166.132 108.81C165.751 108.498 165.3 108.342 164.78 108.342C164.26 108.342 163.81 108.498 163.428 108.81C163.047 109.122 162.748 109.564 162.531 110.136C162.323 110.708 162.219 111.38 162.219 112.151C162.219 112.914 162.323 113.581 162.531 114.153C162.748 114.725 163.047 115.171 163.428 115.492C163.818 115.813 164.273 115.973 164.793 115.973ZM170.183 117V116.116L172.861 113.217C173.39 112.654 173.81 112.19 174.122 111.826C174.443 111.462 174.677 111.137 174.824 110.851C174.972 110.565 175.045 110.262 175.045 109.941C175.045 109.412 174.889 109.005 174.577 108.719C174.265 108.433 173.854 108.29 173.342 108.29C172.822 108.29 172.38 108.442 172.016 108.745C171.652 109.04 171.401 109.46 171.262 110.006L170.105 109.707C170.218 109.187 170.426 108.736 170.729 108.355C171.033 107.974 171.41 107.679 171.86 107.471C172.311 107.263 172.805 107.159 173.342 107.159C173.932 107.159 174.447 107.276 174.889 107.51C175.34 107.735 175.691 108.052 175.942 108.459C176.202 108.866 176.332 109.339 176.332 109.876C176.332 110.231 176.259 110.578 176.111 110.916C175.964 111.254 175.747 111.614 175.461 111.995C175.175 112.368 174.803 112.801 174.343 113.295L171.951 115.895H176.54V117H170.183ZM177.966 117V116.116L180.644 113.217C181.172 112.654 181.593 112.19 181.905 111.826C182.225 111.462 182.459 111.137 182.607 110.851C182.754 110.565 182.828 110.262 182.828 109.941C182.828 109.412 182.672 109.005 182.36 108.719C182.048 108.433 181.636 108.29 181.125 108.29C180.605 108.29 180.163 108.442 179.799 108.745C179.435 109.04 179.183 109.46 179.045 110.006L177.888 109.707C178 109.187 178.208 108.736 178.512 108.355C178.815 107.974 179.192 107.679 179.643 107.471C180.093 107.263 180.587 107.159 181.125 107.159C181.714 107.159 182.23 107.276 182.672 107.51C183.122 107.735 183.473 108.052 183.725 108.459C183.985 108.866 184.115 109.339 184.115 109.876C184.115 110.231 184.041 110.578 183.894 110.916C183.746 111.254 183.53 111.614 183.244 111.995C182.958 112.368 182.585 112.801 182.126 113.295L179.734 115.895H184.323V117H177.966Z" fill="#9096A2"/>
<path d="M198.192 114.838C198.226 114.888 198.272 114.929 198.326 114.957C198.38 114.986 198.44 115 198.5 115C198.561 115 198.621 114.986 198.674 114.957C198.728 114.929 198.774 114.888 198.808 114.838L202.183 109.963C202.222 109.907 202.245 109.841 202.25 109.773C202.254 109.705 202.239 109.636 202.208 109.576C202.176 109.515 202.128 109.464 202.069 109.429C202.011 109.394 201.944 109.375 201.875 109.375H195.125C195.057 109.375 194.99 109.394 194.932 109.43C194.873 109.465 194.826 109.516 194.794 109.576C194.762 109.637 194.748 109.705 194.752 109.773C194.756 109.841 194.778 109.907 194.817 109.963L198.192 114.838Z" fill="#9096A2"/>
<path d="M119.245 79V67.825H123.19C123.93 67.825 124.58 67.965 125.14 68.245C125.7 68.525 126.135 68.925 126.445 69.445C126.765 69.965 126.925 70.575 126.925 71.275C126.925 71.975 126.765 72.585 126.445 73.105C126.135 73.615 125.7 74.015 125.14 74.305C124.59 74.585 123.94 74.725 123.19 74.725H120.715V79H119.245ZM120.715 73.375H123.235C123.685 73.375 124.075 73.29 124.405 73.12C124.735 72.95 124.99 72.705 125.17 72.385C125.35 72.065 125.44 71.695 125.44 71.275C125.44 70.845 125.35 70.475 125.17 70.165C124.99 69.845 124.735 69.6 124.405 69.43C124.075 69.26 123.685 69.175 123.235 69.175H120.715V73.375ZM128.748 79V70.915H130.113V72.4L129.963 72.19C130.153 71.73 130.443 71.39 130.833 71.17C131.223 70.94 131.698 70.825 132.258 70.825H132.753V72.145H132.048C131.478 72.145 131.018 72.325 130.668 72.685C130.318 73.035 130.143 73.535 130.143 74.185V79H128.748ZM137.832 79.18C137.052 79.18 136.347 79 135.717 78.64C135.087 78.27 134.587 77.765 134.217 77.125C133.847 76.485 133.662 75.76 133.662 74.95C133.662 74.14 133.842 73.42 134.202 72.79C134.572 72.16 135.072 71.66 135.702 71.29C136.332 70.92 137.042 70.735 137.832 70.735C138.612 70.735 139.317 70.92 139.947 71.29C140.577 71.65 141.072 72.145 141.432 72.775C141.802 73.405 141.987 74.13 141.987 74.95C141.987 75.77 141.797 76.5 141.417 77.14C141.037 77.77 140.532 78.27 139.902 78.64C139.282 79 138.592 79.18 137.832 79.18ZM137.832 77.83C138.332 77.83 138.782 77.705 139.182 77.455C139.592 77.205 139.912 76.86 140.142 76.42C140.382 75.98 140.502 75.49 140.502 74.95C140.502 74.4 140.382 73.915 140.142 73.495C139.912 73.065 139.592 72.725 139.182 72.475C138.782 72.215 138.332 72.085 137.832 72.085C137.322 72.085 136.862 72.215 136.452 72.475C136.052 72.725 135.732 73.065 135.492 73.495C135.252 73.915 135.132 74.4 135.132 74.95C135.132 75.49 135.252 75.98 135.492 76.42C135.732 76.86 136.052 77.205 136.452 77.455C136.862 77.705 137.322 77.83 137.832 77.83ZM144.413 79V72.25H142.868V70.915H144.413V70.345C144.413 69.765 144.538 69.275 144.788 68.875C145.048 68.475 145.388 68.17 145.808 67.96C146.238 67.75 146.713 67.645 147.233 67.645C147.343 67.645 147.463 67.655 147.593 67.675C147.733 67.685 147.848 67.7 147.938 67.72V68.965C147.858 68.945 147.763 68.935 147.653 68.935C147.543 68.925 147.458 68.92 147.398 68.92C146.938 68.92 146.558 69.03 146.258 69.25C145.968 69.47 145.823 69.835 145.823 70.345V70.915H150.023V72.25H145.823V79H144.413ZM149.153 79V70.915H150.563V79H149.153ZM155.778 79.09C154.988 79.09 154.378 78.865 153.948 78.415C153.528 77.965 153.318 77.33 153.318 76.51V72.25H151.848V70.915H152.148C152.508 70.915 152.793 70.805 153.003 70.585C153.213 70.365 153.318 70.075 153.318 69.715V69.055H154.713V70.915H156.528V72.25H154.713V76.465C154.713 76.735 154.753 76.97 154.833 77.17C154.923 77.37 155.068 77.53 155.268 77.65C155.468 77.76 155.733 77.815 156.063 77.815C156.133 77.815 156.218 77.81 156.318 77.8C156.428 77.79 156.528 77.78 156.618 77.77V79C156.488 79.03 156.343 79.05 156.183 79.06C156.023 79.08 155.888 79.09 155.778 79.09ZM161.335 79.18C160.525 79.18 159.82 78.98 159.22 78.58C158.62 78.18 158.195 77.64 157.945 76.96L159.055 76.42C159.285 76.9 159.6 77.28 160 77.56C160.4 77.84 160.845 77.98 161.335 77.98C161.775 77.98 162.14 77.875 162.43 77.665C162.72 77.455 162.865 77.18 162.865 76.84C162.865 76.6 162.795 76.41 162.655 76.27C162.525 76.12 162.365 76.005 162.175 75.925C161.985 75.835 161.81 75.77 161.65 75.73L160.435 75.385C159.705 75.175 159.17 74.875 158.83 74.485C158.5 74.095 158.335 73.64 158.335 73.12C158.335 72.64 158.455 72.225 158.695 71.875C158.945 71.515 159.28 71.235 159.7 71.035C160.13 70.835 160.61 70.735 161.14 70.735C161.85 70.735 162.485 70.915 163.045 71.275C163.615 71.635 164.02 72.14 164.26 72.79L163.12 73.315C162.94 72.895 162.67 72.565 162.31 72.325C161.95 72.075 161.545 71.95 161.095 71.95C160.685 71.95 160.36 72.055 160.12 72.265C159.88 72.465 159.76 72.72 159.76 73.03C159.76 73.26 159.82 73.45 159.94 73.6C160.06 73.74 160.205 73.85 160.375 73.93C160.545 74 160.71 74.06 160.87 74.11L162.19 74.5C162.85 74.69 163.36 74.985 163.72 75.385C164.09 75.785 164.275 76.265 164.275 76.825C164.275 77.275 164.15 77.68 163.9 78.04C163.65 78.4 163.305 78.68 162.865 78.88C162.425 79.08 161.915 79.18 161.335 79.18ZM168.859 79V67.825H176.134V69.175H170.329V72.715H175.834V74.065H170.329V77.65H176.134V79H168.859ZM180.161 79.18C179.631 79.18 179.161 79.085 178.751 78.895C178.351 78.695 178.036 78.425 177.806 78.085C177.576 77.735 177.461 77.335 177.461 76.885C177.461 76.455 177.551 76.07 177.731 75.73C177.921 75.38 178.211 75.085 178.601 74.845C179.001 74.605 179.501 74.435 180.101 74.335L183.101 73.84V75.01L180.416 75.46C179.896 75.55 179.516 75.715 179.276 75.955C179.046 76.195 178.931 76.49 178.931 76.84C178.931 77.17 179.061 77.445 179.321 77.665C179.591 77.885 179.926 77.995 180.326 77.995C180.836 77.995 181.276 77.89 181.646 77.68C182.026 77.46 182.321 77.165 182.531 76.795C182.751 76.425 182.861 76.015 182.861 75.565V73.51C182.861 73.07 182.696 72.715 182.366 72.445C182.046 72.165 181.621 72.025 181.091 72.025C180.631 72.025 180.221 72.145 179.861 72.385C179.511 72.615 179.251 72.925 179.081 73.315L177.866 72.685C178.016 72.315 178.256 71.985 178.586 71.695C178.916 71.395 179.301 71.16 179.741 70.99C180.181 70.82 180.641 70.735 181.121 70.735C181.741 70.735 182.286 70.855 182.756 71.095C183.226 71.325 183.591 71.65 183.851 72.07C184.121 72.48 184.256 72.96 184.256 73.51V79H182.891V77.47L183.146 77.56C182.976 77.88 182.746 78.16 182.456 78.4C182.166 78.64 181.826 78.83 181.436 78.97C181.046 79.11 180.621 79.18 180.161 79.18ZM186.419 79V70.915H187.784V72.4L187.634 72.19C187.824 71.73 188.114 71.39 188.504 71.17C188.894 70.94 189.369 70.825 189.929 70.825H190.424V72.145H189.719C189.149 72.145 188.689 72.325 188.339 72.685C187.989 73.035 187.814 73.535 187.814 74.185V79H186.419ZM191.663 79V70.915H193.028V72.49L192.803 72.355C193.003 71.845 193.323 71.45 193.763 71.17C194.213 70.88 194.738 70.735 195.338 70.735C195.918 70.735 196.433 70.865 196.883 71.125C197.343 71.385 197.703 71.745 197.963 72.205C198.233 72.665 198.368 73.185 198.368 73.765V79H196.958V74.215C196.958 73.765 196.878 73.385 196.718 73.075C196.558 72.765 196.328 72.525 196.028 72.355C195.738 72.175 195.403 72.085 195.023 72.085C194.643 72.085 194.303 72.175 194.003 72.355C193.713 72.525 193.483 72.77 193.313 73.09C193.143 73.4 193.058 73.775 193.058 74.215V79H191.663ZM204.084 79.18C203.304 79.18 202.609 78.995 201.999 78.625C201.389 78.255 200.909 77.75 200.559 77.11C200.209 76.46 200.034 75.735 200.034 74.935C200.034 74.125 200.204 73.405 200.544 72.775C200.894 72.145 201.364 71.65 201.954 71.29C202.554 70.92 203.224 70.735 203.964 70.735C204.564 70.735 205.094 70.845 205.554 71.065C206.024 71.275 206.419 71.565 206.739 71.935C207.069 72.295 207.319 72.71 207.489 73.18C207.669 73.64 207.759 74.12 207.759 74.62C207.759 74.73 207.749 74.855 207.729 74.995C207.719 75.125 207.704 75.25 207.684 75.37H201.054V74.17H206.874L206.214 74.71C206.304 74.19 206.254 73.725 206.064 73.315C205.874 72.905 205.594 72.58 205.224 72.34C204.854 72.1 204.434 71.98 203.964 71.98C203.494 71.98 203.064 72.1 202.674 72.34C202.284 72.58 201.979 72.925 201.759 73.375C201.549 73.815 201.464 74.34 201.504 74.95C201.464 75.54 201.554 76.06 201.774 76.51C202.004 76.95 202.324 77.295 202.734 77.545C203.154 77.785 203.609 77.905 204.099 77.905C204.639 77.905 205.094 77.78 205.464 77.53C205.834 77.28 206.134 76.96 206.364 76.57L207.534 77.17C207.374 77.54 207.124 77.88 206.784 78.19C206.454 78.49 206.059 78.73 205.599 78.91C205.149 79.09 204.644 79.18 204.084 79.18ZM213.253 79.18C212.493 79.18 211.808 78.995 211.198 78.625C210.598 78.255 210.123 77.75 209.773 77.11C209.423 76.47 209.248 75.755 209.248 74.965C209.248 74.155 209.423 73.435 209.773 72.805C210.123 72.165 210.598 71.66 211.198 71.29C211.808 70.92 212.493 70.735 213.253 70.735C213.923 70.735 214.518 70.88 215.038 71.17C215.558 71.45 215.968 71.83 216.268 72.31L216.043 72.655V67.645H217.453V79H216.088V77.275L216.268 77.515C215.988 78.045 215.578 78.455 215.038 78.745C214.508 79.035 213.913 79.18 213.253 79.18ZM213.373 77.83C213.883 77.83 214.338 77.705 214.738 77.455C215.138 77.205 215.453 76.865 215.683 76.435C215.923 75.995 216.043 75.505 216.043 74.965C216.043 74.415 215.923 73.925 215.683 73.495C215.453 73.055 215.138 72.71 214.738 72.46C214.338 72.21 213.883 72.085 213.373 72.085C212.873 72.085 212.418 72.215 212.008 72.475C211.608 72.725 211.293 73.065 211.063 73.495C210.833 73.915 210.718 74.405 210.718 74.965C210.718 75.505 210.833 75.995 211.063 76.435C211.293 76.865 211.608 77.205 212.008 77.455C212.408 77.705 212.863 77.83 213.373 77.83Z" fill="#546FFF"/>
<path d="M127.464 51.336C126.157 51.336 124.944 51.0933 123.824 50.608C122.704 50.104 121.752 49.4227 120.968 48.564C120.184 47.7053 119.605 46.716 119.232 45.596L122.032 44.42C122.536 45.708 123.273 46.6973 124.244 47.388C125.215 48.0787 126.335 48.424 127.604 48.424C128.351 48.424 129.004 48.312 129.564 48.088C130.124 47.8453 130.553 47.5093 130.852 47.08C131.169 46.6507 131.328 46.156 131.328 45.596C131.328 44.8307 131.113 44.224 130.684 43.776C130.255 43.328 129.62 42.9733 128.78 42.712L124.86 41.48C123.292 40.9947 122.097 40.2573 121.276 39.268C120.455 38.26 120.044 37.084 120.044 35.74C120.044 34.564 120.333 33.5373 120.912 32.66C121.491 31.764 122.284 31.064 123.292 30.56C124.319 30.056 125.485 29.804 126.792 29.804C128.043 29.804 129.181 30.028 130.208 30.476C131.235 30.9053 132.112 31.5027 132.84 32.268C133.587 33.0333 134.128 33.92 134.464 34.928L131.72 36.132C131.309 35.0307 130.665 34.1813 129.788 33.584C128.929 32.9867 127.931 32.688 126.792 32.688C126.101 32.688 125.495 32.8093 124.972 33.052C124.449 33.276 124.039 33.612 123.74 34.06C123.46 34.4893 123.32 34.9933 123.32 35.572C123.32 36.244 123.535 36.8413 123.964 37.364C124.393 37.8867 125.047 38.2787 125.924 38.54L129.564 39.688C131.225 40.192 132.476 40.92 133.316 41.872C134.156 42.8053 134.576 43.972 134.576 45.372C134.576 46.5293 134.268 47.556 133.652 48.452C133.055 49.348 132.224 50.0573 131.16 50.58C130.096 51.084 128.864 51.336 127.464 51.336ZM126.176 53.8V27.34H128.416V53.8H126.176ZM149.451 51.336C148.089 51.336 146.875 51.0373 145.811 50.44C144.747 49.8427 143.907 49.0213 143.291 47.976C142.694 46.9307 142.395 45.7453 142.395 44.42C142.395 43.7293 142.47 43.0387 142.619 42.348C142.769 41.6573 143.03 40.9387 143.403 40.192C143.795 39.4453 144.318 38.6427 144.971 37.784L150.795 30.14H154.743L147.603 39.38L147.043 39.016C147.305 38.7173 147.585 38.484 147.883 38.316C148.201 38.148 148.527 38.0267 148.863 37.952C149.218 37.8773 149.591 37.84 149.983 37.84C151.234 37.84 152.354 38.1293 153.343 38.708C154.333 39.2867 155.107 40.0707 155.667 41.06C156.246 42.0493 156.535 43.188 156.535 44.476C156.535 45.7827 156.227 46.9587 155.611 48.004C154.995 49.0307 154.155 49.8427 153.091 50.44C152.046 51.0373 150.833 51.336 149.451 51.336ZM149.451 48.396C150.179 48.396 150.823 48.228 151.383 47.892C151.943 47.556 152.391 47.0987 152.727 46.52C153.063 45.9227 153.231 45.2507 153.231 44.504C153.231 43.7387 153.063 43.0667 152.727 42.488C152.41 41.9093 151.962 41.4613 151.383 41.144C150.823 40.808 150.179 40.64 149.451 40.64C148.742 40.64 148.098 40.808 147.519 41.144C146.959 41.4613 146.511 41.9093 146.175 42.488C145.839 43.0667 145.671 43.7387 145.671 44.504C145.671 45.2507 145.839 45.9227 146.175 46.52C146.511 47.0987 146.959 47.556 147.519 47.892C148.098 48.228 148.742 48.396 149.451 48.396ZM167.892 51.336C166.231 51.336 164.775 50.888 163.524 49.992C162.273 49.0773 161.293 47.8173 160.584 46.212C159.893 44.588 159.548 42.7027 159.548 40.556C159.548 38.3907 159.893 36.5053 160.584 34.9C161.293 33.2947 162.264 32.044 163.496 31.148C164.747 30.252 166.203 29.804 167.864 29.804C169.525 29.804 170.972 30.252 172.204 31.148C173.455 32.044 174.425 33.304 175.116 34.928C175.825 36.5333 176.18 38.4093 176.18 40.556C176.18 42.7027 175.835 44.588 175.144 46.212C174.453 47.8173 173.483 49.0773 172.232 49.992C171 50.888 169.553 51.336 167.892 51.336ZM167.892 48.312C168.919 48.312 169.805 47.9947 170.552 47.36C171.299 46.7253 171.877 45.8293 172.288 44.672C172.699 43.5147 172.904 42.1427 172.904 40.556C172.904 38.9693 172.699 37.5973 172.288 36.44C171.877 35.2827 171.299 34.3867 170.552 33.752C169.805 33.1173 168.909 32.8 167.864 32.8C166.837 32.8 165.951 33.1173 165.204 33.752C164.457 34.3867 163.879 35.2827 163.468 36.44C163.057 37.5973 162.852 38.9693 162.852 40.556C162.852 42.124 163.057 43.496 163.468 44.672C163.879 45.8293 164.457 46.7253 165.204 47.36C165.969 47.9947 166.865 48.312 167.892 48.312ZM180.039 51V30.14H183.343V41.452L182.475 41.116L191.911 30.14H196.027L187.683 39.912L187.851 37.56L196.363 51H192.471L186.367 41.452L183.343 44.98V51H180.039Z" fill="#2E3D8C"/>
<circle cx="61" cy="57" r="31" fill="#CEEFDF"/>
<path d="M68.3625 65.3625C67.1038 66.6206 65.5005 67.4773 63.755 67.8243C62.0096 68.1713 60.2004 67.9931 58.5562 67.3122C56.9121 66.6312 55.5067 65.4781 54.5177 63.9986C53.5287 62.5191 53.0006 60.7796 53 59V55C53.0006 53.2204 53.5287 51.4809 54.5177 50.0014C55.5067 48.5219 56.9121 47.3688 58.5562 46.6879C60.2004 46.0069 62.0096 45.8287 63.755 46.1757C65.5005 46.5227 67.1038 47.3794 68.3625 48.6375" stroke="#0AAF60" stroke-width="3" stroke-linecap="round" stroke-linejoin="round"/>
<path d="M50 55H62" stroke="#0AAF60" stroke-width="3" stroke-linecap="round" stroke-linejoin="round"/>
<path d="M50 59H60" stroke="#0AAF60" stroke-width="3" stroke-linecap="round" stroke-linejoin="round"/>
</svg>
