<svg width="296" height="158" viewBox="0 0 296 158" fill="none" xmlns="http://www.w3.org/2000/svg">
<rect width="296" height="158" rx="12" fill="white"/>
<rect x="117.5" y="95.5" width="94" height="33" rx="2.5" stroke="#979699" stroke-opacity="0.24"/>
<path d="M127.079 117V107.315H133.215V108.485H128.353V111.618H132.76V112.788H128.353V117H127.079ZM137.523 117.156C136.847 117.156 136.245 116.996 135.716 116.675C135.188 116.354 134.772 115.917 134.468 115.362C134.165 114.799 134.013 114.17 134.013 113.477C134.013 112.775 134.161 112.151 134.455 111.605C134.759 111.059 135.166 110.63 135.677 110.318C136.197 109.997 136.778 109.837 137.419 109.837C137.939 109.837 138.399 109.932 138.797 110.123C139.205 110.305 139.547 110.556 139.824 110.877C140.11 111.189 140.327 111.549 140.474 111.956C140.63 112.355 140.708 112.771 140.708 113.204C140.708 113.299 140.7 113.408 140.682 113.529C140.674 113.642 140.661 113.75 140.643 113.854H134.897V112.814H139.941L139.369 113.282C139.447 112.831 139.404 112.428 139.239 112.073C139.075 111.718 138.832 111.436 138.511 111.228C138.191 111.02 137.827 110.916 137.419 110.916C137.012 110.916 136.639 111.02 136.301 111.228C135.963 111.436 135.699 111.735 135.508 112.125C135.326 112.506 135.253 112.961 135.287 113.49C135.253 114.001 135.331 114.452 135.521 114.842C135.721 115.223 135.998 115.522 136.353 115.739C136.717 115.947 137.112 116.051 137.536 116.051C138.004 116.051 138.399 115.943 138.719 115.726C139.04 115.509 139.3 115.232 139.499 114.894L140.513 115.414C140.375 115.735 140.158 116.029 139.863 116.298C139.577 116.558 139.235 116.766 138.836 116.922C138.446 117.078 138.009 117.156 137.523 117.156ZM145.912 117.156C145.348 117.156 144.833 117.03 144.365 116.779C143.905 116.528 143.55 116.172 143.299 115.713L143.468 115.505V117H142.285V107.159H143.494V111.501L143.312 111.202C143.572 110.786 143.927 110.457 144.378 110.214C144.828 109.963 145.344 109.837 145.925 109.837C146.583 109.837 147.173 109.997 147.693 110.318C148.221 110.639 148.637 111.076 148.941 111.631C149.244 112.177 149.396 112.801 149.396 113.503C149.396 114.188 149.244 114.807 148.941 115.362C148.637 115.917 148.221 116.354 147.693 116.675C147.173 116.996 146.579 117.156 145.912 117.156ZM145.821 115.986C146.263 115.986 146.657 115.878 147.004 115.661C147.35 115.444 147.619 115.15 147.81 114.777C148.009 114.396 148.109 113.971 148.109 113.503C148.109 113.018 148.009 112.593 147.81 112.229C147.619 111.856 147.35 111.562 147.004 111.345C146.657 111.12 146.263 111.007 145.821 111.007C145.379 111.007 144.98 111.115 144.625 111.332C144.278 111.549 144.001 111.848 143.793 112.229C143.593 112.602 143.494 113.026 143.494 113.503C143.494 113.971 143.593 114.396 143.793 114.777C144.001 115.15 144.278 115.444 144.625 115.661C144.98 115.878 145.379 115.986 145.821 115.986ZM152.994 117V116.116L155.672 113.217C156.201 112.654 156.621 112.19 156.933 111.826C157.254 111.462 157.488 111.137 157.635 110.851C157.782 110.565 157.856 110.262 157.856 109.941C157.856 109.412 157.7 109.005 157.388 108.719C157.076 108.433 156.664 108.29 156.153 108.29C155.633 108.29 155.191 108.442 154.827 108.745C154.463 109.04 154.212 109.46 154.073 110.006L152.916 109.707C153.029 109.187 153.237 108.736 153.54 108.355C153.843 107.974 154.22 107.679 154.671 107.471C155.122 107.263 155.616 107.159 156.153 107.159C156.742 107.159 157.258 107.276 157.7 107.51C158.151 107.735 158.502 108.052 158.753 108.459C159.013 108.866 159.143 109.339 159.143 109.876C159.143 110.231 159.069 110.578 158.922 110.916C158.775 111.254 158.558 111.614 158.272 111.995C157.986 112.368 157.613 112.801 157.154 113.295L154.762 115.895H159.351V117H152.994ZM164.793 117.156C164.022 117.156 163.346 116.948 162.765 116.532C162.193 116.107 161.747 115.522 161.426 114.777C161.106 114.023 160.945 113.148 160.945 112.151C160.945 111.154 161.106 110.283 161.426 109.538C161.747 108.784 162.193 108.199 162.765 107.783C163.337 107.367 164.009 107.159 164.78 107.159C165.552 107.159 166.223 107.367 166.795 107.783C167.367 108.199 167.814 108.784 168.134 109.538C168.464 110.283 168.628 111.154 168.628 112.151C168.628 113.148 168.468 114.023 168.147 114.777C167.827 115.531 167.376 116.116 166.795 116.532C166.223 116.948 165.556 117.156 164.793 117.156ZM164.793 115.973C165.313 115.973 165.764 115.817 166.145 115.505C166.527 115.184 166.821 114.738 167.029 114.166C167.246 113.594 167.354 112.922 167.354 112.151C167.354 111.38 167.246 110.708 167.029 110.136C166.821 109.564 166.522 109.122 166.132 108.81C165.751 108.498 165.3 108.342 164.78 108.342C164.26 108.342 163.81 108.498 163.428 108.81C163.047 109.122 162.748 109.564 162.531 110.136C162.323 110.708 162.219 111.38 162.219 112.151C162.219 112.914 162.323 113.581 162.531 114.153C162.748 114.725 163.047 115.171 163.428 115.492C163.818 115.813 164.273 115.973 164.793 115.973ZM170.183 117V116.116L172.861 113.217C173.39 112.654 173.81 112.19 174.122 111.826C174.443 111.462 174.677 111.137 174.824 110.851C174.972 110.565 175.045 110.262 175.045 109.941C175.045 109.412 174.889 109.005 174.577 108.719C174.265 108.433 173.854 108.29 173.342 108.29C172.822 108.29 172.38 108.442 172.016 108.745C171.652 109.04 171.401 109.46 171.262 110.006L170.105 109.707C170.218 109.187 170.426 108.736 170.729 108.355C171.033 107.974 171.41 107.679 171.86 107.471C172.311 107.263 172.805 107.159 173.342 107.159C173.932 107.159 174.447 107.276 174.889 107.51C175.34 107.735 175.691 108.052 175.942 108.459C176.202 108.866 176.332 109.339 176.332 109.876C176.332 110.231 176.259 110.578 176.111 110.916C175.964 111.254 175.747 111.614 175.461 111.995C175.175 112.368 174.803 112.801 174.343 113.295L171.951 115.895H176.54V117H170.183ZM177.966 117V116.116L180.644 113.217C181.172 112.654 181.593 112.19 181.905 111.826C182.225 111.462 182.459 111.137 182.607 110.851C182.754 110.565 182.828 110.262 182.828 109.941C182.828 109.412 182.672 109.005 182.36 108.719C182.048 108.433 181.636 108.29 181.125 108.29C180.605 108.29 180.163 108.442 179.799 108.745C179.435 109.04 179.183 109.46 179.045 110.006L177.888 109.707C178 109.187 178.208 108.736 178.512 108.355C178.815 107.974 179.192 107.679 179.643 107.471C180.093 107.263 180.587 107.159 181.125 107.159C181.714 107.159 182.23 107.276 182.672 107.51C183.122 107.735 183.473 108.052 183.725 108.459C183.985 108.866 184.115 109.339 184.115 109.876C184.115 110.231 184.041 110.578 183.894 110.916C183.746 111.254 183.53 111.614 183.244 111.995C182.958 112.368 182.585 112.801 182.126 113.295L179.734 115.895H184.323V117H177.966Z" fill="#9096A2"/>
<path d="M198.192 114.838C198.226 114.888 198.272 114.929 198.326 114.957C198.38 114.986 198.44 115 198.5 115C198.561 115 198.621 114.986 198.674 114.957C198.728 114.929 198.774 114.888 198.808 114.838L202.183 109.963C202.222 109.907 202.245 109.841 202.25 109.773C202.254 109.705 202.239 109.636 202.208 109.576C202.176 109.515 202.128 109.464 202.069 109.429C202.011 109.394 201.944 109.375 201.875 109.375H195.125C195.057 109.375 194.99 109.394 194.932 109.43C194.873 109.465 194.826 109.516 194.794 109.576C194.762 109.637 194.748 109.705 194.752 109.773C194.756 109.841 194.778 109.907 194.817 109.963L198.192 114.838Z" fill="#9096A2"/>
<path d="M123.085 79.18C122.375 79.18 121.725 79.05 121.135 78.79C120.545 78.52 120.045 78.155 119.635 77.695C119.225 77.235 118.93 76.72 118.75 76.15L120.025 75.625C120.295 76.345 120.695 76.9 121.225 77.29C121.765 77.67 122.395 77.86 123.115 77.86C123.555 77.86 123.94 77.79 124.27 77.65C124.6 77.51 124.855 77.315 125.035 77.065C125.225 76.805 125.32 76.505 125.32 76.165C125.32 75.695 125.185 75.325 124.915 75.055C124.655 74.775 124.27 74.565 123.76 74.425L121.705 73.795C120.895 73.545 120.275 73.15 119.845 72.61C119.415 72.07 119.2 71.45 119.2 70.75C119.2 70.14 119.345 69.605 119.635 69.145C119.935 68.675 120.345 68.31 120.865 68.05C121.395 67.78 121.995 67.645 122.665 67.645C123.335 67.645 123.94 67.765 124.48 68.005C125.03 68.245 125.495 68.57 125.875 68.98C126.255 69.38 126.535 69.84 126.715 70.36L125.455 70.885C125.215 70.255 124.855 69.78 124.375 69.46C123.895 69.13 123.33 68.965 122.68 68.965C122.28 68.965 121.925 69.035 121.615 69.175C121.315 69.305 121.08 69.5 120.91 69.76C120.75 70.01 120.67 70.31 120.67 70.66C120.67 71.07 120.8 71.435 121.06 71.755C121.32 72.075 121.715 72.32 122.245 72.49L124.12 73.045C125 73.315 125.665 73.7 126.115 74.2C126.565 74.7 126.79 75.32 126.79 76.06C126.79 76.67 126.63 77.21 126.31 77.68C126 78.15 125.565 78.52 125.005 78.79C124.455 79.05 123.815 79.18 123.085 79.18ZM130.928 79.18C130.398 79.18 129.928 79.085 129.518 78.895C129.118 78.695 128.803 78.425 128.573 78.085C128.343 77.735 128.228 77.335 128.228 76.885C128.228 76.455 128.318 76.07 128.498 75.73C128.688 75.38 128.978 75.085 129.368 74.845C129.768 74.605 130.268 74.435 130.868 74.335L133.868 73.84V75.01L131.183 75.46C130.663 75.55 130.283 75.715 130.043 75.955C129.813 76.195 129.698 76.49 129.698 76.84C129.698 77.17 129.828 77.445 130.088 77.665C130.358 77.885 130.693 77.995 131.093 77.995C131.603 77.995 132.043 77.89 132.413 77.68C132.793 77.46 133.088 77.165 133.298 76.795C133.518 76.425 133.628 76.015 133.628 75.565V73.51C133.628 73.07 133.463 72.715 133.133 72.445C132.813 72.165 132.388 72.025 131.858 72.025C131.398 72.025 130.988 72.145 130.628 72.385C130.278 72.615 130.018 72.925 129.848 73.315L128.633 72.685C128.783 72.315 129.023 71.985 129.353 71.695C129.683 71.395 130.068 71.16 130.508 70.99C130.948 70.82 131.408 70.735 131.888 70.735C132.508 70.735 133.053 70.855 133.523 71.095C133.993 71.325 134.358 71.65 134.618 72.07C134.888 72.48 135.023 72.96 135.023 73.51V79H133.658V77.47L133.913 77.56C133.743 77.88 133.513 78.16 133.223 78.4C132.933 78.64 132.593 78.83 132.203 78.97C131.813 79.11 131.388 79.18 130.928 79.18ZM137.185 79V67.645H138.58V79H137.185ZM144.465 79.18C143.685 79.18 142.99 78.995 142.38 78.625C141.77 78.255 141.29 77.75 140.94 77.11C140.59 76.46 140.415 75.735 140.415 74.935C140.415 74.125 140.585 73.405 140.925 72.775C141.275 72.145 141.745 71.65 142.335 71.29C142.935 70.92 143.605 70.735 144.345 70.735C144.945 70.735 145.475 70.845 145.935 71.065C146.405 71.275 146.8 71.565 147.12 71.935C147.45 72.295 147.7 72.71 147.87 73.18C148.05 73.64 148.14 74.12 148.14 74.62C148.14 74.73 148.13 74.855 148.11 74.995C148.1 75.125 148.085 75.25 148.065 75.37H141.435V74.17H147.255L146.595 74.71C146.685 74.19 146.635 73.725 146.445 73.315C146.255 72.905 145.975 72.58 145.605 72.34C145.235 72.1 144.815 71.98 144.345 71.98C143.875 71.98 143.445 72.1 143.055 72.34C142.665 72.58 142.36 72.925 142.14 73.375C141.93 73.815 141.845 74.34 141.885 74.95C141.845 75.54 141.935 76.06 142.155 76.51C142.385 76.95 142.705 77.295 143.115 77.545C143.535 77.785 143.99 77.905 144.48 77.905C145.02 77.905 145.475 77.78 145.845 77.53C146.215 77.28 146.515 76.96 146.745 76.57L147.915 77.17C147.755 77.54 147.505 77.88 147.165 78.19C146.835 78.49 146.44 78.73 145.98 78.91C145.53 79.09 145.025 79.18 144.465 79.18ZM152.854 79.18C152.044 79.18 151.339 78.98 150.739 78.58C150.139 78.18 149.714 77.64 149.464 76.96L150.574 76.42C150.804 76.9 151.119 77.28 151.519 77.56C151.919 77.84 152.364 77.98 152.854 77.98C153.294 77.98 153.659 77.875 153.949 77.665C154.239 77.455 154.384 77.18 154.384 76.84C154.384 76.6 154.314 76.41 154.174 76.27C154.044 76.12 153.884 76.005 153.694 75.925C153.504 75.835 153.329 75.77 153.169 75.73L151.954 75.385C151.224 75.175 150.689 74.875 150.349 74.485C150.019 74.095 149.854 73.64 149.854 73.12C149.854 72.64 149.974 72.225 150.214 71.875C150.464 71.515 150.799 71.235 151.219 71.035C151.649 70.835 152.129 70.735 152.659 70.735C153.369 70.735 154.004 70.915 154.564 71.275C155.134 71.635 155.539 72.14 155.779 72.79L154.639 73.315C154.459 72.895 154.189 72.565 153.829 72.325C153.469 72.075 153.064 71.95 152.614 71.95C152.204 71.95 151.879 72.055 151.639 72.265C151.399 72.465 151.279 72.72 151.279 73.03C151.279 73.26 151.339 73.45 151.459 73.6C151.579 73.74 151.724 73.85 151.894 73.93C152.064 74 152.229 74.06 152.389 74.11L153.709 74.5C154.369 74.69 154.879 74.985 155.239 75.385C155.609 75.785 155.794 76.265 155.794 76.825C155.794 77.275 155.669 77.68 155.419 78.04C155.169 78.4 154.824 78.68 154.384 78.88C153.944 79.08 153.434 79.18 152.854 79.18ZM160.378 79V67.825H161.848V79H160.378ZM164.168 79V70.915H165.533V72.49L165.308 72.355C165.508 71.845 165.828 71.45 166.268 71.17C166.718 70.88 167.243 70.735 167.843 70.735C168.423 70.735 168.938 70.865 169.388 71.125C169.848 71.385 170.208 71.745 170.468 72.205C170.738 72.665 170.873 73.185 170.873 73.765V79H169.463V74.215C169.463 73.765 169.383 73.385 169.223 73.075C169.063 72.765 168.833 72.525 168.533 72.355C168.243 72.175 167.908 72.085 167.528 72.085C167.148 72.085 166.808 72.175 166.508 72.355C166.218 72.525 165.988 72.77 165.818 73.09C165.648 73.4 165.563 73.775 165.563 74.215V79H164.168ZM176.619 79.18C175.829 79.18 175.124 78.995 174.504 78.625C173.894 78.255 173.414 77.75 173.064 77.11C172.714 76.47 172.539 75.75 172.539 74.95C172.539 74.14 172.714 73.42 173.064 72.79C173.414 72.16 173.894 71.66 174.504 71.29C175.124 70.92 175.829 70.735 176.619 70.735C177.149 70.735 177.644 70.83 178.104 71.02C178.564 71.21 178.969 71.465 179.319 71.785C179.669 72.105 179.924 72.48 180.084 72.91L178.839 73.51C178.649 73.09 178.359 72.75 177.969 72.49C177.579 72.22 177.129 72.085 176.619 72.085C176.129 72.085 175.684 72.21 175.284 72.46C174.894 72.71 174.584 73.05 174.354 73.48C174.124 73.91 174.009 74.405 174.009 74.965C174.009 75.505 174.124 75.995 174.354 76.435C174.584 76.865 174.894 77.205 175.284 77.455C175.684 77.705 176.129 77.83 176.619 77.83C177.129 77.83 177.579 77.7 177.969 77.44C178.359 77.17 178.649 76.815 178.839 76.375L180.084 77.005C179.924 77.425 179.669 77.8 179.319 78.13C178.969 78.45 178.564 78.705 178.104 78.895C177.644 79.085 177.149 79.18 176.619 79.18ZM181.907 79V70.915H183.272V72.4L183.122 72.19C183.312 71.73 183.602 71.39 183.992 71.17C184.382 70.94 184.857 70.825 185.417 70.825H185.912V72.145H185.207C184.637 72.145 184.177 72.325 183.827 72.685C183.477 73.035 183.302 73.535 183.302 74.185V79H181.907ZM190.871 79.18C190.091 79.18 189.396 78.995 188.786 78.625C188.176 78.255 187.696 77.75 187.346 77.11C186.996 76.46 186.821 75.735 186.821 74.935C186.821 74.125 186.991 73.405 187.331 72.775C187.681 72.145 188.151 71.65 188.741 71.29C189.341 70.92 190.011 70.735 190.751 70.735C191.351 70.735 191.881 70.845 192.341 71.065C192.811 71.275 193.206 71.565 193.526 71.935C193.856 72.295 194.106 72.71 194.276 73.18C194.456 73.64 194.546 74.12 194.546 74.62C194.546 74.73 194.536 74.855 194.516 74.995C194.506 75.125 194.491 75.25 194.471 75.37H187.841V74.17H193.661L193.001 74.71C193.091 74.19 193.041 73.725 192.851 73.315C192.661 72.905 192.381 72.58 192.011 72.34C191.641 72.1 191.221 71.98 190.751 71.98C190.281 71.98 189.851 72.1 189.461 72.34C189.071 72.58 188.766 72.925 188.546 73.375C188.336 73.815 188.251 74.34 188.291 74.95C188.251 75.54 188.341 76.06 188.561 76.51C188.791 76.95 189.111 77.295 189.521 77.545C189.941 77.785 190.396 77.905 190.886 77.905C191.426 77.905 191.881 77.78 192.251 77.53C192.621 77.28 192.921 76.96 193.151 76.57L194.321 77.17C194.161 77.54 193.911 77.88 193.571 78.19C193.241 78.49 192.846 78.73 192.386 78.91C191.936 79.09 191.431 79.18 190.871 79.18ZM198.633 79.18C198.103 79.18 197.633 79.085 197.223 78.895C196.823 78.695 196.508 78.425 196.278 78.085C196.048 77.735 195.933 77.335 195.933 76.885C195.933 76.455 196.023 76.07 196.203 75.73C196.393 75.38 196.683 75.085 197.073 74.845C197.473 74.605 197.973 74.435 198.573 74.335L201.573 73.84V75.01L198.888 75.46C198.368 75.55 197.988 75.715 197.748 75.955C197.518 76.195 197.403 76.49 197.403 76.84C197.403 77.17 197.533 77.445 197.793 77.665C198.063 77.885 198.398 77.995 198.798 77.995C199.308 77.995 199.748 77.89 200.118 77.68C200.498 77.46 200.793 77.165 201.003 76.795C201.223 76.425 201.333 76.015 201.333 75.565V73.51C201.333 73.07 201.168 72.715 200.838 72.445C200.518 72.165 200.093 72.025 199.563 72.025C199.103 72.025 198.693 72.145 198.333 72.385C197.983 72.615 197.723 72.925 197.553 73.315L196.338 72.685C196.488 72.315 196.728 71.985 197.058 71.695C197.388 71.395 197.773 71.16 198.213 70.99C198.653 70.82 199.113 70.735 199.593 70.735C200.213 70.735 200.758 70.855 201.228 71.095C201.698 71.325 202.063 71.65 202.323 72.07C202.593 72.48 202.728 72.96 202.728 73.51V79H201.363V77.47L201.618 77.56C201.448 77.88 201.218 78.16 200.928 78.4C200.638 78.64 200.298 78.83 199.908 78.97C199.518 79.11 199.093 79.18 198.633 79.18ZM207.786 79.18C206.976 79.18 206.271 78.98 205.671 78.58C205.071 78.18 204.646 77.64 204.396 76.96L205.506 76.42C205.736 76.9 206.051 77.28 206.451 77.56C206.851 77.84 207.296 77.98 207.786 77.98C208.226 77.98 208.591 77.875 208.881 77.665C209.171 77.455 209.316 77.18 209.316 76.84C209.316 76.6 209.246 76.41 209.106 76.27C208.976 76.12 208.816 76.005 208.626 75.925C208.436 75.835 208.261 75.77 208.101 75.73L206.886 75.385C206.156 75.175 205.621 74.875 205.281 74.485C204.951 74.095 204.786 73.64 204.786 73.12C204.786 72.64 204.906 72.225 205.146 71.875C205.396 71.515 205.731 71.235 206.151 71.035C206.581 70.835 207.061 70.735 207.591 70.735C208.301 70.735 208.936 70.915 209.496 71.275C210.066 71.635 210.471 72.14 210.711 72.79L209.571 73.315C209.391 72.895 209.121 72.565 208.761 72.325C208.401 72.075 207.996 71.95 207.546 71.95C207.136 71.95 206.811 72.055 206.571 72.265C206.331 72.465 206.211 72.72 206.211 73.03C206.211 73.26 206.271 73.45 206.391 73.6C206.511 73.74 206.656 73.85 206.826 73.93C206.996 74 207.161 74.06 207.321 74.11L208.641 74.5C209.301 74.69 209.811 74.985 210.171 75.385C210.541 75.785 210.726 76.265 210.726 76.825C210.726 77.275 210.601 77.68 210.351 78.04C210.101 78.4 209.756 78.68 209.316 78.88C208.876 79.08 208.366 79.18 207.786 79.18ZM216.272 79.18C215.492 79.18 214.797 78.995 214.187 78.625C213.577 78.255 213.097 77.75 212.747 77.11C212.397 76.46 212.222 75.735 212.222 74.935C212.222 74.125 212.392 73.405 212.732 72.775C213.082 72.145 213.552 71.65 214.142 71.29C214.742 70.92 215.412 70.735 216.152 70.735C216.752 70.735 217.282 70.845 217.742 71.065C218.212 71.275 218.607 71.565 218.927 71.935C219.257 72.295 219.507 72.71 219.677 73.18C219.857 73.64 219.947 74.12 219.947 74.62C219.947 74.73 219.937 74.855 219.917 74.995C219.907 75.125 219.892 75.25 219.872 75.37H213.242V74.17H219.062L218.402 74.71C218.492 74.19 218.442 73.725 218.252 73.315C218.062 72.905 217.782 72.58 217.412 72.34C217.042 72.1 216.622 71.98 216.152 71.98C215.682 71.98 215.252 72.1 214.862 72.34C214.472 72.58 214.167 72.925 213.947 73.375C213.737 73.815 213.652 74.34 213.692 74.95C213.652 75.54 213.742 76.06 213.962 76.51C214.192 76.95 214.512 77.295 214.922 77.545C215.342 77.785 215.797 77.905 216.287 77.905C216.827 77.905 217.282 77.78 217.652 77.53C218.022 77.28 218.322 76.96 218.552 76.57L219.722 77.17C219.562 77.54 219.312 77.88 218.972 78.19C218.642 78.49 218.247 78.73 217.787 78.91C217.337 79.09 216.832 79.18 216.272 79.18ZM225.441 79.18C224.681 79.18 223.996 78.995 223.386 78.625C222.786 78.255 222.311 77.75 221.961 77.11C221.611 76.47 221.436 75.755 221.436 74.965C221.436 74.155 221.611 73.435 221.961 72.805C222.311 72.165 222.786 71.66 223.386 71.29C223.996 70.92 224.681 70.735 225.441 70.735C226.111 70.735 226.706 70.88 227.226 71.17C227.746 71.45 228.156 71.83 228.456 72.31L228.231 72.655V67.645H229.641V79H228.276V77.275L228.456 77.515C228.176 78.045 227.766 78.455 227.226 78.745C226.696 79.035 226.101 79.18 225.441 79.18ZM225.561 77.83C226.071 77.83 226.526 77.705 226.926 77.455C227.326 77.205 227.641 76.865 227.871 76.435C228.111 75.995 228.231 75.505 228.231 74.965C228.231 74.415 228.111 73.925 227.871 73.495C227.641 73.055 227.326 72.71 226.926 72.46C226.526 72.21 226.071 72.085 225.561 72.085C225.061 72.085 224.606 72.215 224.196 72.475C223.796 72.725 223.481 73.065 223.251 73.495C223.021 73.915 222.906 74.405 222.906 74.965C222.906 75.505 223.021 75.995 223.251 76.435C223.481 76.865 223.796 77.205 224.196 77.455C224.596 77.705 225.051 77.83 225.561 77.83Z" fill="#546FFF"/>
<path d="M119.4 51V48.62L125.112 42.516C126.232 41.3213 127.109 40.36 127.744 39.632C128.397 38.8853 128.864 38.232 129.144 37.672C129.443 37.112 129.592 36.524 129.592 35.908C129.592 34.9 129.284 34.1253 128.668 33.584C128.052 33.024 127.259 32.744 126.288 32.744C125.28 32.744 124.412 33.0333 123.684 33.612C122.956 34.172 122.452 34.9933 122.172 36.076L119.26 35.236C119.484 34.1347 119.932 33.1827 120.604 32.38C121.276 31.5587 122.097 30.924 123.068 30.476C124.057 30.028 125.121 29.804 126.26 29.804C127.585 29.804 128.743 30.056 129.732 30.56C130.721 31.0453 131.487 31.7267 132.028 32.604C132.588 33.4813 132.868 34.4987 132.868 35.656C132.868 36.4213 132.719 37.168 132.42 37.896C132.14 38.6053 131.701 39.3613 131.104 40.164C130.507 40.948 129.741 41.8347 128.808 42.824L123.768 48.2H133.26V51H119.4ZM144.786 51.336C143.125 51.336 141.669 50.888 140.418 49.992C139.168 49.0773 138.188 47.8173 137.478 46.212C136.788 44.588 136.442 42.7027 136.442 40.556C136.442 38.3907 136.788 36.5053 137.478 34.9C138.188 33.2947 139.158 32.044 140.39 31.148C141.641 30.252 143.097 29.804 144.758 29.804C146.42 29.804 147.866 30.252 149.098 31.148C150.349 32.044 151.32 33.304 152.01 34.928C152.72 36.5333 153.074 38.4093 153.074 40.556C153.074 42.7027 152.729 44.588 152.038 46.212C151.348 47.8173 150.377 49.0773 149.126 49.992C147.894 50.888 146.448 51.336 144.786 51.336ZM144.786 48.312C145.813 48.312 146.7 47.9947 147.446 47.36C148.193 46.7253 148.772 45.8293 149.182 44.672C149.593 43.5147 149.798 42.1427 149.798 40.556C149.798 38.9693 149.593 37.5973 149.182 36.44C148.772 35.2827 148.193 34.3867 147.446 33.752C146.7 33.1173 145.804 32.8 144.758 32.8C143.732 32.8 142.845 33.1173 142.098 33.752C141.352 34.3867 140.773 35.2827 140.362 36.44C139.952 37.5973 139.746 38.9693 139.746 40.556C139.746 42.124 139.952 43.496 140.362 44.672C140.773 45.8293 141.352 46.7253 142.098 47.36C142.864 47.9947 143.76 48.312 144.786 48.312ZM158.921 51L175.889 30.14H179.417L162.449 51H158.921ZM162.113 40.724C161.087 40.724 160.163 40.4813 159.341 39.996C158.52 39.492 157.857 38.8293 157.353 38.008C156.868 37.1867 156.625 36.272 156.625 35.264C156.625 34.256 156.868 33.3413 157.353 32.52C157.857 31.68 158.52 31.0173 159.341 30.532C160.163 30.0467 161.087 29.804 162.113 29.804C163.14 29.804 164.064 30.0467 164.885 30.532C165.707 31.0173 166.36 31.68 166.845 32.52C167.331 33.3413 167.573 34.256 167.573 35.264C167.573 36.272 167.331 37.1867 166.845 38.008C166.36 38.8293 165.707 39.492 164.885 39.996C164.064 40.4813 163.14 40.724 162.113 40.724ZM162.113 38.176C162.692 38.176 163.187 38.036 163.597 37.756C164.027 37.476 164.353 37.112 164.577 36.664C164.801 36.216 164.913 35.7493 164.913 35.264C164.913 34.76 164.801 34.2933 164.577 33.864C164.353 33.416 164.027 33.052 163.597 32.772C163.187 32.492 162.692 32.352 162.113 32.352C161.553 32.352 161.059 32.492 160.629 32.772C160.2 33.052 159.864 33.416 159.621 33.864C159.397 34.2933 159.285 34.76 159.285 35.264C159.285 35.7493 159.397 36.216 159.621 36.664C159.864 37.112 160.2 37.476 160.629 37.756C161.059 38.036 161.553 38.176 162.113 38.176ZM176.085 51.336C175.059 51.336 174.125 51.0933 173.285 50.608C172.464 50.104 171.811 49.4413 171.325 48.62C170.84 47.7987 170.597 46.884 170.597 45.876C170.597 44.868 170.84 43.9533 171.325 43.132C171.811 42.292 172.464 41.6293 173.285 41.144C174.125 40.6587 175.059 40.416 176.085 40.416C177.112 40.416 178.036 40.6587 178.857 41.144C179.679 41.6293 180.332 42.292 180.817 43.132C181.303 43.9533 181.545 44.868 181.545 45.876C181.545 46.884 181.303 47.7987 180.817 48.62C180.332 49.4413 179.679 50.104 178.857 50.608C178.036 51.0933 177.112 51.336 176.085 51.336ZM176.085 48.788C176.664 48.788 177.159 48.648 177.569 48.368C177.98 48.088 178.297 47.724 178.521 47.276C178.764 46.828 178.885 46.3613 178.885 45.876C178.885 45.372 178.764 44.9053 178.521 44.476C178.297 44.028 177.98 43.664 177.569 43.384C177.159 43.104 176.664 42.964 176.085 42.964C175.525 42.964 175.031 43.104 174.601 43.384C174.172 43.664 173.836 44.028 173.593 44.476C173.369 44.9053 173.257 45.372 173.257 45.876C173.257 46.3613 173.369 46.828 173.593 47.276C173.836 47.724 174.172 48.088 174.601 48.368C175.031 48.648 175.525 48.788 176.085 48.788Z" fill="#2E3D8C"/>
<circle cx="61" cy="57" r="31" fill="#FFD4D4"/>
<path d="M48.6988 55.8586C47.3613 57.3525 47.3325 59.6062 48.5601 61.1917C50.996 64.3378 53.6622 67.0039 56.8083 69.4398C58.3937 70.6674 60.6474 70.6386 62.1413 69.3011C66.197 65.6697 69.9112 61.8746 73.4957 57.7039C73.8501 57.2917 74.0717 56.7863 74.1214 56.2449C74.3414 53.8507 74.7934 46.953 72.9202 45.0797C71.0469 43.2065 64.1492 43.6584 61.755 43.8784C61.2136 43.9282 60.7082 44.1499 60.2958 44.5042C56.1253 48.0887 52.3303 51.8029 48.6988 55.8586Z" fill="#FF888A" stroke="#FF888A" stroke-width="2"/>
<path d="M63.3847 57.4888C63.4131 56.9541 63.5631 55.976 62.7502 55.2327M62.7502 55.2327C62.4986 55.0027 62.1548 54.7951 61.6867 54.63C60.0112 54.0395 57.9533 56.016 59.4091 57.8252C60.1916 58.7976 60.795 59.0968 60.7382 60.2011C60.6982 60.978 59.9351 61.7896 58.9294 62.0988C58.0556 62.3673 57.0918 62.0117 56.4822 61.3305C55.7379 60.4989 55.8131 59.7148 55.8067 59.3731M62.7502 55.2327L63.6676 54.3152M56.5486 61.4343L55.6772 62.3056" stroke="white" stroke-width="2" stroke-linecap="round" stroke-linejoin="round"/>
<path d="M68.3335 47.6667C69.438 47.6667 70.3335 48.5622 70.3335 49.6667C70.3335 50.7713 69.438 51.6667 68.3335 51.6667C67.229 51.6667 66.3335 50.7713 66.3335 49.6667C66.3335 48.5622 67.229 47.6667 68.3335 47.6667Z" fill="white" stroke="white" stroke-width="2" stroke-linecap="round" stroke-linejoin="round"/>
</svg>
